<svg width="155" height="28" viewBox="0 0 155 28" fill="none" xmlns="http://www.w3.org/2000/svg">
<path d="M29.2861 8.37857C30.9811 6.84517 33.0528 6.09412 35.5326 6.09412C38.0437 6.09412 40.1154 6.84517 41.8104 8.37857C43.5054 9.88068 44.353 11.8522 44.353 14.2618C44.353 16.6402 43.5054 18.6117 41.8104 20.1138C40.1468 21.5846 38.0751 22.3357 35.564 22.3357C33.0528 22.3357 30.9811 21.5846 29.2861 20.1138C27.6225 18.6117 26.775 16.6402 26.775 14.2618C26.775 11.8522 27.6225 9.88068 29.2861 8.37857ZM35.5954 17.9858C37.5729 17.9858 39.1423 16.515 39.1423 14.2618C39.1423 11.9774 37.5729 10.444 35.5954 10.444C33.6178 10.444 32.0484 11.9774 32.0484 14.2618C32.0484 16.515 33.6178 17.9858 35.5954 17.9858Z" fill="white"/>
<path d="M56.2181 6.09412C54.0209 6.09412 52.3572 7.00164 51.29 8.7854H51.2272L51.2586 8.40987V8.19081C51.2586 7.09553 50.5053 6.43835 49.0928 6.43835H44.4472V10.8195H45.6086C46.0794 10.8195 46.2677 11.0386 46.2677 11.4767V21.9601H51.4783V15.0755C51.4783 14.2931 51.5725 13.6047 51.7922 13.0414C52.2945 11.5706 53.3303 10.8195 54.8684 10.8195C56.0298 10.8195 56.5948 11.508 56.5948 12.8536V19.7696C56.5948 21.303 57.254 21.9601 58.792 21.9601H61.8054V11.9148C61.8054 8.00305 59.922 6.09412 56.2181 6.09412Z" fill="white"/>
<path d="M65.5721 0.429932V4.65462H69.9665V0.429932H65.5721ZM68.1774 6.43837H63.3434V10.8195H64.5048C64.9443 10.8195 65.164 11.0386 65.164 11.4767V19.7696C65.164 21.303 65.8232 21.9602 67.3612 21.9602H70.3746V8.62895C70.406 7.09555 69.7468 6.43837 68.1774 6.43837Z" fill="white"/>
<path d="M74.4553 8.40987C75.9305 6.87647 77.9081 6.09412 80.3564 6.09412C82.5851 6.09412 84.3429 6.78259 85.6298 8.19081C86.9168 9.56775 87.576 11.3828 87.576 13.5734C87.576 13.9489 87.5446 14.4809 87.4504 15.2007H77.6256C78.0022 17.0157 79.4775 17.9858 81.2667 17.9858C82.5537 17.9858 83.9976 17.4851 85.567 16.4211L87.5132 20.0825C85.8495 21.4907 83.2756 22.3357 80.8587 22.3357C78.222 22.3357 76.1503 21.522 74.6122 19.926C73.0741 18.33 72.3208 16.3898 72.3208 14.1992C72.258 11.8835 72.98 9.94327 74.4553 8.40987ZM82.3653 12.2277C82.3653 10.9134 81.5178 9.91198 80.2309 9.91198C78.9125 9.91198 78.065 10.6943 77.7197 12.2277H82.3653Z" fill="white"/>
<path d="M89.4279 6.72001H92.1588V8.06565C92.1588 8.69153 92.0646 9.22352 92.0646 9.22352H92.1274C93.1004 7.37718 95.0466 6.34448 97.2752 6.34448C101.419 6.34448 103.992 9.59905 103.992 14.3244C103.992 19.175 101.073 22.3044 97.0555 22.3044C95.1094 22.3044 93.3516 21.3343 92.3157 19.707H92.2529C92.2529 19.707 92.3785 20.239 92.3785 21.0213V27.9686H89.4593V6.72001H89.4279ZM96.5846 19.8009C99.0016 19.8009 101.011 17.8294 101.011 14.387C101.011 11.0699 99.2213 8.94188 96.6788 8.94188C94.3874 8.94188 92.2529 10.5692 92.2529 14.4183C92.2843 17.1096 93.791 19.8009 96.5846 19.8009Z" fill="white"/>
<path d="M113.629 6.34448C118.212 6.34448 121.884 9.69294 121.884 14.2932C121.884 18.9247 118.18 22.3044 113.66 22.3044C109.078 22.3044 105.405 18.9247 105.405 14.2932C105.405 9.69294 109.078 6.34448 113.629 6.34448ZM113.66 19.8009C116.548 19.8009 118.934 17.5164 118.934 14.3244C118.934 11.1638 116.548 8.91059 113.66 8.91059C110.741 8.91059 108.387 11.1638 108.387 14.3244C108.387 17.5164 110.741 19.8009 113.66 19.8009Z" fill="white"/>
<path d="M124.144 0.680298H127.158V3.62193H124.144V0.680298ZM124.207 6.72003H127.126V21.9915H124.207V6.72003Z" fill="white"/>
<path d="M130.454 6.72001H133.31V8.78541C133.31 9.41129 133.216 9.94328 133.216 9.94328H133.279C133.844 8.62894 135.727 6.34448 139.086 6.34448C142.695 6.34448 144.328 8.316 144.328 12.1964V21.9602H141.408V12.8536C141.408 10.7256 141 9.03576 138.521 9.03576C135.539 9.03576 133.404 11.508 133.404 14.6374V21.9602H130.485V6.72001H130.454Z" fill="white"/>
<path d="M148.094 9.25481H146.085V6.87647H148.157V2.52661H151.045V6.87647H154.749V9.25481H151.045V16.0769C151.045 19.1124 153.179 19.5192 154.309 19.5192C154.529 19.5192 154.717 19.5192 155 19.4566V22.054C154.749 22.0853 154.435 22.1479 153.964 22.1479C151.987 22.1479 148.094 21.522 148.094 16.4211V9.25481Z" fill="white"/>
<path d="M25.1428 12.7598L24.1383 0.429932H18.0174C18.0174 0.429932 13.3404 9.9433 12.9638 11.2264H12.901L8.00425 0.429932H1.85196L0.847509 11.1325L0 21.9602H3.73532C5.33617 21.9602 5.99534 21.2717 6.1209 19.5818C6.1209 19.5818 6.74868 9.63036 6.65452 8.19084H6.71729L6.90563 8.84801C7.15674 9.72424 10.6409 18.2049 10.6409 18.2049H15.2238C15.2238 18.2049 18.708 9.84942 19.1474 8.19084H19.2102L19.7438 19.5818C19.8694 21.2717 20.5286 21.9602 22.1294 21.9602H25.8647L25.1428 12.7598Z" fill="white"/>
</svg>
