<svg width="52" height="53" viewBox="0 0 52 53" fill="none" xmlns="http://www.w3.org/2000/svg">
<path d="M0 30.5096V52.7255H20.54L6.56915 30.5096H0Z" fill="white"/>
<path d="M19.3368 10.5224C17.7109 9.21369 15.6704 8.52972 13.5841 8.59411H0V21.9902H13.5841C15.6711 22.0594 17.7132 21.3749 19.3368 20.0619C20.0622 19.4964 20.6491 18.7728 21.0527 17.9462C21.4564 17.1197 21.6662 16.212 21.6662 15.2922C21.6662 14.3723 21.4564 13.4646 21.0527 12.6381C20.6491 11.8116 20.0622 11.088 19.3368 10.5224Z" fill="white"/>
<path d="M42.7344 0H20.9912C23.5946 0.765579 26.0145 2.05411 28.1029 3.7868C31.9273 6.94515 33.8395 10.8054 33.8395 15.3674C33.8551 17.0847 33.5207 18.7871 32.8567 20.3709C32.1927 21.9546 31.2131 23.3865 29.9775 24.5793C27.3992 27.1718 24.0654 28.9068 19.976 29.7841L35.4992 52.7251H42.7344C47.8533 52.7251 52 49.3197 52 45.1247V7.60045C52 3.40543 47.8533 0 42.7344 0Z" fill="white"/>
</svg>
