<svg width="155" height="24" viewBox="0 0 155 24" fill="none" xmlns="http://www.w3.org/2000/svg">
<path d="M9.98777 0.00914233C13.6766 0.00914233 16.7027 1.86042 16.7027 6.49548C16.7027 10.6094 14.3257 12.4699 11.2174 12.7853L17.9826 22.8416H15.7519L9.12841 12.9681H2.0387V22.8553H0V0L9.98777 0.00914233ZM2.0387 11.4597H9.71351C12.5064 11.4597 14.6868 10.0563 14.6868 6.49548C14.6868 2.93462 12.5064 1.50388 9.71351 1.50388H2.0387V11.4597Z" fill="white"/>
<path d="M36.518 14.6959C36.518 19.267 34.2691 23.1798 28.3358 23.1798C22.4026 23.1798 20.1491 19.2533 20.1491 14.6959C20.1491 10.1386 22.4026 6.21202 28.3358 6.21202C34.2691 6.21202 36.518 10.1386 36.518 14.6959ZM22.1375 14.6959C22.1375 18.9242 23.9659 21.7856 28.3358 21.7856C32.7058 21.7856 34.5296 18.9242 34.5296 14.6959C34.5296 10.4677 32.7012 7.6062 28.3358 7.6062C23.9705 7.6062 22.1375 10.4677 22.1375 14.6959Z" fill="white"/>
<path d="M43.2194 0.0134084H41.2355V22.855H43.2194V0.0134084Z" fill="white"/>
<path d="M55.8171 6.21202C61.339 6.21202 63.1765 10.1386 63.1765 14.6959C63.1765 15.057 63.1765 15.4136 63.1399 15.7655H49.6599C49.989 20.2269 52.6585 21.7856 56.0274 21.7856C58.2273 21.7042 60.4034 21.3007 62.4863 20.588V21.9593C60.4503 22.7143 58.3033 23.1267 56.1325 23.1798C51.4243 23.1798 47.6395 20.8943 47.6395 14.6959C47.6395 10.1249 49.893 6.21202 55.8262 6.21202H55.8171ZM55.7851 7.3685C51.3923 7.3685 49.6188 10.2986 49.6188 14.1931V14.6868H61.3161V14.1931C61.3161 10.2894 59.7071 7.3685 55.7623 7.3685H55.7851Z" fill="white"/>
<path d="M68.6116 21.4652H80.3227V22.8548H66.2164V21.5932L77.6714 7.92572H66.7923V6.53612H80.0621V7.79774L68.6116 21.4652Z" fill="white"/>
<path d="M109.632 22.8551H104.673V7.12611L99.2195 17.4019H95.1101L89.6934 7.12611V22.8551H84.6972V0.00896904H90.8682L97.1625 12.4788L103.498 0.00896904H109.632V22.8551Z" fill="white"/>
<path d="M132.053 3.89437H120.242V9.05053H131.532V12.9359H120.242V22.8551H115.017V0.00896904H132.053V3.89437Z" fill="white"/>
<path d="M136.035 0.00896904H146.251C151.439 0.00896904 154.022 1.90139 154.022 5.7228C154.022 8.13632 152.879 9.80019 150.561 10.6824C153.304 11.4641 155 13.3885 155 16.4922C155 20.7342 152.326 22.8551 146.941 22.8551H136.035V0.00896904ZM141.259 3.76181V9.40707H145.597C147.526 9.40707 148.797 8.46087 148.797 6.60044C148.797 4.64403 147.49 3.76181 145.533 3.76181H141.259ZM141.259 12.8674V19.0703H146.219C148.34 19.0703 149.807 18.0875 149.807 16.0031C149.807 13.9187 148.34 12.8674 146.219 12.8674H141.259Z" fill="white"/>
</svg>
