<svg width="21" height="25" viewBox="0 0 21 25" fill="none" xmlns="http://www.w3.org/2000/svg">
<path d="M14 12.5C13.337 12.5 12.7011 12.2366 12.2322 11.7678C11.7634 11.2989 11.5 10.663 11.5 10C11.5 9.33696 11.7634 8.70107 12.2322 8.23223C12.7011 7.76339 13.337 7.5 14 7.5C14.663 7.5 15.2989 7.76339 15.7678 8.23223C16.2366 8.70107 16.5 9.33696 16.5 10C16.5 10.3283 16.4353 10.6534 16.3097 10.9567C16.1841 11.26 15.9999 11.5356 15.7678 11.7678C15.5356 11.9999 15.26 12.1841 14.9567 12.3097C14.6534 12.4353 14.3283 12.5 14 12.5ZM14 3C12.1435 3 10.363 3.7375 9.05025 5.05025C7.7375 6.36301 7 8.14348 7 10C7 15.25 14 23 14 23C14 23 21 15.25 21 10C21 8.14348 20.2625 6.36301 18.9497 5.05025C17.637 3.7375 15.8565 3 14 3Z" fill="white"/>
<path d="M9 22L8.44342 22.5027L9 23.1189L9.55658 22.5027L9 22ZM9 22C9.55658 22.5027 9.55669 22.5026 9.55682 22.5024L9.55723 22.502L9.55852 22.5006L9.56299 22.4956L9.57937 22.4773C9.58598 22.4699 9.59401 22.4609 9.60339 22.4503C9.61409 22.4383 9.62656 22.4242 9.64073 22.4082C9.69393 22.348 9.77116 22.2598 9.86899 22.1463C10.0646 21.9192 10.3428 21.5903 10.6761 21.1797C11.342 20.3592 12.2311 19.2082 13.1217 17.8882C14.0109 16.5704 14.9108 15.0704 15.5907 13.5527C16.2662 12.0449 16.75 10.4643 16.75 9C16.75 6.94457 15.9335 4.97333 14.4801 3.51992C13.0267 2.06652 11.0554 1.25 9 1.25C6.94457 1.25 4.97333 2.06652 3.51992 3.51992C2.06652 4.97333 1.25 6.94457 1.25 9C1.25 10.4643 1.7338 12.0449 2.4093 13.5527C3.0892 15.0704 3.98912 16.5704 4.87828 17.8882C5.76888 19.2082 6.65799 20.3592 7.32391 21.1797C7.65719 21.5903 7.9354 21.9192 8.13101 22.1463C8.22884 22.2598 8.30607 22.348 8.35927 22.4082C8.38587 22.4383 8.40647 22.4615 8.42063 22.4773L8.43701 22.4956L8.44148 22.5006L8.44277 22.502L8.44318 22.5024C8.44331 22.5026 8.44342 22.5027 9 22ZM9 10.75C8.53587 10.75 8.09075 10.5656 7.76256 10.2374C7.43437 9.90925 7.25 9.46413 7.25 9C7.25 8.53587 7.43437 8.09075 7.76256 7.76256C8.09075 7.43437 8.53587 7.25 9 7.25C9.46413 7.25 9.90925 7.43437 10.2374 7.76256C10.5656 8.09075 10.75 8.53587 10.75 9C10.75 9.22981 10.7047 9.45738 10.6168 9.6697C10.5288 9.88202 10.3999 10.0749 10.2374 10.2374C10.0749 10.3999 9.88202 10.5288 9.6697 10.6168C9.45738 10.7047 9.22981 10.75 9 10.75Z" fill="white" stroke="#0361F0" stroke-width="1.5"/>
<circle cx="9" cy="9" r="2" fill="#0361F0"/>
</svg>
