<svg width="24" height="24" viewBox="0 0 24 24" fill="none" xmlns="http://www.w3.org/2000/svg">
    <path
        d="M0.923077 0C0.678269 2.44771e-05 0.443495 0.0972848 0.27039 0.27039C0.0972848 0.443495 2.44771e-05 0.678269 0 0.923077V23.0769C2.44771e-05 23.3217 0.0972848 23.5565 0.27039 23.7296C0.443495 23.9027 0.678269 24 0.923077 24H23.0769C23.3217 24 23.5565 23.9027 23.7296 23.7296C23.9027 23.5565 24 23.3217 24 23.0769V0.923077C24 0.678269 23.9027 0.443495 23.7296 0.27039C23.5565 0.0972848 23.3217 2.44771e-05 23.0769 0H0.923077ZM1.84615 1.84615H22.1538V22.1538H1.84615V1.84615Z"
        fill="#9DA1AB" />
    <path
        d="M4.61546 3.69141C4.37065 3.69143 4.13588 3.78869 3.96277 3.9618C3.78967 4.1349 3.69241 4.36968 3.69238 4.61448V10.1529C3.69241 10.3978 3.78967 10.6325 3.96277 10.8056C4.13588 10.9787 4.37065 11.076 4.61546 11.076H10.1539C10.3987 11.076 10.6335 10.9787 10.8066 10.8056C10.9797 10.6325 11.077 10.3978 11.077 10.1529V4.61448C11.077 4.36968 10.9797 4.1349 10.8066 3.9618C10.6335 3.78869 10.3987 3.69143 10.1539 3.69141H4.61546ZM5.53854 5.53756H9.23084V9.22987H5.53854V5.53756Z"
        fill="#9DA1AB" />
    <path
        d="M4.61546 12.9219C4.37065 12.9219 4.13588 13.0192 3.96277 13.1923C3.78967 13.3654 3.69241 13.6001 3.69238 13.845V19.3834C3.69241 19.6282 3.78967 19.863 3.96277 20.0361C4.13588 20.2092 4.37065 20.3065 4.61546 20.3065H10.1539C10.3987 20.3065 10.6335 20.2092 10.8066 20.0361C10.9797 19.863 11.077 19.6282 11.077 19.3834V13.845C11.077 13.6001 10.9797 13.3654 10.8066 13.1923C10.6335 13.0192 10.3987 12.9219 10.1539 12.9219H4.61546ZM5.53854 14.768H9.23084V18.4603H5.53854V14.768Z"
        fill="#9DA1AB" />
    <path
        d="M13.8457 3.69141C13.6009 3.69143 13.3661 3.78869 13.193 3.9618C13.0199 4.1349 12.9226 4.36968 12.9226 4.61448V10.1529C12.9226 10.3978 13.0199 10.6325 13.193 10.8056C13.3661 10.9787 13.6009 11.076 13.8457 11.076H19.3841C19.629 11.076 19.8637 10.9787 20.0368 10.8056C20.2099 10.6325 20.3072 10.3978 20.3072 10.1529V4.61448C20.3072 4.36968 20.2099 4.1349 20.0368 3.9618C19.8637 3.78869 19.629 3.69143 19.3841 3.69141H13.8457ZM14.7688 5.53756H18.4611V9.22987H14.7688V5.53756Z"
        fill="#9DA1AB" />
    <path
        d="M13.8457 12.9219C13.6009 12.9219 13.3661 13.0192 13.193 13.1923C13.0199 13.3654 12.9226 13.6001 12.9226 13.845V19.3834C12.9226 19.6282 13.0199 19.863 13.193 20.0361C13.3661 20.2092 13.6009 20.3065 13.8457 20.3065H19.3841C19.629 20.3065 19.8637 20.2092 20.0368 20.0361C20.2099 19.863 20.3072 19.6282 20.3072 19.3834V13.845C20.3072 13.6001 20.2099 13.3654 20.0368 13.1923C19.8637 13.0192 19.629 12.9219 19.3841 12.9219H13.8457ZM14.7688 14.768H18.4611V18.4603H14.7688V14.768Z"
        fill="#9DA1AB" />
</svg>
