<svg width="27" height="27" viewBox="0 0 27 27" fill="none" xmlns="http://www.w3.org/2000/svg">
    <path opacity="0.1" fill-rule="evenodd" clip-rule="evenodd"
        d="M13.5 27C20.9558 27 27 20.9558 27 13.5C27 6.04416 20.9558 0 13.5 0C6.04416 0 0 6.04416 0 13.5C0 20.9558 6.04416 27 13.5 27Z"
        fill="#0B3275" />
    <path
        d="M20.8693 18.1305C20.9504 18.0225 20.9959 17.8921 20.9997 17.7572C21.0035 17.6223 20.9654 17.4895 20.8905 17.3772C19.963 15.983 18.5484 14.9853 16.9238 14.5794L16.5977 14.4979C16.4884 14.4705 16.3739 14.4719 16.2653 14.5019C16.1568 14.5319 16.0578 14.5895 15.9781 14.6691L15.1042 15.5381C14.936 15.6999 14.7116 15.7903 14.4781 15.7903C14.2447 15.7903 14.0203 15.6999 13.8521 15.5381L11.4603 13.1479C11.295 12.9815 11.2022 12.7564 11.2022 12.5219C11.2022 12.2873 11.295 12.0622 11.4603 11.8958L12.3309 11.0268C12.4113 10.9466 12.4694 10.8468 12.4995 10.7373C12.5295 10.6278 12.5304 10.5123 12.5021 10.4023L12.4206 10.0762C12.0147 8.4516 11.017 7.03698 9.62279 6.10946C9.51047 6.03462 9.37771 5.99646 9.24279 6.00026C9.10788 6.00405 8.97747 6.04962 8.86954 6.13066L8.54346 6.37522C7.75552 6.96916 7.11584 7.73752 6.67457 8.62007C6.23329 9.50262 6.00241 10.4754 6.00002 11.4621C5.99793 12.2975 6.16141 13.1249 6.48099 13.8968C6.80057 14.6686 7.26993 15.3694 7.86195 15.9588L11.0412 19.1381C11.6306 19.7301 12.3314 20.1994 13.1032 20.519C13.8751 20.8386 14.7025 21.0021 15.5379 21C16.5247 20.9978 17.4975 20.7671 18.3801 20.3258C19.2627 19.8845 20.031 19.2447 20.6248 18.4565L20.8693 18.1305ZM15.5379 19.6957C14.8739 19.6977 14.216 19.5679 13.6026 19.3138C12.9891 19.0596 12.4321 18.6862 11.9641 18.2152L8.78476 15.0359C8.31375 14.5679 7.94036 14.0109 7.68623 13.3974C7.43211 12.784 7.3023 12.1261 7.30435 11.4621C7.30616 10.6915 7.48325 9.9314 7.82221 9.23935C8.16117 8.5473 8.65313 7.94143 9.26084 7.46759C10.1872 8.20408 10.8473 9.22323 11.1407 10.3697L10.5391 10.973C10.1289 11.3841 9.89852 11.9411 9.89852 12.5219C9.89852 13.1026 10.1289 13.6596 10.5391 14.0707L12.9309 16.4609C13.3476 16.8603 13.9025 17.0833 14.4798 17.0833C15.057 17.0833 15.6119 16.8603 16.0287 16.4609L16.6384 15.8528C17.7828 16.1495 18.799 16.8119 19.5324 17.7392C19.0586 18.3469 18.4527 18.8388 17.7607 19.1778C17.0686 19.5168 16.3085 19.6938 15.5379 19.6957Z"
        fill="#0361F0" />
    <path
        d="M14.6689 12.3311C14.7295 12.3917 14.8014 12.4398 14.8806 12.4726C14.9597 12.5054 15.0446 12.5223 15.1303 12.5223C15.216 12.5223 15.3009 12.5054 15.38 12.4726C15.4592 12.4398 15.5311 12.3917 15.5917 12.3311L19.0433 8.87948V10.5653C19.0433 10.7383 19.112 10.9042 19.2343 11.0265C19.3566 11.1488 19.5225 11.2175 19.6954 11.2175C19.8684 11.2175 20.0343 11.1488 20.1566 11.0265C20.2789 10.9042 20.3476 10.7383 20.3476 10.5653V7.30451C20.3476 7.13154 20.2789 6.96566 20.1566 6.84336C20.0343 6.72105 19.8684 6.65234 19.6954 6.65234H16.4346C16.2617 6.65234 16.0958 6.72105 15.9735 6.84336C15.8512 6.96566 15.7825 7.13154 15.7825 7.30451C15.7825 7.47747 15.8512 7.64335 15.9735 7.76566C16.0958 7.88796 16.2617 7.95667 16.4346 7.95667H18.1205L14.6689 11.4082C14.6083 11.4688 14.5602 11.5407 14.5273 11.6199C14.4945 11.6991 14.4776 11.7839 14.4776 11.8696C14.4776 11.9554 14.4945 12.0402 14.5273 12.1194C14.5602 12.1986 14.6083 12.2705 14.6689 12.3311Z"
        fill="#0361F0" />
</svg>
