<svg width="32" height="32" viewBox="0 0 32 32" fill="none" xmlns="http://www.w3.org/2000/svg">
    <path fill-rule="evenodd" clip-rule="evenodd"
        d="M16.6833 12.371V10.2683C13.1077 10.263 9.91457 12.6803 9.24025 16.139C8.57301 19.5563 10.5648 22.9283 13.9761 24.1576C14.9522 24.5096 15.4423 25.5443 15.0726 26.4723C14.7439 27.2963 13.8443 27.7563 12.9646 27.6016C12.8541 27.583 12.7436 27.5536 12.6359 27.515C7.51477 25.6723 4.52423 20.6123 5.5258 15.487C6.53729 10.3017 11.3241 6.68969 16.6833 6.69636V4.95369C16.6833 4.1177 17.801 3.68703 18.4782 4.26436L22.833 7.97235C23.2735 8.34835 23.2735 8.97768 22.833 9.35368L18.4782 13.0617C17.801 13.6377 16.6833 13.2083 16.6833 12.371ZM19.1808 24.215C18.9003 24.311 18.6114 24.391 18.3195 24.4523C17.301 24.667 16.6564 25.6256 16.8816 26.5936C17.0502 27.319 17.6594 27.843 18.3819 27.971C18.6241 28.0123 18.8791 28.011 19.1341 27.9576C19.5789 27.863 20.0167 27.743 20.4445 27.599C21.4262 27.267 21.9419 26.239 21.5934 25.3056C21.2435 24.371 20.1612 23.883 19.1808 24.215ZM22.9364 21.4536C22.8556 21.5683 22.772 21.6803 22.6828 21.7896C22.0467 22.575 22.1997 23.7016 23.027 24.307C23.2735 24.4856 23.5484 24.599 23.8345 24.6483C24.5088 24.767 25.2285 24.531 25.6776 23.9776C25.8122 23.8096 25.9439 23.6363 26.07 23.459C26.6522 22.6363 26.4242 21.5216 25.56 20.967C24.6944 20.4163 23.52 20.631 22.9364 21.4536ZM26.1607 15.947C25.118 15.9203 24.2482 16.7377 24.2213 17.7297C24.1958 18.6217 24.8616 19.3656 25.7569 19.523C25.8532 19.5403 25.9538 19.551 26.0544 19.5523C27.0956 19.5816 27.9655 18.7856 27.998 17.795C27.998 17.7923 27.9995 17.7563 27.9995 17.7537C28.0278 16.7617 27.1962 15.9643 26.1607 15.947Z"
        fill="white" />
</svg>
