<svg xmlns="http://www.w3.org/2000/svg"
    width="35"
    height="35"
    viewBox="0 0 35 35">
    <path
        d="M32.2368,23.0448C30.1044,23.0489 27.9849,22.7118 25.9589,22.0463C25.0116,21.7155 23.959,21.9384 23.2271,22.6248L19.2519,25.6237C14.9827,23.4803 11.5188,20.017 9.3745,15.7482L12.2942,11.8687C13.0314,11.131 13.295,10.0437 12.9777,9.0503C12.3097,7.0215 11.9708,4.899 11.9737,2.7632C11.9737,1.2371 10.7366,0 9.2106,0H2.7632C1.2371,0 0,1.2371 0,2.7632C0.0203,20.5587 14.4413,34.9797 32.2368,35C33.7629,35 35,33.7629 35,32.2368V25.8079C35,24.2819 33.7629,23.0448 32.2368,23.0448Z"
        fill="#0361F0"/>
</svg>
