<svg width="20" height="24" viewBox="0 0 20 24" fill="none" xmlns="http://www.w3.org/2000/svg">
<path d="M2.5 15.125C2.5 15.8125 1.9375 16.375 1.25 16.375C0.5625 16.375 0 15.8125 0 15.125V9.5C0 8.8125 0.5625 8.25 1.25 8.25C1.9375 8.25 2.5 8.8125 2.5 9.5V15.125Z" fill="#F57F45"/>
<path d="M20 15.125C20 15.8125 19.4375 16.375 18.75 16.375C18.0625 16.375 17.5 15.8125 17.5 15.125V9.5C17.5 8.8125 18.0625 8.25 18.75 8.25C19.4375 8.25 20 8.8125 20 9.5V15.125Z" fill="#F57F45"/>
<path d="M8.75 22C8.75 22.6875 8.1875 23.25 7.5 23.25C6.8125 23.25 6.25 22.6875 6.25 22V16.375C6.25 15.6875 6.8125 15.125 7.5 15.125C8.1875 15.125 8.75 15.6875 8.75 16.375V22Z" fill="#F57F45"/>
<path d="M13.75 22C13.75 22.6875 13.1875 23.25 12.5 23.25C11.8125 23.25 11.25 22.6875 11.25 22V16.375C11.25 15.6875 11.8125 15.125 12.5 15.125C13.1875 15.125 13.75 15.6875 13.75 16.375V22Z" fill="#F57F45"/>
<path d="M3.75 8.25V17.625C3.75 18.3125 4.3125 18.875 5 18.875H15C15.6875 18.875 16.25 18.3125 16.25 17.625V8.25H3.75Z" fill="#F57F45"/>
<path d="M10 2C6.25 2 3.9375 4.25 3.75 7H16.25C16.0625 4.25 13.75 2 10 2ZM7.5 5.5C7.125 5.5 6.875 5.25 6.875 4.875C6.875 4.5 7.125 4.25 7.5 4.25C7.875 4.25 8.125 4.5 8.125 4.875C8.125 5.1875 7.875 5.5 7.5 5.5ZM12.5 5.5C12.125 5.5 11.875 5.25 11.875 4.875C11.875 4.5 12.125 4.25 12.5 4.25C12.875 4.25 13.125 4.5 13.125 4.875C13.125 5.1875 12.875 5.5 12.5 5.5Z" fill="#F57F45"/>
<path d="M12.6875 3.5625C12.5625 3.5625 12.4375 3.5 12.3125 3.4375C12 3.25 11.9375 2.875 12.125 2.5625L13.1875 1C13.375 0.6875 13.75 0.625 14.0625 0.8125C14.375 1 14.4375 1.375 14.25 1.6875L13.1875 3.25C13.125 3.4375 12.9375 3.5625 12.6875 3.5625Z" fill="#F57F45"/>
<path d="M7.0625 3.3125C6.875 3.3125 6.625 3.1875 6.5625 3L5.75 1.6875C5.5625 1.375 5.625 1 5.9375 0.8125C6.25 0.625 6.625 0.6875 6.8125 1L7.625 2.3125C7.8125 2.625 7.75 3 7.4375 3.1875C7.3125 3.25 7.1875 3.3125 7.0625 3.3125Z" fill="#F57F45"/>
</svg>
