<svg width="55" height="58" viewBox="0 0 55 58" fill="none" xmlns="http://www.w3.org/2000/svg">
<rect opacity="0.2" x="19.951" width="37" height="37" rx="8" transform="rotate(22.1514 19.951 0)" fill="#0361F0"/>
<g filter="url(#filter0_d)">
<rect x="6" y="9" width="37" height="37" rx="8" fill="#0361F0"/>
</g>
<path d="M31.875 26.875H25.125V20.125C25.125 19.8266 25.0065 19.5405 24.7955 19.3295C24.5845 19.1185 24.2984 19 24 19C23.7016 19 23.4155 19.1185 23.2045 19.3295C22.9935 19.5405 22.875 19.8266 22.875 20.125V26.875H16.125C15.8266 26.875 15.5405 26.9935 15.3295 27.2045C15.1185 27.4155 15 27.7016 15 28C15 28.2984 15.1185 28.5845 15.3295 28.7955C15.5405 29.0065 15.8266 29.125 16.125 29.125H22.875V35.875C22.875 36.1734 22.9935 36.4595 23.2045 36.6705C23.4155 36.8815 23.7016 37 24 37C24.2984 37 24.5845 36.8815 24.7955 36.6705C25.0065 36.4595 25.125 36.1734 25.125 35.875V29.125H31.875C32.1734 29.125 32.4595 29.0065 32.6705 28.7955C32.8815 28.5845 33 28.2984 33 28C33 27.7016 32.8815 27.4155 32.6705 27.2045C32.4595 26.9935 32.1734 26.875 31.875 26.875Z" fill="#F9FBFD"/>
<defs>
<filter id="filter0_d" x="0" y="9" width="49" height="49" filterUnits="userSpaceOnUse" color-interpolation-filters="sRGB">
<feFlood flood-opacity="0" result="BackgroundImageFix"/>
<feColorMatrix in="SourceAlpha" type="matrix" values="0 0 0 0 0 0 0 0 0 0 0 0 0 0 0 0 0 0 127 0" result="hardAlpha"/>
<feOffset dy="6"/>
<feGaussianBlur stdDeviation="3"/>
<feComposite in2="hardAlpha" operator="out"/>
<feColorMatrix type="matrix" values="0 0 0 0 0.0380035 0 0 0 0 0.351798 0 0 0 0 0.829167 0 0 0 0.23 0"/>
<feBlend mode="normal" in2="BackgroundImageFix" result="effect1_dropShadow"/>
<feBlend mode="normal" in="SourceGraphic" in2="effect1_dropShadow" result="shape"/>
</filter>
</defs>
</svg>
