<svg width="19" height="18" viewBox="0 0 19 18" fill="none" xmlns="http://www.w3.org/2000/svg">
<path d="M8.34164 0.232425L2.2986 5.11334C1.52385 5.73314 1.96287 6.97274 2.97005 6.97274H15.0303C16.0117 6.97274 16.4507 5.73314 15.7018 5.11334L9.65871 0.232425C9.27134 -0.0774749 8.72901 -0.0774749 8.34164 0.232425Z" fill="#B4CBD5"/>
<path d="M4.49361 14.5654C3.77051 14.5654 3.17654 13.9715 3.17654 13.2484V9.60704C3.17654 8.88394 3.77051 8.28997 4.49361 8.28997C5.21671 8.28997 5.81068 8.88394 5.81068 9.60704V13.2742C5.81068 13.9715 5.21671 14.5654 4.49361 14.5654Z" fill="#B4CBD5"/>
<path d="M8.9871 14.5652C8.264 14.5652 7.67003 13.9712 7.67003 13.2481V9.60681C7.67003 8.88371 8.264 8.28974 8.9871 8.28974C9.7102 8.28974 10.3042 8.88371 10.3042 9.60681V13.274C10.3042 13.9712 9.7102 14.5652 8.9871 14.5652Z" fill="#B4CBD5"/>
<path d="M13.4805 14.5652C12.7574 14.5652 12.1634 13.9712 12.1634 13.2481V9.60681C12.1634 8.88371 12.7574 8.28974 13.4805 8.28974C14.2036 8.28974 14.7976 8.88371 14.7976 9.60681V13.274C14.7976 13.9712 14.2036 14.5652 13.4805 14.5652Z" fill="#B4CBD5"/>
<path d="M0 16.9412C0 16.3472 0.490674 15.8824 1.05882 15.8824H17.3802C17.9742 15.8824 18.439 16.373 18.439 16.9412C18.439 17.5352 17.9484 18 17.3802 18H1.05882C0.464849 18 0 17.5352 0 16.9412Z" fill="#B4CBD5"/>
</svg>
