<svg width="82" height="82" viewBox="0 0 82 82" fill="none" xmlns="http://www.w3.org/2000/svg">
<path d="M41 71.75C36.6846 68.069 32.6845 64.0335 29.0417 59.6857C23.575 53.1565 17.0834 43.4327 17.0834 34.1667C17.0785 24.4891 22.9062 15.7624 31.847 12.0588C40.7878 8.35512 51.0794 10.4046 57.9194 17.2507C62.4173 21.7286 64.9369 27.8198 64.9168 34.1667C64.9168 43.4327 58.4251 53.1565 52.9584 59.6857C49.3156 64.0335 45.3155 68.069 41 71.75ZM41.0001 23.9167C37.3381 23.9167 33.9543 25.8703 32.1233 29.0417C30.2923 32.213 30.2923 36.1203 32.1233 39.2917C33.9543 42.463 37.3381 44.4167 41.0001 44.4167C46.661 44.4167 51.2501 39.8276 51.2501 34.1667C51.2501 28.5057 46.661 23.9167 41.0001 23.9167Z" fill="#E94444"/>
<circle cx="62.5" cy="14.5" r="14.5" fill="#FDEDED"/>
<circle cx="62.5" cy="14.5" r="9" fill="white"/>
<path d="M62.5 25.7503C59.5155 25.753 56.6525 24.5686 54.5421 22.4583C52.4317 20.3479 51.2473 17.4848 51.25 14.5003V14.2753C51.342 9.76658 54.1163 5.74801 58.2997 4.06378C62.483 2.37955 67.2678 3.35484 70.4583 6.54209C73.6785 9.75968 74.6423 14.6008 72.8999 18.8064C71.1575 23.012 67.0523 25.753 62.5 25.7503ZM62.5 16.0866L65.4138 19.0003L67 17.4141L64.0863 14.5003L67 11.5866L65.4138 10.0003L62.5 12.9141L59.5863 10.0003L58 11.5866L60.9138 14.5003L58 17.4141L59.5863 19.0003L62.5 16.0877V16.0866Z" fill="#E94444"/>
</svg>
