<svg width="19" height="19" viewBox="0 0 19 19" fill="none" xmlns="http://www.w3.org/2000/svg">
<path d="M17.8127 8.31241H4.54837L10.3434 2.51741C10.8065 2.05429 10.8065 1.29429 10.3434 0.831164C10.2335 0.721078 10.103 0.63374 9.95936 0.57415C9.81571 0.51456 9.66171 0.483887 9.50618 0.483887C9.35066 0.483887 9.19666 0.51456 9.053 0.57415C8.90935 0.63374 8.77886 0.721078 8.669 0.831164L0.843371 8.65679C0.733286 8.76665 0.645948 8.89714 0.586358 9.0408C0.526767 9.18445 0.496094 9.33845 0.496094 9.49398C0.496094 9.6495 0.526767 9.8035 0.586358 9.94716C0.645948 10.0908 0.733286 10.2213 0.843371 10.3312L8.669 18.1568C8.77894 18.2667 8.90946 18.3539 9.0531 18.4134C9.19674 18.4729 9.3507 18.5036 9.50618 18.5036C9.66166 18.5036 9.81562 18.4729 9.95927 18.4134C10.1029 18.3539 10.2334 18.2667 10.3434 18.1568C10.4533 18.0469 10.5405 17.9163 10.6 17.7727C10.6595 17.629 10.6901 17.4751 10.6901 17.3196C10.6901 17.1641 10.6595 17.0102 10.6 16.8665C10.5405 16.7229 10.4533 16.5924 10.3434 16.4824L4.54837 10.6874H17.8127C18.4659 10.6874 19.0002 10.153 19.0002 9.49992C19.0002 8.84679 18.4659 8.31241 17.8127 8.31241Z" fill="#B4CBD5"/>
</svg>
