<svg width="12" height="12" viewBox="0 0 12 12" fill="none" xmlns="http://www.w3.org/2000/svg">
<path d="M1.69765 11.4422L9.50523 3.63467L9.50523 10.4567C9.50523 11.0019 9.95257 11.4492 10.4978 11.4492C10.6272 11.4494 10.7555 11.424 10.8751 11.3745C10.9947 11.325 11.1034 11.2524 11.195 11.1609C11.2865 11.0693 11.3591 10.9606 11.4086 10.841C11.4581 10.7214 11.4835 10.5931 11.4833 10.4637L11.4833 1.25116C11.4835 1.1217 11.4581 0.993483 11.4086 0.87385C11.3591 0.754216 11.2865 0.645516 11.195 0.553973C11.1034 0.462429 10.9947 0.389838 10.8751 0.340356C10.7555 0.290875 10.6272 0.265472 10.4978 0.265605L1.28526 0.265604C1.15583 0.265604 1.02767 0.291098 0.9081 0.340627C0.788527 0.390155 0.67988 0.462751 0.588362 0.554269C0.496845 0.645786 0.424249 0.754433 0.37472 0.874006C0.325191 0.99358 0.299698 1.12174 0.299698 1.25116C0.299698 1.38059 0.325191 1.50875 0.37472 1.62832C0.424249 1.74789 0.496845 1.85654 0.588362 1.94806C0.67988 2.03957 0.788527 2.11217 0.9081 2.1617C1.02767 2.21123 1.15583 2.23672 1.28526 2.23672L8.10727 2.23672L0.299699 10.0443C-0.0847382 10.4287 -0.0847382 11.0578 0.299699 11.4422C0.684137 11.8267 1.31322 11.8267 1.69765 11.4422Z" fill="#0361F0"/>
</svg>
