<svg width="19" height="19" viewBox="0 0 19 19" fill="none" xmlns="http://www.w3.org/2000/svg">
<path d="M17.8125 8.3129H4.54813L10.3431 2.5179C10.8063 2.05478 10.8063 1.29478 10.3431 0.831652C10.2333 0.721567 10.1028 0.634229 9.95912 0.574638C9.81546 0.515048 9.66146 0.484375 9.50594 0.484375C9.35041 0.484375 9.19642 0.515048 9.05276 0.574638C8.9091 0.634229 8.77861 0.721567 8.66875 0.831652L0.843127 8.65728C0.733042 8.76714 0.645704 8.89763 0.586113 9.04129C0.526523 9.18494 0.49585 9.33894 0.49585 9.49447C0.49585 9.64999 0.526523 9.80399 0.586113 9.94764C0.645704 10.0913 0.733042 10.2218 0.843127 10.3317L8.66875 18.1573C8.77869 18.2672 8.90921 18.3544 9.05286 18.4139C9.1965 18.4734 9.35046 18.5041 9.50594 18.5041C9.66142 18.5041 9.81538 18.4734 9.95902 18.4139C10.1027 18.3544 10.2332 18.2672 10.3431 18.1573C10.4531 18.0473 10.5403 17.9168 10.5998 17.7732C10.6593 17.6295 10.6899 17.4756 10.6899 17.3201C10.6899 17.1646 10.6593 17.0107 10.5998 16.867C10.5403 16.7234 10.4531 16.5928 10.3431 16.4829L4.54813 10.6879H17.8125C18.4656 10.6879 19 10.1535 19 9.5004C19 8.84728 18.4656 8.3129 17.8125 8.3129Z" fill="white"/>
</svg>
