<svg width="23" height="22" viewBox="0 0 23 22" fill="none" xmlns="http://www.w3.org/2000/svg">
    <path
        d="M17.1615 14.8007L9.35391 6.99313L16.1759 6.99313C16.7211 6.99313 17.1685 6.54578 17.1685 6.00058C17.1686 5.87112 17.1432 5.7429 17.0937 5.62326C17.0442 5.50363 16.9717 5.39493 16.8801 5.30339C16.7886 5.21184 16.6799 5.13925 16.5602 5.08977C16.4406 5.04029 16.3124 5.01489 16.1829 5.01502L6.9704 5.01502C6.84094 5.01489 6.71272 5.04029 6.59309 5.08977C6.47345 5.13925 6.36475 5.21184 6.27321 5.30339C6.18167 5.39493 6.10908 5.50363 6.05959 5.62327C6.01011 5.7429 5.98471 5.87112 5.98484 6.00058L5.98484 15.2131C5.98484 15.3425 6.01034 15.4707 6.05986 15.5903C6.10939 15.7098 6.18199 15.8185 6.27351 15.91C6.36502 16.0015 6.47367 16.0741 6.59324 16.1236C6.71282 16.1732 6.84097 16.1987 6.9704 16.1987C7.09983 16.1987 7.22798 16.1732 7.34756 16.1236C7.46713 16.0741 7.57578 16.0015 7.6673 15.91C7.75881 15.8185 7.83141 15.7098 7.88094 15.5903C7.93047 15.4707 7.95596 15.3425 7.95596 15.2131L7.95596 8.39108L15.7635 16.1987C16.148 16.5831 16.777 16.5831 17.1615 16.1987C17.5459 15.8142 17.5459 15.1851 17.1615 14.8007Z"
        fill="#0361F0" />
</svg>
