<svg width="30" height="30" viewBox="0 0 30 30" fill="none" xmlns="http://www.w3.org/2000/svg">
<path d="M4.38684 4.38667C-1.46232 10.2355 -1.46223 19.7641 4.3868 25.6133C10.2358 31.4621 19.7646 31.4623 25.6136 25.6133C31.4627 19.7643 31.4626 10.2355 25.6136 4.38667C19.7646 -1.46212 10.2358 -1.46233 4.38684 4.38667ZM6.50947 6.50942C10.848 2.17115 17.609 1.88374 22.3259 5.5515L5.55182 22.326C1.88397 17.6091 2.17097 10.8479 6.50947 6.50942ZM7.67445 24.4485L24.4486 7.67425C28.1142 12.3912 27.8286 19.1532 23.4909 23.4906C19.1533 27.8282 12.3913 28.1139 7.67445 24.4485Z" fill="#E94444"/>
</svg>
