<svg width="19" height="30" viewBox="0 0 19 30" fill="none" xmlns="http://www.w3.org/2000/svg">
<path d="M4.23913 30H14.3152C16.663 30 18.5543 28.1087 18.5543 25.7609V4.23913C18.5543 1.8913 16.663 0 14.3152 0H4.23913C1.8913 0 0 1.8913 0 4.23913V25.7609C0 28.1087 1.92391 30 4.23913 30ZM14.3478 28.0435H4.23913C2.96739 28.0435 1.95652 27.0326 1.95652 25.7609V22.6957H16.5978V25.7609C16.6304 27.0326 15.587 28.0435 14.3478 28.0435ZM1.95652 20.7391V7.07609H16.5978V20.7391H1.95652ZM4.23913 1.95652H14.3152C15.587 1.95652 16.5978 2.96739 16.5978 4.23913V5.11957H1.95652V4.23913C1.95652 2.96739 3 1.95652 4.23913 1.95652Z" fill="#9DA1AB"/>
<path d="M9.29368 27.3584C10.3742 27.3584 11.2502 26.4824 11.2502 25.4018C11.2502 24.3213 10.3742 23.4453 9.29368 23.4453C8.21312 23.4453 7.33716 24.3213 7.33716 25.4018C7.33716 26.4824 8.21312 27.3584 9.29368 27.3584Z" fill="#9DA1AB"/>
</svg>
