<svg width="20" height="20" viewBox="0 0 20 20" fill="none" xmlns="http://www.w3.org/2000/svg">
<path d="M11.6665 6.6665H3.33317C2.414 6.6665 1.6665 7.414 1.6665 8.33317V16.6665C1.6665 17.5857 2.414 18.3332 3.33317 18.3332H11.6665C12.5857 18.3332 13.3332 17.5857 13.3332 16.6665V8.33317C13.3332 7.414 12.5857 6.6665 11.6665 6.6665Z" fill="white"/>
<path d="M16.6665 1.6665H8.33317C7.89114 1.6665 7.46722 1.8421 7.15466 2.15466C6.8421 2.46722 6.6665 2.89114 6.6665 3.33317V4.99984H13.3332C13.7752 4.99984 14.1991 5.17543 14.5117 5.48799C14.8242 5.80055 14.9998 6.22448 14.9998 6.6665V13.3332H16.6665C17.1085 13.3332 17.5325 13.1576 17.845 12.845C18.1576 12.5325 18.3332 12.1085 18.3332 11.6665V3.33317C18.3332 2.89114 18.1576 2.46722 17.845 2.15466C17.5325 1.8421 17.1085 1.6665 16.6665 1.6665Z" fill="white"/>
</svg>
