<svg width="32" height="32" viewBox="0 0 32 32" fill="none" xmlns="http://www.w3.org/2000/svg">
<path d="M16 0.8C12.9937 0.8 10.055 1.69146 7.55534 3.36166C5.05571 5.03186 3.10749 7.40577 1.95704 10.1832C0.806586 12.9606 0.505575 16.0169 1.09207 18.9654C1.67857 21.9139 3.12622 24.6223 5.25198 26.748C7.37774 28.8738 10.0861 30.3214 13.0346 30.9079C15.9831 31.4944 19.0394 31.1934 21.8168 30.043C24.5942 28.8925 26.9681 26.9443 28.6383 24.4447C30.3085 21.945 31.2 19.0063 31.2 16C31.2 11.9687 29.5986 8.10253 26.748 5.25198C23.8975 2.40142 20.0313 0.8 16 0.8ZM8.02736 26.1658C9.03235 25.1171 10.235 24.2764 11.5666 23.6928C12.9638 23.0804 14.4728 22.7642 15.9983 22.7642C17.5239 22.7642 19.0328 23.0804 20.43 23.6928C21.7617 24.2764 22.9643 25.1171 23.9693 26.1658C21.6988 27.9525 18.8917 28.9259 15.9983 28.9259C13.105 28.9259 10.2979 27.9525 8.02736 26.1658ZM28.7474 18.1403C28.34 20.5489 27.2588 22.7913 25.6311 24.6088C24.4138 23.3338 22.9548 22.3126 21.3385 21.6054C19.6556 20.869 17.8386 20.4889 16.0017 20.4889C14.1647 20.4889 12.3477 20.869 10.6648 21.6054C9.04852 22.3126 7.58957 23.3338 6.37227 24.6088C4.74451 22.7913 3.66332 20.5489 3.25599 18.1403C2.83672 15.6611 3.14957 13.1135 4.15623 10.8095C5.16288 8.5054 6.81964 6.54493 8.92358 5.16817C11.0275 3.79141 13.4873 3.05813 16.0017 3.05813C18.516 3.05813 20.9758 3.79141 23.0798 5.16817C25.1837 6.54493 26.8405 8.5054 27.8471 10.8095C28.8538 13.1135 29.1666 15.6611 28.7474 18.1403Z" fill="#0361F0" stroke="#0361F0" stroke-width="0.4"/>
<path d="M16 6.42622C14.6622 6.42622 13.3544 6.82297 12.2421 7.56629C11.1298 8.3096 10.263 9.36609 9.75118 10.6021C9.23938 11.8382 9.10564 13.1982 9.36689 14.5103C9.62813 15.8223 10.2726 17.0274 11.2188 17.9732C12.165 18.9189 13.3705 19.5628 14.6827 19.8233C15.9948 20.0839 17.3548 19.9495 18.5906 19.4371C19.8264 18.9246 20.8824 18.0572 21.6252 16.9446C22.3679 15.8319 22.764 14.5239 22.7633 13.1861C22.7624 11.393 22.0495 9.67357 20.7812 8.40594C19.5129 7.13831 17.7932 6.42622 16 6.42622ZM15.9997 17.6762C15.1126 17.6762 14.2454 17.4131 13.5077 16.9203C12.7699 16.4274 12.1949 15.7269 11.8552 14.9073C11.5155 14.0876 11.4265 13.1857 11.5993 12.3154C11.7722 11.4452 12.1992 10.6457 12.8263 10.0181C13.4535 9.39053 14.2526 8.96297 15.1227 8.78949C15.9929 8.61601 16.8949 8.7044 17.7148 9.0435C18.5347 9.38259 19.2356 9.95716 19.729 10.6946C20.2223 11.4319 20.486 12.299 20.4867 13.1862C20.4858 14.3762 20.0129 15.5173 19.1717 16.359C18.3305 17.2008 17.1898 17.6745 15.9997 17.6762Z" fill="#0361F0" stroke="#0361F0" stroke-width="0.4"/>
</svg>
