<svg width="21" height="23" viewBox="0 0 21 23" fill="none" xmlns="http://www.w3.org/2000/svg">
<path d="M10.4166 0.333984C8.53803 0.333984 6.73636 1.08026 5.40798 2.40864C4.0796 3.73702 3.33333 5.5387 3.33333 7.41731V10.2506C2.58188 10.2506 1.86121 10.5492 1.32986 11.0805C0.79851 11.6119 0.5 12.3325 0.5 13.084V20.1673C0.5 20.9187 0.79851 21.6394 1.32986 22.1708C1.86121 22.7021 2.58188 23.0006 3.33333 23.0006H17.5C18.2514 23.0006 18.9721 22.7021 19.5034 22.1708C20.0348 21.6394 20.3333 20.9187 20.3333 20.1673V13.084C20.3333 12.3325 20.0348 11.6119 19.5034 11.0805C18.9721 10.5492 18.2514 10.2506 17.5 10.2506H6.16666V7.41731C6.1663 6.38264 6.54341 5.38337 7.22726 4.60691C7.91111 3.83044 8.85473 3.33011 9.88115 3.19974C10.9076 3.06938 11.9463 3.31793 12.8026 3.89878C13.6588 4.47964 14.2737 5.3529 14.5321 6.35481C14.626 6.7187 14.8606 7.03037 15.1843 7.22126C15.3446 7.31578 15.522 7.3778 15.7062 7.40378C15.8905 7.42976 16.0781 7.4192 16.2583 7.37269C16.4384 7.32618 16.6077 7.24463 16.7564 7.13271C16.905 7.02079 17.0302 6.88068 17.1247 6.72039C17.2192 6.5601 17.2812 6.38276 17.3072 6.1985C17.3332 6.01423 17.3226 5.82666 17.2761 5.64648C16.8831 4.12606 15.9961 2.77929 14.7545 1.81771C13.5129 0.85613 11.9871 0.334229 10.4166 0.333984Z" fill="#1EB12D"/>
</svg>
