<svg width="149" height="112" viewBox="0 0 149 112" fill="none" xmlns="http://www.w3.org/2000/svg">
<path d="M50.4317 111.871C47.968 111.871 45.7095 111.017 43.8617 109.095L3.00462 66.589C-0.690994 62.7443 -0.690994 56.7636 3.00462 52.9189C6.70024 49.0742 12.449 49.0742 16.1446 52.9189L50.637 88.5894L132.557 3.57836C136.252 -0.266356 142.001 -0.266356 145.696 3.57836C149.392 7.42308 149.392 13.4038 145.696 17.2485L57.207 109.095C55.1539 111.017 52.8954 111.871 50.4317 111.871Z" fill="#0B3275"/>
<path d="M50.4317 111.871C47.968 111.871 45.7095 111.017 43.8617 109.095L3.00462 66.589C-0.690994 62.7443 -0.690994 56.7636 3.00462 52.9189C6.70024 49.0742 12.449 49.0742 16.1446 52.9189L50.637 88.5894L132.557 3.57836C136.252 -0.266356 142.001 -0.266356 145.696 3.57836C149.392 7.42308 149.392 13.4038 145.696 17.2485L57.207 109.095C55.1539 111.017 52.8954 111.871 50.4317 111.871Z" fill="#F9FBFD"/>
</svg>
