<svg width="25" height="25" viewBox="0 0 25 25" fill="none" xmlns="http://www.w3.org/2000/svg">
<path d="M9.34418 7.99198L7.82343 6.55475C8.00056 6.23294 8.11014 5.86858 8.11014 5.47549C8.11014 4.22975 7.10109 3.2207 5.85482 3.2207C4.60854 3.2207 3.5979 4.22921 3.5979 5.47549C3.5979 6.72177 4.60854 7.73134 5.85482 7.73134C6.29418 7.73134 6.70056 7.60049 7.04737 7.38347L8.56599 8.81911C8.79578 8.51539 9.05482 8.2372 9.34418 7.99198Z" fill="#0361F0"/>
<path d="M15.7766 7.8133L17.7974 4.41277C17.9963 4.46968 18.2027 4.51064 18.4192 4.51064C19.6676 4.51064 20.6766 3.50107 20.6766 2.25479C20.6766 1.00904 19.6676 0 18.4192 0C17.1729 0 16.1644 1.00851 16.1644 2.25479C16.1644 2.87341 16.4139 3.43245 16.8171 3.84043L14.8027 7.23139C15.149 7.3883 15.4756 7.58405 15.7766 7.8133Z" fill="#0361F0"/>
<path d="M22.7457 10.6602C21.7755 10.6602 20.9537 11.2766 20.6351 12.1362L17.8276 11.8591C17.8276 11.8804 17.8308 11.9006 17.8308 11.9213C17.8308 12.2873 17.7904 12.6447 17.7175 12.9899L20.5239 13.2671C20.6936 14.3437 21.6207 15.1692 22.7457 15.1692C23.9915 15.1692 25 14.1607 25 12.9149C25 11.6697 23.9915 10.6602 22.7457 10.6602Z" fill="#0361F0"/>
<path d="M14.9984 19.5277L14.3708 16.7852C14.0165 16.9086 13.6479 16.9969 13.2633 17.041L13.892 19.7841C13.1713 20.1612 12.674 20.9064 12.674 21.7766C12.674 23.0224 13.6825 24.0304 14.9309 24.0304C16.1766 24.0304 17.1851 23.0219 17.1851 21.7766C17.1867 20.5538 16.2123 19.5639 14.9984 19.5277Z" fill="#0361F0"/>
<path d="M7.63671 13.0098L4.14202 14.1805C3.73883 13.5646 3.04468 13.156 2.25479 13.156C1.00851 13.156 0 14.1651 0 15.4108C0 16.6582 1.00851 17.6672 2.25479 17.6672C3.5 17.6672 4.51117 16.6582 4.51117 15.4108C4.51117 15.3587 4.5 15.3108 4.49575 15.2598L8.0016 14.0858C7.84362 13.7449 7.71809 13.3858 7.63671 13.0098Z" fill="#0361F0"/>
<path d="M12.6755 15.7898C14.8115 15.7898 16.5431 14.0582 16.5431 11.9222C16.5431 9.78625 14.8115 8.05469 12.6755 8.05469C10.5395 8.05469 8.80795 9.78625 8.80795 11.9222C8.80795 14.0582 10.5395 15.7898 12.6755 15.7898Z" fill="#0361F0"/>
</svg>
