<svg width="36" height="30" viewBox="0 0 36 30" fill="none" xmlns="http://www.w3.org/2000/svg">
<path d="M32.3264 4.61539H26.7188L25.3828 0.873627C25.2905 0.617588 25.1214 0.396271 24.8985 0.239908C24.6756 0.0835442 24.4099 -0.00024009 24.1376 5.1677e-07H11.4874C10.9308 5.1677e-07 10.4319 0.350275 10.2463 0.873627L8.90625 4.61539H3.29861C1.47613 4.61539 0 6.09066 0 7.91209V26.7033C0 28.5247 1.47613 30 3.29861 30H32.3264C34.1489 30 35.625 28.5247 35.625 26.7033V7.91209C35.625 6.09066 34.1489 4.61539 32.3264 4.61539ZM17.8125 23.4066C14.1675 23.4066 11.2153 20.456 11.2153 16.8132C11.2153 13.1703 14.1675 10.2198 17.8125 10.2198C21.4575 10.2198 24.4097 13.1703 24.4097 16.8132C24.4097 20.456 21.4575 23.4066 17.8125 23.4066ZM13.8542 16.8132C13.8542 17.8624 14.2712 18.8686 15.0135 19.6105C15.7559 20.3524 16.7627 20.7692 17.8125 20.7692C18.8623 20.7692 19.8691 20.3524 20.6115 19.6105C21.3538 18.8686 21.7708 17.8624 21.7708 16.8132C21.7708 15.764 21.3538 14.7577 20.6115 14.0158C19.8691 13.2739 18.8623 12.8571 17.8125 12.8571C16.7627 12.8571 15.7559 13.2739 15.0135 14.0158C14.2712 14.7577 13.8542 15.764 13.8542 16.8132Z" fill="#0361F0"/>
</svg>
