<svg width="20" height="24" viewBox="0 0 20 24" fill="none" xmlns="http://www.w3.org/2000/svg">
<path fill-rule="evenodd" clip-rule="evenodd" d="M3.00007 10.6008V7.80077C3.00007 3.93478 6.13407 0.800781 10.0001 0.800781C13.866 0.800781 17 3.93479 17 7.80077V10.6008C18.5464 10.6008 19.8 11.8544 19.8 13.4008V20.4008C19.8 21.9472 18.5464 23.2008 17 23.2008H3.00007C1.45367 23.2008 0.200073 21.9472 0.200073 20.4008V13.4008C0.200073 11.8544 1.45367 10.6008 3.00007 10.6008ZM14.2 7.80077V10.6008H5.80006V7.80077C5.80006 5.48118 7.68046 3.60078 10.0001 3.60078C12.3196 3.60078 14.2 5.48118 14.2 7.80077Z" fill="#E94444"/>
</svg>
