<svg width="23" height="19" viewBox="0 0 23 19" fill="none" xmlns="http://www.w3.org/2000/svg">
<path fill-rule="evenodd" clip-rule="evenodd" d="M7.61313 4.97146C7.49823 5.08535 7.31705 5.09446 7.19709 4.98613L5.1127 3.09917C4.98719 2.98578 4.97757 2.7889 5.095 2.66741C6.65497 1.05883 8.73734 0.127995 10.9731 0.00955624C15.6829 -0.208095 19.7069 3.31783 20.1528 7.95984L21.7426 7.88442C22.0099 7.87177 22.1592 8.18811 21.9795 8.38652L18.8681 11.8208C18.7563 11.9443 18.566 11.9534 18.443 11.8416L15.0117 8.7211C14.8133 8.54041 14.9323 8.21039 15.2 8.19825L16.3839 8.14357C16.5621 8.13547 16.6997 7.973 16.6674 7.79737C16.187 5.20278 13.8551 3.29708 11.1487 3.41855C9.79319 3.48993 8.56168 4.03455 7.61313 4.97146ZM1.79871 10.3934H0.300998C0.0327181 10.3934 -0.100918 10.069 0.0894198 9.87969L3.6366 6.34465C3.75403 6.22722 3.94486 6.22774 4.06177 6.34517L7.59729 9.89286C7.78611 10.0822 7.65198 10.4056 7.38422 10.4056H6.11374C5.92746 10.4056 5.78019 10.5746 5.81763 10.7574C6.03479 11.8117 6.55005 12.7921 7.32904 13.5711C8.42487 14.6568 9.8573 15.2708 11.3829 15.2708C12.9196 15.2708 14.3682 14.6705 15.4413 13.5949L17.7909 15.9445C17.9103 16.064 17.9103 16.2614 17.7874 16.3768C16.0416 18.0162 13.7796 18.9081 11.3829 18.8909C8.88398 18.8909 6.53083 17.9074 4.75418 16.1384C3.26761 14.6508 2.34638 12.7268 2.0943 10.6592C2.07608 10.5078 1.95108 10.3934 1.79871 10.3934Z" fill="#F2F2F2"/>
</svg>
