<svg width="27" height="36" viewBox="0 0 27 36" fill="none" xmlns="http://www.w3.org/2000/svg">
<path d="M23.625 11.8125H21.9375V8.4375C21.9375 3.78 18.1575 0 13.5 0C8.8425 0 5.0625 3.78 5.0625 8.4375V11.8125H3.375C1.51875 11.8125 0 13.3313 0 15.1875V32.0625C0 33.9188 1.51875 35.4375 3.375 35.4375H23.625C25.4813 35.4375 27 33.9188 27 32.0625V15.1875C27 13.3313 25.4813 11.8125 23.625 11.8125ZM8.4375 8.4375C8.4375 5.63625 10.6988 3.375 13.5 3.375C16.3013 3.375 18.5625 5.63625 18.5625 8.4375V11.8125H8.4375V8.4375ZM23.625 32.0625H3.375V15.1875H23.625V32.0625ZM13.5 27C15.3562 27 16.875 25.4813 16.875 23.625C16.875 21.7687 15.3562 20.25 13.5 20.25C11.6438 20.25 10.125 21.7687 10.125 23.625C10.125 25.4813 11.6438 27 13.5 27Z" fill="#0361F0"/>
</svg>
