<svg width="28" height="28" viewBox="0 0 28 28" fill="none" xmlns="http://www.w3.org/2000/svg">
<path d="M2.40527 4.92383H25.6667V11.0492C25.6667 13.1819 23.9555 14.893 21.8228 14.893V8.74287H6.24911V14.9178C4.1164 14.9178 2.40527 13.2067 2.40527 11.074V4.92383ZM12.9696 19.6792C12.9696 20.2744 13.4408 20.7456 14.036 20.7456C14.6311 20.7456 15.1023 20.2744 15.1023 19.6792C15.1023 19.084 14.6311 18.6129 14.036 18.6129C13.4656 18.6129 12.9696 19.084 12.9696 19.6792ZM18.847 20.6712C18.7478 20.6464 18.6238 20.6464 18.5246 20.6464C17.5326 20.6464 16.7391 21.4399 16.7391 22.4319C16.7391 22.5311 16.7391 22.6551 16.7639 22.7543H11.3081C11.3329 22.6551 11.3329 22.5559 11.3329 22.4319C11.3329 21.4399 10.5393 20.6464 9.54737 20.6464C9.42337 20.6464 9.32418 20.6464 9.22498 20.6712V10.1564H7.71224V22.4815C7.71224 23.4487 8.50581 24.2422 9.47297 24.2422H18.599C19.5661 24.2422 20.3597 23.4487 20.3597 22.4815V10.1564H18.847V20.6712ZM14.0608 17.9185C11.9281 17.9185 10.1921 16.1826 10.1921 14.0498C10.1921 11.9171 11.9281 10.1812 14.0608 10.1812C16.1935 10.1812 17.9294 11.9171 17.9294 14.0498C17.9294 16.1826 16.1935 17.9185 14.0608 17.9185ZM16.2927 14.025C16.2927 12.7851 15.2759 11.7683 14.036 11.7683C12.796 11.7683 11.7793 12.7851 11.7793 14.025C11.7793 15.265 12.796 16.2818 14.036 16.2818C15.3007 16.2818 16.2927 15.265 16.2927 14.025Z" fill="#0361F0"/>
</svg>
