<svg width="28" height="21" viewBox="0 0 28 21" fill="none" xmlns="http://www.w3.org/2000/svg">
<path fill-rule="evenodd" clip-rule="evenodd" d="M25.772 9.25926H25.463C24.8229 9.25926 24.3056 8.74074 24.3056 8.10185C24.3056 7.46296 24.8229 6.94444 25.463 6.94444V2.31481H2.31481V6.94444C2.95486 6.94444 3.47222 7.46296 3.47222 8.10185C3.47222 8.74074 2.95486 9.25926 2.31481 9.25926H2.00579C0.899306 9.25926 0 8.39352 0 7.32986V1.92824C0 0.864583 0.899306 0 2.00579 0H25.772C26.8785 0 27.7778 0.864583 27.7778 1.92824V7.32986C27.7778 8.39352 26.8785 9.25926 25.772 9.25926ZM6.31366 4.62963H21.4641C22.0498 4.62963 22.5428 5.06713 22.6134 5.64815L24.2697 19.3102C24.3079 19.4248 24.3275 19.5475 24.3275 19.6759C24.3275 20.3148 23.8102 20.8333 23.1713 20.8333C23.1655 20.8333 23.1574 20.8333 23.1481 20.8333H4.62963C4.29861 20.8333 3.98264 20.691 3.76389 20.4433C3.54398 20.1956 3.44097 19.8646 3.48032 19.5359L5.16435 5.64815C5.23495 5.06713 5.72801 4.62963 6.31366 4.62963ZM21.8414 18.5185L20.4387 6.94444H7.33912L5.93634 18.5185H21.8414Z" fill="#9DA1AB"/>
</svg>
