<svg width="28" height="28" viewBox="0 0 28 28" fill="none" xmlns="http://www.w3.org/2000/svg">
<g clip-path="url(#clip0)">
<path d="M19.7345 1.16602H8.55503C7.71447 1.16602 7 1.83846 7 2.72105V19.154C7 19.9945 7.71447 20.709 8.55503 20.709H19.7765C20.617 20.709 21.3315 19.9945 21.3315 19.154V2.72105C21.2895 1.83846 20.617 1.16602 19.7345 1.16602ZM11.2868 18.7337H8.93328V16.7164H11.2868V18.7337ZM11.2868 14.8671H8.93328V12.8078H11.2868V14.8671ZM11.2868 10.9585H8.93328V8.89916H11.2868V10.9585ZM15.3215 18.7337H12.968V16.7164H15.3215V18.7337ZM15.3215 14.8671H12.968V12.8078H15.3215V14.8671ZM15.3215 10.9585H12.968V8.89916H15.3215V10.9585ZM19.3562 18.7337H17.0026V16.7164H19.3562V18.7337ZM19.3562 14.8671H17.0026V12.8078H19.3562V14.8671ZM19.3562 10.9585H17.0026V8.89916H19.3562V10.9585ZM19.3562 6.83979H8.93328V3.0993H19.3562V6.83979Z" fill="#0361F0"/>
<path d="M13.8512 21.2969V27.6431H17.5496C18.5163 27.6431 19.3148 26.8446 19.3148 25.8779V21.2969H13.8512ZM9.14404 21.2969V25.8359C9.14404 26.8446 9.94257 27.6431 10.9512 27.6431H11.3295V21.2969H9.14404ZM11.9179 21.2969V27.6431H13.2207V21.2969H11.9179Z" fill="#0361F0"/>
<path d="M13.8512 21.2969V27.6431H17.5496C18.5163 27.6431 19.3148 26.8446 19.3148 25.8779V21.2969H13.8512ZM9.14404 21.2969V25.8359C9.14404 26.8446 9.94257 27.6431 10.9512 27.6431H11.3295V21.2969H9.14404ZM11.9179 21.2969V27.6431H13.2207V21.2969H11.9179Z" fill="#0361F0"/>
</g>
<defs>
<clipPath id="clip0">
<rect width="27.9999" height="28" fill="white"/>
</clipPath>
</defs>
</svg>
