<svg width="20" height="27" viewBox="0 0 20 27" fill="none" xmlns="http://www.w3.org/2000/svg">
<path d="M18.0669 19.0004C18.0669 19.6033 17.5763 20.094 16.9733 20.094H3.58719C2.98423 20.094 2.49359 19.6033 2.49359 19.0004V3.58719C2.49359 2.98423 2.98423 2.49359 3.58719 2.49359H16.9733C17.5763 2.49359 18.0669 2.98423 18.0669 3.58719V19.0004ZM15.3827 24.0596C15.3827 24.3061 15.1819 24.5064 14.9359 24.5064H13.8669V21.7876H15.3827V24.0596ZM5.27935 24.0596V21.7876H10.9023V24.5064H5.72615C5.48009 24.5064 5.27935 24.3061 5.27935 24.0596ZM16.9733 0.8H3.58719C2.0499 0.8 0.8 2.0499 0.8 3.58719V19.0004C0.8 20.5372 2.04912 21.7868 3.58575 21.7876V24.0596C3.58575 25.2406 4.54593 26.2 5.72615 26.2H14.9359C16.1161 26.2 17.0763 25.2406 17.0763 24.0596V21.7857C18.566 21.7313 19.7605 20.5032 19.7605 19.0004V3.58719C19.7605 2.0499 18.5106 0.8 16.9733 0.8ZM15.2965 8.16211C15.2965 8.40817 15.0962 8.60891 14.8497 8.60891H5.81269C5.56676 8.60891 5.36589 8.40804 5.36589 8.16211V6.21202C5.36589 5.96609 5.56676 5.76522 5.81269 5.76522H14.8497C15.0962 5.76522 15.2965 5.96596 15.2965 6.21202V8.16211ZM14.8497 4.07163H5.81269C4.63243 4.07163 3.6723 5.03176 3.6723 6.21202V8.16211C3.6723 9.34237 4.63243 10.3025 5.81269 10.3025H14.8497C16.03 10.3025 16.9901 9.34237 16.9901 8.16211V6.21202C16.9901 5.03176 16.03 4.07163 14.8497 4.07163ZM5.80564 11.7229C5.05162 11.7229 4.44011 12.3344 4.44011 13.0884C4.44011 13.843 5.05154 14.4546 5.80564 14.4546C6.55973 14.4546 7.17116 13.843 7.17116 13.0884C7.17116 12.3344 6.55966 11.7229 5.80564 11.7229ZM10.3772 11.7229C9.62318 11.7229 9.01167 12.3344 9.01167 13.0884C9.01167 13.843 9.62311 14.4546 10.3772 14.4546C11.1313 14.4546 11.7427 13.843 11.7427 13.0884C11.7427 12.3344 11.1312 11.7229 10.3772 11.7229ZM14.9488 11.7229C14.1947 11.7229 13.5832 12.3344 13.5832 13.0884C13.5832 13.843 14.1947 14.4546 14.9488 14.4546C15.7029 14.4546 16.3143 13.843 16.3143 13.0884C16.3143 12.3344 15.7028 11.7229 14.9488 11.7229ZM5.80564 16.0597C5.05162 16.0597 4.44011 16.6712 4.44011 17.4252C4.44011 18.1798 5.05154 18.7914 5.80564 18.7914C6.55973 18.7914 7.17116 18.1798 7.17116 17.4252C7.17116 16.6712 6.55966 16.0597 5.80564 16.0597ZM10.3772 16.0597C9.62318 16.0597 9.01167 16.6712 9.01167 17.4252C9.01167 18.1798 9.62311 18.7914 10.3772 18.7914C11.1313 18.7914 11.7427 18.1798 11.7427 17.4252C11.7427 16.6712 11.1312 16.0597 10.3772 16.0597ZM14.9488 16.0597C14.1947 16.0597 13.5832 16.6712 13.5832 17.4252C13.5832 18.1798 14.1947 18.7914 14.9488 18.7914C15.7029 18.7914 16.3143 18.1798 16.3143 17.4252C16.3143 16.6712 15.7028 16.0597 14.9488 16.0597Z" fill="#9DA1AB" stroke="#9DA1AB" stroke-width="0.4"/>
</svg>
