<svg width="37" height="37" viewBox="0 0 37 37" fill="none" xmlns="http://www.w3.org/2000/svg">
<path d="M31.2273 0.95H5.77273C3.11375 0.95 0.95 3.11375 0.95 5.77273V31.2273C0.95 33.8852 3.11374 36.05 5.77273 36.05H31.2273C33.8852 36.05 36.05 33.8852 36.05 31.2273V5.77273C36.05 3.11374 33.8852 0.95 31.2273 0.95ZM34.3591 31.2273C34.3591 32.9476 32.9496 34.3591 31.2273 34.3591H5.77273C4.05036 34.3591 2.64091 32.9476 2.64091 31.2273V5.77273C2.64091 4.05139 4.05035 2.64091 5.77273 2.64091H31.2273C32.9496 2.64091 34.3591 4.05139 34.3591 5.77273V31.2273Z" fill="#0361F0" stroke="#0361F0" stroke-width="0.1"/>
<path d="M10.8105 7.46271C11.5838 7.46271 12.2107 6.83584 12.2107 6.06255C12.2107 5.28927 11.5838 4.6624 10.8105 4.6624C10.0373 4.6624 9.41039 5.28927 9.41039 6.06255C9.41039 6.83584 10.0373 7.46271 10.8105 7.46271Z" fill="#0361F0" stroke="#0361F0" stroke-width="0.1"/>
<path d="M18.5001 7.46271C19.2733 7.46271 19.9002 6.83584 19.9002 6.06255C19.9002 5.28927 19.2733 4.6624 18.5001 4.6624C17.7268 4.6624 17.0999 5.28927 17.0999 6.06255C17.0999 6.83584 17.7268 7.46271 18.5001 7.46271Z" fill="#0361F0" stroke="#0361F0" stroke-width="0.1"/>
<path d="M26.1894 7.46271C26.9627 7.46271 27.5895 6.83584 27.5895 6.06255C27.5895 5.28927 26.9627 4.6624 26.1894 4.6624C25.4161 4.6624 24.7892 5.28927 24.7892 6.06255C24.7892 6.83584 25.4161 7.46271 26.1894 7.46271Z" fill="#0361F0" stroke="#0361F0" stroke-width="0.1"/>
<path d="M17.7334 14.6831V14.6331H17.6834H12.8088H12.7588V14.6831V19.0189V19.0689H12.8088H17.6834H17.7334V19.0189V14.6831Z" fill="#0361F0" stroke="#0361F0" stroke-width="0.1"/>
<path d="M24.2412 14.6831V14.6331H24.1912H19.3177H19.2677V14.6831V19.0189V19.0689H19.3177H24.1912H24.2412V19.0189V14.6831Z" fill="#0361F0" stroke="#0361F0" stroke-width="0.1"/>
<path d="M30.747 14.6831V14.6331H30.697H25.8224H25.7724V14.6831V19.0189V19.0689H25.8224H30.697H30.747V19.0189V14.6831Z" fill="#0361F0" stroke="#0361F0" stroke-width="0.1"/>
<path d="M11.2265 20.4712V20.4212H11.1765H6.30304H6.25304V20.4712V24.8048V24.8548H6.30304H11.1765H11.2265V24.8048V20.4712Z" fill="#0361F0" stroke="#0361F0" stroke-width="0.1"/>
<path d="M17.7334 20.4712V20.4212H17.6834H12.8088H12.7588V20.4712V24.8048V24.8548H12.8088H17.6834H17.7334V24.8048V20.4712Z" fill="#0361F0" stroke="#0361F0" stroke-width="0.1"/>
<path d="M24.2412 20.4712V20.4212H24.1912H19.3177H19.2677V20.4712V24.8048V24.8548H19.3177H24.1912H24.2412V24.8048V20.4712Z" fill="#0361F0" stroke="#0361F0" stroke-width="0.1"/>
<path d="M30.747 20.4712V20.4212H30.697H25.8224H25.7724V20.4712V24.8048V24.8548H25.8224H30.697H30.747V24.8048V20.4712Z" fill="#0361F0" stroke="#0361F0" stroke-width="0.1"/>
<path d="M11.2265 26.2588V26.2088H11.1765H6.30304H6.25304V26.2588V30.5924V30.6424H6.30304H11.1765H11.2265V30.5924V26.2588Z" fill="#0361F0" stroke="#0361F0" stroke-width="0.1"/>
<path d="M17.7334 26.2588V26.2088H17.6834H12.8088H12.7588V26.2588V30.5924V30.6424H12.8088H17.6834H17.7334V30.5924V26.2588Z" fill="#0361F0" stroke="#0361F0" stroke-width="0.1"/>
<path d="M24.2412 26.2588V26.2088H24.1912H19.3177H19.2677V26.2588V30.5924V30.6424H19.3177H24.1912H24.2412V30.5924V26.2588Z" fill="#0361F0" stroke="#0361F0" stroke-width="0.1"/>
<path d="M30.747 26.2588V26.2088H30.697H25.8224H25.7724V26.2588V30.5924V30.6424H25.8224H30.697H30.747V30.5924V26.2588Z" fill="#0361F0" stroke="#0361F0" stroke-width="0.1"/>
</svg>
