<svg width="30" height="25" viewBox="0 0 30 25" fill="none" xmlns="http://www.w3.org/2000/svg">
<path d="M25.9565 7.05263H25.1506C23.1273 3.32542 19.2962 1.01332 15.0268 1.00363C15.0183 1.00363 15.0097 1 15.0012 1C15.0012 1 15.0012 1 15 1C14.9988 1 14.9988 1 14.9976 1C14.9915 1 14.9854 1.00242 14.9793 1.00242C10.7075 1.00968 6.87391 3.32421 4.84939 7.05263H4.04348C2.36591 7.05263 1 8.41084 1 10.0789V14.9211C1 16.5892 2.36591 17.9474 4.04348 17.9474H4.84939C6.87635 21.6831 10.7197 24 15 24C19.2803 24 23.1236 21.6831 25.1506 17.9474H25.9565C27.6341 17.9474 29 16.5892 29 14.9211V10.0789C29 8.41084 27.6341 7.05263 25.9565 7.05263ZM23.7433 7.05263H20.8885C20.3602 5.347 19.6127 3.93916 18.713 2.91384C20.7741 3.70311 22.5381 5.13395 23.7433 7.05263ZM10.3922 7.05263C11.287 4.42216 12.7722 2.65358 14.3913 2.29284V7.05263H10.3922ZM15.6087 2.29284C17.2278 2.65237 18.7155 4.42095 19.6103 7.05263H15.6087V2.29284ZM11.2918 2.91263C10.391 3.93795 9.6447 5.347 9.11513 7.05263H6.2567C7.46313 5.13274 9.22835 3.70068 11.2918 2.91263ZM6.2567 17.9474H9.11391C9.64348 19.6542 10.3897 21.0633 11.2918 22.0886C9.22713 21.2993 7.46191 19.8673 6.2567 17.9474ZM19.609 17.9474C18.7143 20.5778 17.2278 22.3476 15.6087 22.7072V17.9474H19.609ZM14.3913 22.7072C12.7722 22.3476 11.2857 20.5791 10.391 17.9474H14.3913V22.7072ZM18.7094 22.0886C19.6103 21.0633 20.3577 19.6542 20.8861 17.9474H23.7433C22.5381 19.8673 20.7729 21.2993 18.7094 22.0886ZM27.7826 14.9211C27.7826 15.9222 26.9633 16.7368 25.9565 16.7368H4.04348C3.0367 16.7368 2.21739 15.9222 2.21739 14.9211V10.0789C2.21739 9.07784 3.0367 8.26316 4.04348 8.26316H5.15617C5.15861 8.26316 5.15983 8.26316 5.16226 8.26316H25.9565C26.9633 8.26316 27.7826 9.07784 27.7826 10.0789V14.9211Z" fill="#0361F0" stroke="#0361F0" stroke-width="0.2"/>
<path d="M17.5822 9.49215C17.2559 9.40741 16.9248 9.60715 16.8444 9.93278L16.1335 12.7581L15.5771 11.0985C15.4128 10.6046 14.5886 10.6046 14.423 11.0985L13.8667 12.7581L13.1557 9.93278C13.0742 9.60836 12.743 9.40862 12.418 9.49215C12.0917 9.57325 11.8933 9.9013 11.9749 10.2257L13.1923 15.0678C13.258 15.3281 13.4893 15.5157 13.7596 15.5254C14.031 15.546 14.2745 15.368 14.3597 15.1126L15.0001 13.2036L15.6404 15.1126C15.7232 15.3608 15.957 15.5266 16.2175 15.5266C16.2248 15.5266 16.2333 15.5266 16.2406 15.5254C16.5109 15.5157 16.7422 15.3293 16.8079 15.0678L18.0253 10.2257C18.1069 9.9013 17.9084 9.57325 17.5822 9.49215Z" fill="#0361F0" stroke="#0361F0" stroke-width="0.2"/>
<path d="M10.2777 9.49215C9.94903 9.40741 9.62033 9.60715 9.53999 9.93278L8.82903 12.7581L8.27268 11.0985C8.10833 10.6046 7.28416 10.6046 7.11859 11.0985L6.56225 12.7581L5.85129 9.93278C5.76972 9.60836 5.43738 9.40862 5.11355 9.49215C4.78729 9.57325 4.58886 9.9013 4.67042 10.2257L5.88781 15.0678C5.95355 15.3281 6.18486 15.5157 6.45512 15.5254C6.73512 15.546 6.97129 15.368 7.05529 15.1126L7.69564 13.2036L8.33599 15.1126C8.41877 15.3608 8.65251 15.5266 8.91303 15.5266C8.92033 15.5266 8.92886 15.5266 8.93616 15.5254C9.20642 15.5157 9.43773 15.3293 9.50346 15.0678L10.7209 10.2257C10.8024 9.9013 10.604 9.57325 10.2777 9.49215Z" fill="#0361F0" stroke="#0361F0" stroke-width="0.2"/>
<path d="M24.8866 9.49215C24.5579 9.40741 24.2304 9.60715 24.1489 9.93278L23.4379 12.7581L22.8816 11.0985C22.7172 10.6046 21.893 10.6046 21.7275 11.0985L21.1711 12.7581L20.4602 9.93278C20.3786 9.60836 20.0463 9.40862 19.7224 9.49215C19.3962 9.57325 19.1977 9.9013 19.2793 10.2257L20.4967 15.0678C20.5624 15.3281 20.7937 15.5157 21.064 15.5254C21.3477 15.546 21.5802 15.368 21.6642 15.1126L22.3045 13.2036L22.9449 15.1126C23.0277 15.3608 23.2614 15.5266 23.5219 15.5266C23.5292 15.5266 23.5377 15.5266 23.545 15.5254C23.8153 15.5157 24.0466 15.3293 24.1124 15.0678L25.3297 10.2257C25.4113 9.9013 25.2129 9.57325 24.8866 9.49215Z" fill="#0361F0" stroke="#0361F0" stroke-width="0.2"/>
</svg>
