<svg xmlns="http://www.w3.org/2000/svg"
    width="32"
    height="36"
    viewBox="0 0 20 24">
    <path
        d="M5.1715,4.1569C4.5575,5.4665 4.4826,6.9315 4.9523,8.2905H3.7693C2.2152,8.2905 0.95,9.5458 0.95,11.0895V20.2559C0.95,21.8005 2.2152,23.0559 3.7693,23.0559H16.6928C18.2469,23.0559 19.5122,21.8005 19.5122,20.2559V11.0895C19.5122,9.5458 18.2469,8.2905 16.6928,8.2905H7.0159L6.8146,7.7318L6.8145,7.7315C6.4831,6.8265 6.5259,5.8471 6.9356,4.9739C7.3453,4.1007 8.0727,3.4388 8.9843,3.1101L8.9843,3.1101C9.8979,2.7804 10.883,2.8223 11.7627,3.2302L11.7627,3.2303C12.6421,3.6372 13.3087,4.3589 13.6606,5.3151L13.6605,5.3152L13.6617,5.3179L13.9478,5.9742L13.9479,5.9742C14.162,6.4638 14.7341,6.6904 15.2283,6.4774L15.2283,6.4773C15.7205,6.2643 15.9477,5.6959 15.7343,5.2059L15.7342,5.2057L15.4681,4.6016C14.9584,3.2116 13.9348,2.1026 12.5848,1.4779C11.2334,0.8521 9.7169,0.7868 8.3189,1.2935C6.9191,1.7992 5.8012,2.8165 5.1715,4.1569L5.1715,4.1569ZM6.6598,10.1665L6.6599,10.1667L6.6603,10.1665H16.6928C17.1713,10.1665 17.5659,10.6085 17.5659,11.0895V20.2559C17.5659,20.7338 17.1751,21.1226 16.6928,21.1226H3.7693C3.2871,21.1226 2.8962,20.7338 2.8962,20.2559V11.0895C2.8962,10.6085 3.2908,10.1665 3.7693,10.1665H6.016C6.1161,10.2013 6.2207,10.2237 6.3309,10.2237C6.4408,10.2237 6.5507,10.2053 6.6594,10.1665H6.6598ZM11.2042,17.506V15.4465C11.7541,15.1166 12.1273,14.524 12.1273,13.8394C12.1273,12.8006 11.2756,11.957 10.2311,11.957C9.1856,11.957 8.3349,12.8006 8.3349,13.8394C8.3349,14.524 8.7081,15.1166 9.258,15.4465V17.506C9.258,18.0407 9.6933,18.4726 10.2311,18.4726C10.7688,18.4726 11.2042,18.0407 11.2042,17.506Z"
        stroke-width="0.1"
        fill="#1EB12D"
        stroke="#1EB12D"/>
</svg>
