<svg width="23" height="24" viewBox="0 0 23 24" fill="none" xmlns="http://www.w3.org/2000/svg">
<path d="M21.7222 14.0903H16.2278L17.1606 8.97923H21.7222C22.0611 8.97923 22.3861 8.8446 22.6257 8.60497C22.8654 8.36535 23 8.04034 23 7.70145C23 7.36256 22.8654 7.03755 22.6257 6.79792C22.3861 6.5583 22.0611 6.42367 21.7222 6.42367H17.6206L18.5022 1.55534C18.5371 1.38451 18.5366 1.20835 18.5008 1.03772C18.465 0.867079 18.3947 0.705572 18.2941 0.563135C18.1936 0.420697 18.0649 0.300343 17.9161 0.209479C17.7673 0.118615 17.6015 0.0591632 17.4289 0.0347837C17.2572 -0.00610856 17.079 -0.0110039 16.9053 0.020406C16.7317 0.0518158 16.5664 0.11885 16.42 0.217285C16.2735 0.315719 16.1491 0.44342 16.0544 0.592341C15.9597 0.741262 15.897 0.908175 15.87 1.08256L14.9117 6.42367H9.95389L10.8356 1.55534C10.8704 1.38451 10.8699 1.20835 10.8341 1.03772C10.7983 0.867079 10.728 0.705572 10.6275 0.563135C10.5269 0.420697 10.3983 0.300343 10.2495 0.209479C10.1007 0.118615 9.93486 0.0591632 9.76222 0.0347837C9.59057 -0.00610856 9.4123 -0.0110039 9.23866 0.020406C9.06502 0.0518158 8.89977 0.11885 8.75332 0.217285C8.60687 0.315719 8.48239 0.44342 8.38774 0.592341C8.29308 0.741262 8.23029 0.908175 8.20333 1.08256L7.245 6.42367H1.27778C0.93889 6.42367 0.613882 6.5583 0.374252 6.79792C0.134623 7.03755 0 7.36256 0 7.70145C0 8.04034 0.134623 8.36535 0.374252 8.60497C0.613882 8.8446 0.93889 8.97923 1.27778 8.97923H6.77222L5.83944 14.0903H1.27778C0.93889 14.0903 0.613882 14.225 0.374252 14.4646C0.134623 14.7042 0 15.0292 0 15.3681C0 15.707 0.134623 16.032 0.374252 16.2716C0.613882 16.5113 0.93889 16.6459 1.27778 16.6459H5.37944L4.49778 21.5142C4.46294 21.6851 4.46343 21.8612 4.49922 22.0319C4.53501 22.2025 4.60534 22.364 4.70588 22.5064C4.80643 22.6489 4.93506 22.7692 5.08386 22.8601C5.23265 22.951 5.39848 23.0104 5.57111 23.0348C5.74277 23.0757 5.92103 23.0806 6.09467 23.0492C6.26831 23.0177 6.43356 22.9507 6.58001 22.8523C6.72646 22.7538 6.85094 22.6261 6.9456 22.4772C7.04026 22.3283 7.10304 22.1614 7.13 21.987L8.08833 16.6459H13.0461L12.1644 21.5142C12.1296 21.6851 12.1301 21.8612 12.1659 22.0319C12.2017 22.2025 12.272 22.364 12.3725 22.5064C12.4731 22.6489 12.6017 22.7692 12.7505 22.8601C12.8993 22.951 13.0651 23.0104 13.2378 23.0348C13.4094 23.0757 13.5877 23.0806 13.7613 23.0492C13.935 23.0177 14.1002 22.9507 14.2467 22.8523C14.3931 22.7538 14.5176 22.6261 14.6123 22.4772C14.7069 22.3283 14.7697 22.1614 14.7967 21.987L15.755 16.6459H21.7222C22.0611 16.6459 22.3861 16.5113 22.6257 16.2716C22.8654 16.032 23 15.707 23 15.3681C23 15.0292 22.8654 14.7042 22.6257 14.4646C22.3861 14.225 22.0611 14.0903 21.7222 14.0903ZM8.56111 14.0903L9.49389 8.97923H14.4389L13.5061 14.0903H8.56111Z" fill="#9DA1AB"/>
</svg>
