<svg width="40" height="40" viewBox="0 0 40 40" fill="none" xmlns="http://www.w3.org/2000/svg">
<path d="M20 40C8.95933 39.9879 0.0121247 31.0407 0 20V19.6C0.219863 8.6091 9.26917 -0.144051 20.2613 0.00179643C31.2535 0.147644 40.0674 9.13781 39.9956 20.1307C39.9237 31.1236 30.9931 39.9978 20 40ZM12.2314 20.5859C11.4514 19.809 10.1898 19.8103 9.41136 20.5887C8.63189 21.3681 8.63189 22.6319 9.41136 23.4114L13.8413 27.8413C15.0335 29.0335 16.9665 29.0335 18.1587 27.8413L30.59 15.41C31.3695 14.6305 31.3718 13.3673 30.595 12.5851C29.8143 11.7989 28.5434 11.7966 27.76 12.58L16.4607 23.8793C16.2061 24.1339 15.7935 24.1343 15.5384 23.8802L12.2314 20.5859Z" fill="#1EB12D"/>
</svg>
