<svg width="28" height="28" viewBox="0 0 28 28" fill="none" xmlns="http://www.w3.org/2000/svg">
<g clip-path="url(#clip0)">
<path d="M3.50001 15.7493L2.62502 13.9993H8.75L8.05 12.2493H2.33335L1.45835 10.4993H10.5583L9.85833 8.74934H1.29502L0.291687 6.99935H4.66668C4.66668 6.38051 4.91251 5.78702 5.35009 5.34943C5.78768 4.91185 6.38117 4.66602 7.00001 4.66602H21V9.33268H24.5L28 13.9993V19.8327H25.6666C25.6666 20.7609 25.2979 21.6512 24.6415 22.3075C23.9851 22.9639 23.0949 23.3327 22.1666 23.3327C21.2384 23.3327 20.3481 22.9639 19.6918 22.3075C19.0354 21.6512 18.6666 20.7609 18.6666 19.8327H14C14 20.7609 13.6312 21.6512 12.9749 22.3075C12.3185 22.9639 11.4283 23.3327 10.5 23.3327C9.57174 23.3327 8.68151 22.9639 8.02513 22.3075C7.36875 21.6512 7.00001 20.7609 7.00001 19.8327H4.66668V15.7493H3.50001ZM22.1666 21.5827C22.6308 21.5827 23.0759 21.3983 23.4041 21.0701C23.7323 20.7419 23.9166 20.2968 23.9166 19.8327C23.9166 19.3685 23.7323 18.9234 23.4041 18.5952C23.0759 18.267 22.6308 18.0827 22.1666 18.0827C21.7025 18.0827 21.2574 18.267 20.9292 18.5952C20.601 18.9234 20.4166 19.3685 20.4166 19.8327C20.4166 20.2968 20.601 20.7419 20.9292 21.0701C21.2574 21.3983 21.7025 21.5827 22.1666 21.5827ZM23.9166 11.0827H21V13.9993H26.2033L23.9166 11.0827ZM10.5 21.5827C10.9641 21.5827 11.4092 21.3983 11.7374 21.0701C12.0656 20.7419 12.25 20.2968 12.25 19.8327C12.25 19.3685 12.0656 18.9234 11.7374 18.5952C11.4092 18.267 10.9641 18.0827 10.5 18.0827C10.0359 18.0827 9.59075 18.267 9.26256 18.5952C8.93438 18.9234 8.75 19.3685 8.75 19.8327C8.75 20.2968 8.93438 20.7419 9.26256 21.0701C9.59075 21.3983 10.0359 21.5827 10.5 21.5827Z" fill="#0361F0"/>
</g>
<defs>
<clipPath id="clip0">
<rect width="27.9999" height="28" fill="white"/>
</clipPath>
</defs>
</svg>
