<svg width="180" height="113" viewBox="0 0 180 113" fill="none" xmlns="http://www.w3.org/2000/svg">
    <path
        d="M4 91.4974C4 98.7546 9.99028 104.731 17.2642 104.731H162.457C169.731 104.731 175.721 98.7546 175.721 91.4974V13.2337C175.721 5.9765 169.731 0 162.457 0H17.2642C9.99028 0 4 5.9765 4 13.2337V91.4974Z"
        fill="#B3B3B3" />
    <g filter="url(#filter0_d)">
        <path
            d="M4 91.4974C4 98.7546 9.99028 104.731 17.2642 104.731H162.457C169.731 104.731 175.721 98.7546 175.721 91.4974V13.2337C175.721 5.9765 169.731 0 162.457 0H17.2642C9.99028 0 4 5.9765 4 13.2337V91.4974Z"
            fill="#F7F7F7" />
    </g>
    <path d="M27.2479 22.4824H26.2495V71.7174H27.2479V22.4824Z" fill="#1A1A1A" />
    <path d="M30.1004 22.4824H29.1021V71.7174H30.1004V22.4824Z" fill="#1A1A1A" />
    <path d="M33.0954 22.4824H31.0986V71.7174H33.0954V22.4824Z" fill="#1A1A1A" />
    <path d="M36.0905 22.4824H34.0938V71.7174H36.0905V22.4824Z" fill="#1A1A1A" />
    <path d="M38.0872 22.4824H37.0889V71.7174H38.0872V22.4824Z" fill="#1A1A1A" />
    <path d="M41.0827 22.4824H39.0859V71.7174H41.0827V22.4824Z" fill="#1A1A1A" />
    <path d="M42.9369 22.4824H41.9385V71.7174H42.9369V22.4824Z" fill="#1A1A1A" />
    <path d="M44.9334 22.4824H43.9351V71.7174H44.9334V22.4824Z" fill="#1A1A1A" />
    <path d="M47.9286 22.4824H46.9302V71.7174H47.9286V22.4824Z" fill="#1A1A1A" />
    <path d="M50.9235 22.4824H48.9268V71.7174H50.9235V22.4824Z" fill="#1A1A1A" />
    <path d="M52.9203 22.4824H51.9219V71.7174H52.9203V22.4824Z" fill="#1A1A1A" />
    <path d="M54.7747 22.4824H53.7764V71.7174H54.7747V22.4824Z" fill="#1A1A1A" />
    <path d="M58.7682 22.4824H56.7715V71.7174H58.7682V22.4824Z" fill="#1A1A1A" />
    <path d="M60.765 22.4824H59.7666V71.7174H60.765V22.4824Z" fill="#1A1A1A" />
    <path d="M63.7599 22.4824H61.7632V71.7174H63.7599V22.4824Z" fill="#1A1A1A" />
    <path d="M66.7551 22.4824H64.7583V71.7174H66.7551V22.4824Z" fill="#1A1A1A" />
    <path d="M68.6092 22.4824H67.6108V71.7174H68.6092V22.4824Z" fill="#1A1A1A" />
    <path d="M72.6027 22.4824H70.606V71.7174H72.6027V22.4824Z" fill="#1A1A1A" />
    <path d="M74.5995 22.4824H73.6011V71.7174H74.5995V22.4824Z" fill="#1A1A1A" />
    <path d="M76.5965 22.4824H75.5981V71.7174H76.5965V22.4824Z" fill="#1A1A1A" />
    <path d="M79.5915 22.4824H77.5947V71.7174H79.5915V22.4824Z" fill="#1A1A1A" />
    <path d="M81.4456 22.4824H80.4473V71.7174H81.4456V22.4824Z" fill="#1A1A1A" />
    <path d="M84.4408 22.4824H83.4424V71.7174H84.4408V22.4824Z" fill="#1A1A1A" />
    <path d="M87.4357 22.4824H85.439V71.7174H87.4357V22.4824Z" fill="#1A1A1A" />
    <path d="M89.4325 22.4824H88.4341V71.7174H89.4325V22.4824Z" fill="#1A1A1A" />
    <path d="M91.4295 22.4824H90.4312V71.7174H91.4295V22.4824Z" fill="#1A1A1A" />
    <path d="M94.2821 22.4824H93.2837V71.7174H94.2821V22.4824Z" fill="#1A1A1A" />
    <path d="M97.2772 22.4824H96.2788V71.7174H97.2772V22.4824Z" fill="#1A1A1A" />
    <path d="M100.272 22.4824H99.2739V71.7174H100.272V22.4824Z" fill="#1A1A1A" />
    <path d="M102.269 22.4824H101.271V71.7174H102.269V22.4824Z" fill="#1A1A1A" />
    <path d="M104.266 22.4824H103.268V71.7174H104.266V22.4824Z" fill="#1A1A1A" />
    <path d="M107.118 22.4824H105.122V71.7174H107.118V22.4824Z" fill="#1A1A1A" />
    <path d="M109.115 22.4824H108.117V71.7174H109.115V22.4824Z" fill="#1A1A1A" />
    <path d="M112.11 22.4824H111.112V71.7174H112.11V22.4824Z" fill="#1A1A1A" />
    <path d="M115.105 22.4824H113.108V71.7174H115.105V22.4824Z" fill="#1A1A1A" />
    <path d="M118.1 22.4824H116.104V71.7174H118.1V22.4824Z" fill="#1A1A1A" />
    <path d="M119.954 22.4824H118.956V71.7174H119.954V22.4824Z" fill="#1A1A1A" />
    <path d="M122.95 22.4824H121.951V71.7174H122.95V22.4824Z" fill="#1A1A1A" />
    <path d="M124.947 22.4824H123.948V71.7174H124.947V22.4824Z" fill="#1A1A1A" />
    <path d="M127.942 22.4824H125.945V71.7174H127.942V22.4824Z" fill="#1A1A1A" />
    <path d="M129.938 22.4824H128.94V71.7174H129.938V22.4824Z" fill="#1A1A1A" />
    <path d="M131.792 22.4824H130.794V71.7174H131.792V22.4824Z" fill="#1A1A1A" />
    <path d="M135.786 22.4824H133.789V71.7174H135.786V22.4824Z" fill="#1A1A1A" />
    <path d="M137.783 22.4824H136.784V71.7174H137.783V22.4824Z" fill="#1A1A1A" />
    <path d="M140.778 22.4824H138.781V71.7174H140.778V22.4824Z" fill="#1A1A1A" />
    <path d="M142.775 22.4824H141.776V71.7174H142.775V22.4824Z" fill="#1A1A1A" />
    <path d="M145.627 22.4824H144.629V71.7174H145.627V22.4824Z" fill="#1A1A1A" />
    <path d="M148.622 22.4824H146.625V71.7174H148.622V22.4824Z" fill="#1A1A1A" />
    <path d="M151.617 22.4824H149.621V71.7174H151.617V22.4824Z" fill="#1A1A1A" />
    <path d="M153.614 22.4824H152.616V71.7174H153.614V22.4824Z" fill="#1A1A1A" />
    <path
        d="M65.1515 75L64.9884 76.79L66.7825 76.3018L66.9456 77.1154L65.3146 77.2781L66.4563 78.7426L65.6408 79.2308L64.8253 77.6036L64.173 79.2308L63.3575 78.7426L64.4991 77.2781L62.8682 77.1154L63.0313 76.3018L64.8253 76.79L64.6623 75H65.1515Z"
        fill="#1A1A1A" />
    <path
        d="M72.1649 81.8351L71.3494 79.7197H68.7399L67.9244 81.8351H67.1089L69.7185 75.3262H70.3709L72.9804 81.8351H72.1649ZM71.1864 79.2315L70.3709 77.2789C70.2078 76.9534 70.2078 76.7907 70.0447 76.3025C70.0447 76.628 69.8816 76.9534 69.7185 77.2789L68.903 79.2315H71.1864Z"
        fill="#1A1A1A" />
    <path
        d="M77.8729 80.3706H76.8943V81.8351H76.2419V80.3706H73.1431V79.7197L76.2419 75.3262H77.0574V79.7197H78.036V80.3706H77.8729ZM76.2419 79.7197V77.6043C76.2419 77.1161 76.2419 76.7907 76.2419 76.1398C76.0788 76.4652 75.9157 76.628 75.9157 76.7907L73.7955 79.7197H76.2419Z"
        fill="#1A1A1A" />
    <path
        d="M80.6456 77.9305C81.298 77.9305 81.7873 78.0932 82.2766 78.4186C82.6028 78.7441 82.929 79.2323 82.929 79.7204C82.929 80.3713 82.7659 80.8595 82.2766 81.3477C81.7873 81.6731 81.298 81.8358 80.4825 81.8358C79.8302 81.8358 79.1778 81.6731 78.8516 81.5104V80.8595C79.0147 81.0222 79.3409 81.0222 79.6671 81.1849C79.9933 81.1849 80.3194 81.3477 80.6456 81.3477C81.1349 81.3477 81.6242 81.1849 81.7873 81.0222C82.1135 80.6968 82.2766 80.3713 82.2766 80.0459C82.2766 79.0695 81.7873 78.7441 80.6456 78.7441C80.3194 78.7441 79.9932 78.7441 79.504 78.9068L79.1778 78.7441L79.3409 75.6523H82.6028V76.3032H79.9932L79.504 78.0932C79.8302 77.9305 80.1563 77.9305 80.6456 77.9305Z"
        fill="#1A1A1A" />
    <path
        d="M85.8649 75.3262C86.5173 75.3262 86.8435 75.4889 87.3328 75.8143C87.659 76.1398 87.8221 76.4652 87.8221 76.9534C87.8221 77.2789 87.659 77.6043 87.4959 77.767C87.3328 78.0925 87.0066 78.2552 86.5173 78.4179C87.0066 78.7434 87.3328 78.9061 87.659 79.2315C87.8221 79.557 87.9852 79.8824 87.9852 80.2079C87.9852 80.696 87.8221 81.1842 87.4959 81.5097C87.1697 81.8351 86.6804 81.9978 86.028 81.9978C85.3756 81.9978 84.8863 81.8351 84.397 81.5097C84.0708 81.1842 83.9077 80.8588 83.9077 80.2079C83.9077 79.3943 84.397 78.9061 85.2125 78.4179C84.8863 78.2552 84.5601 77.9297 84.397 77.6043C84.2339 77.2789 84.0708 77.1161 84.0708 76.7907C84.0708 76.3025 84.2339 75.9771 84.5601 75.6516C84.8863 75.4889 85.2125 75.3262 85.8649 75.3262ZM84.397 80.2079C84.397 80.5333 84.5601 80.8588 84.7232 81.0215C85.0494 81.1842 85.3756 81.3469 85.7018 81.3469C86.1911 81.3469 86.5173 81.1842 86.6804 81.0215C86.8435 80.8588 87.0066 80.5333 87.0066 80.2079C87.0066 79.8824 86.8435 79.7197 86.6804 79.3943C86.5173 79.2315 86.028 78.9061 85.5387 78.7434C85.0494 78.9061 84.7232 79.0688 84.5601 79.3943C84.5601 79.7197 84.397 79.8824 84.397 80.2079ZM85.8649 75.9771C85.5387 75.9771 85.2125 76.1398 85.0494 76.3025C84.7232 76.3025 84.7232 76.628 84.7232 76.9534C84.7232 77.2789 84.8863 77.4416 85.0494 77.6043C85.2125 77.767 85.5387 77.9297 86.028 78.2552C86.5173 78.0925 86.6804 77.9297 86.8435 77.767C87.0066 77.6043 87.1697 77.2789 87.1697 77.1161C87.1697 76.7907 87.0066 76.628 86.8435 76.4652C86.5173 75.9771 86.1911 75.9771 85.8649 75.9771Z"
        fill="#1A1A1A" />
    <path
        d="M93.2044 79.8811C93.2044 80.2065 93.0413 80.532 92.7151 80.8574C92.3889 81.1829 92.0627 81.3456 91.4103 81.3456V82.3219H90.921V81.3456C90.5948 81.3456 90.2686 81.3456 89.9424 81.3456C89.6162 81.3456 89.4532 81.1829 89.127 81.1829V80.532C89.2901 80.6947 89.6162 80.6947 89.9424 80.8574C90.2686 80.8574 90.5948 81.0202 90.7579 81.0202V79.0675C90.1055 78.9048 89.7793 78.5793 89.4532 78.4166C89.2901 78.0911 89.127 77.7657 89.127 77.4402C89.127 77.1148 89.2901 76.7893 89.6162 76.4639C89.9424 76.1385 90.2686 76.1385 90.7579 75.9757V75.1621H91.2472V75.9757C91.7365 75.9757 92.3889 76.1385 92.8782 76.3012V76.7893C92.3889 76.6266 92.0627 76.4639 91.5734 76.4639V78.4166C92.0627 78.5793 92.3889 78.742 92.552 78.9048C92.7151 79.0675 92.8782 79.2302 93.0413 79.3929C93.2044 79.3929 93.2044 79.7184 93.2044 79.8811ZM90.1055 77.2775C90.1055 77.4402 90.1055 77.603 90.2686 77.7657C90.4317 77.9284 90.5948 78.0911 90.921 78.0911V76.4639C90.5948 76.4639 90.4317 76.6266 90.2686 76.7893C90.1055 76.7893 90.1055 76.9521 90.1055 77.2775ZM92.552 79.8811C92.552 79.7184 92.552 79.5556 92.3889 79.3929C92.2258 79.2302 92.0627 79.0675 91.5734 79.0675V80.8574C92.2258 80.6947 92.552 80.3693 92.552 79.8811Z"
        fill="#1A1A1A" />
    <path
        d="M95.814 75.4883H97.6081C98.4236 75.4883 99.0759 75.651 99.4021 75.8137C99.7283 76.1392 100.055 76.4646 100.055 76.9528C100.055 77.2782 99.8914 77.6037 99.7283 77.9291C99.5652 78.2546 99.239 78.4173 98.7497 78.4173C99.7283 78.58 100.218 79.0682 100.218 79.8818C100.218 80.5327 100.055 80.8582 99.5652 81.1836C99.239 81.5091 98.5866 81.6718 97.9343 81.6718H95.6509V75.4883H95.814ZM96.4664 78.2546H97.7712C98.2605 78.2546 98.7497 78.0919 98.9128 77.9291C99.0759 77.7664 99.239 77.441 99.239 77.1155C99.239 76.7901 99.0759 76.4646 98.9128 76.3019C98.5866 76.1392 98.2605 76.1392 97.6081 76.1392H96.4664V78.2546ZM96.4664 78.9055V81.3463H97.7712C98.2605 81.3463 98.7497 81.1836 98.9128 81.0209C99.239 80.8582 99.239 80.5327 99.239 80.0445C99.239 79.7191 99.0759 79.3936 98.9128 79.2309C98.5866 79.0682 98.2605 78.9055 97.6081 78.9055H96.4664Z"
        fill="#1A1A1A" />
    <path
        d="M103.969 81.8351H103.317V77.2789C103.317 76.9534 103.317 76.4652 103.317 76.1398L103.153 76.3025C103.153 76.3025 102.664 76.628 102.175 77.1161L101.849 76.628L103.48 75.3262H104.132V81.8351H103.969Z"
        fill="#1A1A1A" />
    <path
        d="M110.982 80.3706H110.003V81.8351H109.188V80.3706H106.089V79.7197L109.188 75.3262H110.003V79.7197H110.982V80.3706ZM109.188 79.7197V77.6043C109.188 77.1161 109.188 76.7907 109.188 76.1398C109.025 76.4652 108.862 76.628 108.862 76.7907L106.904 79.7197H109.188Z"
        fill="#1A1A1A" />
    <path
        d="M113.918 75L113.755 76.79L115.549 76.3018L115.712 77.1154L114.081 77.2781L115.222 78.7426L114.407 79.2308L113.591 77.6036L112.939 79.2308L112.124 78.7426L113.265 77.2781L111.634 77.1154L111.797 76.3018L113.591 76.79L113.428 75H113.918Z"
        fill="#1A1A1A" />
    <defs>
        <filter id="filter0_d" x="0" y="0" width="179.721" height="112.731"
            filterUnits="userSpaceOnUse" color-interpolation-filters="sRGB">
            <feFlood flood-opacity="0" result="BackgroundImageFix" />
            <feColorMatrix in="SourceAlpha" type="matrix"
                values="0 0 0 0 0 0 0 0 0 0 0 0 0 0 0 0 0 0 127 0" result="hardAlpha" />
            <feOffset dy="4" />
            <feGaussianBlur stdDeviation="2" />
            <feComposite in2="hardAlpha" operator="out" />
            <feColorMatrix type="matrix"
                values="0 0 0 0 0.74902 0 0 0 0 0.811765 0 0 0 0 0.905882 0 0 0 0.25 0" />
            <feBlend mode="normal" in2="BackgroundImageFix" result="effect1_dropShadow" />
            <feBlend mode="normal" in="SourceGraphic" in2="effect1_dropShadow" result="shape" />
        </filter>
    </defs>
</svg>
