<svg width="33" height="40" viewBox="0 0 33 40" fill="none" xmlns="http://www.w3.org/2000/svg">
    <path
        d="M5.75 39.05H27.9167C30.5631 39.05 32.7167 36.898 32.7167 34.25V18.4167C32.7167 15.7702 30.5631 13.6167 27.9167 13.6167H26.3833V10.5C26.3833 5.23472 22.1002 0.95 16.8333 0.95C11.5665 0.95 7.28334 5.23472 7.28334 10.5V13.6167H5.75C3.10355 13.6167 0.95 15.7702 0.95 18.4167V34.25C0.95 36.898 3.10356 39.05 5.75 39.05ZM10.55 10.5C10.55 7.03478 13.3681 4.21667 16.8333 4.21667C20.2986 4.21667 23.1167 7.03478 23.1167 10.5V13.6167H10.55V10.5ZM27.9167 16.8833C28.7615 16.8833 29.45 17.5703 29.45 18.4167V34.25C29.45 35.0948 28.7615 35.7833 27.9167 35.7833H5.75C4.9052 35.7833 4.21667 35.0948 4.21667 34.25V18.4167C4.21667 17.5703 4.90517 16.8833 5.75 16.8833H27.9167ZM18.4667 29.5V25.9217C19.4095 25.3608 20.05 24.3423 20.05 23.1667C20.05 21.3926 18.6074 19.95 16.8333 19.95C15.0593 19.95 13.6167 21.3926 13.6167 23.1667C13.6167 24.3423 14.2572 25.3608 15.2 25.9217V29.5C15.2 30.4016 15.9317 31.1333 16.8333 31.1333C17.735 31.1333 18.4667 30.4016 18.4667 29.5Z"
        fill="#E94444" stroke="#E94444" stroke-width="0.1" />
</svg>
