<svg width="20" height="22" viewBox="0 0 20 22" fill="none" xmlns="http://www.w3.org/2000/svg">
    <path
        d="M15.7271 21.9237H1.43177C0.648771 21.9237 0 21.275 0 20.492V4.29505C0 3.51205 0.648771 2.86328 1.43177 2.86328H15.7271C16.5101 2.86328 17.1589 3.51205 17.1589 4.29505V20.492C17.1589 21.275 16.5101 21.9237 15.7271 21.9237ZM1.90157 20.0222H15.2573V4.76485H1.90157V20.0222Z"
        fill="white" />
    <path
        d="M19.06 18.5906C18.5231 18.5906 18.0981 18.1656 18.0981 17.6287V1.90157H4.27252C3.7356 1.90157 3.31055 1.47651 3.31055 0.939599C3.31055 0.402685 3.75797 0 4.27252 0H18.5455C18.8587 0 19.3061 -2.66688e-08 19.664 0.357943C19.8207 0.514542 19.9996 0.782999 19.9996 1.20806V17.6287C19.9996 18.1656 19.5746 18.5906 19.06 18.5906Z"
        fill="white" />
</svg>
