<svg width="30" height="30" viewBox="0 0 30 30" fill="none" xmlns="http://www.w3.org/2000/svg">
    <g clip-path="url(#clip0)">
        <path
            d="M0.184206 18.0269L5.48551 28.0601C5.74486 28.559 6.48007 29.0866 7.04782 29.0866L28.3073 29.0905C28.7564 29.0905 29.187 28.9125 29.5044 28.5949C29.8217 28.2772 30 27.8471 30 27.3978L29.9966 10.8896C29.9966 9.95603 29.2397 9.19851 28.3061 9.1976L26.7517 9.19613V10.6382H27.7916C27.9951 10.6382 28.1906 10.719 28.3347 10.863C28.4785 11.007 28.5594 11.2024 28.5594 11.4061L28.5579 26.8812C28.5579 27.3057 28.214 27.6491 27.7899 27.6491H26.7249L21.7007 17.4855C21.4169 16.9178 20.8805 16.4589 20.3136 16.4589H8.00919L8.00498 12.3688C7.20156 12.4433 6.56747 13.1097 6.56747 13.9322V16.459H0.924219C0.257788 16.4658 -0.303385 17.1248 0.184206 18.0269ZM25.7714 22.5329C25.8173 17.4738 25.7714 2.29628 25.7714 2.29628C25.7714 1.53051 25.1487 0.908203 24.3837 0.908203H13.2698C13.0918 0.908203 12.922 0.982695 12.8017 1.11371L9.20865 5.01753C9.10096 5.13508 9.04059 5.28898 9.04059 5.44844V15.5615H10.2063V6.3217C10.2063 6.16183 10.3361 6.03198 10.4961 6.03198H13.2462C13.5681 6.03198 13.8298 5.7707 13.8298 5.44945V2.36374C13.8298 2.20382 13.9596 2.07402 14.1197 2.07402H24.383C24.5056 2.07402 24.6054 2.17376 24.6054 2.29628V21.2604L25.4974 23.065C25.4973 23.0647 25.7668 23.045 25.7714 22.5329ZM12.6629 4.86677H10.9316L12.6629 2.98483V4.86677ZM12.0315 7.2192H22.7728C23.1685 7.2192 23.4898 7.54075 23.4898 7.93649C23.4898 8.33193 23.1682 8.65363 22.7728 8.65363H12.0312C11.6355 8.65363 11.3133 8.33167 11.3133 7.93649C11.3139 7.54105 11.636 7.2192 12.0315 7.2192ZM11.3139 12.1133C11.3139 11.7178 11.6357 11.3966 12.0315 11.3966H22.7728C23.1685 11.3966 23.4898 11.7184 23.4898 12.1133C23.4898 12.5087 23.1682 12.83 22.7728 12.83H12.0312C11.636 12.83 11.3139 12.5087 11.3139 12.1133ZM23.4902 16.3183C23.4902 16.7137 23.1685 17.035 22.7731 17.035H22.5155C22.0622 15.7715 20.9385 15.6017 20.9385 15.6017H22.7731C23.1679 15.6017 23.4902 15.9229 23.4902 16.3183Z"
            fill="#0361F0" />
    </g>
    <defs>
        <clipPath id="clip0">
            <rect width="30" height="30.0001" fill="white" transform="matrix(-1 0 0 1 30 0)" />
        </clipPath>
    </defs>
</svg>
