<svg width="32" height="32" viewBox="0 0 32 32" fill="none" xmlns="http://www.w3.org/2000/svg">
<path d="M9.47261 29.3333L2.66675 23.6834L6.56787 19.7823C7.60934 18.7366 8.92922 18.0227 10.3652 17.7282C11.8012 17.4337 13.2907 17.5714 14.6505 18.1246H19.4527C19.9307 18.1246 20.3891 18.3173 20.7271 18.6603C21.065 19.0033 21.2549 19.4685 21.2549 19.9536C21.2549 20.4387 21.065 20.9039 20.7271 21.2469C20.3891 21.5899 19.9307 21.7826 19.4527 21.7826H15.734C15.5759 21.7826 15.4242 21.8463 15.3124 21.9598C15.2006 22.0732 15.1378 22.2271 15.1378 22.3876C15.1378 22.5481 15.2006 22.702 15.3124 22.8155C15.4242 22.9289 15.5759 22.9927 15.734 22.9927H19.9482C20.2481 22.9926 20.5446 22.9281 20.8182 22.8033C21.0917 22.6785 21.3361 22.4964 21.5353 22.2688L26.0789 17.0112C26.4091 16.6424 26.8689 16.4201 27.3592 16.3924C27.8494 16.3647 28.3308 16.5338 28.6993 16.8631C29.0677 17.1925 29.2938 17.6557 29.3287 18.1527C29.3636 18.6498 29.2044 19.1408 28.8856 19.5198L23.2123 26.2224C22.7945 26.7083 22.279 27.0978 21.7004 27.3647C21.1219 27.6315 20.4938 27.7696 19.8583 27.7696H11.0026L9.47261 29.3333ZM17.8574 6.56222C17.3475 6.56222 16.8491 6.71567 16.4251 7.00316C16.0012 7.29065 15.6707 7.69928 15.4756 8.17736C15.2805 8.65544 15.2294 9.18151 15.3289 9.68904C15.4284 10.1966 15.6739 10.6628 16.0345 11.0287C16.395 11.3946 16.8544 11.6438 17.3545 11.7447C17.8546 11.8457 18.3729 11.7939 18.844 11.5958C19.3151 11.3978 19.7177 11.0625 20.001 10.6322C20.2843 10.2019 20.4355 9.69608 20.4355 9.17861C20.4355 8.83409 20.3684 8.49296 20.2382 8.1748C20.108 7.85664 19.9171 7.56772 19.6765 7.32463C19.436 7.08153 19.1505 6.88904 18.8365 6.7582C18.5224 6.62737 18.186 6.56077 17.8465 6.56222H17.8574ZM24.7994 2.66666C25.3145 2.66958 25.8075 2.87928 26.1707 3.24994C26.5338 3.62061 26.7377 4.1221 26.7377 4.64483V13.7151C26.7377 14.2398 26.5323 14.7429 26.1668 15.1139C25.8013 15.4849 25.3055 15.6933 24.7885 15.6933H10.9046C10.3876 15.6933 9.89181 15.4849 9.52627 15.1139C9.16072 14.7429 8.95536 14.2398 8.95536 13.7151V4.64483C8.95536 4.12019 9.16072 3.61703 9.52627 3.24605C9.89181 2.87507 10.3876 2.66666 10.9046 2.66666H24.7994ZM24.5272 7.66458C23.8703 7.51291 23.269 7.17593 22.7926 6.69249C22.3163 6.20904 21.9842 5.59882 21.8348 4.93216H13.8801C13.7431 5.5411 13.4537 6.10388 13.0397 6.56609C12.6258 7.0283 12.1013 7.37431 11.5171 7.57065C11.4216 7.6021 11.3383 7.66339 11.2791 7.74575C11.2199 7.82812 11.1879 7.92735 11.1877 8.02928V10.3279C11.1879 10.4299 11.2199 10.5291 11.2791 10.6115C11.3383 10.6938 11.4216 10.7551 11.5171 10.7866C12.1013 10.9829 12.6258 11.3289 13.0397 11.7911C13.4537 12.2533 13.7431 12.8161 13.8801 13.425H21.8103C21.9597 12.7584 22.2918 12.1482 22.7681 11.6647C23.2445 11.1813 23.8458 10.8443 24.5027 10.6926L24.5272 7.66458Z" fill="#9BA6B9"/>
</svg>
