<svg xmlns="http://www.w3.org/2000/svg"
    width="18"
    height="19"
    viewBox="0 0 18 19">
    <path
        d="M9,1C6.5493,1 4.5556,3.0069 4.5556,5.4737C4.5556,7.9405 6.5493,9.9474 9,9.9474C11.4507,9.9474 13.4444,7.9405 13.4444,5.4737C13.4444,3.0069 11.4507,1 9,1ZM9,8.1579C7.5298,8.1579 6.3333,6.9536 6.3333,5.4737C6.3333,3.9938 7.5298,2.7895 9,2.7895C10.4702,2.7895 11.6667,3.9938 11.6667,5.4737C11.6667,6.9536 10.4702,8.1579 9,8.1579ZM17,18V17.1053C17,13.6525 14.208,10.8421 10.7778,10.8421H7.2222C3.7911,10.8421 1,13.6525 1,17.1053V18H2.7778V17.1053C2.7778,14.6385 4.7716,12.6316 7.2222,12.6316H10.7778C13.2284,12.6316 15.2222,14.6385 15.2222,17.1053V18H17Z"
        stroke-width="0.4"
        fill="#0361F0"
        stroke="#0361F0"/>
</svg>
