<svg width="19" height="13" viewBox="0 0 19 13" fill="none" xmlns="http://www.w3.org/2000/svg">
<path fill-rule="evenodd" clip-rule="evenodd" d="M2.75204 0H15.6018C17.1193 0 18.3528 1.23357 18.3577 2.75596V10.0987H16.5221V5.50703H1.83665V10.0938C1.83665 10.6029 2.24784 11.0141 2.75204 11.0141H6.4234V12.8497H2.75204C1.23455 12.8497 0.000976562 11.6113 0.000976562 10.0938V2.75107C0.000976562 1.23357 1.23455 0 2.75204 0ZM1.83086 2.75144V3.67172H16.5163V2.75144C16.5163 2.24724 16.1002 1.83604 15.596 1.83604H2.74625C2.24205 1.83604 1.83086 2.24724 1.83086 2.75144Z" fill="white"/>
<path fill-rule="evenodd" clip-rule="evenodd" d="M15.6057 0H2.75601C1.23852 0 0.00494385 1.23357 4.76837e-05 2.75596V10.0987H1.83572V5.50703H16.5211V10.0938C16.5211 10.6029 16.1099 11.0141 15.6057 11.0141H5.45357V12.8497H15.6057C17.1232 12.8497 18.3568 11.6113 18.3568 10.0938V2.75107C18.3568 1.23357 17.1232 0 15.6057 0ZM16.5262 2.75144V3.67172H1.84083V2.75144C1.84083 2.24724 2.25692 1.83604 2.76112 1.83604H15.6108C16.115 1.83604 16.5262 2.24724 16.5262 2.75144Z" fill="white"/>
<path d="M3.40881 7.49902H10.2257V8.86241H3.40881V7.49902Z" fill="white"/>
<path d="M12.2708 7.49902H14.9975V8.86241H12.2708V7.49902Z" fill="white"/>
</svg>
