<svg width="16" height="18" viewBox="0 0 16 18" fill="none" xmlns="http://www.w3.org/2000/svg">
<path d="M4.10873 7.37346H6.64817C6.81913 7.37346 6.98318 7.3062 7.10422 7.18633C7.22526 7.06645 7.29336 6.90375 7.29336 6.73399C7.29336 6.56424 7.22526 6.40154 7.10422 6.28166C6.98318 6.16179 6.81913 6.09453 6.64817 6.09453H4.10873C3.93777 6.09453 3.77372 6.16179 3.65269 6.28166C3.53164 6.40154 3.46355 6.56424 3.46355 6.73399C3.46355 6.90375 3.53164 7.06645 3.65269 7.18633C3.77372 7.3062 3.93777 7.37346 4.10873 7.37346Z" fill="white" stroke="white" stroke-width="0.1"/>
<path d="M9.0289 8.64922H4.10873C3.93777 8.64922 3.77372 8.71647 3.65269 8.83634C3.53164 8.95623 3.46355 9.11893 3.46355 9.28868C3.46355 9.45843 3.53164 9.62114 3.65269 9.74102C3.77372 9.86089 3.93777 9.92814 4.10873 9.92814H9.0289C9.19986 9.92814 9.36391 9.86089 9.48494 9.74102C9.60599 9.62114 9.67408 9.45843 9.67408 9.28868C9.67408 9.11893 9.60599 8.95623 9.48494 8.83634C9.36391 8.71647 9.19986 8.64922 9.0289 8.64922Z" fill="white" stroke="white" stroke-width="0.1"/>
<path d="M9.0289 11.2029H4.10873C3.93777 11.2029 3.77372 11.2702 3.65269 11.3901C3.53164 11.5099 3.46355 11.6726 3.46355 11.8424C3.46355 12.0121 3.53164 12.1748 3.65269 12.2947C3.77372 12.4146 3.93777 12.4819 4.10873 12.4819H9.0289C9.19986 12.4819 9.36391 12.4146 9.48494 12.2947C9.60599 12.1748 9.67408 12.0121 9.67408 11.8424C9.67408 11.6726 9.60599 11.5099 9.48494 11.3901C9.36391 11.2702 9.19986 11.2029 9.0289 11.2029Z" fill="white" stroke="white" stroke-width="0.1"/>
<path d="M15.05 14.8506L15.0499 14.8506C15.0461 14.9757 15.0053 15.0969 14.9326 15.1992C14.8599 15.3015 14.7586 15.3804 14.6412 15.4261L14.6351 15.4285L14.635 15.4281L14.397 15.487L14.3843 15.4902L14.3843 15.4885C14.2248 15.4864 14.0717 15.4258 13.9546 15.3183L13.9546 15.3184L13.9882 15.2813L13.9543 15.3181L15.05 14.8506ZM15.05 14.8506V14.849M15.05 14.8506V14.849M15.05 14.849V2.01839C15.05 1.53597 14.8565 1.0734 14.5122 0.732423C14.1679 0.391464 13.7011 0.2 13.2144 0.2H4.68349C4.19682 0.2 3.73 0.391464 3.38573 0.732423C3.04145 1.0734 2.84794 1.53597 2.84794 2.01839V2.51855M15.05 14.849L2.84794 2.51855M2.84794 2.51855H2.30276C1.8161 2.51855 1.34927 2.71002 1.005 3.05098C0.660718 3.39195 0.467212 3.85452 0.467212 4.33694L0.467205 17.1479L0.467219 17.1488C0.469273 17.2715 0.506918 17.391 0.575613 17.4931C0.644304 17.5951 0.741127 17.6754 0.85449 17.7244L0.854216 17.725L0.862304 17.727L1.10038 17.7859L1.09997 17.7876L1.11305 17.7874C1.27264 17.7853 1.42585 17.7246 1.543 17.617L1.54303 17.617L2.89841 16.3705L4.29305 17.6175L4.29322 17.6176C4.41153 17.7224 4.5646 17.7803 4.72316 17.7803C4.88165 17.7803 5.03466 17.7225 5.15294 17.6178C5.153 17.6177 5.15305 17.6177 5.15311 17.6176L6.56774 16.3893L7.96334 17.6371L7.96351 17.6373C8.08182 17.7421 8.23489 17.8 8.39345 17.8C8.55201 17.8 8.70509 17.7421 8.82339 17.6373L8.82357 17.6371L10.2182 16.3902L2.84794 2.51855ZM1.75758 15.6982V4.31729C1.75758 4.17438 1.8149 4.03721 1.91708 3.93601C2.01929 3.83478 2.15801 3.77783 2.30276 3.77783H10.8337C10.9784 3.77783 11.1172 3.83478 11.2194 3.93601C11.3216 4.03721 11.3789 4.17438 11.3789 4.31729V15.6982L10.6691 15.0479L10.6685 15.0474C10.5501 14.9426 10.3971 14.8847 10.2385 14.8847C10.08 14.8847 9.92688 14.9426 9.80857 15.0474L9.8084 15.0475L8.41306 16.2951L6.99817 15.0474L1.75758 15.6982ZM1.75758 15.6982L2.46738 15.048L2.46799 15.0474L2.468 15.0474C2.58631 14.9426 2.73938 14.8847 2.89794 14.8847C3.05646 14.8847 3.2095 14.9426 3.3278 15.0473L1.75758 15.6982ZM4.74277 16.2951L6.13811 15.0475L6.13829 15.0474C6.25659 14.9426 6.40967 14.8847 6.56823 14.8847C6.72675 14.8847 6.87979 14.9426 6.99809 15.0473L4.74277 16.2951ZM4.74277 16.2951L3.32788 15.0474L4.74277 16.2951ZM4.1383 2.49891H10.8337C11.3204 2.49891 11.7872 2.69037 12.1315 3.03133C12.4757 3.37231 12.6692 3.83487 12.6692 4.31729V12.5616C12.8108 12.5742 12.9448 12.633 13.0498 12.7294L4.1383 2.49891ZM4.1383 2.49891V2.01839C4.1383 1.87547 4.19562 1.73831 4.29781 1.6371C4.40002 1.53588 4.53874 1.47893 4.68349 1.47893H13.2144C13.3592 1.47893 13.4979 1.53588 13.6001 1.6371C13.7023 1.73831 13.7596 1.87547 13.7596 2.01839V13.3797M4.1383 2.49891L13.7596 13.3797M13.7596 13.3797L13.0499 12.7294L13.7596 13.3797ZM12.6494 14.1365V14.0691L12.5994 14.0238V14.0912L12.6494 14.1365Z" fill="white" stroke="white" stroke-width="0.1"/>
</svg>
