<svg width="32" height="32" viewBox="0 0 32 32" fill="none" xmlns="http://www.w3.org/2000/svg">
<path d="M21.0203 8.55676C20.3043 8.55676 18.7803 9.4756 17.6083 10.8272C17.0808 10.7514 16.5437 10.7133 16.0072 10.7133C13.4768 10.7133 11.0928 11.5473 9.2944 13.0612C7.66293 14.4344 6.68373 16.219 6.48747 18.1472C5.7552 17.8987 5.22552 17.1901 5.22552 16.3564C5.22552 16.009 4.95083 15.7277 4.61251 15.7277C4.27419 15.7277 4 16.009 4 16.3564C4 17.8831 5.06589 19.1589 6.47387 19.4416C6.6384 21.446 7.6648 23.334 9.35787 24.734L8.8312 27.7977C8.80293 27.9619 8.83973 28.131 8.9328 28.2676C9.02613 28.4042 9.16853 28.4967 9.32853 28.5257L11.6213 28.9412C11.7813 28.9699 11.9461 28.9319 12.0792 28.8364C12.2123 28.7406 12.3032 28.595 12.3312 28.4305L12.66 26.5156C13.7269 26.8566 14.8496 27.0294 16.0072 27.0294C17.1651 27.0294 18.288 26.8569 19.3552 26.5156L19.6837 28.4305C19.712 28.595 19.8029 28.7406 19.936 28.8364C20.0397 28.9108 20.1627 28.9502 20.2875 28.9502C20.3229 28.9502 20.3584 28.9475 20.3939 28.9412L22.6864 28.5257C23.0197 28.4655 23.2421 28.1395 23.1835 27.7977L22.6573 24.734C23.6485 23.9146 24.4211 22.921 24.9187 21.827H26.5973C27.3707 21.827 28 21.1813 28 20.3878V17.3551C28 16.5614 27.3712 15.916 26.5979 15.916H24.9187C24.4168 14.8124 23.6352 13.8101 22.6317 12.987C22.6115 11.7611 22.5256 10.8307 22.3709 10.1487C22.1309 9.09241 21.6765 8.55676 21.0203 8.55676ZM16.0072 13.079C16.8323 13.079 17.6389 13.2052 18.4043 13.4548C18.7267 13.5599 18.9051 13.9132 18.8027 14.2442C18.7197 14.5118 18.4784 14.6832 18.2187 14.6832C18.1573 14.6832 18.0949 14.6739 18.0333 14.6536C17.388 14.4434 16.7061 14.3367 16.0072 14.3367C15.3083 14.3367 14.6269 14.4434 13.9819 14.6536C13.6592 14.759 13.3144 14.5759 13.212 14.2447C13.1096 13.9138 13.288 13.5599 13.6104 13.4548C14.3757 13.2052 15.1824 13.079 16.0072 13.079ZM21.0088 15.3272C21.5768 15.3272 22.1171 15.7764 22.1171 16.4084C22.1171 17.0404 21.5768 17.4887 21.0088 17.4887C20.4408 17.4887 19.9011 17.0404 19.9011 16.4084C19.9011 15.7764 20.4408 15.3272 21.0088 15.3272ZM21.0088 16.2313C20.988 16.2313 20.8917 16.2756 20.8917 16.4084C20.8917 16.5411 20.988 16.5846 21.0088 16.5846C21.0296 16.5846 21.1261 16.5411 21.1261 16.4084C21.1261 16.2756 21.0296 16.2313 21.0088 16.2313Z" fill="#9BA6B9"/>
<path opacity="0.3" d="M12.7296 5.64803C12.7296 3.79291 14.2 2.28387 16.0072 2.28387C17.8147 2.28387 19.2853 3.79294 19.2853 5.64803C19.2853 7.50322 17.8147 9.01218 16.0072 9.01218C14.2 9.01218 12.7296 7.50322 12.7296 5.64803Z" fill="#9BA6B9"/>
</svg>
