<svg width="24" height="24" viewBox="0 0 24 24" fill="none" xmlns="http://www.w3.org/2000/svg">
<path d="M8.92694 10.2999C8.92694 10.2999 7.62808 10.9214 6.76281 11.3446C6.59583 11.4353 6.47438 11.5109 6.47438 11.7225C6.47438 11.783 6.44402 11.8434 6.42884 11.919C6.80835 12.1155 7.18786 12.2969 7.56736 12.4934C8.44782 12.9317 9.32827 13.37 10.2087 13.8083C10.8311 14.1257 11.4991 14.2164 12.1822 14.1862C12.8197 14.156 13.4269 13.9897 14.0038 13.6874C15.1271 13.1131 16.2808 12.5538 17.4194 11.9795C17.4649 11.9643 17.4953 11.9341 17.5408 11.919C17.5104 11.783 17.5104 11.6469 17.4649 11.526C17.4497 11.4656 17.3738 11.4202 17.3131 11.39C16.4175 10.9365 16.1324 10.7703 15.2367 10.332C15.3879 10.1808 16.4511 8.94141 16.4511 8.94141C17.4227 9.44019 17.814 9.6518 18.8008 10.1355C18.9374 10.211 19.074 10.2715 19.2258 10.332C19.7268 10.5436 20.0455 11.0726 19.9848 11.6016C19.9696 11.7074 20 11.8132 20 11.9039C20 13.4305 20 14.957 20 16.4987C20 16.7557 19.9848 17.0278 19.9393 17.2847C19.8634 17.6323 19.6357 17.8742 19.3169 18.0404C18.3757 18.509 17.4194 18.9624 16.4782 19.431C15.5674 19.8844 14.6717 20.3379 13.7761 20.7762C13.093 21.1087 12.3795 21.1843 11.6357 21.1238C11.0436 21.0785 10.4972 20.882 9.96584 20.6099C8.40228 19.8089 6.82353 19.038 5.25996 18.2672C5.06262 18.2067 4.91082 18.1462 4.77419 18.0858C4.25806 17.8742 3.95446 17.3452 4.01518 16.801C4.03036 16.6952 4 16.5894 4 16.4987C4 14.9722 4 13.4456 4 11.9039C4 11.6923 4 11.4807 4.03036 11.2842C4.09108 10.8459 4.33397 10.5436 4.72865 10.3471C5.79127 9.81806 7.5 9 7.5 9L8.92694 10.2999Z" fill="#0361F0"/>
<path d="M13.4675 8.08107C13.7062 8.08107 13.915 8.08107 14.1387 8.08107C14.3326 8.08107 14.5265 8.08107 14.7204 8.08107C15.1381 8.08107 15.4811 8.49808 15.4215 8.93054C15.3916 9.17765 15.2574 9.3321 15.0933 9.47111C15.0336 9.51744 14.9889 9.56377 14.9442 9.61011C14.3326 10.2433 13.7211 10.8766 13.1095 11.4944C12.9753 11.6334 12.8261 11.7724 12.677 11.8959C12.2444 12.2512 11.6329 12.2203 11.2302 11.8187C10.5142 11.0928 9.79826 10.3515 9.08231 9.62555C9.02265 9.56377 8.94807 9.50199 8.88841 9.45566C8.57518 9.20854 8.5006 8.89965 8.63485 8.54442C8.76909 8.20463 9.08231 8.05018 9.44029 8.09652C9.61928 8.11196 9.78335 8.08107 9.96234 8.08107C10.1413 8.08107 10.3203 8.08107 10.5291 8.08107C10.5291 8.00385 10.5291 7.94207 10.5291 7.86484C10.5291 6.59837 10.5291 5.33189 10.5291 4.06541C10.5291 3.54029 10.8274 3.12328 11.3047 3.03061C11.4837 2.98428 11.6776 3.01517 11.8715 2.99972C12.0804 2.99972 12.2892 2.99972 12.498 2.99972C13.0797 3.01517 13.4824 3.44762 13.4973 4.04997C13.4973 5.31645 13.4973 6.59837 13.4973 7.86484C13.4675 7.92662 13.4675 8.00385 13.4675 8.08107Z" fill="#0361F0"/>
</svg>
