<svg width="32" height="32" viewBox="0 0 32 32" fill="none" xmlns="http://www.w3.org/2000/svg">
    <path
        d="M28 16C28 16.7364 27.403 17.3333 26.6667 17.3333H5.33333C4.59695 17.3333 4 16.7364 4 16C4 15.2636 4.59695 14.6667 5.33333 14.6667H26.6667C27.403 14.6667 28 15.2636 28 16ZM28 9.33333C28 10.0697 27.403 10.6667 26.6667 10.6667H5.33333C4.59695 10.6667 4 10.0697 4 9.33333C4 8.59695 4.59695 8 5.33333 8H26.6667C27.403 8 28 8.59695 28 9.33333Z"
        fill="#9BA6B9" />
    <g opacity="0.3">
        <path
            d="M5.33333 24H20C20.7364 24 21.3333 23.4031 21.3333 22.6667C21.3333 21.9303 20.7364 21.3334 20 21.3334H5.33333C4.59695 21.3334 4 21.9303 4 22.6667C4 23.4031 4.59695 24 5.33333 24Z"
            fill="url(#paint0_linear)" />
        <path
            d="M5.33333 24H20C20.7364 24 21.3333 23.4031 21.3333 22.6667C21.3333 21.9303 20.7364 21.3334 20 21.3334H5.33333C4.59695 21.3334 4 21.9303 4 22.6667C4 23.4031 4.59695 24 5.33333 24Z"
            fill="#9BA6B9" />
    </g>
    <defs>
        <linearGradient id="paint0_linear" x1="5.36688" y1="21.6945" x2="7.26573" y2="28.8943"
            gradientUnits="userSpaceOnUse">
            <stop stop-color="#0357EE" />
            <stop offset="1" stop-color="#05C2FF" />
        </linearGradient>
    </defs>
</svg>
