<svg width="24" height="16" viewBox="0 0 24 16" fill="none" xmlns="http://www.w3.org/2000/svg">
<path d="M17.3333 14.6667C17.3333 15.403 16.7364 16 16 16H1.33334C0.596956 16 0 15.403 0 14.6667C0 13.9303 0.596954 13.3333 1.33333 13.3333H16C16.7364 13.3333 17.3333 13.9303 17.3333 14.6667ZM24 8C24 8.73638 23.403 9.33333 22.6667 9.33333H1.33333C0.596954 9.33333 0 8.73638 0 8C0 7.26362 0.596954 6.66667 1.33333 6.66667H22.6667C23.403 6.66667 24 7.26362 24 8ZM24 1.33333C24 2.06971 23.403 2.66667 22.6667 2.66667H1.33333C0.596954 2.66667 0 2.06971 0 1.33333C0 0.596954 0.596954 0 1.33333 0H22.6667C23.403 0 24 0.596954 24 1.33333Z" fill="white"/>
</svg>
