<svg width="32" height="32" viewBox="0 0 32 32" fill="none" xmlns="http://www.w3.org/2000/svg">
    <path
        d="M9.47253 29.3334L2.66667 23.6834L6.56779 19.7823C7.60927 18.7367 8.92914 18.0227 10.3651 17.7282C11.8011 17.4337 13.2906 17.5715 14.6504 18.1247H19.4526C19.9306 18.1247 20.389 18.3174 20.727 18.6604C21.065 19.0034 21.2548 19.4686 21.2548 19.9536C21.2548 20.4387 21.065 20.9039 20.727 21.2469C20.389 21.5899 19.9306 21.7826 19.4526 21.7826H15.7339C15.5758 21.7826 15.4242 21.8464 15.3123 21.9598C15.2005 22.0733 15.1377 22.2272 15.1377 22.3877C15.1377 22.5482 15.2005 22.7021 15.3123 22.8155C15.4242 22.929 15.5758 22.9927 15.7339 22.9927H19.9481C20.248 22.9927 20.5445 22.9281 20.8181 22.8034C21.0916 22.6786 21.3361 22.4964 21.5352 22.2689L26.0788 17.0112C26.409 16.6424 26.8689 16.4202 27.3591 16.3925C27.8494 16.3648 28.3307 16.5338 28.6992 16.8632C29.0677 17.1925 29.2937 17.6557 29.3286 18.1528C29.3635 18.6498 29.2043 19.1409 28.8856 19.5199L23.2122 26.2225C22.7944 26.7084 22.2789 27.0979 21.7004 27.3648C21.1219 27.6316 20.4937 27.7697 19.8583 27.7696H11.0025L9.47253 29.3334Z"
        fill="#9BA6B9" />
    <path opacity="0.3" fill-rule="evenodd" clip-rule="evenodd"
        d="M21.038 2C21.5593 2.00314 22.0584 2.22851 22.426 2.62687C22.7936 3.02523 23 3.56419 23 4.12598V13.874C23 14.4379 22.7921 14.9786 22.4221 15.3773C22.0521 15.776 21.5502 16 21.0269 16H6.97306C6.44977 16 5.94791 15.776 5.57789 15.3773C5.20787 14.9786 5 14.4379 5 13.874V4.12598C5 3.56214 5.20787 3.02138 5.57789 2.62269C5.94791 2.22399 6.44977 2 6.97306 2H21.038ZM10 5C10 6.47276 8.65685 7.66667 7 7.66667V10.3334C8.65685 10.3334 9.99999 11.5273 10 13H18C18 11.5273 19.3432 10.3334 21 10.3334V7.66667C19.3431 7.66667 18 6.47276 18 5H10Z"
        fill="#9BA6B9" />
    <circle cx="14" cy="9" r="2" fill="#9BA6B9" />
</svg>
