<svg width="18" height="18" viewBox="0 0 18 18" fill="none" xmlns="http://www.w3.org/2000/svg">
<path fill-rule="evenodd" clip-rule="evenodd" d="M15.3122 12.7776C16.9874 11.4336 18.0002 9.38881 18.0002 7.19041C18.0002 3.2256 14.7746 0 10.8099 0C8.61627 0 6.5715 1.0128 5.22271 2.688L5.18431 2.6496C4.48352 1.9488 3.34113 1.9488 2.64514 2.6496L0.854754 4.44C-1.02683 6.31681 0.28836 10.464 3.91232 14.088C6.4227 16.5984 9.18267 18 11.2706 18C12.197 18 12.9842 17.7264 13.5602 17.1456L15.3506 15.3552C16.0514 14.6544 16.0514 13.5168 15.3506 12.816L15.3122 12.7776ZM10.8094 1.79973C13.7806 1.79973 16.1997 4.21893 16.1997 7.19014C16.1997 8.90374 15.3838 10.4973 14.035 11.5005L13.4446 10.9101C12.763 10.2285 11.5822 10.2333 10.9054 10.9101L10.0846 11.7309C9.80622 11.7309 8.87023 11.4189 7.72784 10.2765C6.58545 9.13414 6.26865 8.19334 6.27345 7.91974L7.09424 7.09894C7.79504 6.39813 7.79504 5.26053 7.09424 4.55973L6.50385 3.96933C7.50224 2.61573 9.10062 1.79973 10.8094 1.79973ZM5.17949 12.811C8.09306 15.7246 11.333 16.8286 12.2882 15.8734L14.0738 14.0782L12.1682 12.1726L11.285 13.0558C10.9634 13.3774 10.2194 13.819 8.82745 13.2286C8.04986 12.8974 7.20507 12.2974 6.44668 11.539C5.68828 10.7806 5.08829 9.93581 4.75709 9.15821C4.1667 7.76141 4.6131 7.01741 4.92989 6.70061L5.81308 5.81741L3.9075 3.91181L2.11712 5.70221C1.16673 6.65741 2.27072 9.90222 5.17949 12.811Z" fill="white"/>
<path d="M13.493 6.30315H11.6978V3.61035H9.89783V8.10316H13.493V6.30315Z" fill="white"/>
</svg>
