<svg width="32" height="32" viewBox="0 0 32 32" fill="none" xmlns="http://www.w3.org/2000/svg">
    <path opacity="0.3" fill-rule="evenodd" clip-rule="evenodd"
        d="M5.33334 17.0245C5.37608 16.979 5.42234 16.9367 5.47178 16.8981L15.2496 9.25869C15.4641 9.09103 15.7282 9 16 9C16.2718 9 16.5359 9.09103 16.7504 9.25869L26.5282 16.8981C26.5777 16.9367 26.6239 16.979 26.6667 17.0245V14.0728C26.6668 13.8884 26.6256 13.7064 26.5464 13.5408C26.4671 13.3751 26.3517 13.2301 26.2092 13.1169L16.7277 5.58825C16.5197 5.42302 16.2636 5.33331 16 5.33331C15.7364 5.33331 15.4804 5.42302 15.2723 5.58825L5.79083 13.1169C5.64827 13.2301 5.53295 13.3751 5.45366 13.5408C5.37437 13.7064 5.33322 13.8884 5.33334 14.0728V17.0245Z"
        fill="#0361F0" />
    <path fill-rule="evenodd" clip-rule="evenodd"
        d="M26.3195 27.6456C26.5418 27.4187 26.6667 27.1109 26.6667 26.79V19.0728C26.6668 18.8884 26.6256 18.7064 26.5464 18.5408C26.4671 18.3751 26.3517 18.2301 26.2092 18.1169L16.7277 10.5883C16.5197 10.423 16.2636 10.3333 16 10.3333C15.7364 10.3333 15.4804 10.423 15.2723 10.5883L5.79083 18.1169C5.64827 18.2301 5.53295 18.3751 5.45366 18.5408C5.37437 18.7064 5.33322 18.8884 5.33334 19.0728V26.79C5.33334 27.1109 5.45821 27.4187 5.68048 27.6456C5.90274 27.8725 6.2042 28 6.51853 28H13V23H19V28H25.4815C25.7958 28 26.0973 27.8725 26.3195 27.6456Z"
        fill="#0361F0" />
</svg>
