<svg width="33" height="30" viewBox="0 0 33 30" fill="none" xmlns="http://www.w3.org/2000/svg">
<path d="M0.966875 25.1367H5.80085V28.037C5.80085 28.571 6.23371 29.0038 6.76764 29.0038H32.0332C32.5671 29.0038 33 28.571 33 28.037V2.90038C33 2.36646 32.5671 1.93359 32.0332 1.93359H27.1992V0.966795C27.1992 0.432866 26.7664 0 26.2324 0C25.6985 0 25.2656 0.432866 25.2656 0.966795V1.93359H20.3672V0.966795C20.3672 0.432866 19.9344 0 19.4004 0C18.8665 0 18.4336 0.432866 18.4336 0.966795V1.93359H13.5997V0.966795C13.5997 0.432866 13.1668 0 12.6329 0C12.0989 0 11.6661 0.432866 11.6661 0.966795V1.93359H6.76764C6.23371 1.93359 5.80085 2.36646 5.80085 2.90038V8.70115C5.80085 15.8264 2.83956 21.3079 0.347933 23.4272C0.0352075 23.6878 -0.0807434 24.1162 0.0577661 24.499C0.196404 24.8817 0.55979 25.1367 0.966875 25.1367ZM31.0664 27.0702H7.73444V25.1367H26.2324C26.4586 25.1367 26.6776 25.0574 26.8514 24.9126C28.0136 23.9445 29.8138 21.6398 31.0664 18.688V27.0702ZM7.73444 3.86718H11.6661V4.83397C11.6661 5.3679 12.0989 5.80077 12.6329 5.80077C13.1668 5.80077 13.5997 5.3679 13.5997 4.83397V3.86718H18.4336V4.83397C18.4336 5.3679 18.8665 5.80077 19.4004 5.80077C19.9344 5.80077 20.3672 5.3679 20.3672 4.83397V3.86718H25.2656V4.83397C25.2656 5.3679 25.6985 5.80077 26.2324 5.80077C26.7664 5.80077 27.1992 5.3679 27.1992 4.83397V3.86718H31.0664V7.73436H7.73444V3.86718ZM7.71787 9.6673H31.0493C30.8314 15.8003 28.4775 20.6258 25.8533 23.2031H3.16595C6.13935 19.4145 7.55835 14.4814 7.71787 9.6673Z" fill="#0361F0"/>
</svg>
