<svg width="18" height="18" viewBox="0 0 18 18" fill="none" xmlns="http://www.w3.org/2000/svg">
<path fill-rule="evenodd" clip-rule="evenodd" d="M8.99994 12C7.35647 12 6.02502 10.6572 6.02502 9C6.02502 7.3428 7.35647 6 8.99994 6C10.6434 6 11.9755 7.3428 11.9755 9C11.9755 10.6572 10.6434 12 8.99994 12ZM17.4051 11.1216L16.0112 10.3104C16.0892 9.88439 16.1408 9.4494 16.1408 9C16.1408 8.5512 16.0892 8.11561 16.0112 7.68961L17.4051 6.87839C17.9745 6.54719 18.1689 5.8128 17.8401 5.2392L16.6502 3.1608C16.322 2.5872 15.5936 2.38981 15.0248 2.72161L13.6165 3.5406C12.9589 2.9766 12.2113 2.51519 11.3802 2.21819V1.2C11.3802 0.5376 10.8474 0 10.1898 0H7.81009C7.15246 0 6.61964 0.5376 6.61964 1.2V2.21819C5.78861 2.51519 5.04098 2.9766 4.38335 3.5406L2.9751 2.72161C2.40627 2.38981 1.67785 2.5872 1.34963 3.1608L0.159784 5.2392C-0.169029 5.8128 0.0259779 6.54719 0.594801 6.87839L1.98866 7.68961C1.91066 8.11561 1.85905 8.5512 1.85905 9C1.85905 9.4494 1.91066 9.88439 1.98866 10.3104L0.594801 11.1216C0.0259779 11.4528 -0.169029 12.1872 0.159784 12.7608L1.34963 14.8392C1.67785 15.4128 2.40627 15.6102 2.9751 15.2784L4.38335 14.4594C5.04098 15.0234 5.78861 15.4854 6.61964 15.7818V16.8C6.61964 17.4624 7.15246 18 7.81009 18H10.1898C10.8474 18 11.3802 17.4624 11.3802 16.8V15.7818C12.2113 15.4854 12.9589 15.0234 13.6165 14.4594L15.0248 15.2784C15.5936 15.6102 16.322 15.4128 16.6502 14.8392L17.8401 12.7608C18.1689 12.1872 17.9745 11.4528 17.4051 11.1216Z" fill="white"/>
</svg>
