<svg width="15" height="20" viewBox="0 0 15 20" fill="none" xmlns="http://www.w3.org/2000/svg">
<path d="M1.25 16.875H13.75C14.4375 16.875 15 17.4375 15 18.125C15 18.8125 14.4375 19.375 13.75 19.375H1.25C0.5625 19.375 0 18.8125 0 18.125C0 17.4375 0.5625 16.875 1.25 16.875Z" fill="#0361F0"/>
<path d="M0.9375 8.625L6.625 14.3125C6.6875 14.375 6.75 14.4063 6.8125 14.4688C6.84375 14.5 6.875 14.5 6.90625 14.5312C6.9375 14.5625 7 14.5625 7.03125 14.5937C7.0625 14.625 7.125 14.625 7.15625 14.625C7.1875 14.625 7.21875 14.6562 7.28125 14.6562C7.34375 14.6562 7.4375 14.6875 7.5 14.6875C7.5 14.6875 7.5 14.6875 7.53125 14.6875C7.59375 14.6875 7.6875 14.6875 7.75 14.6562C7.78125 14.6562 7.8125 14.625 7.84375 14.625C7.875 14.625 7.9375 14.5937 7.96875 14.5937C8 14.5625 8.0625 14.5625 8.09375 14.5312C8.125 14.5 8.15625 14.5 8.1875 14.4688C8.25 14.4375 8.3125 14.375 8.375 14.3125C8.375 14.3125 8.375 14.3125 8.40625 14.3125L14.0625 8.625C14.5625 8.125 14.5625 7.34375 14.0625 6.84375C13.8125 6.59375 13.5 6.46875 13.1875 6.46875C12.875 6.46875 12.5625 6.59375 12.3125 6.84375L8.75 10.4062V1.25C8.75 0.5625 8.1875 0 7.5 0C6.8125 0 6.25 0.5625 6.25 1.25V10.4062L2.6875 6.84375C2.4375 6.59375 2.125 6.46875 1.8125 6.46875C1.5 6.46875 1.1875 6.59375 0.9375 6.84375C0.4375 7.34375 0.4375 8.125 0.9375 8.625Z" fill="#0361F0"/>
</svg>
