<svg width="18" height="18" viewBox="0 0 18 18" fill="none" xmlns="http://www.w3.org/2000/svg">
<path d="M3 0.599609C1.67452 0.599609 0.6 1.67413 0.6 2.99961V5.39961C0.6 6.72509 1.67452 7.79961 3 7.79961H5.4C6.72548 7.79961 7.8 6.72509 7.8 5.39961V2.99961C7.8 1.67413 6.72548 0.599609 5.4 0.599609H3Z" fill="white"/>
<path d="M3 10.1996C1.67452 10.1996 0.6 11.2741 0.6 12.5996V14.9996C0.6 16.3251 1.67452 17.3996 3 17.3996H5.4C6.72548 17.3996 7.8 16.3251 7.8 14.9996V12.5996C7.8 11.2741 6.72548 10.1996 5.4 10.1996H3Z" fill="white"/>
<path d="M10.2 2.99961C10.2 1.67413 11.2745 0.599609 12.6 0.599609H15C16.3255 0.599609 17.4 1.67413 17.4 2.99961V5.39961C17.4 6.72509 16.3255 7.79961 15 7.79961H12.6C11.2745 7.79961 10.2 6.72509 10.2 5.39961V2.99961Z" fill="white"/>
<path d="M10.2 12.5996C10.2 11.2741 11.2745 10.1996 12.6 10.1996H15C16.3255 10.1996 17.4 11.2741 17.4 12.5996V14.9996C17.4 16.3251 16.3255 17.3996 15 17.3996H12.6C11.2745 17.3996 10.2 16.3251 10.2 14.9996V12.5996Z" fill="white"/>
</svg>
