<svg width="32" height="32" viewBox="0 0 32 32" fill="none" xmlns="http://www.w3.org/2000/svg">
<path d="M16.0072 2.28384C14.2 2.28384 12.7296 3.79288 12.7296 5.648C12.7296 7.50319 14.2 9.01215 16.0072 9.01215C17.8147 9.01215 19.2853 7.50319 19.2853 5.648C19.2853 3.79291 17.8147 2.28384 16.0072 2.28384ZM21.0203 8.5567C20.3043 8.5567 18.7803 9.47554 17.6083 10.8271C17.0808 10.7513 16.5437 10.7132 16.0072 10.7132C13.4768 10.7132 11.0928 11.5472 9.2944 13.0611C7.66293 14.4343 6.68373 16.2189 6.48747 18.1472C5.7552 17.8986 5.22552 17.19 5.22552 16.3563C5.22552 16.009 4.95083 15.7276 4.61251 15.7276C4.27419 15.7276 4 16.009 4 16.3563C4 17.883 5.06589 19.1588 6.47387 19.4415C6.6384 21.4459 7.6648 23.3339 9.35787 24.734L8.8312 27.7976C8.80293 27.9618 8.83973 28.131 8.9328 28.2675C9.02613 28.4041 9.16853 28.4966 9.32853 28.5257L11.6213 28.9411C11.7813 28.9699 11.9461 28.9318 12.0792 28.8363C12.2123 28.7405 12.3032 28.5949 12.3312 28.4304L12.66 26.5155C13.7269 26.8566 14.8496 27.0293 16.0072 27.0293C17.1651 27.0293 18.288 26.8569 19.3552 26.5155L19.6837 28.4304C19.712 28.5949 19.8029 28.7405 19.936 28.8363C20.0397 28.9108 20.1627 28.9502 20.2875 28.9502C20.3229 28.9502 20.3584 28.9474 20.3939 28.9411L22.6864 28.5257C23.0197 28.4654 23.2421 28.1395 23.1835 27.7976L22.6573 24.734C23.6485 23.9145 24.4211 22.9209 24.9187 21.8269H26.5973C27.3707 21.8269 28 21.1812 28 20.3878V17.3551C28 16.5613 27.3712 15.9159 26.5979 15.9159H24.9187C24.4168 14.8123 23.6352 13.81 22.6317 12.9869C22.6115 11.761 22.5256 10.8307 22.3709 10.1486C22.1309 9.09234 21.6765 8.5567 21.0203 8.5567ZM16.0072 13.0789C16.8323 13.0789 17.6389 13.2051 18.4043 13.4547C18.7267 13.5598 18.9051 13.9132 18.8027 14.2441C18.7197 14.5118 18.4784 14.6831 18.2187 14.6831C18.1573 14.6831 18.0949 14.6738 18.0333 14.6536C17.388 14.4433 16.7061 14.3366 16.0072 14.3366C15.3083 14.3366 14.6269 14.4433 13.9819 14.6536C13.6592 14.7589 13.3144 14.5758 13.212 14.2446C13.1096 13.9137 13.288 13.5598 13.6104 13.4547C14.3757 13.2051 15.1824 13.0789 16.0072 13.0789ZM21.0088 15.3272C21.5768 15.3272 22.1171 15.7763 22.1171 16.4083C22.1171 17.0403 21.5768 17.4886 21.0088 17.4886C20.4408 17.4886 19.9011 17.0403 19.9011 16.4083C19.9011 15.7763 20.4408 15.3272 21.0088 15.3272ZM21.0088 16.2312C20.988 16.2312 20.8917 16.2756 20.8917 16.4083C20.8917 16.541 20.988 16.5846 21.0088 16.5846C21.0296 16.5846 21.1261 16.541 21.1261 16.4083C21.1261 16.2756 21.0296 16.2312 21.0088 16.2312Z" fill="#9BA6B9"/>
</svg>
