<svg width="18" height="20" viewBox="0 0 18 20" fill="none" xmlns="http://www.w3.org/2000/svg">
<path fill-rule="evenodd" clip-rule="evenodd" d="M3 0.400391C1.67452 0.400391 0.6 1.47491 0.6 2.80039V19.6004L4.8 17.2004L9 19.6004L13.2 17.2004L17.4 19.6004V2.80039C17.4 1.47491 16.3255 0.400391 15 0.400391H3ZM6 4.00039C5.00589 4.00039 4.2 4.80628 4.2 5.80039C4.2 6.7945 5.00589 7.60039 6 7.60039C6.99411 7.60039 7.8 6.7945 7.8 5.80039C7.8 4.80628 6.99411 4.00039 6 4.00039ZM13.4485 4.35186C12.9799 3.88323 12.2201 3.88323 11.7515 4.35186L4.55147 11.5519C4.08284 12.0205 4.08284 12.7803 4.55147 13.2489C5.0201 13.7175 5.7799 13.7175 6.24853 13.2489L13.4485 6.04892C13.9172 5.58029 13.9172 4.82049 13.4485 4.35186ZM12 10.0004C11.0059 10.0004 10.2 10.8063 10.2 11.8004C10.2 12.7945 11.0059 13.6004 12 13.6004C12.9941 13.6004 13.8 12.7945 13.8 11.8004C13.8 10.8063 12.9941 10.0004 12 10.0004Z" fill="white"/>
</svg>
