<svg width="20" height="18" viewBox="0 0 20 18" fill="none" xmlns="http://www.w3.org/2000/svg">
<path d="M19.6006 13.5478L12.6236 1.49911C12.3415 1.03953 11.9528 0.661305 11.4933 0.399315C11.0339 0.137325 10.5185 0 9.99471 0C9.47089 0 8.95551 0.137325 8.49607 0.399315C8.03664 0.661305 7.64794 1.03953 7.36581 1.49911L0.388789 13.5478C0.142323 13.9757 0.00836302 14.4635 0.000379033 14.9623C-0.00760495 15.4612 0.110668 15.9534 0.343307 16.3895C0.612272 16.8804 1.00158 17.2882 1.47146 17.5711C1.94133 17.854 2.47492 18.002 3.01768 17.9998H16.9717C17.5109 18.0058 18.0421 17.8636 18.5117 17.5875C18.9812 17.3114 19.3725 16.9113 19.6461 16.4274C19.8856 15.9867 20.0076 15.4875 19.9996 14.9812C19.9916 14.4749 19.8539 13.9801 19.6006 13.5478ZM9.99471 14.2109C9.81479 14.2109 9.63892 14.1554 9.48933 14.0513C9.33974 13.9472 9.22315 13.7992 9.1543 13.6262C9.08545 13.4531 9.06743 13.2626 9.10253 13.0789C9.13763 12.8951 9.22427 12.7264 9.35149 12.5939C9.4787 12.4614 9.64079 12.3712 9.81724 12.3347C9.9937 12.2981 10.1766 12.3169 10.3428 12.3886C10.509 12.4602 10.6511 12.5817 10.7511 12.7374C10.851 12.8932 10.9044 13.0763 10.9044 13.2637C10.9044 13.5149 10.8085 13.7558 10.6379 13.9335C10.4673 14.1111 10.236 14.2109 9.99471 14.2109ZM10.9044 10.422C10.9044 10.6732 10.8085 10.9141 10.6379 11.0918C10.4673 11.2694 10.236 11.3692 9.99471 11.3692C9.75345 11.3692 9.52208 11.2694 9.35149 11.0918C9.18089 10.9141 9.08506 10.6732 9.08506 10.422V6.63308C9.08506 6.38186 9.18089 6.14093 9.35149 5.96329C9.52208 5.78565 9.75345 5.68585 9.99471 5.68585C10.236 5.68585 10.4673 5.78565 10.6379 5.96329C10.8085 6.14093 10.9044 6.38186 10.9044 6.63308V10.422Z" fill="white"/>
</svg>
