<svg width="22" height="16" viewBox="0 0 22 16" fill="none" xmlns="http://www.w3.org/2000/svg">
<path d="M18.4515 15.1992C19.8634 15.1992 21.0079 14.1247 21.0079 12.7992L21.0079 7.99922C21.0079 6.67373 19.8634 5.59922 18.4515 5.59922L18.4515 10.7992C18.4515 11.9038 17.556 12.7992 16.4515 12.7992L5.66931 12.7992C5.66931 14.1247 6.81386 15.1992 8.22574 15.1992L18.4515 15.1992Z" fill="white"/>
<path fill-rule="evenodd" clip-rule="evenodd" d="M15.895 7.99922C15.895 9.3247 14.7505 10.3992 13.3386 10.3992L3.11288 10.3992C1.701 10.3992 0.556443 9.3247 0.556443 7.99922L0.556443 3.19922C0.556444 1.87373 1.701 0.799217 3.11288 0.799217L13.3386 0.799218C14.7505 0.799218 15.895 1.87373 15.895 3.19922L15.895 7.99922ZM8.22574 3.19922C6.81386 3.19922 5.66931 4.27373 5.66931 5.59922C5.66931 6.9247 6.81386 7.99922 8.22574 7.99922C9.63762 7.99922 10.7822 6.9247 10.7822 5.59922C10.7822 4.27373 9.63762 3.19922 8.22574 3.19922Z" fill="white"/>
</svg>
