<svg
    xmlns="http://www.w3.org/2000/svg"
    viewBox="0 0 261 340"
    id="vector">
    <defs>
        <clipPath id="clip_path">
            <path d="M 16 0 L 245 0 C 249.242 0 253.314 1.687 256.314 4.686 C 259.313 7.686 261 11.758 261 16 L 261 324 C 261 328.242 259.313 332.314 256.314 335.314 C 253.314 338.313 249.242 340 245 340 L 16 340 C 11.758 340 7.686 338.313 4.686 335.314 C 1.687 332.314 0 328.242 0 324 L 0 16 C 0 11.758 1.687 7.686 4.686 4.686 C 7.686 1.687 11.758 0 16 0 Z"/>
        </clipPath>
        <clipPath id="clip_path_1">
            <path d="M 16 0 L 245 0 C 249.242 0 253.314 1.687 256.314 4.686 C 259.313 7.686 261 11.758 261 16 L 261 324 C 261 328.242 259.313 332.314 256.314 335.314 C 253.314 338.313 249.242 340 245 340 L 16 340 C 11.758 340 7.686 338.313 4.686 335.314 C 1.687 332.314 0 328.242 0 324 L 0 16 C 0 11.758 1.687 7.686 4.686 4.686 C 7.686 1.687 11.758 0 16 0 Z"/>
        </clipPath>
        <clipPath id="clip_path_2">
            <path d="M 16 0 L 245 0 C 249.242 0 253.314 1.687 256.314 4.686 C 259.313 7.686 261 11.758 261 16 L 261 324 C 261 328.242 259.313 332.314 256.314 335.314 C 253.314 338.313 249.242 340 245 340 L 16 340 C 11.758 340 7.686 338.313 4.686 335.314 C 1.687 332.314 0 328.242 0 324 L 0 16 C 0 11.758 1.687 7.686 4.686 4.686 C 7.686 1.687 11.758 0 16 0 Z"/>
        </clipPath>
        <clipPath id="clip_path_3">
            <path d="M 16 0 L 245 0 C 249.242 0 253.314 1.687 256.314 4.686 C 259.313 7.686 261 11.758 261 16 L 261 324 C 261 328.242 259.313 332.314 256.314 335.314 C 253.314 338.313 249.242 340 245 340 L 16 340 C 11.758 340 7.686 338.313 4.686 335.314 C 1.687 332.314 0 328.242 0 324 L 0 16 C 0 11.758 1.687 7.686 4.686 4.686 C 7.686 1.687 11.758 0 16 0 Z"/>
        </clipPath>
        <clipPath id="clip_path_4">
            <path d="M 16 0 L 245 0 C 249.242 0 253.314 1.687 256.314 4.686 C 259.313 7.686 261 11.758 261 16 L 261 324 C 261 328.242 259.313 332.314 256.314 335.314 C 253.314 338.313 249.242 340 245 340 L 16 340 C 11.758 340 7.686 338.313 4.686 335.314 C 1.687 332.314 0 328.242 0 324 L 0 16 C 0 11.758 1.687 7.686 4.686 4.686 C 7.686 1.687 11.758 0 16 0 Z"/>
        </clipPath>
        <clipPath id="clip_path_5">
            <path d="M 16 0 L 245 0 C 249.242 0 253.314 1.687 256.314 4.686 C 259.313 7.686 261 11.758 261 16 L 261 324 C 261 328.242 259.313 332.314 256.314 335.314 C 253.314 338.313 249.242 340 245 340 L 16 340 C 11.758 340 7.686 338.313 4.686 335.314 C 1.687 332.314 0 328.242 0 324 L 0 16 C 0 11.758 1.687 7.686 4.686 4.686 C 7.686 1.687 11.758 0 16 0 Z"/>
        </clipPath>
        <clipPath id="clip_path_6">
            <path d="M 16 0 L 245 0 C 249.242 0 253.314 1.687 256.314 4.686 C 259.313 7.686 261 11.758 261 16 L 261 324 C 261 328.242 259.313 332.314 256.314 335.314 C 253.314 338.313 249.242 340 245 340 L 16 340 C 11.758 340 7.686 338.313 4.686 335.314 C 1.687 332.314 0 328.242 0 324 L 0 16 C 0 11.758 1.687 7.686 4.686 4.686 C 7.686 1.687 11.758 0 16 0 Z"/>
        </clipPath>
        <clipPath id="clip_path_7">
            <path d="M 16 0 L 245 0 C 249.242 0 253.314 1.687 256.314 4.686 C 259.313 7.686 261 11.758 261 16 L 261 324 C 261 328.242 259.313 332.314 256.314 335.314 C 253.314 338.313 249.242 340 245 340 L 16 340 C 11.758 340 7.686 338.313 4.686 335.314 C 1.687 332.314 0 328.242 0 324 L 0 16 C 0 11.758 1.687 7.686 4.686 4.686 C 7.686 1.687 11.758 0 16 0 Z"/>
        </clipPath>
        <clipPath id="clip_path_8">
            <path d="M 16 0 L 245 0 C 249.242 0 253.314 1.687 256.314 4.686 C 259.313 7.686 261 11.758 261 16 L 261 324 C 261 328.242 259.313 332.314 256.314 335.314 C 253.314 338.313 249.242 340 245 340 L 16 340 C 11.758 340 7.686 338.313 4.686 335.314 C 1.687 332.314 0 328.242 0 324 L 0 16 C 0 11.758 1.687 7.686 4.686 4.686 C 7.686 1.687 11.758 0 16 0 Z"/>
        </clipPath>
        <clipPath id="clip_path_9">
            <path d="M 16 0 L 245 0 C 249.242 0 253.314 1.687 256.314 4.686 C 259.313 7.686 261 11.758 261 16 L 261 324 C 261 328.242 259.313 332.314 256.314 335.314 C 253.314 338.313 249.242 340 245 340 L 16 340 C 11.758 340 7.686 338.313 4.686 335.314 C 1.687 332.314 0 328.242 0 324 L 0 16 C 0 11.758 1.687 7.686 4.686 4.686 C 7.686 1.687 11.758 0 16 0 Z"/>
        </clipPath>
        <clipPath id="clip_path_10">
            <path d="M 16 0 L 245 0 C 249.242 0 253.314 1.687 256.314 4.686 C 259.313 7.686 261 11.758 261 16 L 261 324 C 261 328.242 259.313 332.314 256.314 335.314 C 253.314 338.313 249.242 340 245 340 L 16 340 C 11.758 340 7.686 338.313 4.686 335.314 C 1.687 332.314 0 328.242 0 324 L 0 16 C 0 11.758 1.687 7.686 4.686 4.686 C 7.686 1.687 11.758 0 16 0 Z"/>
        </clipPath>
    </defs>
    <g id="group">
        <path
            id="path"
            clip-path="url(#clip_path)"
            d="M 330.125 703.367 C 68.032 552.048 505.893 180.354 -106.498 -22.75 C -479.634 253.649 -282.991 428.66 -282.991 428.66 L 330.125 703.367 Z"
            fill="none"/>
        <path
            id="path_1"
            clip-path="url(#clip_path_1)"
            d="M 938.612 417.241 C 692.635 81.083 505.693 334.598 260.576 193.079 C 15.458 51.56 35.895 -544 35.895 -544 L 1311.17 192.281 L 938.612 417.241 Z"
            fill="none"/>
        <path
            id="path_2"
            clip-path="url(#clip_path_2)"
            d="M 83.964 121.997 C -12.2 66.477 -135.166 99.425 -190.687 195.59 C -246.208 291.755 -213.259 414.72 -117.094 470.241 C -20.929 525.762 102.036 492.813 157.557 396.649 C 213.078 300.484 180.129 177.518 83.964 121.997 Z"
            fill="none"/>
        <path
            id="path_3"
            clip-path="url(#clip_path_3)"
            d="M 495.77 -200.026 C 399.605 -255.547 276.639 -222.598 221.118 -126.433 C 165.598 -30.269 198.546 92.697 294.711 148.218 C 390.876 203.739 513.841 170.79 569.362 74.625 C 624.883 -21.54 591.934 -144.505 495.77 -200.026 Z"
            fill="none"/>
        <path
            id="path_4"
            clip-path="url(#clip_path_4)"
            d="M 424.188 351.997 C 382.136 327.719 328.366 342.126 304.088 384.178 C 279.809 426.229 294.217 479.999 336.268 504.278 C 378.319 528.556 432.09 514.148 456.368 472.097 C 480.647 430.046 466.239 376.275 424.188 351.997 Z"
            fill="none"/>
        <path
            id="path_5"
            clip-path="url(#clip_path_5)"
            d="M 108.47 79.553 C 64.415 54.118 8.082 69.213 -17.353 113.267 C -42.788 157.322 -27.694 213.655 16.361 239.09 C 60.416 264.525 116.749 249.431 142.184 205.376 C 167.619 161.321 152.525 104.988 108.47 79.553 Z"
            fill="none"/>
        <path
            id="path_6"
            clip-path="url(#clip_path_6)"
            d="M 143.956 252.605 C 115.067 235.926 78.126 245.824 61.446 274.714 C 44.767 303.603 54.665 340.545 83.555 357.224 C 112.444 373.903 149.385 364.005 166.065 335.115 C 182.744 306.226 172.846 269.285 143.956 252.605 Z"
            fill="none"/>
        <path
            id="path_7"
            clip-path="url(#clip_path_7)"
            d="M -275.192 239.536 C -275.192 239.536 -141.728 1.028 79.026 72.713 C -118.477 -18.956 -321.249 106.733 -321.249 106.733 L -275.192 239.536 Z"
            fill="none"/>
        <path
            id="path_8"
            clip-path="url(#clip_path_8)"
            d="M 327.214 -73.802 C 290.705 -94.881 244.021 -82.372 222.942 -45.863 C 201.864 -9.354 214.373 37.331 250.882 58.409 C 287.391 79.488 334.075 66.979 355.154 30.469 C 376.232 -6.04 363.723 -52.724 327.214 -73.802 Z"
            fill="none"/>
        <path
            id="path_9"
            clip-path="url(#clip_path_9)"
            d="M 261.219 339.359 C 261.976 338.049 263.66 337.597 264.97 338.354 C 266.281 339.11 266.732 340.795 265.975 342.105 C 265.219 343.416 263.535 343.867 262.224 343.11 C 260.914 342.354 260.462 340.669 261.219 339.359 Z"
            fill="none"/>
        <path
            id="path_10"
            clip-path="url(#clip_path_10)"
            d="M -20 251 L 295 251 L 295 347 L -20 347 Z"
            fill="none"/>
    </g>
</svg>
