<svg width="261" height="340" viewBox="0 0 261 340" fill="none" xmlns="http://www.w3.org/2000/svg">
    <mask id="mask0" mask-type="alpha" maskUnits="userSpaceOnUse" x="0" y="0" width="261" height="340">
        <rect width="261" height="340" rx="16" fill="#0361F0"/>
    </mask>
    <defs>
        <linearGradient id="paint0_linear" x1="-109.292" y1="231.469" x2="219.605" y2="550.586" gradientUnits="userSpaceOnUse">
            <stop stop-color="#0461f0" stop-opacity="0"/>
            <stop offset="0.6261" stop-color="#0360ef" stop-opacity="0.6261"/>
            <stop offset="1" stop-color="#035ee6"/>
        </linearGradient>
        <linearGradient id="paint1_linear" x1="1039.74" y1="107.123" x2="208.961" y2="-149.263" gradientUnits="userSpaceOnUse">
            <stop stop-color="#0561f1" stop-opacity="0"/>
            <stop offset="0.1851" stop-color="#0461ef" stop-opacity="0.6261"/>
            <stop offset="0.2957" stop-color="#0260ee"/>
            <stop offset="0.6452" stop-color="#045fec"/>
            <stop offset="1" stop-color="#0360ea" stop-opacity="0"/>
        </linearGradient>
        <linearGradient id="paint2_linear" x1="110.613" y1="173.729" x2="-55.4341" y2="333.533" gradientUnits="userSpaceOnUse">
            <stop stop-color="#0451cb"/>
            <stop offset="0.3739" stop-color="#0451cb" stop-opacity="0.6261"/>
            <stop offset="1" stop-color="#045de5" stop-opacity="0"/>
        </linearGradient>
        <linearGradient id="paint3_linear" x1="437.097" y1="-90.4791" x2="326.628" y2="79.9494" gradientUnits="userSpaceOnUse">
            <stop stop-color="#0262f0"/>
            <stop offset="0.0176" stop-color="#0561f1"/>
            <stop offset="0.3644" stop-color="#0660f0"/>
            <stop offset="0.6976" stop-color="#0562f0"/>
            <stop offset="1" stop-color="#0461f0"/>
        </linearGradient>
        <linearGradient id="paint4_linear" x1="398.531" y1="399.9" x2="350.225" y2="474.425" gradientUnits="userSpaceOnUse">
            <stop stop-color="#FFD6D6D8"/>
            <stop offset="0.0176" stop-color="#FFD7D7D9"/>
            <stop offset="0.3644" stop-color="#FFEDEDEE"/>
            <stop offset="0.6976" stop-color="#FFFAFAFB"/>
            <stop offset="1" stop-color="#FFFFFFFF"/>
        </linearGradient>
        <linearGradient id="paint5_linear" x1="120.675" y1="103.26" x2="44.6068" y2="176.468" gradientUnits="userSpaceOnUse">
            <stop stop-color="#00055ADE" stop-opacity="0"/>
            <stop offset="1" stop-color="#0461f0"/>
        </linearGradient>
        <linearGradient id="paint6_linear" x1="151.966" y1="268.148" x2="102.08" y2="316.158" gradientUnits="userSpaceOnUse">
            <stop stop-color="#0451cb" stop-opacity="0"/>
            <stop offset="1" stop-color="#045fed"/>
        </linearGradient>
        <linearGradient id="paint7_linear" x1="-123.8" y1="41.8326" x2="-121.417" y2="84.1703" gradientUnits="userSpaceOnUse">
            <stop stop-color="#055ee9"/>
            <stop offset="0.1397" stop-color="#0260ed" stop-opacity="0.8603"/>
            <stop offset="0.3623" stop-color="#0260ed" stop-opacity="0.6377"/>
            <stop offset="0.6214" stop-color="#035feb" stop-opacity="0.3786"/>
            <stop offset="1" stop-color="#055ee9" stop-opacity="0"/>
        </linearGradient>
        <radialGradient id="paint8_radial" cx="0" cy="0" r="1" gradientUnits="userSpaceOnUse" gradientTransform="translate(282.933 -45.9314) rotate(30) scale(105.077)">
            <stop stop-color="#045fe8"/>
            <stop offset="0.4078" stop-color="#045de5"/>
            <stop offset="0.6529" stop-color="#035be0"/>
            <stop offset="0.8544" stop-color="#035bdf"/>
            <stop offset="1" stop-color="#0553d0"/>
        </radialGradient>
        <linearGradient id="paint9_linear" x1="255.637" y1="354.516" x2="349.785" y2="191.447" gradientUnits="userSpaceOnUse">
            <stop stop-color="#FFD6D6D8"/>
            <stop offset="0.3739" stop-color="#9FE2E2E3" stop-opacity="0.6261"/>
            <stop offset="1" stop-color="#00FFFFFF" stop-opacity="0"/>
        </linearGradient>
        <linearGradient id="paint10_linear" x1="137.5" y1="251" x2="137.5" y2="347" gradientUnits="userSpaceOnUse">
            <stop stop-color="#000361F0" stop-opacity="0"/>
            <stop offset="0.692708" stop-color="#FF0361F0"/>
        </linearGradient>
    </defs>
    <g>
        <g style="mix-blend-mode:multiply">
            <path d="M330.125 703.367C68.0318 552.048 505.893 180.354 -106.498 -22.7496C-479.634 253.649 -282.991 428.66 -282.991 428.66L330.125 703.367Z" fill="url(#paint0_linear)"/>
            <path d="M938.612 417.241C692.635 81.0833 505.693 334.598 260.576 193.079C15.458 51.5603 35.8953 -544 35.8953 -544L1311.17 192.281L938.612 417.241Z" fill="url(#paint1_linear)"/>
            <path d="M83.9644 121.997C-12.2005 66.4766 -135.166 99.4251 -190.687 195.59C-246.208 291.755 -213.259 414.72 -117.094 470.241C-20.9294 525.762 102.036 492.813 157.557 396.649C213.078 300.484 180.129 177.518 83.9644 121.997Z" fill="url(#paint2_linear)"/>
            <path d="M495.77 -200.026C399.605 -255.547 276.639 -222.598 221.118 -126.433C165.598 -30.2686 198.546 92.6969 294.711 148.218C390.876 203.739 513.841 170.79 569.362 74.6252C624.883 -21.5397 591.934 -144.505 495.77 -200.026Z" fill="url(#paint3_linear)"/>
            <path d="M424.188 351.997C382.136 327.719 328.366 342.126 304.088 384.178C279.809 426.229 294.217 479.999 336.268 504.278C378.319 528.556 432.09 514.148 456.368 472.097C480.647 430.046 466.239 376.275 424.188 351.997Z" fill="url(#paint4_linear)"/>
            <path d="M108.47 79.5533C64.4148 54.1182 8.08204 69.2125 -17.3531 113.267C-42.7882 157.322 -27.6939 213.655 16.3611 239.09C60.416 264.525 116.749 249.431 142.184 205.376C167.619 161.321 152.525 104.988 108.47 79.5533Z" fill="url(#paint5_linear)"/>
            <path d="M143.956 252.605C115.067 235.926 78.1257 245.824 61.4462 274.714C44.7668 303.603 54.6651 340.545 83.5548 357.224C112.444 373.903 149.385 364.005 166.065 335.115C182.744 306.226 172.846 269.285 143.956 252.605Z" fill="url(#paint6_linear)"/>
            <path d="M-275.192 239.536C-275.192 239.536 -141.728 1.02804 79.0256 72.7129C-118.477 -18.9565 -321.249 106.733 -321.249 106.733L-275.192 239.536Z" fill="url(#paint7_linear)"/>
            <path d="M327.214 -73.8023C290.705 -94.8808 244.021 -82.3718 222.942 -45.8627C201.864 -9.35357 214.373 37.3305 250.882 58.4091C287.391 79.4876 334.075 66.9787 355.154 30.4695C376.232 -6.03961 363.723 -52.7237 327.214 -73.8023Z" fill="url(#paint8_radial)"/>
            <path d="M261.219 339.359C261.976 338.049 263.66 337.597 264.97 338.354C266.281 339.11 266.732 340.795 265.975 342.105C265.219 343.416 263.535 343.867 262.224 343.11C260.914 342.354 260.462 340.669 261.219 339.359Z" fill="url(#paint9_linear)"/>
        </g>
        <rect x="-20" y="251" width="315" height="96" fill="url(#paint10_linear)"/>
    </g>
</svg>
