<svg width="29" height="25" viewBox="0 0 29 25" fill="none" xmlns="http://www.w3.org/2000/svg">
<path d="M27.6079 18.468L18.0088 2.45173C17.6207 1.84082 17.0859 1.33805 16.4538 0.989791C15.8217 0.64153 15.1126 0.458984 14.3919 0.458984C13.6713 0.458984 12.9622 0.64153 12.3301 0.989791C11.698 1.33805 11.1632 1.84082 10.7751 2.45173L1.17596 18.468C0.836862 19.0367 0.652558 19.6852 0.641574 20.3483C0.630589 21.0114 0.793311 21.6657 1.11338 22.2455C1.48343 22.898 2.01905 23.4401 2.66551 23.8161C3.31197 24.1922 4.04608 24.3889 4.79283 24.386H23.9911C24.7329 24.394 25.4637 24.2049 26.1097 23.8379C26.7557 23.471 27.2941 22.939 27.6705 22.2958C28 21.7101 28.1679 21.0463 28.1569 20.3734C28.1459 19.7004 27.9564 19.0426 27.6079 18.468ZM14.3919 19.3494C14.1444 19.3494 13.9025 19.2756 13.6966 19.1372C13.4908 18.9989 13.3304 18.8022 13.2357 18.5722C13.141 18.3421 13.1162 18.0889 13.1645 17.8447C13.2128 17.6004 13.332 17.376 13.507 17.1999C13.682 17.0239 13.905 16.9039 14.1478 16.8553C14.3906 16.8068 14.6422 16.8317 14.8709 16.927C15.0996 17.0223 15.295 17.1837 15.4325 17.3908C15.5701 17.5978 15.6435 17.8413 15.6435 18.0903C15.6435 18.4242 15.5116 18.7445 15.2769 18.9806C15.0422 19.2168 14.7239 19.3494 14.3919 19.3494ZM15.6435 14.3129C15.6435 14.6468 15.5116 14.9671 15.2769 15.2032C15.0422 15.4394 14.7239 15.572 14.3919 15.572C14.06 15.572 13.7417 15.4394 13.507 15.2032C13.2723 14.9671 13.1404 14.6468 13.1404 14.3129V9.27629C13.1404 8.94235 13.2723 8.62208 13.507 8.38594C13.7417 8.14981 14.06 8.01715 14.3919 8.01715C14.7239 8.01715 15.0422 8.14981 15.2769 8.38594C15.5116 8.62208 15.6435 8.94235 15.6435 9.27629V14.3129Z" fill="#E94444"/>
</svg>
