<svg width="27" height="27" viewBox="0 0 27 27" fill="none" xmlns="http://www.w3.org/2000/svg">
    <path opacity="0.1" fill-rule="evenodd" clip-rule="evenodd"
        d="M13.5 27C20.9558 27 27 20.9558 27 13.5C27 6.04416 20.9558 0 13.5 0C6.04416 0 0 6.04416 0 13.5C0 20.9558 6.04416 27 13.5 27Z"
        fill="#0B3275" />
    <path fill-rule="evenodd" clip-rule="evenodd"
        d="M13.5 22C8.81296 22 5 18.187 5 13.5C5 8.81304 8.81296 5 13.5 5C18.187 5 22 8.81304 22 13.5C22 18.187 18.187 22 13.5 22ZM19.6108 17.0418H17.8605C17.4985 18.0954 16.98 19.0928 16.3149 19.9966C17.7068 19.391 18.8522 18.3431 19.6108 17.0418ZM16.3397 17.0418H14.2083V20.2529C15.1362 19.325 15.8559 18.231 16.3397 17.0418ZM17.0417 13.5C17.0417 12.7773 16.9489 12.0666 16.7874 11.3752H14.2083V15.6248H16.7867C16.9489 14.9334 17.0417 14.2227 17.0417 13.5ZM12.7917 17.0418H10.6589C11.1434 18.2324 11.863 19.3278 12.7917 20.2557V17.0418ZM10.6815 19.9952C10.0171 19.0914 9.50004 18.0947 9.13808 17.0418H7.38921C8.14712 18.3417 9.29179 19.3896 10.6815 19.9952ZM6.41667 13.5C6.41667 14.2405 6.53354 14.9539 6.74533 15.6248H8.75983C8.62171 14.9305 8.54167 14.2206 8.54167 13.5014C8.54167 12.7816 8.62171 12.0709 8.76054 11.3752H6.74533C6.53354 12.0468 6.41667 12.7595 6.41667 13.5ZM7.38921 9.95816H9.1395C9.50146 8.90462 10.02 7.90717 10.6851 7.00342C9.29321 7.609 8.14783 8.65756 7.38921 9.95816ZM12.7917 6.74927C11.8645 7.67573 11.1441 8.76973 10.6603 9.95816H12.7917V6.74927ZM10.2133 11.3752C10.0511 12.0674 9.95833 12.778 9.95833 13.5014C9.95833 14.2234 10.0511 14.9341 10.2126 15.6248H12.7917V11.3752H10.2133ZM14.2083 9.95816H16.3404C15.8559 8.76902 15.1362 7.67431 14.2083 6.74643V9.95816ZM16.317 7.00413C16.9815 7.90788 17.4992 8.90533 17.8612 9.95816H19.6108C18.8529 8.65827 17.7075 7.60971 16.317 7.00413ZM20.2547 11.3752H18.2395C18.3783 12.0702 18.4583 12.7801 18.4583 13.5C18.4583 14.2199 18.3783 14.9298 18.2395 15.6248H20.2547C20.4665 14.9539 20.5833 14.2405 20.5833 13.5C20.5833 12.7595 20.4665 12.0468 20.2547 11.3752Z"
        fill="#0361F0" />
</svg>
