<svg width="24" height="24" viewBox="0 0 24 24" fill="none" xmlns="http://www.w3.org/2000/svg">
<path d="M12.0054 1.71289C10.65 1.71289 9.5472 2.84467 9.5472 4.236C9.5472 5.6274 10.65 6.75912 12.0054 6.75912C13.361 6.75912 14.464 5.6274 14.464 4.236C14.464 2.84469 13.361 1.71289 12.0054 1.71289ZM15.7652 6.41753C15.2282 6.41753 14.0852 7.10666 13.2062 8.12034C12.8106 8.06348 12.4078 8.03494 12.0054 8.03494C10.1076 8.03494 8.3196 8.66044 6.9708 9.79585C5.7472 10.8257 5.0128 12.1642 4.8656 13.6104C4.3164 13.424 3.91914 12.8925 3.91914 12.2672C3.91914 12.0067 3.71312 11.7957 3.45938 11.7957C3.20564 11.7957 3 12.0067 3 12.2672C3 13.4123 3.79942 14.3691 4.8554 14.5812C4.9788 16.0844 5.7486 17.5005 7.0184 18.5505L6.6234 20.8482C6.6022 20.9714 6.6298 21.0982 6.6996 21.2007C6.7696 21.3031 6.8764 21.3725 6.9964 21.3942L8.716 21.7059C8.836 21.7274 8.9596 21.6989 9.0594 21.6272C9.1592 21.5554 9.2274 21.4462 9.2484 21.3228L9.495 19.8867C10.2952 20.1424 11.1372 20.272 12.0054 20.272C12.8738 20.272 13.716 20.1426 14.5164 19.8867L14.7628 21.3228C14.784 21.4462 14.8522 21.5554 14.952 21.6272C15.0298 21.6831 15.122 21.7126 15.2156 21.7126C15.2422 21.7126 15.2688 21.7106 15.2954 21.7059L17.0148 21.3942C17.2648 21.3491 17.4316 21.1046 17.3876 20.8482L16.993 18.5505C17.7364 17.9359 18.3158 17.1907 18.689 16.3702H19.948C20.528 16.3702 21 15.8859 21 15.2908V13.0163C21 12.421 20.5284 11.9369 19.9484 11.9369H18.689C18.3126 11.1092 17.7264 10.3575 16.9738 9.74022C16.9586 8.82076 16.8942 8.12301 16.7782 7.61145C16.5982 6.81927 16.2574 6.41753 15.7652 6.41753ZM12.0054 9.80919C12.6242 9.80919 13.2292 9.90382 13.8032 10.091C14.045 10.1699 14.1788 10.4349 14.102 10.6831C14.0398 10.8838 13.8588 11.0123 13.664 11.0123C13.618 11.0123 13.5712 11.0054 13.525 10.9902C13.041 10.8325 12.5296 10.7525 12.0054 10.7525C11.4812 10.7525 10.9702 10.8325 10.4864 10.9902C10.2444 11.0692 9.9858 10.9319 9.909 10.6835C9.8322 10.4353 9.966 10.1699 10.2078 10.091C10.7818 9.90382 11.3868 9.80919 12.0054 9.80919ZM15.7566 11.4954C16.1826 11.4954 16.5878 11.8322 16.5878 12.3062C16.5878 12.7802 16.1826 13.1165 15.7566 13.1165C15.3306 13.1165 14.9258 12.7802 14.9258 12.3062C14.9258 11.8322 15.3306 11.4954 15.7566 11.4954ZM15.7566 12.1734C15.741 12.1734 15.6688 12.2067 15.6688 12.3062C15.6688 12.4058 15.741 12.4384 15.7566 12.4384C15.7722 12.4384 15.8446 12.4058 15.8446 12.3062C15.8446 12.2067 15.7722 12.1734 15.7566 12.1734Z" fill="white"/>
</svg>
