<svg width="14" height="13" viewBox="0 0 14 13" fill="none" xmlns="http://www.w3.org/2000/svg">
    <path
        d="M7.81349 2.33909C7.54643 2.30753 7.27507 2.28945 7.00001 2.28495C5.79805 2.29078 4.55207 2.61015 3.37268 3.22214C2.49701 3.69524 1.644 4.36315 0.903199 5.18702C0.539374 5.60759 0.0750284 6.21655 0 6.86627C0.00886667 7.4291 0.561785 8.12378 0.903199 8.54555C1.59787 9.33707 2.42866 9.98586 3.37268 10.5104C3.40477 10.5274 3.43697 10.5443 3.46924 10.5608L2.5934 12.2317L3.78346 13L10.2166 0.764777L9.07114 0L7.81349 2.33909ZM10.5299 3.17359L9.65576 4.82857C10.0579 5.39929 10.2966 6.1031 10.2966 6.86627C10.2966 8.76849 8.82054 10.3107 6.99914 10.3107C6.9204 10.3107 6.84409 10.3014 6.76672 10.2957L6.18823 11.3897C6.45502 11.4209 6.72478 11.4437 6.99999 11.4476C8.2031 11.4417 9.44837 11.1186 10.6265 10.5104C11.5021 10.0373 12.356 9.36942 13.0968 8.54555C13.4606 8.12499 13.925 7.51602 14 6.86627C13.9911 6.30346 13.4382 5.60878 13.0968 5.18701C12.4021 4.39549 11.5705 3.7467 10.6265 3.22211C10.5946 3.20524 10.562 3.19006 10.5299 3.17359ZM6.99915 3.4219C7.07902 3.4219 7.15826 3.42539 7.2367 3.43122L6.55909 4.71283C5.60809 4.92345 4.89453 5.80734 4.89453 6.86536C4.89453 7.13113 4.93934 7.38558 5.02185 7.62143C5.02194 7.6217 5.02176 7.6221 5.02185 7.62237L4.34252 8.90771C3.93943 8.33646 3.70165 7.63034 3.70165 6.86626C3.70166 4.96407 5.17776 3.42188 6.99915 3.4219ZM8.97046 6.12419L7.44349 9.01413C8.38938 8.79955 9.09779 7.91969 9.09779 6.86536C9.09779 6.60442 9.05012 6.35635 8.97046 6.12419Z"
        fill="#0361F0" />
</svg>
