<svg width="131" height="61" viewBox="0 0 131 61" fill="none" xmlns="http://www.w3.org/2000/svg">
<path opacity="0.1" fill-rule="evenodd" clip-rule="evenodd" d="M35.88 60.612H100.62C103.635 60.612 106.08 58.548 106.08 56.002C106.08 53.4559 103.635 51.3919 100.62 51.3919C100.62 51.3919 95.94 49.328 95.94 46.7819C95.94 44.2359 99.0222 42.1719 102.824 42.1719H110.76C113.775 42.1719 116.22 40.1079 116.22 37.5619C116.22 35.0158 113.775 32.9518 110.76 32.9518H93.6C96.6155 32.9518 99.06 30.8879 99.06 28.3418C99.06 25.7958 96.6155 23.7318 93.6 23.7318H124.8C127.815 23.7318 130.26 21.6678 130.26 19.1217C130.26 16.5757 127.815 14.5117 124.8 14.5117H48.36C45.3445 14.5117 42.9 16.5757 42.9 19.1217C42.9 21.6678 45.3445 23.7318 48.36 23.7318H17.16C14.1445 23.7318 11.7 25.7958 11.7 28.3418C11.7 30.8879 14.1445 32.9518 17.16 32.9518H36.66C39.6755 32.9518 42.12 35.0158 42.12 37.5619C42.12 40.1079 39.6755 42.1719 36.66 42.1719H5.46C2.44453 42.1719 0 44.2359 0 46.7819C0 49.328 2.44453 51.3919 5.46 51.3919H35.88C32.8645 51.3919 30.42 53.4559 30.42 56.002C30.42 58.548 32.8645 60.612 35.88 60.612ZM119.34 37.5626C119.34 40.1087 121.785 42.1727 124.8 42.1727C127.815 42.1727 130.26 40.1087 130.26 37.5626C130.26 35.0166 127.815 32.9526 124.8 32.9526C121.785 32.9526 119.34 35.0166 119.34 37.5626Z" fill="#0361F0"/>
<path d="M38 40L54.5 24H83.5L99 39V58H38V40Z" fill="white"/>
<path fill-rule="evenodd" clip-rule="evenodd" d="M81 42.9996C81 46.6533 73.7406 48.3911 68.96 48.3911C64.1794 48.3911 57 46.6533 57 42.9996C57 42.8812 55.992 40.2223 56 40.1055H46.5L56 30.4996C56.5 30.0003 57 30.0003 57 30.0003L81 30C81 30 81.5 30 82 30.4996L91 40.1055H82C82.008 40.2223 81 42.8812 81 42.9996Z" fill="#E1ECFC"/>
<path fill-rule="evenodd" clip-rule="evenodd" d="M37 39.3913L52.0767 23.9458C52.6671 23.341 53.4766 23 54.3218 23H83.6783C84.5234 23 85.3329 23.341 85.9233 23.9458L101 39.3913V55.176C101 57.9483 98.7526 60.1957 95.9804 60.1957H42.0196C39.2474 60.1957 37 57.9483 37 55.176V39.3913ZM41.7059 38.1304L53.9412 25.5217H84.0588L96.2941 38.1304H80.6078V40.679C80.6078 43.7978 78.0796 46.3261 74.9608 46.3261H63.0392C59.9204 46.3261 57.3922 43.7978 57.3922 40.679V38.1304H41.7059ZM39.5 40.6957H55C55 45.0587 58.537 48.5957 62.9 48.5957H75.1C79.4631 48.5957 83 45.0587 83 40.6957H98.5V54.6957C98.5 56.3525 97.1569 57.6957 95.5 57.6957H42.5C40.8431 57.6957 39.5 56.3525 39.5 54.6957V40.6957Z" fill="#0361F0"/>
<rect x="45" y="5.92578" width="4" height="16" rx="2" transform="rotate(-47 45 5.92578)" fill="#F08922"/>
<rect x="88.4311" y="3" width="4" height="16" rx="2" transform="rotate(45.5974 88.4311 3)" fill="#F08922"/>
<rect x="66" width="4" height="16" rx="2" fill="#F08922"/>
</svg>
