<svg xmlns="http://www.w3.org/2000/svg"
    width="131"
    height="61"
    viewBox="0 0 131 61">
    <path
        d="M35.88,60.612H100.62C103.635,60.612 106.08,58.548 106.08,56.002C106.08,53.456 103.635,51.392 100.62,51.392C100.62,51.392 95.94,49.328 95.94,46.782C95.94,44.236 99.022,42.172 102.824,42.172H110.76C113.775,42.172 116.22,40.108 116.22,37.562C116.22,35.016 113.775,32.952 110.76,32.952H93.6C96.616,32.952 99.06,30.888 99.06,28.342C99.06,25.796 96.616,23.732 93.6,23.732H124.8C127.815,23.732 130.26,21.668 130.26,19.122C130.26,16.576 127.815,14.512 124.8,14.512H48.36C45.345,14.512 42.9,16.576 42.9,19.122C42.9,21.668 45.345,23.732 48.36,23.732H17.16C14.144,23.732 11.7,25.796 11.7,28.342C11.7,30.888 14.144,32.952 17.16,32.952H36.66C39.675,32.952 42.12,35.016 42.12,37.562C42.12,40.108 39.675,42.172 36.66,42.172H5.46C2.445,42.172 0,44.236 0,46.782C0,49.328 2.445,51.392 5.46,51.392H35.88C32.864,51.392 30.42,53.456 30.42,56.002C30.42,58.548 32.864,60.612 35.88,60.612ZM119.34,37.563C119.34,40.109 121.785,42.173 124.8,42.173C127.815,42.173 130.26,40.109 130.26,37.563C130.26,35.017 127.815,32.953 124.8,32.953C121.785,32.953 119.34,35.017 119.34,37.563Z"
        stroke-opacity="0.1"
        fill="#0361F0"
        fill-rule="evenodd"
        fill-opacity="0.1"/>
    <path
        d="M45.49,29.486C49.491,29.486 52.733,26.243 52.733,22.243C52.733,18.243 49.491,15 45.49,15C41.49,15 38.247,18.243 38.247,22.243C38.247,26.243 41.49,29.486 45.49,29.486Z"
        fill="#72AAFF"/>
    <path
        d="M68.86,39.17C58.997,39.17 51,44.497 51,51.071C51,53.243 51,52.295 51,54.047C51,57.341 53.669,60 56.956,60H80.763C84.049,60 86.718,57.341 86.718,54.047V51.071C86.721,44.497 78.723,39.17 68.86,39.17Z"
        fill="#0361F0"/>
    <path
        d="M60.059,26.194C60.059,31.194 64.11,35.252 69.112,35.252C74.115,35.252 78.169,31.195 78.169,26.194C78.169,21.196 74.117,17.145 69.112,17.145C64.11,17.145 60.059,21.196 60.059,26.194Z"
        fill="#0361F0"/>
    <path
        d="M92.636,29.488C96.637,29.488 99.88,26.245 99.88,22.244C99.88,18.243 96.637,15 92.636,15C88.635,15 85.392,18.243 85.392,22.244C85.392,26.245 88.635,29.488 92.636,29.488Z"
        fill="#72AAFF"/>
    <path
        d="M92.434,32.623C86.881,32.623 82.072,34.733 79.707,37.817C85.334,40.176 89.243,44.34 90.005,49.289H101.956C104.586,49.289 106.72,47.156 106.72,44.525V42.144C106.72,36.884 100.323,32.623 92.434,32.623Z"
        fill="#72AAFF"/>
    <path
        d="M58.013,37.817C55.649,34.733 50.839,32.623 45.287,32.623C37.397,32.623 31,36.884 31,42.144C31,43.881 31,43.124 31,44.525C31,47.156 33.134,49.289 35.764,49.289H47.715C48.477,44.34 52.386,40.176 58.013,37.817Z"
        fill="#72AAFF"/>
</svg>