<svg width="14" height="13" viewBox="0 0 16 10" fill="none" xmlns="http://www.w3.org/2000/svg">
    <path
        d="M10.3979 5.00105C10.3979 3.67509 9.32239 2.60019 7.99565 2.60019C6.66893 2.60019 5.59341 3.67509 5.59341 5.00105C5.59341 6.32702 6.66893 7.40191 7.99565 7.40191C9.32239 7.40192 10.3979 6.32701 10.3979 5.00105ZM8 10C6.62633 9.99364 5.20248 9.64479 3.85461 8.9769C2.85384 8.46057 1.87853 7.7321 1.03192 6.83295C0.616107 6.37397 0.0857467 5.70937 0 5.00027C0.0101333 4.38604 0.641733 3.62788 1.03192 3.16758C1.82583 2.30375 2.77573 1.59561 3.85461 1.0231C5.11156 0.386754 6.50283 0.0203772 8 0C9.37497 0.00645351 10.7985 0.359325 12.1449 1.0231C13.1457 1.53943 14.1215 2.26843 14.9681 3.16758C15.3839 3.62656 15.9142 4.29118 16 5.00027C15.9899 5.61451 15.3583 6.37269 14.9681 6.83298C14.1742 7.69681 13.2238 8.4044 12.1449 8.97692C10.8886 9.61279 9.49389 9.97665 8 10ZM7.99899 8.75865C10.0806 8.75865 11.768 7.07574 11.768 4.99973C11.768 2.92373 10.0806 1.24082 7.99899 1.24082C5.9174 1.24082 4.22999 2.92374 4.22999 4.99973C4.22999 7.07574 5.9174 8.75865 7.99899 8.75865Z"
        fill="white" />
</svg>
