<svg width="28" height="45" viewBox="0 0 28 45" fill="none" xmlns="http://www.w3.org/2000/svg">
    <path
        d="M27.2813 4.3125C27.2813 3.16875 26.8269 2.07185 26.0182 1.2631C25.2094 0.454351 24.1125 0 22.9688 0H4.3125C3.16875 0 2.07185 0.454351 1.2631 1.2631C0.454352 2.07185 0 3.16875 0 4.3125V40.6875C0 41.8312 0.454352 42.9281 1.2631 43.7369C2.07185 44.5456 3.16875 45 4.3125 45H22.9688C24.1125 45 25.2094 44.5456 26.0182 43.7369C26.8269 42.9281 27.2813 41.8312 27.2813 40.6875V4.3125ZM24.4688 40.6406C24.4688 40.8376 24.43 41.0327 24.3546 41.2146C24.2792 41.3966 24.1687 41.562 24.0294 41.7013C23.8901 41.8406 23.7248 41.9511 23.5428 42.0264C23.3608 42.1018 23.1657 42.1406 22.9688 42.1406H4.3125C3.91468 42.1406 3.53314 41.9826 3.25184 41.7013C2.97054 41.42 2.8125 41.0384 2.8125 40.6406V37.0781H24.4688V40.6406ZM24.4688 34.2188H2.8125V10.0312H24.4688V34.2188ZM24.4688 7.17187H2.8125V4.3125C2.8125 3.91468 2.97054 3.53314 3.25184 3.25184C3.53314 2.97054 3.91468 2.8125 4.3125 2.8125H22.9688C23.3666 2.8125 23.7481 2.97054 24.0294 3.25184C24.3107 3.53314 24.4688 3.91468 24.4688 4.3125V7.17187Z"
        fill="#0361F0" />
    <path
        d="M12.6563 25.8743H12.7031L13.6875 24.8899L18.6094 20.2493L16.6875 18.1868L12.75 21.8899L10.6875 19.7805L8.67188 21.7493L11.6719 24.843L12.6563 25.8743Z"
        fill="#0361F0" />
    <path
        d="M13.6406 31.594C15.5319 31.594 17.3807 31.0332 18.9533 29.9824C20.5258 28.9317 21.7515 27.4382 22.4752 25.6909C23.199 23.9436 23.3884 22.0209 23.0194 20.1659C22.6504 18.311 21.7397 16.6071 20.4023 15.2698C19.065 13.9324 17.3611 13.0217 15.5062 12.6527C13.6512 12.2838 11.7285 12.4731 9.98121 13.1969C8.23389 13.9207 6.74044 15.1463 5.6897 16.7189C4.63896 18.2914 4.07813 20.1402 4.07812 22.0315C4.07812 24.5676 5.0856 26.9999 6.87891 28.7932C8.67223 30.5865 11.1045 31.594 13.6406 31.594ZM13.6406 15.2815C14.9756 15.2815 16.2807 15.6774 17.3907 16.4191C18.5008 17.1608 19.3659 18.215 19.8768 19.4484C20.3877 20.6818 20.5214 22.039 20.2609 23.3484C20.0005 24.6577 19.3576 25.8605 18.4136 26.8045C17.4696 27.7485 16.2669 28.3913 14.9575 28.6518C13.6481 28.9122 12.2909 28.7786 11.0575 28.2677C9.82411 27.7568 8.7699 26.8916 8.0282 25.7816C7.2865 24.6716 6.89062 23.3665 6.89062 22.0315C6.89062 20.2413 7.60178 18.5244 8.86765 17.2585C10.1335 15.9927 11.8504 15.2815 13.6406 15.2815Z"
        fill="#0361F0" />
</svg>
