<svg width="32" height="32" viewBox="0 0 32 32" fill="none" xmlns="http://www.w3.org/2000/svg">
<path d="M5.33325 10.6667V8.00001C5.33325 7.29277 5.6142 6.61449 6.1143 6.11439C6.6144 5.61429 7.29267 5.33334 7.99992 5.33334H10.6666" stroke="white" stroke-width="2" stroke-linecap="round" stroke-linejoin="round"/>
<path d="M5.33325 21.3333V24C5.33325 24.7073 5.6142 25.3855 6.1143 25.8856C6.6144 26.3857 7.29267 26.6667 7.99992 26.6667H10.6666" stroke="white" stroke-width="2" stroke-linecap="round" stroke-linejoin="round"/>
<path d="M21.3333 5.33334H23.9999C24.7072 5.33334 25.3854 5.61429 25.8855 6.11439C26.3856 6.61449 26.6666 7.29277 26.6666 8.00001V10.6667" stroke="white" stroke-width="2" stroke-linecap="round" stroke-linejoin="round"/>
<path d="M21.3333 26.6667H23.9999C24.7072 26.6667 25.3854 26.3857 25.8855 25.8856C26.3856 25.3855 26.6666 24.7073 26.6666 24V21.3333" stroke="white" stroke-width="2" stroke-linecap="round" stroke-linejoin="round"/>
<path d="M12 13.3333H12.0133" stroke="white" stroke-width="2" stroke-linecap="round" stroke-linejoin="round"/>
<path d="M20 13.3333H20.0133" stroke="white" stroke-width="2" stroke-linecap="round" stroke-linejoin="round"/>
<path d="M12.6665 20C13.101 20.4435 13.6196 20.7958 14.192 21.0363C14.7644 21.2768 15.379 21.4007 15.9998 21.4007C16.6207 21.4007 17.2353 21.2768 17.8077 21.0363C18.38 20.7958 18.8987 20.4435 19.3332 20" stroke="white" stroke-width="2" stroke-linecap="round" stroke-linejoin="round"/>
</svg>
