<svg width="27" height="20" viewBox="0 0 27 20" fill="none" xmlns="http://www.w3.org/2000/svg">
<path d="M0.717364 11.2132L0.766616 11.0173L0.665971 10.8422C0.470627 10.5022 0.469715 10.2128 0.636132 9.90769L6.33817 0.971592L6.34364 0.963011L6.34876 0.954214C6.47751 0.73309 6.64682 0.605368 6.8745 0.544627C7.10259 0.483777 7.30674 0.511261 7.51746 0.635846C7.7245 0.758262 7.8548 0.929869 7.91928 1.18048L8.40351 1.0559L7.91928 1.18048C7.98254 1.42639 7.95354 1.64196 7.83147 1.8558L3.73244 8.2572L3.16224 9.14766L4.21229 9.02336C4.92426 8.93908 5.77215 8.89599 6.75877 8.89599C8.06019 8.89599 9.011 8.99194 9.63849 9.1657C10.2532 9.33593 10.6284 9.6034 10.841 9.92675L10.9392 10.0761L11.1099 10.1294C12.0286 10.416 12.8283 10.5707 13.4956 10.5707C14.1629 10.5707 14.9626 10.416 15.8814 10.1294L16.052 10.0761L16.1502 9.92675C16.3628 9.6034 16.738 9.33593 17.3527 9.1657C17.9802 8.99194 18.931 8.89599 20.2325 8.89599C21.201 8.89599 22.0496 8.93903 22.7803 9.02352L23.827 9.14454L23.2588 8.2572L19.1597 1.85579C19.0377 1.64195 19.0087 1.42638 19.072 1.18048C19.1364 0.929869 19.2667 0.758263 19.4738 0.635846C19.6845 0.511261 19.8886 0.483777 20.1167 0.544628C20.3444 0.605368 20.5137 0.73309 20.6425 0.954213L20.6476 0.96301L20.6531 0.971592L26.3551 9.90769C26.5215 10.2128 26.5206 10.5022 26.3253 10.8422L26.2246 11.0173L26.2739 11.2132C26.3995 11.7129 26.4693 12.4418 26.4693 13.4202C26.4693 14.6114 26.3447 15.5627 26.1116 16.29C25.8817 17.0074 25.5348 17.5072 25.0935 17.8328C24.6052 18.193 24.068 18.4386 23.4778 18.5716C22.8692 18.7088 22.0718 18.7818 21.0746 18.7818C20.0773 18.7818 19.2799 18.7088 18.6713 18.5716C18.0811 18.4386 17.5439 18.193 17.0556 17.8328C16.6143 17.5072 16.2675 17.0074 16.0375 16.29C15.8045 15.5627 15.6798 14.6114 15.6798 13.4202C15.6798 12.8282 15.4563 12.3096 15.0324 11.8881C14.6065 11.4647 14.0811 11.2455 13.4825 11.2455C12.8834 11.2455 12.3598 11.4651 11.941 11.8928C11.5273 12.3154 11.3114 12.8326 11.3114 13.4202C11.3114 14.6114 11.1868 15.5627 10.9537 16.29C10.7238 17.0074 10.3769 17.5072 9.93562 17.8328C9.44735 18.193 8.91009 18.4386 8.31989 18.5716C7.71134 18.7088 6.9139 18.7818 5.91667 18.7818C4.91944 18.7818 4.12199 18.7088 3.51344 18.5716C2.92324 18.4386 2.38598 18.193 1.89772 17.8328L1.60088 18.2351L1.89772 17.8328C1.4564 17.5072 1.10957 17.0074 0.879652 16.29C0.646572 15.5627 0.521928 14.6114 0.521928 13.4202C0.521928 12.4418 0.591719 11.7129 0.717364 11.2132ZM3.39035 9.57073C2.75868 9.57073 2.20343 9.76315 1.79097 10.1974C1.39297 10.6165 1.20614 11.1466 1.20614 11.7455C1.20614 12.3444 1.39297 12.8745 1.79097 13.2935C2.20343 13.7278 2.75868 13.9202 3.39035 13.9202C4.37659 13.9202 5.24981 13.7492 5.99214 13.385C6.71632 13.0298 7.25877 12.5013 7.25877 11.7455C7.25877 10.9896 6.71632 10.4612 5.99214 10.1059C5.24981 9.74179 4.37659 9.57073 3.39035 9.57073ZM18.5482 9.57073C17.9166 9.57073 17.3613 9.76315 16.9489 10.1974C16.5509 10.6165 16.364 11.1466 16.364 11.7455C16.364 12.3444 16.5509 12.8745 16.9489 13.2935C17.3613 13.7278 17.9166 13.9202 18.5482 13.9202C19.5345 13.9202 20.4077 13.7492 21.15 13.385C21.8742 13.0298 22.4167 12.5013 22.4167 11.7455C22.4167 10.9896 21.8742 10.4612 21.15 10.1059C20.4077 9.74179 19.5345 9.57073 18.5482 9.57073Z" fill="#0361F0" stroke="#0361F0"/>
</svg>
