<svg width="31" height="30" viewBox="0 0 31 30" fill="none" xmlns="http://www.w3.org/2000/svg">
    <path fill-rule="evenodd" clip-rule="evenodd"
        d="M28.9772 15.2262C28.9107 15.2362 28.8442 15.2413 28.779 15.2413C28.1741 15.2413 27.6433 14.8038 27.5441 14.1887C27.3283 12.8412 26.8665 11.3188 26.3394 10.2163C26.042 9.5925 26.3055 8.8475 26.9292 8.54875C27.5492 8.25125 28.2996 8.515 28.597 9.13875C29.2295 10.4625 29.7603 12.2025 30.0151 13.7937C30.1242 14.475 29.6599 15.1163 28.9772 15.2262ZM25.6178 7.75375C25.2464 7.75375 24.8774 7.5875 24.6302 7.27125C22.2672 4.23875 18.7146 2.5 14.8845 2.5C12.8516 2.5 10.9416 2.92375 9.20857 3.75875C8.58613 4.0575 7.8382 3.79875 7.53702 3.175C7.2371 2.55375 7.49812 1.80625 8.12055 1.5075C10.1962 0.5075 12.4726 0 14.8845 0C19.4926 0 23.7631 2.09 26.6055 5.735C27.0296 6.27875 26.9317 7.065 26.3871 7.49C26.1587 7.6675 25.8876 7.75375 25.6178 7.75375ZM12.6031 6.0675C12.8842 6.69875 12.5981 7.43625 11.9669 7.71625C9.06927 9 7.04635 12.0025 7.04635 15.0188C7.04635 15.455 7.05513 15.8475 7.07019 16.2038C7.09905 16.8938 6.56195 17.4762 5.87049 17.505C5.85292 17.505 5.83661 17.505 5.81904 17.505C5.15143 17.505 4.59675 16.9788 4.56915 16.3062C4.55409 15.9187 4.54405 15.4925 4.54405 15.0188C4.54405 11.0438 7.17937 7.10125 10.9529 5.43C11.5854 5.15125 12.3245 5.43625 12.6031 6.0675ZM2.5023 14.9812C2.5023 16.72 2.69932 17.7875 2.90764 18.9188C3.08082 19.865 3.26152 20.8438 3.35313 22.2437C3.39831 22.9325 2.87501 23.5275 2.18606 23.5725C2.15845 23.5737 2.13085 23.575 2.10324 23.575C1.44943 23.575 0.898519 23.0675 0.855852 22.4062C0.774283 21.1525 0.607379 20.2463 0.445495 19.37C0.225885 18.18 0 16.9487 0 14.9812C0 10.5225 1.68159 6.5425 4.7373 3.7775C5.24931 3.3125 6.03991 3.3525 6.50548 3.86375C6.96854 4.37625 6.92964 5.16625 6.41764 5.63C3.89275 7.91625 2.5023 11.2362 2.5023 14.9812ZM5.30955 24.8775C5.51159 24.2775 5.64461 23.88 5.64461 23.2638C5.64461 22.1063 5.44633 21.375 5.25433 20.6675L5.12005 20.1575C4.9544 19.4875 5.36351 18.81 6.03363 18.6437C6.7025 18.4762 7.38267 18.8875 7.54957 19.5575L7.67004 20.0138C7.88212 20.7975 8.14816 21.775 8.14816 23.2638C8.14816 24.2887 7.91098 24.9925 7.68259 25.6725C7.59098 25.9475 7.49059 26.245 7.39521 26.6C7.24462 27.1575 6.74015 27.5262 6.18673 27.5262C6.08006 27.5262 5.97089 27.5125 5.86296 27.4837C5.19535 27.305 4.7988 26.62 4.97825 25.9525C5.08743 25.5425 5.20288 25.1963 5.30955 24.8775ZM9.34159 27.4088C9.87367 26.2313 10.225 25.4538 10.225 23.4788C10.225 20.6238 9.91885 19.5987 9.62143 18.6087C9.35916 17.7337 9.08809 16.8313 9.08809 15.0188C9.08809 11.69 11.5804 9.17875 14.8845 9.17875C15.2698 9.17875 15.6526 9.21375 16.0215 9.28C16.7017 9.4025 17.1534 10.0525 17.0305 10.7325C16.9075 11.4113 16.2574 11.8612 15.5773 11.74C15.3514 11.7 15.1205 11.68 14.8845 11.68C12.9457 11.68 11.5917 13.0525 11.5917 15.0188C11.5917 16.4638 11.7799 17.095 12.0183 17.8913C12.3509 19.0012 12.7273 20.2563 12.7273 23.4788C12.7273 25.9913 12.1902 27.18 11.6218 28.4375C11.5189 28.6663 11.4109 28.9038 11.303 29.1613C11.101 29.6375 10.6379 29.9237 10.1498 29.9237C9.98787 29.9237 9.82222 29.8925 9.66285 29.825C9.0266 29.5563 8.72919 28.8225 8.99774 28.1862C9.11445 27.91 9.2299 27.6562 9.34159 27.4088ZM16.0215 22.7925C16.0177 22.7925 16.0127 22.7925 16.009 22.7925C15.3187 22.7862 14.7641 22.2213 14.7691 21.5312C14.8005 18.185 13.8405 15.7688 13.7313 15.5037L14.8845 15.0188L16.078 14.64C16.2562 15.0588 17.3065 17.7937 17.2727 21.555C17.2651 22.2412 16.7067 22.7925 16.0215 22.7925ZM14.8105 25.1825C14.8921 24.4975 15.5208 24.0088 16.201 24.0913C16.8874 24.1738 17.3768 24.7962 17.294 25.4813C16.9652 28.2262 15.9939 29.3938 15.8031 29.6C15.5572 29.865 15.2209 30 14.8845 30C14.5809 30 14.2747 29.89 14.035 29.6663C13.5355 29.205 13.4991 28.4313 13.9459 27.9238C13.9873 27.8713 14.5809 27.0837 14.8105 25.1825ZM20.0197 11.8925C20.5906 12.74 20.9872 13.7725 21.2005 14.9625L21.2708 15.3562C21.7402 17.95 22.1831 20.3988 21.3486 25.9538C21.3449 25.9762 20.9797 28.2838 20.4488 29.28C20.223 29.7025 19.7913 29.9438 19.3433 29.9438C19.145 29.9438 18.9429 29.8962 18.756 29.7962C18.1461 29.4713 17.9152 28.715 18.2389 28.105C18.4259 27.7537 18.7497 26.4013 18.8739 25.5812C19.647 20.4363 19.2592 18.2875 18.8087 15.8L18.7371 15.4025C18.5865 14.5562 18.3193 13.8462 17.9428 13.2887C17.5575 12.7162 17.7094 11.94 18.2816 11.5538C18.8564 11.1675 19.6331 11.32 20.0197 11.8925ZM15.1217 7.09125C14.4328 7.0425 13.9132 6.44375 13.9622 5.755C14.0124 5.06625 14.6047 4.5525 15.2999 4.5975C21.2219 5.02 24.319 9.0575 25.2439 12.6937L25.333 13.0412C26.1035 16.0687 26.4235 17.3225 26.362 21.0262C26.3181 23.6837 25.8726 25.765 25.6116 26.77C25.4647 27.3325 24.9565 27.705 24.4006 27.705C24.2964 27.705 24.191 27.6925 24.0843 27.665C23.4167 27.4912 23.0151 26.8088 23.1896 26.14C23.423 25.2438 23.8208 23.3825 23.8597 20.985C23.9149 17.615 23.6602 16.6175 22.9072 13.6575L22.8181 13.31C22.1091 10.5175 19.7147 7.41875 15.1217 7.09125Z"
        fill="#0361F0" />
</svg>
