<svg width="35" height="27" viewBox="0 0 35 27" fill="none" xmlns="http://www.w3.org/2000/svg">
<path d="M6.01341 25.9964H10.9721C12.3433 25.9964 13.4596 24.88 13.4596 23.5089V12.6188C13.4596 12.5251 13.4938 12.4411 13.5602 12.3746C13.6247 12.3122 13.7096 12.277 13.8053 12.277L15.2313 12.2887C15.9755 12.2985 16.4189 12.0162 16.6612 11.7778C16.9542 11.4859 17.1144 11.0971 17.1144 10.6811C17.1144 10.2689 16.964 9.85866 16.6661 9.46217L10.262 0.902482C9.83711 0.330107 9.21602 0 8.55764 0C7.90029 0 7.27817 0.326226 6.85134 0.89666L0.449198 9.42305C0.151367 9.81975 0 10.2319 0 10.6459C0 11.4487 0.642646 12.2633 1.87135 12.2633H3.17033C3.36572 12.2633 3.52485 12.4234 3.52485 12.6179V23.5078C3.52587 24.8811 4.64222 25.9964 6.01341 25.9964ZM2.8773 10.1332C2.71521 10.1332 2.84605 9.78359 3.16931 9.35186L7.96974 2.95758C8.29393 2.52585 8.81748 2.52687 9.14074 2.9585L13.9363 9.37045C14.2595 9.80218 14.365 10.1509 14.1736 10.1499L13.826 10.147C13.1589 10.1391 12.5338 10.3931 12.0611 10.8609C11.5874 11.3287 11.3267 11.9538 11.3267 12.6199V23.51C11.3267 23.7063 11.1674 23.8645 10.9722 23.8645H6.01341C5.81803 23.8645 5.65787 23.7063 5.65787 23.51V12.6188C5.65787 11.2496 4.54152 10.1332 3.17125 10.1332C3.17125 10.1332 3.03939 10.1332 2.8773 10.1332Z" fill="#0361F0"/>
<path d="M28.1011 0.996094H23.1424C21.7711 0.996094 20.6557 2.11245 20.6557 3.48364V14.3736C20.6557 14.4675 20.6205 14.5515 20.5542 14.6178C20.4897 14.6804 20.4047 14.7155 20.309 14.7155L18.8831 14.7038C18.1388 14.694 17.6954 14.9763 17.4532 15.2147C17.1603 15.5067 17 15.8953 17 16.3114C17 16.7235 17.1504 17.1339 17.4483 17.5323L23.8524 26.09C24.2773 26.6624 24.8985 26.9925 25.5567 26.9925C26.2142 26.9925 26.8362 26.6664 27.263 26.0958L33.6643 17.5694C33.9631 17.1728 34.1145 16.7607 34.1145 16.3466C34.1145 15.5439 33.4718 14.7293 32.2432 14.7293H30.9441C30.7489 14.7293 30.5896 14.5692 30.5896 14.3746V3.48466C30.5887 2.11245 29.4723 0.996094 28.1011 0.996094ZM31.2372 16.8594C31.3993 16.8594 31.2684 17.2091 30.9441 17.6407L26.1447 24.0351C25.8204 24.4668 25.296 24.4658 24.9737 24.0341L20.1782 17.623C19.8549 17.1912 19.7484 16.8427 19.9408 16.8436L20.2885 16.8465C20.9556 16.8543 21.5806 16.6004 22.0534 16.1336C22.5271 15.6658 22.7878 15.0406 22.7878 14.3745V3.48466C22.7878 3.28835 22.947 3.13014 23.1424 3.13014H28.1011C28.2974 3.13014 28.4565 3.28835 28.4565 3.48466V14.3746C28.4565 15.7441 29.5729 16.8604 30.9431 16.8604C30.9431 16.8594 31.075 16.8594 31.2372 16.8594Z" fill="#0361F0"/>
</svg>
