<svg width="43" height="43" viewBox="0 0 43 43" fill="none" xmlns="http://www.w3.org/2000/svg">
<path d="M23.1538 1.65385V8.22458C23.1538 8.6632 22.9796 9.08387 22.6694 9.39402C22.3593 9.70418 21.9386 9.87842 21.5 9.87842C21.0614 9.87842 20.6407 9.70418 20.3306 9.39402C20.0204 9.08387 19.8462 8.6632 19.8462 8.22458V1.65385C19.8462 1.21522 20.0204 0.794557 20.3306 0.4844C20.6407 0.174244 21.0614 0 21.5 0C21.9386 0 22.3593 0.174244 22.6694 0.4844C22.9796 0.794557 23.1538 1.21522 23.1538 1.65385ZM29.718 14.9359C30.1566 14.9358 30.5771 14.7615 30.8872 14.4513L36.7022 8.63638C36.8601 8.48382 36.9861 8.30133 37.0728 8.09955C37.1595 7.89778 37.2051 7.68076 37.207 7.46116C37.2089 7.24157 37.1671 7.02379 37.0839 6.82054C37.0007 6.61729 36.8779 6.43263 36.7227 6.27735C36.5674 6.12206 36.3827 5.99926 36.1795 5.9161C35.9762 5.83295 35.7584 5.7911 35.5388 5.79301C35.3192 5.79492 35.1022 5.84054 34.9004 5.92722C34.6987 6.01389 34.5162 6.13989 34.3636 6.29785L28.5487 12.1128C28.3175 12.3441 28.16 12.6387 28.0962 12.9595C28.0324 13.2803 28.0652 13.6127 28.1903 13.9149C28.3155 14.217 28.5274 14.4753 28.7993 14.657C29.0712 14.8388 29.3909 14.9358 29.718 14.9359ZM41.3462 19.8462H33.1216C32.6829 19.8462 32.2623 20.0204 31.9521 20.3306C31.642 20.6407 31.4677 21.0614 31.4677 21.5C31.4677 21.9386 31.642 22.3593 31.9521 22.6694C32.2623 22.9796 32.6829 23.1538 33.1216 23.1538H41.3462C41.7848 23.1538 42.2054 22.9796 42.5156 22.6694C42.8258 22.3593 43 21.9386 43 21.5C43 21.0614 42.8258 20.6407 42.5156 20.3306C42.2054 20.0204 41.7848 19.8462 41.3462 19.8462ZM30.8872 28.5487C30.5753 28.2474 30.1575 28.0807 29.7239 28.0845C29.2903 28.0883 28.8755 28.2622 28.5688 28.5688C28.2622 28.8755 28.0883 29.2903 28.0845 29.7239C28.0807 30.1575 28.2474 30.5753 28.5487 30.8872L34.3636 36.7022C34.6755 37.0034 35.0933 37.1701 35.5269 37.1663C35.9606 37.1626 36.3754 36.9886 36.682 36.682C36.9886 36.3754 37.1626 35.9606 37.1663 35.5269C37.1701 35.0933 37.0034 34.6755 36.7022 34.3636L30.8872 28.5487ZM21.5 31.4677C21.0614 31.4677 20.6407 31.642 20.3306 31.9521C20.0204 32.2623 19.8462 32.6829 19.8462 33.1216V41.3462C19.8462 41.7848 20.0204 42.2054 20.3306 42.5156C20.6407 42.8258 21.0614 43 21.5 43C21.9386 43 22.3593 42.8258 22.6694 42.5156C22.9796 42.2054 23.1538 41.7848 23.1538 41.3462V33.1216C23.1538 32.6829 22.9796 32.2623 22.6694 31.9521C22.3593 31.642 21.9386 31.4677 21.5 31.4677ZM7.44231 33.2258L6.30446 34.3636C6.1465 34.5162 6.02051 34.6987 5.93383 34.9004C5.84716 35.1022 5.80153 35.3192 5.79962 35.5388C5.79772 35.7584 5.83956 35.9762 5.92272 36.1795C6.00587 36.3827 6.12868 36.5674 6.28396 36.7227C6.43925 36.8779 6.6239 37.0007 6.82715 37.0839C7.0304 37.1671 7.24818 37.2089 7.46778 37.207C7.68738 37.2051 7.90439 37.1595 8.10617 37.0728C8.30794 36.9861 8.49044 36.8601 8.643 36.7022L9.77423 35.5577C10.0452 35.2413 10.1868 34.8343 10.1707 34.4181C10.1546 34.0019 9.98205 33.607 9.68751 33.3125C9.39297 33.018 8.99813 32.8454 8.5819 32.8293C8.16566 32.8132 7.75869 32.9548 7.44231 33.2258ZM6.57073 21.5C6.57073 21.0614 6.39649 20.6407 6.08633 20.3306C5.77617 20.0204 5.35551 19.8462 4.91688 19.8462H1.65385C1.21522 19.8462 0.794557 20.0204 0.4844 20.3306C0.174244 20.6407 0 21.0614 0 21.5C0 21.9386 0.174244 22.3593 0.4844 22.6694C0.794557 22.9796 1.21522 23.1538 1.65385 23.1538H4.91688C5.35551 23.1538 5.77617 22.9796 6.08633 22.6694C6.39649 22.3593 6.57073 21.9386 6.57073 21.5ZM8.63638 6.29785C8.32447 5.99658 7.9067 5.82989 7.47307 5.83365C7.03943 5.83742 6.62463 6.01136 6.31799 6.31799C6.01136 6.62463 5.83742 7.03943 5.83365 7.47307C5.82989 7.9067 5.99658 8.32447 6.29785 8.63638L9.77092 12.1095C9.92327 12.2676 10.1056 12.3939 10.3072 12.4808C10.5089 12.5678 10.7258 12.6137 10.9454 12.6159C11.165 12.6181 11.3828 12.5766 11.5862 12.4937C11.7895 12.4108 11.9744 12.2883 12.1299 12.1332C12.2854 11.9782 12.4084 11.7937 12.4919 11.5906C12.5753 11.3874 12.6175 11.1697 12.6159 10.9501C12.6143 10.7306 12.569 10.5135 12.4826 10.3116C12.3962 10.1097 12.2705 9.92702 12.1128 9.77423L8.63638 6.29785Z" fill="#0361F0"/>
</svg>
