<svg width="19" height="25" viewBox="0 0 19 25" fill="none" xmlns="http://www.w3.org/2000/svg">
<path d="M7.25 23.75H11.75H7.25ZM1.625 9.125C1.625 7.03642 2.45469 5.03338 3.93154 3.55653C5.40838 2.07969 7.41142 1.25 9.5 1.25C11.5886 1.25 13.5916 2.07969 15.0685 3.55653C16.5453 5.03338 17.375 7.03642 17.375 9.125C17.3757 10.393 17.0691 11.6422 16.4813 12.7657C15.8935 13.8892 15.0421 14.8534 14 15.5758L13.3903 18.4625C13.3095 18.9946 13.0408 19.4801 12.6327 19.831C12.2246 20.1819 11.7043 20.3749 11.1661 20.375H7.83388C7.2957 20.3749 6.77538 20.1819 6.36732 19.831C5.95925 19.4801 5.69048 18.9946 5.60975 18.4625L5 15.5881C3.95758 14.8632 3.10615 13.8967 2.51842 12.7712C1.9307 11.6457 1.62416 10.3947 1.625 9.125V9.125Z" stroke="#0361F0" stroke-width="2" stroke-linecap="round" stroke-linejoin="round"/>
<path d="M5 15.875H14" stroke="#0361F0" stroke-width="2" stroke-linecap="round" stroke-linejoin="round"/>
</svg>
