<svg width="11" height="11" viewBox="0 0 11 11" fill="none" xmlns="http://www.w3.org/2000/svg">
<path d="M9.86833 8.28251e-07H0.444273C0.277953 -0.000326346 0.125572 0.0962988 0.0495906 0.250179C-0.0274385 0.406132 -0.0139191 0.593929 0.0844895 0.736359L3.53707 5.79762C3.53822 5.79936 3.53948 5.801 3.54063 5.80274C3.66608 5.97898 3.73399 6.19252 3.7343 6.41183V10.5382C3.73357 10.6604 3.77968 10.7778 3.86237 10.8645C3.94516 10.9511 4.05772 11 4.1751 11C4.23473 10.9999 4.29384 10.9876 4.34896 10.9637L6.28905 10.194C6.46281 10.1387 6.5782 9.96799 6.5782 9.76252V6.41183C6.57851 6.19252 6.64642 5.97898 6.77176 5.80274C6.77292 5.801 6.77417 5.79936 6.77533 5.79762L10.228 0.73625C10.3264 0.593929 10.3399 0.406241 10.2629 0.250288C10.187 0.0962988 10.0345 -0.000326346 9.86833 8.28251e-07Z" fill="#0B3275"/>
</svg>
