<svg width="35" height="31" viewBox="0 0 35 31" fill="none" xmlns="http://www.w3.org/2000/svg">
<path fill-rule="evenodd" clip-rule="evenodd" d="M4.5998 4.74971C3.45937 4.74971 2.36565 5.20274 1.55925 6.00915C0.752839 6.81555 0.299805 7.90928 0.299805 9.04971V26.2497C0.299805 27.3901 0.752839 28.4839 1.55925 29.2903C2.36565 30.0967 3.45937 30.5497 4.5998 30.5497H30.3998C31.5402 30.5497 32.634 30.0967 33.4404 29.2903C34.2468 28.4839 34.6998 27.3901 34.6998 26.2497V9.04971C34.6998 7.90928 34.2468 6.81555 33.4404 6.00915C32.634 5.20274 31.5402 4.74971 30.3998 4.74971H26.9899C26.4197 4.74959 25.873 4.52299 25.4699 4.11976L23.0597 1.70961C22.2535 0.903145 21.1599 0.449951 20.0196 0.449707H14.98C13.8397 0.449951 12.7461 0.903145 11.9399 1.70961L9.52975 4.11976C9.12665 4.52299 8.57987 4.74959 8.0097 4.74971H4.5998ZM17.4998 24.0997C18.3468 24.0997 19.1856 23.9329 19.9681 23.6087C20.7507 23.2846 21.4617 22.8095 22.0606 22.2105C22.6596 21.6116 23.1347 20.9006 23.4588 20.118C23.783 19.3355 23.9498 18.4967 23.9498 17.6497C23.9498 16.8027 23.783 15.9639 23.4588 15.1814C23.1347 14.3988 22.6596 13.6878 22.0606 13.0889C21.4617 12.4899 20.7507 12.0148 19.9681 11.6907C19.1856 11.3665 18.3468 11.1997 17.4998 11.1997C15.7892 11.1997 14.1486 11.8793 12.939 13.0889C11.7294 14.2985 11.0498 15.9391 11.0498 17.6497C11.0498 19.3604 11.7294 21.0009 12.939 22.2105C14.1486 23.4202 15.7892 24.0997 17.4998 24.0997Z" fill="#0361F0"/>
</svg>
