<svg width="17" height="17" viewBox="0 0 17 17" fill="none" xmlns="http://www.w3.org/2000/svg">
<path d="M1.09097 9.61446L13.2771 9.61446L7.95318 15.0815C7.5277 15.5185 7.5277 16.2355 7.95318 16.6724C8.05411 16.7762 8.174 16.8586 8.30597 16.9148C8.43795 16.9711 8.57943 17 8.72232 17C8.8652 17 9.00668 16.9711 9.13866 16.9148C9.27064 16.8586 9.39052 16.7762 9.49145 16.6724L16.681 9.28958C16.7821 9.18593 16.8623 9.06282 16.9171 8.9273C16.9718 8.79177 17 8.64649 17 8.49976C17 8.35304 16.9718 8.20775 16.9171 8.07223C16.8623 7.9367 16.7821 7.81359 16.681 7.70995L9.49145 0.327149C9.39044 0.223429 9.27054 0.141156 9.13857 0.0850227C9.0066 0.0288913 8.86516 7.11171e-07 8.72231 7.23658e-07C8.57947 7.36146e-07 8.43803 0.0288914 8.30606 0.0850227C8.17409 0.141156 8.05418 0.22343 7.95318 0.327149C7.85218 0.430869 7.77206 0.554004 7.71739 0.689521C7.66273 0.825038 7.63459 0.970284 7.63459 1.11697C7.63459 1.26365 7.66273 1.40889 7.71739 1.54441C7.77206 1.67992 7.85218 1.80306 7.95318 1.90678L13.2771 7.37386L1.09097 7.37386C0.490935 7.37386 -7.97471e-07 7.878 -7.43604e-07 8.49416C-6.89737e-07 9.11033 0.490936 9.61446 1.09097 9.61446Z" fill="#0361F0"/>
</svg>
