<svg width="28" height="28" viewBox="0 0 28 28" fill="none" xmlns="http://www.w3.org/2000/svg">
    <path
        d="M2.33331 20.8535C2.33331 21.6657 2.65597 22.4447 3.2303 23.019C3.80463 23.5933 4.58358 23.916 5.39581 23.916H23.7708C24.583 23.916 25.362 23.5933 25.9363 23.019C26.5106 22.4447 26.8333 21.6657 26.8333 20.8535V12.4316H2.33331V20.8535ZM5.94268 16.6973C5.94268 16.2621 6.11553 15.8448 6.42321 15.5372C6.73088 15.2295 7.14818 15.0566 7.5833 15.0566H10.2083C10.6434 15.0566 11.0607 15.2295 11.3684 15.5372C11.6761 15.8448 11.8489 16.2621 11.8489 16.6973V17.791C11.8489 18.2261 11.6761 18.6434 11.3684 18.9511C11.0607 19.2588 10.6434 19.4316 10.2083 19.4316H7.5833C7.14818 19.4316 6.73088 19.2588 6.42321 18.9511C6.11553 18.6434 5.94268 18.2261 5.94268 17.791V16.6973ZM23.7708 4.66602H5.39581C4.58358 4.66602 3.80463 4.98867 3.2303 5.563C2.65597 6.13733 2.33331 6.91629 2.33331 7.72851V9.15039H26.8333V7.72851C26.8333 6.91629 26.5106 6.13733 25.9363 5.563C25.362 4.98867 24.583 4.66602 23.7708 4.66602Z"
        fill="#0361F0" />
</svg>
