<svg xmlns="http://www.w3.org/2000/svg"
    width="89"
    height="89"
    viewBox="0 0 89 89">
    <path
        d="M44.5,44.5m-44.5,0a44.5,44.5 0,1 1,89 0a44.5,44.5 0,1 1,-89 0"
        stroke-opacity="0.1"
        fill="#E94444"
        fill-opacity="0.1"/>
    <path
        d="M41.8541,22.5811L26.7465,34.7834C24.8096,36.3329 25.9072,39.4319 28.4251,39.4319H58.5758C61.0291,39.4319 62.1267,36.3329 60.2544,34.7834L45.1468,22.5811C44.1783,21.8063 42.8225,21.8063 41.8541,22.5811Z"
        fill="#E94444"/>
    <path
        d="M32.234,58.4126C30.4263,58.4126 28.9413,56.9277 28.9413,55.1199V46.0166C28.9413,44.2089 30.4263,42.724 32.234,42.724C34.0418,42.724 35.5267,44.2089 35.5267,46.0166V55.1845C35.5267,56.9277 34.0418,58.4126 32.234,58.4126Z"
        fill="#E94444"/>
    <path
        d="M43.4678,58.4123C41.66,58.4123 40.1751,56.9274 40.1751,55.1196V46.0163C40.1751,44.2086 41.66,42.7236 43.4678,42.7236C45.2755,42.7236 46.7604,44.2086 46.7604,46.0163V55.1842C46.7604,56.9274 45.2755,58.4123 43.4678,58.4123Z"
        fill="#E94444"/>
    <path
        d="M54.7013,58.4123C52.8935,58.4123 51.4086,56.9274 51.4086,55.1196V46.0163C51.4086,44.2086 52.8935,42.7236 54.7013,42.7236C56.509,42.7236 57.994,44.2086 57.994,46.0163V55.1842C57.994,56.9274 56.509,58.4123 54.7013,58.4123Z"
        fill="#E94444"/>
    <path
        d="M21,64.3529C21,62.868 22.2267,61.7059 23.6471,61.7059H64.4505C65.9354,61.7059 67.0976,62.9326 67.0976,64.3529C67.0976,65.8379 65.8709,67 64.4505,67H23.6471C22.1621,67 21,65.8379 21,64.3529Z"
        fill="#E94444"/>
    <path
        d="M58.5,59.5m-11.5,0a11.5,11.5 0,1 1,23 0a11.5,11.5 0,1 1,-23 0"
        fill="#FDECEC"/>
    <path
        stroke-width="1"
        d="M60.5589,59.4992L64.3215,55.7453L64.3219,55.7449C64.596,55.4708 64.75,55.0991 64.75,54.7115C64.75,54.3239 64.596,53.9521 64.3219,53.6781C64.0479,53.404 63.6761,53.25 63.2885,53.25C62.9009,53.25 62.5292,53.404 62.2551,53.6781L62.2547,53.6785L58.5008,57.4411L54.7469,53.6785L54.7465,53.6781C54.4724,53.404 54.1007,53.25 53.7131,53.25C53.3255,53.25 52.9538,53.404 52.6797,53.6781C52.4056,53.9521 52.2516,54.3239 52.2516,54.7115C52.2516,55.0991 52.4056,55.4708 52.6797,55.7449L52.6801,55.7453L56.4427,59.4992L52.6811,63.252C52.6809,63.2522 52.6808,63.2524 52.6806,63.2526C52.5442,63.388 52.436,63.549 52.3621,63.7264C52.2881,63.904 52.25,64.0945 52.25,64.2869C52.25,64.4793 52.2881,64.6698 52.3621,64.8474C52.4358,65.0244 52.5438,65.1851 52.6797,65.3203C52.8149,65.4562 52.9756,65.5642 53.1526,65.6379C53.3302,65.7119 53.5207,65.75 53.7131,65.75C53.9055,65.75 54.096,65.7119 54.2736,65.6379C54.451,65.564 54.612,65.4558 54.7474,65.3194C54.7476,65.3193 54.7478,65.3191 54.748,65.3189L58.5008,61.5573L62.2537,65.3189C62.2539,65.3191 62.2541,65.3193 62.2543,65.3195C62.3897,65.4558 62.5507,65.564 62.728,65.6379C62.9056,65.7119 63.0961,65.75 63.2885,65.75C63.4809,65.75 63.6715,65.7119 63.8491,65.6379C64.0261,65.5642 64.1868,65.4562 64.3219,65.3203C64.4579,65.1851 64.5658,65.0244 64.6395,64.8474L64.178,64.6552L64.6395,64.8474C64.7135,64.6698 64.7516,64.4793 64.7516,64.2869C64.7516,64.0945 64.7135,63.904 64.6395,63.7264L64.178,63.9187L64.6395,63.7264C64.5657,63.549 64.4574,63.388 64.3211,63.2527C64.3209,63.2525 64.3207,63.2523 64.3205,63.252L60.5589,59.4992Z"
        fill="#E94444"
        stroke="#E94444"/>
</svg>
