<svg xmlns="http://www.w3.org/2000/svg" width="89" height="89" viewBox="0 0 89 89">
    <path d="M44.5,44.5m-44.5,0a44.5,44.5 0,1 1,89 0a44.5,44.5 0,1 1,-89 0" stroke-opacity="0.1"
        fill="#1EB12D" fill-opacity="0.1" />
    <path
        d="M41.8541,22.5811L26.7465,34.7834C24.8096,36.3329 25.9072,39.4319 28.4251,39.4319H58.5758C61.0291,39.4319 62.1267,36.3329 60.2544,34.7834L45.1468,22.5811C44.1783,21.8063 42.8225,21.8063 41.8541,22.5811Z"
        fill="#1EB12D" />
    <path
        d="M32.234,58.4126C30.4263,58.4126 28.9413,56.9277 28.9413,55.1199V46.0166C28.9413,44.2089 30.4263,42.724 32.234,42.724C34.0418,42.724 35.5267,44.2089 35.5267,46.0166V55.1845C35.5267,56.9277 34.0418,58.4126 32.234,58.4126Z"
        fill="#1EB12D" />
    <path
        d="M43.4678,58.4123C41.66,58.4123 40.1751,56.9274 40.1751,55.1196V46.0163C40.1751,44.2086 41.66,42.7236 43.4678,42.7236C45.2755,42.7236 46.7604,44.2086 46.7604,46.0163V55.1842C46.7604,56.9274 45.2755,58.4123 43.4678,58.4123Z"
        fill="#1EB12D" />
    <path
        d="M54.7013,58.4123C52.8935,58.4123 51.4086,56.9274 51.4086,55.1196V46.0163C51.4086,44.2086 52.8935,42.7236 54.7013,42.7236C56.509,42.7236 57.994,44.2086 57.994,46.0163V55.1842C57.994,56.9274 56.509,58.4123 54.7013,58.4123Z"
        fill="#1EB12D" />
    <path
        d="M21,64.3529C21,62.868 22.2267,61.7059 23.6471,61.7059H64.4505C65.9354,61.7059 67.0976,62.9326 67.0976,64.3529C67.0976,65.8379 65.8709,67 64.4505,67H23.6471C22.1621,67 21,65.8379 21,64.3529Z"
        fill="#1EB12D" />
    <path d="M58.5,58.5m-11.5,0a11.5,11.5 0,1 1,23 0a11.5,11.5 0,1 1,-23 0" fill="#E9F7EA" />
    <path
        d="M56.8891,63.7102L51.2539,58.075C50.9154,57.7365 50.9154,57.1875 51.2539,56.8489L52.48,55.6229C52.8185,55.2843 53.3675,55.2843 53.706,55.6229L57.5022,59.419L65.6331,51.2881C65.9717,50.9495 66.5206,50.9495 66.8592,51.2881L68.0852,52.5142C68.4238,52.8527 68.4238,53.4016 68.0852,53.7402L58.1152,63.7103C57.7766,64.0488 57.2277,64.0488 56.8891,63.7102V63.7102Z"
        fill="#1EB12D" />
</svg>