<svg width="25" height="25" viewBox="0 0 25 25" fill="none" xmlns="http://www.w3.org/2000/svg">
<path d="M22.2637 17.375C21.7246 18.5723 21.4648 19.1074 20.7715 20.1641C19.8008 21.6406 18.4316 23.4844 16.7402 23.4961C15.2344 23.5098 14.8457 22.5137 12.8008 22.5313C10.7578 22.541 10.332 23.5156 8.82421 23.5C7.13085 23.4844 5.83593 21.8242 4.86522 20.3496C2.15038 16.2148 1.86327 11.3672 3.54101 8.78906C4.72851 6.96094 6.60546 5.88672 8.36913 5.88672C10.166 5.88672 11.2949 6.87305 12.7793 6.87305C14.2207 6.87305 15.0976 5.88477 17.1758 5.88477C18.7461 5.88477 20.4062 6.74024 21.5937 8.2168C17.7109 10.3457 18.3418 15.8906 22.2637 17.375ZM15.5976 4.23438C16.3535 3.26367 16.9277 1.89453 16.7187 0.5C15.4863 0.583985 14.0449 1.37109 13.2031 2.39063C12.4394 3.32031 11.8066 4.69922 12.0527 6.0332C13.3984 6.07617 14.791 5.27344 15.5976 4.23438Z" fill="#F57F45"/>
</svg>
