<svg width="49" height="33" viewBox="0 0 49 33" fill="none" xmlns="http://www.w3.org/2000/svg">
    <path
        d="M44.9974 11.8682L25.6094 11.8682C24.5169 8.95014 22.4319 6.50985 19.7202 4.97519C19.415 4.8106 19.0573 4.77241 18.7242 4.86884C18.391 4.96527 18.1091 5.18862 17.9389 5.49082C17.7688 5.79303 17.7241 6.14994 17.8144 6.48478C17.9048 6.81961 18.1229 7.10561 18.422 7.28123C20.3744 8.37577 21.929 10.0617 22.862 12.0963C23.795 14.1309 24.0582 16.4091 23.6136 18.6028C23.1691 20.7965 22.0397 22.7925 20.3883 24.3033C18.7368 25.8142 16.6485 26.7619 14.4239 27.01L15.6574 25.7329C15.7819 25.6087 15.8804 25.4609 15.9471 25.2981C16.0138 25.1354 16.0475 24.961 16.046 24.7852C16.0446 24.6093 16.0081 24.4355 15.9388 24.2739C15.8694 24.1123 15.7685 23.9661 15.642 23.8439C15.5154 23.7218 15.3658 23.6261 15.2019 23.5624C15.038 23.4987 14.863 23.4683 14.6872 23.473C14.5113 23.4778 14.3382 23.5175 14.178 23.5899C14.0177 23.6623 13.8734 23.7659 13.7536 23.8947L10.4213 27.3448C10.4173 27.3488 10.4147 27.354 10.4107 27.358C10.3889 27.3812 10.371 27.409 10.3505 27.4334C10.3161 27.4732 10.284 27.515 10.2545 27.5585C10.2334 27.5923 10.2182 27.6293 10.1996 27.665C10.1772 27.7048 10.1569 27.7456 10.1388 27.7875C10.1249 27.8239 10.1176 27.8629 10.1063 27.9013C10.0914 27.9471 10.079 27.9937 10.0693 28.0409L10.0653 28.0568C10.0593 28.0952 10.0613 28.1329 10.0587 28.1712C10.056 28.2096 10.0488 28.2473 10.0494 28.2864C10.0494 28.2923 10.0494 28.2976 10.0494 28.3029C10.0523 28.3524 10.058 28.4017 10.0666 28.4505C10.0719 28.4875 10.0746 28.5246 10.0825 28.561C10.0949 28.6081 10.1099 28.6545 10.1275 28.7C10.1401 28.735 10.1493 28.7714 10.1652 28.8058C10.185 28.8484 10.2071 28.89 10.2314 28.9302C10.2506 28.9626 10.2671 28.9964 10.289 29.0282C10.3205 29.0703 10.3545 29.1105 10.3909 29.1486C10.4107 29.1704 10.4266 29.1956 10.4484 29.2148L10.4636 29.23L14.0051 32.6457C14.259 32.8818 14.5954 33.0089 14.9419 32.9996C15.2885 32.9903 15.6176 32.8453 15.8584 32.5959C16.0993 32.3465 16.2326 32.0126 16.2298 31.6659C16.2269 31.3192 16.0882 30.9874 15.8433 30.742L14.7065 29.6435C17.5844 29.319 20.2768 28.0607 22.3717 26.0609C24.4667 24.0612 25.8489 21.4303 26.3068 18.5706C26.5191 17.2272 26.5207 15.8589 26.3115 14.515L44.9974 14.515C45.3483 14.515 45.685 14.6544 45.9331 14.9026C46.1813 15.1508 46.3208 15.4874 46.3208 15.8384V21.7937C46.3208 22.1447 46.1813 22.4813 45.9331 22.7295C45.685 22.9777 45.3483 23.1171 44.9974 23.1171C44.6464 23.1171 44.3097 22.9777 44.0616 22.7295C43.8134 22.4813 43.6739 22.1447 43.6739 21.7937V19.8086C43.6739 19.4576 43.5345 19.121 43.2863 18.8728C43.0381 18.6246 42.7015 18.4852 42.3505 18.4852H38.3803C38.0293 18.4852 37.6927 18.6246 37.4445 18.8728C37.1963 19.121 37.0569 19.4576 37.0569 19.8086V21.7937C37.0569 22.1447 36.9175 22.4813 36.6693 22.7295C36.4211 22.9777 36.0845 23.1171 35.7335 23.1171C35.3825 23.1171 35.0459 22.9777 34.7977 22.7295C34.5495 22.4813 34.4101 22.1447 34.4101 21.7937V19.8086C34.4101 19.4576 34.2706 19.121 34.0225 18.8728C33.7743 18.6246 33.4377 18.4852 33.0867 18.4852L29.1164 18.4852C28.7655 18.4852 28.4288 18.6246 28.1806 18.8728C27.9325 19.121 27.793 19.4576 27.793 19.8086C27.793 20.1596 27.9325 20.4962 28.1806 20.7444C28.4288 20.9926 28.7655 21.132 29.1164 21.132H31.7633V21.7937C31.7633 22.8467 32.1815 23.8566 32.9261 24.6011C33.6707 25.3457 34.6805 25.764 35.7335 25.764C36.7865 25.764 37.7963 25.3457 38.5409 24.6011C39.2854 23.8566 39.7037 22.8467 39.7037 21.7937V21.132H41.0271V21.7937C41.0271 22.8467 41.4454 23.8566 42.19 24.6011C42.9345 25.3457 43.9444 25.764 44.9974 25.764C46.0503 25.764 47.0602 25.3457 47.8047 24.6011C48.5493 23.8566 48.9676 22.8467 48.9676 21.7937V15.8384C48.9664 14.7858 48.5477 13.7767 47.8034 13.0324C47.0591 12.2881 46.0499 11.8694 44.9974 11.8682Z"
        fill="#0361F0" />
    <path
        d="M7.28021 16.5C7.28021 17.6779 7.62949 18.8293 8.28387 19.8086C8.93825 20.788 9.86835 21.5513 10.9565 22.002C12.0447 22.4528 13.2422 22.5707 14.3974 22.3409C15.5526 22.1111 16.6137 21.544 17.4466 20.7111C18.2795 19.8782 18.8467 18.8171 19.0765 17.6619C19.3063 16.5066 19.1883 15.3092 18.7376 14.221C18.2868 13.1328 17.5235 12.2027 16.5442 11.5483C15.5648 10.894 14.4134 10.5447 13.2356 10.5447C11.6566 10.5464 10.1429 11.1744 9.02643 12.2909C7.90996 13.4074 7.28196 14.9211 7.28021 16.5ZM16.5441 16.5C16.5441 17.1544 16.35 17.7941 15.9865 18.3381C15.6229 18.8822 15.1062 19.3063 14.5017 19.5567C13.8971 19.8071 13.2319 19.8726 12.5901 19.745C11.9483 19.6173 11.3588 19.3022 10.8961 18.8395C10.4334 18.3768 10.1183 17.7873 9.9906 17.1455C9.86294 16.5037 9.92846 15.8385 10.1789 15.2339C10.4293 14.6293 10.8534 14.1126 11.3974 13.7491C11.9415 13.3855 12.5812 13.1915 13.2356 13.1915C14.1127 13.1925 14.9536 13.5415 15.5739 14.1617C16.1941 14.7819 16.543 15.6229 16.5441 16.5Z"
        fill="#0361F0" />
    <path
        d="M6.75094 28.0249C7.0562 28.1895 7.41387 28.2277 7.747 28.1312C8.08013 28.0348 8.36209 27.8114 8.53223 27.5092C8.70237 27.207 8.74708 26.8501 8.65674 26.5153C8.56641 26.1805 8.34825 25.8945 8.0492 25.7188C6.09686 24.6245 4.54219 22.9387 3.60909 20.9044C2.67599 18.87 2.41259 16.592 2.85683 14.3984C3.30108 12.2048 4.43003 10.2087 6.08113 8.6977C7.73223 7.18668 9.82027 6.23864 12.0446 5.99011L10.8118 7.26654C10.6873 7.39075 10.5888 7.53854 10.5221 7.70126C10.4553 7.86398 10.4217 8.03837 10.4231 8.21424C10.4246 8.3901 10.461 8.56392 10.5304 8.72553C10.5998 8.88714 10.7007 9.0333 10.8272 9.15546C10.9538 9.27763 11.1034 9.37335 11.2673 9.43704C11.4312 9.50072 11.6062 9.53109 11.782 9.52637C11.9578 9.52165 12.1309 9.48193 12.2912 9.40954C12.4515 9.33715 12.5958 9.23353 12.7155 9.10475L16.0479 5.65463L16.0532 5.64801C16.0944 5.60283 16.1324 5.55485 16.167 5.50442C16.1816 5.4839 16.1994 5.46604 16.2127 5.44486C16.24 5.39854 16.2646 5.35059 16.2861 5.30127C16.3 5.2715 16.3179 5.24371 16.3298 5.21261C16.3417 5.18151 16.3529 5.13122 16.3648 5.09019C16.3788 5.04671 16.3905 5.00254 16.3999 4.95785C16.3999 4.95256 16.3999 4.94726 16.4039 4.94197C16.4098 4.90359 16.4079 4.86587 16.4105 4.82749C16.4131 4.78912 16.4204 4.7514 16.4198 4.71236C16.4198 4.7064 16.4198 4.70111 16.4198 4.69581C16.4169 4.64634 16.4111 4.59707 16.4026 4.54825C16.3973 4.5112 16.3946 4.47414 16.3867 4.43775C16.3743 4.39062 16.3593 4.34423 16.3417 4.29879C16.3291 4.26372 16.3198 4.22733 16.304 4.19292C16.2842 4.15029 16.2621 4.10877 16.2378 4.06852C16.2186 4.03609 16.2021 4.00235 16.1802 3.97059C16.1487 3.92846 16.1146 3.88825 16.0783 3.85016C16.0585 3.82832 16.0426 3.80318 16.0208 3.78399L16.0055 3.76877L12.4661 0.35437C12.2122 0.118243 11.8758 -0.00883001 11.5292 0.000477496C11.1827 0.009785 10.8536 0.154729 10.6127 0.404142C10.3719 0.653554 10.2386 0.987515 10.2414 1.33421C10.2442 1.68091 10.383 2.01265 10.6279 2.25809L11.77 3.36116C8.98732 3.6675 6.37382 4.84954 4.30621 6.73686C2.2386 8.62419 0.823692 11.1193 0.265447 13.8625C-0.292798 16.6058 0.0344572 19.4554 1.20004 22.0007C2.36562 24.546 4.30932 26.6554 6.75094 28.0249Z"
        fill="#0361F0" />
</svg>
