<svg width="16" height="16" viewBox="0 0 16 16" fill="none" xmlns="http://www.w3.org/2000/svg">
<path d="M8 3.41043C7.98186 3.41043 7.98186 3.41043 7.98186 3.41043C5.46032 3.42857 3.41043 5.47846 3.41043 8C3.41043 10.5215 5.46032 12.5714 7.96372 12.5896C7.96372 12.5896 7.96372 12.5896 7.98186 12.5896C8 12.5896 7.98186 12.5896 8 12.5896C10.5215 12.5714 12.5533 10.5215 12.5533 8C12.5533 5.47846 10.5215 3.42857 8 3.41043ZM7.98186 11.2109C6.22222 11.2109 4.78912 9.77778 4.78912 8C4.78912 6.24036 6.22222 4.78912 7.98186 4.78912C9.7415 4.78912 11.1746 6.22222 11.1746 8C11.1927 9.75964 9.75964 11.2109 7.98186 11.2109ZM7.31066 0H8.70748V2.43084H7.31066V0ZM7.31066 13.5692H8.70748V16H7.31066V13.5692ZM2.43084 8.68934H0V7.29252H2.43084V8.68934ZM13.5692 7.31066H16V8.70748H13.5692V7.31066ZM1.85034 2.82993L2.82993 1.85034L4.55329 3.5737L3.55556 4.55329L1.85034 2.82993ZM14.1497 13.1701L13.1701 14.1497L11.4467 12.4444L12.4263 11.4649L14.1497 13.1701ZM2.82993 14.1497L1.85034 13.1701L3.5737 11.4467L4.55329 12.4263L2.82993 14.1497ZM14.1497 2.82993L12.4444 4.55329L11.4467 3.55556L13.1701 1.8322L14.1497 2.82993Z" fill="white"/>
</svg>
