<svg width="21" height="20" viewBox="0 0 21 20" fill="none" xmlns="http://www.w3.org/2000/svg">
<path d="M15.6164 9.99966C15.6164 13.1002 13.103 15.6136 10.0025 15.6136C6.90191 15.6136 4.38855 13.1002 4.38855 9.99966C4.38855 6.8991 6.90191 4.38574 10.0025 4.38574C13.103 4.38574 15.6164 6.8991 15.6164 9.99966Z" fill="black"/>
<path d="M9.34192 2.14517C9.34192 2.51017 9.63699 2.80523 10.002 2.80523C10.367 2.80523 10.662 2.51016 10.662 2.14517V0.660057C10.662 0.295059 10.367 0 10.002 0C9.63699 0 9.34192 0.295068 9.34192 0.660057V2.14517Z" fill="black"/>
<path d="M2.92975 2.92449C2.67218 3.18207 2.67218 3.59955 2.92975 3.85956L3.97977 4.90957C4.10969 5.0395 4.27728 5.1021 4.44732 5.1021C4.61737 5.1021 4.78477 5.03705 4.91488 4.90957C5.17245 4.652 5.17245 4.23452 4.91488 3.97451L3.86486 2.92449C3.60484 2.6671 3.18717 2.6671 2.9298 2.92449H2.92975Z" fill="black"/>
<path d="M2.14499 9.33984H0.659878C0.295054 9.33984 0 9.63491 0 9.9999C0 10.3649 0.295068 10.66 0.660056 10.66H2.14517C2.51017 10.66 2.80523 10.3649 2.80523 9.9999C2.80506 9.6349 2.50999 9.33984 2.14499 9.33984Z" fill="black"/>
<path d="M3.9805 15.0886L2.93048 16.1386C2.67291 16.3962 2.67291 16.8136 2.93048 17.0736C3.06041 17.2036 3.22799 17.2662 3.39804 17.2662C3.56807 17.2662 3.73548 17.2011 3.86559 17.0736L4.91561 16.0236C5.17318 15.7661 5.17318 15.3486 4.91561 15.0886C4.65804 14.8286 4.2381 14.8286 3.98055 15.0886H3.9805Z" fill="black"/>
<path d="M10.0022 17.1943C9.63722 17.1943 9.34216 17.4894 9.34216 17.8544V19.3395C9.34216 19.7045 9.63723 19.9996 10.0022 19.9996C10.3672 19.9996 10.6623 19.7045 10.6623 19.3395V17.8544C10.6623 17.4892 10.3672 17.1943 10.0022 17.1943Z" fill="black"/>
<path d="M16.0237 15.0887C15.7661 14.8311 15.3486 14.8311 15.0886 15.0887C14.8286 15.3463 14.8311 15.7637 15.0886 16.0237L16.1386 17.0738C16.2686 17.2037 16.4362 17.2663 16.6062 17.2663C16.7762 17.2663 16.9436 17.2012 17.0738 17.0738C17.3313 16.8162 17.3313 16.3987 17.0738 16.1387L16.0237 15.0887Z" fill="black"/>
<path d="M19.344 9.33984H17.8589C17.4939 9.33984 17.1989 9.63491 17.1989 9.9999C17.1989 10.3649 17.4939 10.66 17.8589 10.66H19.344C19.709 10.66 20.0041 10.3649 20.0041 9.9999C20.0041 9.63491 19.709 9.33984 19.344 9.33984Z" fill="black"/>
<path d="M15.5563 5.10608C15.7263 5.10608 15.8938 5.04103 16.0239 4.91355L17.0739 3.86353C17.3315 3.60596 17.3315 3.18848 17.0739 2.92847C16.8163 2.66846 16.3988 2.6709 16.1388 2.92847L15.0888 3.97849C14.8312 4.23606 14.8312 4.65355 15.0888 4.91355C15.2189 5.04121 15.3889 5.10608 15.5564 5.10608H15.5563Z" fill="black"/>
</svg>
