<svg width="29" height="29" viewBox="0 0 29 29" fill="none" xmlns="http://www.w3.org/2000/svg">
<g opacity="0.4">
<circle cx="14.5" cy="14.4997" r="9.66667" fill="white"/>
<path d="M14.5 26.5831C11.2944 26.586 8.21929 25.3139 5.9526 23.0472C3.68591 20.7805 2.41378 17.7054 2.41666 14.4998V14.2581C2.51549 9.41538 5.49525 5.09914 9.98851 3.29015C14.4818 1.48116 19.621 2.52869 23.0477 5.95203C26.5065 9.40797 27.5417 14.6077 25.6702 19.1248C23.7987 23.6419 19.3895 26.586 14.5 26.5831ZM14.5 16.2035L17.6296 19.3331L19.3333 17.6294L16.2038 14.4998L19.3333 11.3702L17.6296 9.66645L14.5 12.796L11.3704 9.66645L9.66667 11.3702L12.7963 14.4998L9.66667 17.6294L11.3704 19.3331L14.5 16.2047V16.2035Z" fill="#2E3A59"/>
</g>
</svg>
