<svg width="25" height="25" viewBox="0 0 25 25" fill="none" xmlns="http://www.w3.org/2000/svg">
<path d="M12.5 24.5831C9.29442 24.586 6.21929 23.3139 3.9526 21.0472C1.68591 18.7805 0.413777 15.7054 0.416661 12.4998V12.2581C0.515489 7.41538 3.49525 3.09914 7.98851 1.29015C12.4818 -0.518843 17.621 0.528695 21.0477 3.95203C24.5065 7.40797 25.5417 12.6077 23.6702 17.1248C21.7987 21.6419 17.3895 24.586 12.5 24.5831ZM12.5 14.2035L15.6296 17.3331L17.3333 15.6294L14.2038 12.4998L17.3333 9.3702L15.6296 7.66645L12.5 10.796L9.37042 7.66645L7.66667 9.3702L10.7963 12.4998L7.66667 15.6294L9.37042 17.3331L12.5 14.2047V14.2035Z" fill="#2E3A59"/>
</svg>
