<svg width="18" height="19" viewBox="0 0 18 19" fill="none" xmlns="http://www.w3.org/2000/svg">
<path d="M17.3997 13.5694C17.2657 13.3683 16.9974 13.234 16.7292 13.3012C16.3939 13.3683 16.0588 13.4017 15.7234 13.4017C12.3374 13.4017 9.55477 10.6525 9.55477 7.23308C9.55477 5.12094 10.6277 3.17642 12.4379 2.03663C12.6727 1.90263 12.7733 1.6344 12.7396 1.39959C12.7062 1.13136 12.5385 0.930249 12.2703 0.829691C11.3316 0.528019 10.3258 0.360352 9.31999 0.360352C4.19064 0.360352 0 4.55099 0 9.68034C0 14.8097 4.19064 19.0003 9.31999 19.0003C12.639 19.0003 15.7233 17.2235 17.3996 14.3403C17.567 14.0723 17.567 13.7704 17.3996 13.5693L17.3997 13.5694Z" fill="black"/>
</svg>
