<svg width="14" height="14" viewBox="0 0 14 14" fill="none" xmlns="http://www.w3.org/2000/svg">
<path d="M4.9045 9.99541L7.44982 7.45004C7.57145 7.32849 7.63636 7.16202 7.63636 7V3.18182C7.63636 2.83038 7.35144 2.54545 7 2.54545C6.64856 2.54545 6.36364 2.83038 6.36364 3.18182V6.73642L4.00459 9.09546C3.75607 9.34398 3.75607 9.74688 4.00459 9.99541C4.25303 10.2439 4.65602 10.244 4.9045 9.99541ZM7 14C10.8598 14 14 10.8598 14 7C14 3.1402 10.8598 0 7 0C3.1402 0 0 3.1402 0 7C0 10.8598 3.1402 14 7 14ZM7 1.27273C10.158 1.27273 12.7273 3.84198 12.7273 7C12.7273 10.158 10.158 12.7273 7 12.7273C3.84198 12.7273 1.27273 10.158 1.27273 7C1.27273 3.84198 3.84198 1.27273 7 1.27273Z" fill="#0361F0"/>
</svg>
