<svg width="28" height="28" viewBox="0 0 28 28" fill="none" xmlns="http://www.w3.org/2000/svg">
<path d="M1.33333 7.66683V4.50016C1.33333 3.66031 1.66696 2.85486 2.26082 2.26099C2.85469 1.66713 3.66014 1.3335 4.49999 1.3335H7.66666" fill="#0361F0"/>
<path d="M1.33333 7.66683V4.50016C1.33333 3.66031 1.66696 2.85486 2.26082 2.26099C2.85469 1.66713 3.66014 1.3335 4.49999 1.3335H7.66666" stroke="#0361F0" stroke-width="2" stroke-linecap="round" stroke-linejoin="round"/>
<path d="M1.33333 20.3335V23.5002C1.33333 24.34 1.66696 25.1455 2.26082 25.7393C2.85469 26.3332 3.66014 26.6668 4.49999 26.6668H7.66666" fill="#0361F0"/>
<path d="M1.33333 20.3335V23.5002C1.33333 24.34 1.66696 25.1455 2.26082 25.7393C2.85469 26.3332 3.66014 26.6668 4.49999 26.6668H7.66666" stroke="#0361F0" stroke-width="2" stroke-linecap="round" stroke-linejoin="round"/>
<path d="M20.3333 1.3335H23.5C24.3398 1.3335 25.1453 1.66713 25.7392 2.26099C26.333 2.85486 26.6667 3.66031 26.6667 4.50016V7.66683" fill="#0361F0"/>
<path d="M20.3333 1.3335H23.5C24.3398 1.3335 25.1453 1.66713 25.7392 2.26099C26.333 2.85486 26.6667 3.66031 26.6667 4.50016V7.66683" stroke="#0361F0" stroke-width="2" stroke-linecap="round" stroke-linejoin="round"/>
<path d="M20.3333 26.6668H23.5C24.3398 26.6668 25.1453 26.3332 25.7392 25.7393C26.333 25.1455 26.6667 24.34 26.6667 23.5002V20.3335" fill="#0361F0"/>
<path d="M20.3333 26.6668H23.5C24.3398 26.6668 25.1453 26.3332 25.7392 25.7393C26.333 25.1455 26.6667 24.34 26.6667 23.5002V20.3335" stroke="#0361F0" stroke-width="2" stroke-linecap="round" stroke-linejoin="round"/>
<path d="M9.25 10.8335H9.26583H9.25Z" fill="#0361F0"/>
<path d="M9.25 10.8335H9.26583" stroke="#0361F0" stroke-width="2" stroke-linecap="round" stroke-linejoin="round"/>
<path d="M18.75 10.8335H18.7658" stroke="#0361F0" stroke-width="2" stroke-linecap="round" stroke-linejoin="round"/>
<path d="M10.0417 18.75C10.5576 19.2766 11.1735 19.695 11.8532 19.9806C12.5329 20.2662 13.2627 20.4133 14 20.4133C14.7372 20.4133 15.4671 20.2662 16.1468 19.9806C16.8265 19.695 17.4423 19.2766 17.9583 18.75" stroke="#0361F0" stroke-width="2" stroke-linecap="round" stroke-linejoin="round"/>
</svg>
