<svg width="30" height="24" viewBox="0 0 30 24" fill="none" xmlns="http://www.w3.org/2000/svg">
<path opacity="0.6" d="M29.1684 19.3509C29.1684 19.528 29.0356 19.7051 28.8585 19.7494L17.1695 23.8228C16.771 23.9557 16.4168 24 16.0183 24C15.6641 24 15.3541 23.9557 14.9999 23.8671L7.11865 21.5205V13.8606H7.69425C9.6867 13.8606 11.6349 14.5247 13.2731 15.6759C14.3358 15.9416 19.6932 14.569 19.339 17.8898C19.2947 18.2883 19.1619 18.6425 18.9405 18.9524L20.2688 19.041L26.1576 17.1813C27.6188 16.65 29.1684 17.7569 29.1684 19.3509Z" fill="#F08922"/>
<path opacity="0.6" d="M6.2333 12.7982V22.0078C6.2333 22.2292 6.01192 22.4506 5.79053 22.4506H1.27431C1.05293 22.4506 0.831543 22.2292 0.831543 22.0078V12.7982C0.831543 12.5326 1.05293 12.3555 1.27431 12.3555H5.79053C6.05619 12.3555 6.2333 12.5769 6.2333 12.7982Z" fill="#F08922"/>
<path fill-rule="evenodd" clip-rule="evenodd" d="M18.2364 0.355469H18.2807C22.2213 0.355469 25.4535 3.49911 25.4535 7.52829V7.57257C25.4535 11.5132 22.2656 14.7011 18.325 14.7454H18.2807C14.3401 14.7454 11.1522 11.5575 11.1079 7.61685C11.0636 3.63194 14.2515 0.399745 18.2364 0.355469ZM21.3963 4.2204H19.8093V6.03492H17.7032L16.488 4.2204H15.0889V6.03492H13.7121V7.45135H15.0889V8.68425H13.7121V10.1007H15.0889V11.9487H16.6832V10.1007H18.7727L20.0192 11.9487H21.3963V10.1007H22.7285V8.68425H21.3963V7.45135H22.7285V6.03492H21.3963V4.2204ZM18.6518 7.45135H19.8093V8.68425H19.4775L18.6518 7.45135ZM16.9858 7.45135L17.8174 8.68425H16.6832V7.45135H16.9858Z" fill="#F08922"/>
</svg>
