<svg width="18" height="18" viewBox="0 0 18 18" fill="none" xmlns="http://www.w3.org/2000/svg">
<path d="M14.0624 1.90195C16.2772 3.48398 17.7186 6.07149 17.7186 9C17.7186 13.8094 13.8233 17.7082 9.01746 17.7188C4.21863 17.7293 0.288166 13.8164 0.281134 9.01406C0.277619 6.08555 1.71903 3.49102 3.93035 1.90547C4.34168 1.61367 4.91473 1.73672 5.16082 2.17617L5.71629 3.16406C5.92371 3.5332 5.82527 4.00078 5.48426 4.25391C4.02527 5.33672 3.09363 7.05234 3.09363 8.99648C3.09012 12.2414 5.71278 14.9063 8.99988 14.9063C12.2202 14.9063 14.9272 12.2977 14.9061 8.96133C14.8956 7.14023 14.0378 5.38242 12.512 4.25039C12.171 3.99727 12.0761 3.52969 12.2835 3.16406L12.8389 2.17617C13.085 1.74023 13.6546 1.61016 14.0624 1.90195ZM10.4061 9.28125V0.84375C10.4061 0.376172 10.03 0 9.56238 0H8.43738C7.96981 0 7.59363 0.376172 7.59363 0.84375V9.28125C7.59363 9.74883 7.96981 10.125 8.43738 10.125H9.56238C10.03 10.125 10.4061 9.74883 10.4061 9.28125Z" fill="white"/>
</svg>
