<svg width="31" height="40" viewBox="0 0 31 40" fill="none" xmlns="http://www.w3.org/2000/svg">
<path d="M10 22.6667V26.44C9.99894 26.8628 10.1205 27.2769 10.35 27.6321C10.5794 27.9873 10.9069 28.2683 11.2928 28.4411C11.6787 28.614 12.1065 28.6712 12.5242 28.6059C12.942 28.5407 13.3319 28.3557 13.6467 28.0733L20.4 22C20.6861 21.7448 20.9151 21.4321 21.0718 21.0822C21.2286 20.7324 21.3096 20.3534 21.3096 19.97C21.3096 19.5866 21.2286 19.2076 21.0718 18.8578C20.9151 18.5079 20.6861 18.1952 20.4 17.94L13.6467 11.9333C13.3323 11.6514 12.943 11.4665 12.5259 11.401C12.1087 11.3355 11.6815 11.3922 11.2959 11.5642C10.9102 11.7362 10.5826 12.0162 10.3527 12.3704C10.1227 12.7246 10.0002 13.1377 10 13.56V17.3333H0V5.33333C0 3.91885 0.561903 2.56229 1.5621 1.5621C2.56229 0.561903 3.91885 0 5.33333 0H25.3333C26.7478 0 28.1044 0.561903 29.1046 1.5621C30.1048 2.56229 30.6667 3.91885 30.6667 5.33333V34.6667C30.6667 36.0812 30.1048 37.4377 29.1046 38.4379C28.1044 39.4381 26.7478 40 25.3333 40H5.33333C3.91885 40 2.56229 39.4381 1.5621 38.4379C0.561903 37.4377 0 36.0812 0 34.6667V22.6667H10Z" fill="#0361F0"/>
</svg>
