<svg width="32" height="26" viewBox="0 0 32 26" fill="none" xmlns="http://www.w3.org/2000/svg">
<path fill-rule="evenodd" clip-rule="evenodd" d="M9.57275 0.104556C10.0952 0.319211 10.4362 0.828097 10.4362 1.3929V3.86905L15.9019 3.869C16.6711 3.86899 17.2947 4.49259 17.2947 5.26184C17.2947 6.03109 16.6712 6.6547 15.9019 6.65471L9.0434 6.65477C8.67399 6.65478 8.31971 6.50803 8.0585 6.24682C7.79729 5.98561 7.65054 5.63133 7.65054 5.26192V4.78278L3.35154 9.13096L7.65054 13.4791V13C7.65054 12.6306 7.79728 12.2763 8.0585 12.0151C8.31971 11.7539 8.67399 11.6071 9.04339 11.6071L21.3672 11.6072V9.13099C21.3672 8.56619 21.7083 8.0573 22.2307 7.84265C22.7531 7.62799 23.3535 7.75007 23.7506 8.15171L31.4011 15.8898C31.9376 16.4324 31.9376 17.3057 31.4011 17.8483L23.7506 25.5864C23.3535 25.988 22.7531 26.1101 22.2307 25.8954C21.7083 25.6808 21.3672 25.1719 21.3672 24.6071V22.1309L15.9019 22.131C15.1326 22.131 14.509 21.5074 14.509 20.7381C14.509 19.9689 15.1326 19.3453 15.9019 19.3452L22.7601 19.3452C23.1295 19.3452 23.4838 19.4919 23.745 19.7532C24.0062 20.0144 24.1529 20.3687 24.1529 20.7381V21.2172L28.4519 16.869L24.1529 12.5209V13C24.1529 13.3694 24.0062 13.7237 23.745 13.9849C23.4838 14.2461 23.1295 14.3929 22.7601 14.3929L10.4362 14.3928L10.4362 16.869C10.4362 17.4338 10.0952 17.9427 9.57275 18.1574C9.05033 18.372 8.45 18.2499 8.05291 17.8483L0.402372 10.1102C-0.134124 9.56761 -0.134124 8.69432 0.402371 8.15169L8.05291 0.413618C8.45 0.0119795 9.05033 -0.110098 9.57275 0.104556Z" fill="#0361F0"/>
</svg>
