<svg width="28" height="23" viewBox="0 0 28 23" fill="none" xmlns="http://www.w3.org/2000/svg">
<path d="M18.5005 5C18.5005 7.48528 16.4858 9.5 14.0005 9.5C11.5152 9.5 9.50049 7.48528 9.50049 5C9.50049 2.51472 11.5152 0.5 14.0005 0.5C16.4858 0.5 18.5005 2.51472 18.5005 5Z" fill="#0361F0"/>
<path d="M26.0005 8C26.0005 9.65685 24.6573 11 23.0005 11C21.3436 11 20.0005 9.65685 20.0005 8C20.0005 6.34315 21.3436 5 23.0005 5C24.6573 5 26.0005 6.34315 26.0005 8Z" fill="#0361F0"/>
<path d="M20.0005 18.5C20.0005 15.1863 17.3142 12.5 14.0005 12.5C10.6868 12.5 8.00049 15.1863 8.00049 18.5V23H20.0005V18.5Z" fill="#0361F0"/>
<path d="M8.00049 8C8.00049 9.65685 6.65734 11 5.00049 11C3.34363 11 2.00049 9.65685 2.00049 8C2.00049 6.34315 3.34363 5 5.00049 5C6.65734 5 8.00049 6.34315 8.00049 8Z" fill="#0361F0"/>
<path d="M23.0005 23V18.5C23.0005 16.9188 22.5927 15.4328 21.8766 14.1415C22.2358 14.0491 22.6124 14 23.0005 14C25.4858 14 27.5005 16.0147 27.5005 18.5V23H23.0005Z" fill="#0361F0"/>
<path d="M6.12438 14.1415C5.40826 15.4328 5.00049 16.9188 5.00049 18.5V23H0.500488V18.5C0.500488 16.0147 2.51521 14 5.00049 14C5.38855 14 5.76514 14.0491 6.12438 14.1415Z" fill="#0361F0"/>
</svg>
