<svg width="22" height="22" viewBox="0 0 22 22" fill="none" xmlns="http://www.w3.org/2000/svg">
<path d="M20.2632 14.4853C18.9227 14.4879 17.5905 14.276 16.317 13.8577C15.7216 13.6497 15.06 13.7898 14.5999 14.2213L12.1012 16.1063C9.41771 14.759 7.24036 12.5821 5.89257 9.89887L7.72781 7.46034C8.19117 6.99666 8.35688 6.31315 8.15741 5.68876C7.73753 4.41354 7.52449 3.07937 7.52634 1.73684C7.52634 0.777617 6.74872 0 5.7895 0H1.73684C0.777617 0 0 0.777617 0 1.73684C0.0127549 12.9226 9.0774 21.9872 20.2632 22C21.2224 22 22 21.2224 22 20.2632V16.2221C22 15.2629 21.2224 14.4853 20.2632 14.4853Z" fill="#0361F0"/>
</svg>
