<svg width="40" height="40" viewBox="0 0 40 40" fill="none" xmlns="http://www.w3.org/2000/svg">
    <path fill-rule="evenodd" clip-rule="evenodd"
        d="M19.8601 40H20.003C29.2424 40 35.4337 38.0645 36.7196 36.8459C38.077 35.6272 39.863 29.2951 39.863 20C39.863 10.7049 38.077 4.37276 36.7196 3.15412C35.4337 1.95938 29.2424 0.0238949 20.003 0H19.8601C10.6445 0.0238949 4.4293 1.95938 3.1434 3.15412C1.78606 4.37276 9.15527e-05 10.7049 9.15527e-05 20C9.15527e-05 29.319 1.78606 35.6272 3.1434 36.8459C4.4293 38.0406 10.6207 39.9761 19.8601 40ZM28.3609 11.852L29.1229 21.1949L29.6468 28.1722H26.8369C25.6462 28.1722 25.1462 27.6465 25.0509 26.3562L24.6461 17.7301H24.5985C24.2651 18.9965 21.6457 25.3287 21.6457 25.3287H18.1928C18.1928 25.3287 15.5734 18.901 15.3829 18.2319L15.24 17.7301H15.1924C15.2638 18.8293 14.7875 26.3562 14.7875 26.3562C14.6923 27.6465 14.216 28.1722 13.0016 28.1722H10.1916L10.8346 19.9523L11.5966 11.852H16.2163L19.9073 20.024H19.9549C20.2645 19.0443 23.765 11.852 23.765 11.852H28.3609Z"
        fill="white" />
</svg>
