<svg width="30" height="25" viewBox="0 0 30 25" fill="none" xmlns="http://www.w3.org/2000/svg">
<path d="M28.3424 14.5005L27.2084 0.614746H20.3685C20.3685 0.614746 15.1589 11.3043 14.6982 12.7603H14.6274L9.13424 0.614746H2.29442L1.16036 12.6538L0.203491 24.8704H4.38534C6.19276 24.8704 6.90155 24.0891 7.07875 22.1714C7.07875 22.1714 7.78753 10.9846 7.68122 9.35103H7.75209L7.96473 10.0968C8.24825 11.0912 12.1466 20.6443 12.1466 20.6443H17.2853C17.2853 20.6443 21.1837 11.2332 21.6798 9.35103H21.7507L22.3532 22.1714C22.4949 24.0891 23.2391 24.8704 25.0111 24.8704H29.193L28.3424 14.5005Z" fill="#0361F0"/>
</svg>
