<svg width="18" height="12" viewBox="0 0 22 16" fill="none" xmlns="http://www.w3.org/2000/svg">
<path fill-rule="evenodd" clip-rule="evenodd" d="M1.05263 2.16541H19.9999C20.5813 2.16541 21.0526 1.68063 21.0526 1.0827C21.0526 0.484781 20.5813 0 19.9999 0H1.05263C0.471314 0 0 0.484781 0 1.0827C0 1.68063 0.471314 2.16541 1.05263 2.16541ZM19.9999 6.49622H1.05263C0.471314 6.49622 0 6.981 0 7.57892C0 8.17684 0.471314 8.66162 1.05263 8.66162H19.9999C20.5813 8.66162 21.0526 8.17684 21.0526 7.57892C21.0526 6.981 20.5813 6.49622 19.9999 6.49622ZM1.05263 12.9924H13.2631C13.8444 12.9924 14.3158 13.4772 14.3158 14.0751C14.3158 14.6731 13.8444 15.1578 13.2631 15.1578H1.05263C0.471315 15.1578 0 14.6731 0 14.0751C0 13.4772 0.471315 12.9924 1.05263 12.9924Z" fill="#0361F0"/>
<circle cx="18.7891" cy="12.8943" r="2.10526" fill="#E94444"/>
</svg>
