<svg width="22" height="26" viewBox="0 0 22 26" fill="none" xmlns="http://www.w3.org/2000/svg">
<path d="M5.3361 10.5094H9.10898C9.34351 10.5094 9.56842 10.4171 9.73426 10.2529C9.90009 10.0886 9.99325 9.86586 9.99325 9.63359C9.99325 9.40132 9.90009 9.17856 9.73426 9.01432C9.56842 8.85008 9.34351 8.75781 9.10898 8.75781H5.3361C5.10158 8.75781 4.87666 8.85008 4.71082 9.01432C4.54499 9.17856 4.45183 9.40132 4.45183 9.63359C4.45183 9.86586 4.54499 10.0886 4.71082 10.2529C4.87666 10.4171 5.10158 10.5094 5.3361 10.5094Z" fill="#0361F0"/>
<path d="M12.6461 12.5527H5.3361C5.10158 12.5527 4.87666 12.645 4.71082 12.8092C4.54499 12.9735 4.45183 13.1962 4.45183 13.4285C4.45183 13.6608 4.54499 13.8835 4.71082 14.0478C4.87666 14.212 5.10158 14.3043 5.3361 14.3043H12.6461C12.8806 14.3043 13.1055 14.212 13.2713 14.0478C13.4372 13.8835 13.5303 13.6608 13.5303 13.4285C13.5303 13.1962 13.4372 12.9735 13.2713 12.8092C13.1055 12.645 12.8806 12.5527 12.6461 12.5527Z" fill="#0361F0"/>
<path d="M12.6461 16.3477H5.3361C5.10158 16.3477 4.87666 16.4399 4.71082 16.6042C4.54499 16.7684 4.45183 16.9912 4.45183 17.2234C4.45183 17.4557 4.54499 17.6785 4.71082 17.8427C4.87666 18.0069 5.10158 18.0992 5.3361 18.0992H12.6461C12.8806 18.0992 13.1055 18.0069 13.2713 17.8427C13.4372 17.6785 13.5303 17.4557 13.5303 17.2234C13.5303 16.9912 13.4372 16.7684 13.2713 16.6042C13.1055 16.4399 12.8806 16.3477 12.6461 16.3477Z" fill="#0361F0"/>
<path d="M21.5172 21.69V2.62732C21.5172 1.93051 21.2377 1.26224 20.7402 0.769524C20.2428 0.276806 19.568 0 18.8644 0H6.18989C5.48632 0 4.81157 0.276806 4.31407 0.769524C3.81657 1.26224 3.53708 1.93051 3.53708 2.62732V3.44471H2.65281C1.94924 3.44471 1.27449 3.72152 0.77699 4.21423C0.279492 4.70695 0 5.37522 0 6.07203V25.1055C0.00281092 25.2734 0.0543214 25.437 0.148391 25.5768C0.242461 25.7165 0.375123 25.8265 0.530562 25.8937L0.88427 25.9813C1.10319 25.9784 1.31325 25.8952 1.47378 25.7477L3.53708 23.8502L5.65933 25.7477C5.82145 25.8914 6.03133 25.9708 6.24884 25.9708C6.46635 25.9708 6.67623 25.8914 6.83836 25.7477L8.99008 23.8794L11.1123 25.7769C11.2745 25.9205 11.4843 25.9999 11.7018 25.9999C11.9194 25.9999 12.1292 25.9205 12.2914 25.7769L14.4136 23.8794L16.4769 25.7769C16.6035 25.8891 16.7599 25.9627 16.9276 25.9891C17.0953 26.0155 17.2672 25.9936 17.4226 25.9258C17.578 25.8581 17.7105 25.7475 17.8041 25.6072C17.8978 25.4669 17.9487 25.3029 17.9507 25.1347V20.4639L20.014 22.3322C20.1745 22.4797 20.3846 22.5629 20.6035 22.5658L20.9572 22.4782C21.1182 22.4155 21.257 22.3073 21.3565 22.1673C21.4561 22.0272 21.512 21.8612 21.5172 21.69ZM16.2116 23.1204L15.0326 22.0403C14.8705 21.8967 14.6606 21.8173 14.4431 21.8173C14.2256 21.8173 14.0157 21.8967 13.8536 22.0403L11.7313 23.9378L9.57959 22.0403C9.41747 21.8967 9.20759 21.8173 8.99008 21.8173C8.77257 21.8173 8.56269 21.8967 8.40057 22.0403L6.27832 23.9378L4.12659 22.0403C3.96447 21.8967 3.75459 21.8173 3.53708 21.8173C3.31957 21.8173 3.10969 21.8967 2.94757 22.0403L1.76854 23.1204V6.04284C1.76854 5.81057 1.8617 5.58781 2.02754 5.42357C2.19337 5.25933 2.41829 5.16706 2.65281 5.16706H15.3273C15.5619 5.16706 15.7868 5.25933 15.9526 5.42357C16.1185 5.58781 16.2116 5.81057 16.2116 6.04284V23.1204ZM19.7487 19.6757L18.5697 18.5956C18.4091 18.4481 18.1991 18.3649 17.9802 18.3621V6.04284C17.9802 5.34603 17.7007 4.67776 17.2032 4.18504C16.7057 3.69232 16.0309 3.41552 15.3273 3.41552H5.30562V2.62732C5.30562 2.39505 5.39879 2.17229 5.56462 2.00805C5.73045 1.84382 5.95537 1.75155 6.18989 1.75155H18.8644C19.099 1.75155 19.3239 1.84382 19.4897 2.00805C19.6555 2.17229 19.7487 2.39505 19.7487 2.62732V19.6757Z" fill="#0361F0"/>
</svg>
