<svg xmlns="http://www.w3.org/2000/svg"
    width="60"
    height="40"
    viewBox="0 0 60 40"
>
<!--    <path-->
<!--        d="M10.9162,46.4094V43.3191C10.9342,43.0593 10.8967,42.7985 10.806,42.5543C10.7153,42.31 10.5737,42.0879 10.3904,41.9027C10.2072,41.7176 9.9866,41.5735 9.7433,41.4803C9.5001,41.3871 9.2397,41.3467 8.9797,41.362C8.6392,41.3397 8.2991,41.4091 7.9947,41.5631C7.6903,41.7172 7.4328,41.9501 7.2491,42.2376C7.0817,41.9587 6.8421,41.7302 6.5557,41.5761C6.2692,41.422 5.9465,41.348 5.6216,41.362C5.3383,41.3477 5.0562,41.4076 4.8033,41.5359C4.5503,41.6642 4.3353,41.8563 4.1795,42.0933V41.4856H3.1082V46.4094H4.1898V43.7003C4.1667,43.5319 4.1812,43.3605 4.2321,43.1984C4.2831,43.0363 4.3692,42.8874 4.4843,42.7624C4.5995,42.6374 4.7408,42.5394 4.8982,42.4754C5.0556,42.4114 5.2253,42.3829 5.3949,42.3921C6.1057,42.3921 6.4662,42.8556 6.4662,43.69V46.43H7.5478V43.7003C7.5258,43.5321 7.5409,43.3611 7.5922,43.1993C7.6434,43.0376 7.7296,42.8891 7.8446,42.7644C7.9595,42.6396 8.1004,42.5416 8.2574,42.4772C8.4144,42.4129 8.5836,42.3838 8.753,42.3921C9.4844,42.3921 9.8346,42.8556 9.8346,43.69V46.43L10.9162,46.4094ZM26.9187,41.4856H25.1572V39.992H24.0756V41.4856H23.097V42.4642H24.0962V44.7304C24.0962,45.8738 24.5392,46.5536 25.8062,46.5536C26.2795,46.5552 26.7437,46.4231 27.1453,46.1725L26.8363,45.2557C26.549,45.4271 26.2229,45.5228 25.8886,45.5338C25.3735,45.5338 25.1778,45.2042 25.1778,44.7098V42.4642H26.929L26.9187,41.4856ZM36.0556,41.362C35.7944,41.3543 35.5359,41.4172 35.3075,41.5441C35.0791,41.671 34.8891,41.8572 34.7577,42.083V41.4856H33.6967V46.4094H34.768V43.6488C34.768,42.835 35.1182,42.3818 35.7981,42.3818C36.0272,42.3786 36.2547,42.4206 36.4676,42.5054L36.7972,41.4753C36.5526,41.3878 36.2948,41.3425 36.035,41.3414L36.0556,41.362ZM22.2421,41.877C21.6357,41.5165 20.9385,41.3377 20.2334,41.362C18.987,41.362 18.1732,41.9594 18.1732,42.938C18.1732,43.7415 18.7707,44.2359 19.8729,44.3904L20.3879,44.4625C20.9751,44.545 21.2532,44.6995 21.2532,44.9776C21.2532,45.3587 20.8618,45.575 20.1304,45.575C19.5421,45.5921 18.9652,45.4107 18.4925,45.06L17.9775,45.8944C18.6015,46.3301 19.349,46.554 20.1098,46.533C21.5313,46.533 22.3554,45.8635 22.3554,44.9261C22.3554,43.9887 21.7064,43.6076 20.6351,43.4531L20.1201,43.3809C19.6565,43.3191 19.2857,43.2264 19.2857,42.8968C19.2857,42.5672 19.6359,42.32 20.2231,42.32C20.7658,42.3263 21.2978,42.4717 21.7682,42.7423L22.2421,41.877ZM50.9352,41.362C50.674,41.3543 50.4156,41.4172 50.1872,41.5441C49.9587,41.671 49.7688,41.8572 49.6373,42.083V41.4856H48.5763V46.4094H49.6476V43.6488C49.6476,42.835 49.9978,42.3818 50.6777,42.3818C50.9068,42.3786 51.1343,42.4206 51.3473,42.5054L51.6769,41.4753C51.4322,41.3878 51.1745,41.3425 50.9146,41.3414L50.9352,41.362ZM37.132,43.9372C37.1193,44.2832 37.1789,44.6281 37.3071,44.9497C37.4353,45.2714 37.6292,45.5627 37.8765,45.8051C38.1237,46.0475 38.4188,46.2356 38.743,46.3574C39.0671,46.4792 39.413,46.532 39.7587,46.5124C40.402,46.5451 41.0341,46.3357 41.5305,45.9253L41.0155,45.06C40.6451,45.3424 40.1935,45.4977 39.7278,45.5029C39.3319,45.4709 38.9624,45.291 38.6931,44.9989C38.4237,44.7069 38.2742,44.3242 38.2742,43.9269C38.2742,43.5296 38.4237,43.1469 38.6931,42.8549C38.9624,42.5628 39.3319,42.3829 39.7278,42.3509C40.1935,42.356 40.6451,42.5114 41.0155,42.7938L41.5305,41.9285C41.0341,41.5181 40.402,41.3086 39.7587,41.3414C39.413,41.3218 39.0671,41.3746 38.743,41.4964C38.4188,41.6182 38.1237,41.8063 37.8765,42.0487C37.6292,42.2911 37.4353,42.5824 37.3071,42.9041C37.1789,43.2257 37.1193,43.5706 37.132,43.9166V43.9372ZM47.1651,43.9372V41.4856H46.0938V42.083C45.9119,41.8489 45.6769,41.6615 45.4082,41.5361C45.1396,41.4107 44.8449,41.351 44.5487,41.362C43.8657,41.362 43.2107,41.6333 42.7277,42.1162C42.2448,42.5992 41.9734,43.2542 41.9734,43.9372C41.9734,44.6202 42.2448,45.2752 42.7277,45.7582C43.2107,46.2411 43.8657,46.5124 44.5487,46.5124C44.8449,46.5234 45.1396,46.4637 45.4082,46.3383C45.6769,46.2129 45.9119,46.0254 46.0938,45.7914V46.3888H47.1651V43.9372ZM43.1786,43.9372C43.1957,43.6474 43.2972,43.3689 43.4706,43.136C43.6439,42.9031 43.8816,42.726 44.1544,42.6265C44.4271,42.5269 44.723,42.5094 45.0056,42.5759C45.2882,42.6424 45.5452,42.7902 45.7449,43.0009C45.9446,43.2116 46.0784,43.4762 46.1296,43.7619C46.1809,44.0477 46.1475,44.3422 46.0335,44.6092C45.9195,44.8763 45.7299,45.1041 45.488,45.2647C45.2462,45.4253 44.9626,45.5117 44.6723,45.5132C44.4683,45.5158 44.2661,45.4762 44.0782,45.3968C43.8904,45.3174 43.721,45.2 43.5807,45.052C43.4404,44.9039 43.3322,44.7285 43.2631,44.5366C43.1939,44.3448 43.1651,44.1407 43.1786,43.9372V43.9372ZM30.251,41.362C29.568,41.3715 28.9168,41.652 28.4406,42.1417C27.9644,42.6314 27.7023,43.2903 27.7118,43.9733C27.7214,44.6562 28.0019,45.3075 28.4916,45.7836C28.9813,46.2598 29.6401,46.522 30.3231,46.5124C31.0641,46.5505 31.7929,46.3118 32.3679,45.8429L31.8528,45.0497C31.4461,45.3759 30.9423,45.5571 30.421,45.5647C30.0669,45.5952 29.7148,45.4863 29.4397,45.2612C29.1647,45.0362 28.9882,44.7127 28.948,44.3595H32.6048C32.6048,44.2256 32.6048,44.0917 32.6048,43.9475C32.6048,42.4024 31.6468,41.3723 30.2665,41.3723L30.251,41.362ZM30.251,42.32C30.4113,42.3165 30.5707,42.3447 30.7201,42.4029C30.8695,42.4612 31.006,42.5482 31.1218,42.6592C31.2375,42.7702 31.3303,42.9028 31.3947,43.0497C31.4592,43.1965 31.4941,43.3546 31.4974,43.5149H28.9222C28.9409,43.1842 29.0882,42.8741 29.3327,42.6507C29.5772,42.4274 29.8995,42.3087 30.2304,42.32H30.251ZM57.09,43.9475V39.5078H56.0599V42.083C55.878,41.8489 55.643,41.6615 55.3743,41.5361C55.1057,41.4107 54.8111,41.351 54.5148,41.362C53.8318,41.362 53.1768,41.6333 52.6938,42.1162C52.2109,42.5992 51.9396,43.2542 51.9396,43.9372C51.9396,44.6202 52.2109,45.2752 52.6938,45.7582C53.1768,46.2411 53.8318,46.5124 54.5148,46.5124C54.8111,46.5234 55.1057,46.4637 55.3743,46.3383C55.643,46.2129 55.878,46.0254 56.0599,45.7914V46.3888H57.09V43.9475ZM58.8772,45.6935C58.9442,45.6927 59.0107,45.7049 59.0729,45.7296C59.1321,45.7537 59.1862,45.7886 59.2326,45.8326C59.2779,45.877 59.3145,45.9294 59.3407,45.9871C59.3668,46.0472 59.3803,46.1121 59.3803,46.1776C59.3803,46.2432 59.3668,46.3081 59.3407,46.3682C59.3145,46.4259 59.2779,46.4783 59.2326,46.5227C59.1862,46.5667 59.1321,46.6016 59.0729,46.6257C59.0113,46.6529 58.9446,46.667 58.8772,46.6669C58.7796,46.6662 58.6842,46.6377 58.6021,46.5848C58.52,46.5319 58.4547,46.4568 58.4137,46.3682C58.3879,46.308 58.3746,46.2432 58.3746,46.1776C58.3746,46.1121 58.3879,46.0473 58.4137,45.9871C58.4399,45.9294 58.4766,45.877 58.5218,45.8326C58.5682,45.7886 58.6223,45.7537 58.6815,45.7296C58.7486,45.7029 58.8205,45.6906 58.8927,45.6935H58.8772ZM58.8772,46.5639C58.9286,46.5642 58.9795,46.5537 59.0266,46.533C59.0709,46.5132 59.1111,46.4853 59.145,46.4506C59.2095,46.3803 59.2452,46.2884 59.2452,46.1931C59.2452,46.0977 59.2095,46.0059 59.145,45.9356C59.1112,45.9008 59.0709,45.8728 59.0266,45.8532C58.9795,45.8326 58.9286,45.8221 58.8772,45.8223C58.8259,45.8225 58.7751,45.833 58.7278,45.8532C58.6816,45.8721 58.6396,45.9002 58.6042,45.9356C58.5398,46.0059 58.5041,46.0977 58.5041,46.1931C58.5041,46.2884 58.5398,46.3803 58.6042,46.4506C58.6396,46.4859 58.6816,46.5139 58.7278,46.533C58.7798,46.5554 58.8361,46.566 58.8927,46.5639H58.8772ZM58.9081,45.951C58.9562,45.9487 59.0036,45.9633 59.042,45.9922C59.0578,46.0053 59.0702,46.0219 59.0783,46.0407C59.0863,46.0595 59.0898,46.08 59.0884,46.1004C59.0891,46.1175 59.0863,46.1346 59.0801,46.1505C59.0739,46.1665 59.0644,46.181 59.0523,46.1931C59.0225,46.2202 58.9844,46.2365 58.9442,46.2394L59.0935,46.4094H58.9751L58.836,46.2394H58.7897V46.4094H58.6918V45.9562L58.9081,45.951ZM58.7948,46.0386V46.1622H58.9081C58.9283,46.1682 58.9498,46.1682 58.9699,46.1622C58.9735,46.155 58.9754,46.1471 58.9754,46.139C58.9754,46.131 58.9735,46.123 58.9699,46.1158C58.9735,46.1087 58.9754,46.1007 58.9754,46.0927C58.9754,46.0846 58.9735,46.0767 58.9699,46.0695C58.9498,46.0635 58.9283,46.0635 58.9081,46.0695L58.7948,46.0386ZM53.1293,43.9475C53.1464,43.6577 53.2479,43.3792 53.4212,43.1463C53.5946,42.9134 53.8323,42.7363 54.105,42.6368C54.3778,42.5372 54.6737,42.5197 54.9563,42.5862C55.2389,42.6527 55.4959,42.8005 55.6956,43.0112C55.8953,43.2219 56.029,43.4865 56.0803,43.7722C56.1316,44.058 56.0981,44.3525 55.9841,44.6195C55.8701,44.8866 55.6805,45.1144 55.4387,45.275C55.1968,45.4356 54.9133,45.522 54.6229,45.5235C54.419,45.5261 54.2168,45.4865 54.0289,45.4071C53.841,45.3277 53.6716,45.2103 53.5313,45.0623C53.391,44.9142 53.2829,44.7388 53.2137,44.5469C53.1445,44.3551 53.1158,44.151 53.1293,43.9475V43.9475ZM16.9577,43.9475V41.4856H15.8864V42.083C15.7045,41.8489 15.4695,41.6615 15.2008,41.5361C14.9322,41.4107 14.6376,41.351 14.3413,41.362C13.6583,41.362 13.0033,41.6333 12.5203,42.1162C12.0374,42.5992 11.7661,43.2542 11.7661,43.9372C11.7661,44.6202 12.0374,45.2752 12.5203,45.7582C13.0033,46.2411 13.6583,46.5124 14.3413,46.5124C14.6376,46.5234 14.9322,46.4637 15.2008,46.3383C15.4695,46.2129 15.7045,46.0254 15.8864,45.7914V46.3888H16.9577V43.9475ZM12.9713,43.9475C12.9883,43.6577 13.0898,43.3792 13.2632,43.1463C13.4365,42.9134 13.6742,42.7363 13.947,42.6368C14.2197,42.5372 14.5156,42.5197 14.7982,42.5862C15.0808,42.6527 15.3378,42.8005 15.5375,43.0112C15.7373,43.2219 15.871,43.4865 15.9223,43.7722C15.9735,44.058 15.9401,44.3525 15.8261,44.6195C15.7121,44.8866 15.5225,45.1144 15.2806,45.275C15.0388,45.4356 14.7552,45.522 14.4649,45.5235C14.2601,45.5276 14.0567,45.489 13.8676,45.4102C13.6785,45.3315 13.5079,45.2143 13.3665,45.0661C13.2251,44.9179 13.116,44.742 13.0462,44.5494C12.9764,44.3568 12.9474,44.1519 12.961,43.9475H12.9713Z"-->
<!--        fill="#231F20"/>-->
    <path
        d="M38.1106,3.9648H21.8867V33.1215H38.1106V3.9648Z"
        fill="#FF5F00"/>
    <path
        d="M22.9168,18.5462C22.9138,15.7378 23.5498,12.9655 24.7768,10.4393C26.0038,7.9131 27.7894,5.6992 29.9986,3.9652C27.2633,1.8155 23.9783,0.4788 20.5192,0.1077C17.0601,-0.2633 13.5664,0.3463 10.4373,1.8669C7.3082,3.3875 4.6701,5.7578 2.8245,8.7068C0.9788,11.6558 0,15.0646 0,18.5436C0,22.0225 0.9788,25.4313 2.8245,28.3804C4.6701,31.3294 7.3082,33.6996 10.4373,35.2203C13.5664,36.7409 17.0601,37.3505 20.5192,36.9794C23.9783,36.6084 27.2633,35.2716 29.9986,33.1219C27.7901,31.3885 26.0049,29.1754 24.7779,26.6502C23.551,24.1249 22.9146,21.3537 22.9168,18.5462V18.5462Z"
        fill="#EB001B"/>
    <path
        d="M60,18.5463C59.9999,22.0256 59.0209,25.4346 57.1749,28.3837C55.3289,31.3328 52.6904,33.703 49.5609,35.2234C46.4315,36.7438 42.9374,37.3531 39.4781,36.9815C36.0188,36.6099 32.7338,35.2725 29.9986,33.1221C32.2063,31.3872 33.991,29.1735 35.2183,26.6481C36.4455,24.1227 37.0832,21.3516 37.0832,18.5438C37.0832,15.736 36.4455,12.9648 35.2183,10.4395C33.991,7.9141 32.2063,5.7004 29.9986,3.9654C32.7338,1.8151 36.0188,0.4777 39.4781,0.1061C42.9374,-0.2655 46.4315,0.3437 49.5609,1.8641C52.6904,3.3845 55.3289,5.7547 57.1749,8.7038C59.0209,11.653 59.9999,15.062 60,18.5412V18.5463Z"
        fill="#F79E1B"/>
    <path
        d="M58.2283,30.0316V29.4342H58.4703V29.3105H57.8574V29.4342H58.1201V30.0316H58.2283ZM59.418,30.0316V29.3105H59.2326L59.0163,29.8256L58.8,29.3105H58.6351V30.0316H58.769V29.4908L58.9699,29.9595H59.109L59.3098,29.4908V30.0368L59.418,30.0316Z"
        fill="#F79E1B"/>
</svg>
