<svg width="94" height="94" viewBox="0 0 94 94" fill="none" xmlns="http://www.w3.org/2000/svg">
<g filter="url(#filter0_d)">
<path d="M46.7691 65.4494H46.5565C32.806 65.4139 23.5917 62.5373 21.678 60.7616C19.658 58.9504 17 49.5394 17 35.7247C17 21.91 19.658 12.4989 21.678 10.6878C23.5917 8.87658 32.806 6.03551 46.5565 6H46.7691C60.5196 6.03551 69.7339 8.9121 71.6476 10.6878C73.6677 12.4989 76.3256 21.91 76.3256 35.7247C76.3256 49.5394 73.6677 58.9504 71.6476 60.7616C69.7339 62.5728 60.5196 65.4494 46.7691 65.4494Z" fill="white"/>
</g>
<path d="M60.3424 37.5005L59.2084 23.6147H52.3685C52.3685 23.6147 47.1589 34.3043 46.6982 35.7603H46.6274L41.1342 23.6147H34.2944L33.1604 35.6538L32.2035 47.8704H36.3853C38.1928 47.8704 38.9015 47.0891 39.0787 45.1714C39.0787 45.1714 39.7875 33.9846 39.6812 32.351H39.7521L39.9647 33.0968C40.2482 34.0912 44.1466 43.6443 44.1466 43.6443H49.2853C49.2853 43.6443 53.1837 34.2332 53.6798 32.351H53.7507L54.3532 45.1714C54.4949 47.0891 55.2391 47.8704 57.0111 47.8704H61.193L60.3424 37.5005Z" fill="#0361F0"/>
<defs>
<filter id="filter0_d" x="0" y="0" width="93.3256" height="93.4494" filterUnits="userSpaceOnUse" color-interpolation-filters="sRGB">
<feFlood flood-opacity="0" result="BackgroundImageFix"/>
<feColorMatrix in="SourceAlpha" type="matrix" values="0 0 0 0 0 0 0 0 0 0 0 0 0 0 0 0 0 0 127 0"/>
<feOffset dy="11"/>
<feGaussianBlur stdDeviation="8.5"/>
<feColorMatrix type="matrix" values="0 0 0 0 0 0 0 0 0 0.218144 0 0 0 0 0.55 0 0 0 0.15 0"/>
<feBlend mode="normal" in2="BackgroundImageFix" result="effect1_dropShadow"/>
<feBlend mode="normal" in="SourceGraphic" in2="effect1_dropShadow" result="shape"/>
</filter>
</defs>
</svg>
