<svg width="60" height="12" viewBox="0 0 60 12" fill="none" xmlns="http://www.w3.org/2000/svg">
<path d="M11.5327 3.92294C12.1796 3.33752 12.9703 3.05078 13.9167 3.05078C14.8751 3.05078 15.6658 3.33752 16.3127 3.92294C16.9596 4.49642 17.2831 5.24911 17.2831 6.16906C17.2831 7.07706 16.9596 7.82975 16.3127 8.40323C15.6778 8.96476 14.8871 9.2515 13.9287 9.2515C12.9703 9.2515 12.1796 8.96476 11.5327 8.40323C10.8977 7.82975 10.5743 7.07706 10.5743 6.16906C10.5743 5.24911 10.8977 4.49642 11.5327 3.92294ZM13.9287 7.5908C14.6834 7.5908 15.2824 7.02927 15.2824 6.16906C15.2824 5.2969 14.6834 4.71147 13.9287 4.71147C13.1739 4.71147 12.5749 5.2969 12.5749 6.16906C12.5749 7.02927 13.1859 7.5908 13.9287 7.5908Z" fill="white"/>
<path d="M21.7995 3.05078C20.9609 3.05078 20.326 3.39726 19.9187 4.07826H19.8947L19.9067 3.93489V3.85126C19.9067 3.4331 19.6192 3.1822 19.0801 3.1822H17.307V4.85484H17.7503C17.93 4.85484 18.0019 4.93848 18.0019 5.10574V9.10813H20.0025V6.4797C20.0025 6.18101 20.0385 5.91817 20.1223 5.70311C20.314 5.14158 20.7094 4.85484 21.2964 4.85484C21.7396 4.85484 21.9553 5.11769 21.9553 5.63143V8.27181C21.9553 8.85724 22.2069 9.10813 22.7939 9.10813H23.944V5.27301C23.944 3.77957 23.2252 3.05078 21.7995 3.05078Z" fill="white"/>
<path d="M25.3696 0.890625V2.50353H27.0468V0.890625H25.3696ZM26.3759 3.18453H24.531V4.85717H24.9743C25.142 4.85717 25.2258 4.9408 25.2258 5.10807V8.27414C25.2258 8.85956 25.4774 9.11046 26.0644 9.11046H27.2145V4.0328C27.2145 3.43543 26.9629 3.18453 26.3759 3.18453Z" fill="white"/>
<path d="M28.76 3.93489C29.323 3.34947 30.0778 3.05078 31.0122 3.05078C31.8628 3.05078 32.5336 3.31362 33.0248 3.85126C33.516 4.37695 33.7676 5.0699 33.7676 5.90622C33.7676 6.04959 33.7556 6.25269 33.7197 6.52748H29.9699C30.1137 7.22043 30.6767 7.5908 31.3596 7.5908C31.8508 7.5908 32.4019 7.39965 33.0009 6.99343L33.7436 8.39128C33.1087 8.92892 32.1263 9.2515 31.2039 9.2515C30.1975 9.2515 29.4069 8.94086 28.8199 8.33154C28.2328 7.72223 27.9453 6.98149 27.9453 6.14517C27.9214 5.26106 28.1969 4.52032 28.76 3.93489ZM31.7909 5.39248C31.7909 4.89069 31.4674 4.50837 30.9762 4.50837C30.4731 4.50837 30.1496 4.80705 30.0178 5.39248H31.7909Z" fill="white"/>
<path d="M34.4744 3.29181H35.5167V3.80555C35.5167 4.04449 35.4807 4.2476 35.4807 4.2476H35.5047C35.8761 3.5427 36.6188 3.14844 37.4694 3.14844C39.0507 3.14844 40.0331 4.39097 40.0331 6.19503C40.0331 8.04688 38.919 9.24162 37.3855 9.24162C36.6428 9.24162 35.9719 8.87125 35.5766 8.24999H35.5526C35.5526 8.24999 35.6005 8.45309 35.6005 8.75178V11.4041H34.4864V3.29181H34.4744ZM37.2178 8.28583C38.1403 8.28583 38.907 7.53314 38.907 6.21893C38.907 4.9525 38.2241 4.14007 37.2537 4.14007C36.3792 4.14007 35.5646 4.76134 35.5646 6.23087C35.5646 7.25835 36.1396 8.28583 37.2178 8.28583Z" fill="white"/>
<path d="M43.711 3.14844C45.4601 3.14844 46.8618 4.42681 46.8618 6.18308C46.8618 7.9513 45.4481 9.24162 43.723 9.24162C41.9739 9.24162 40.5723 7.9513 40.5723 6.18308C40.5723 4.42681 41.9859 3.14844 43.711 3.14844ZM43.723 8.28583C44.8252 8.28583 45.7356 7.41367 45.7356 6.19503C45.7356 4.98834 44.8252 4.12813 43.723 4.12813C42.6089 4.12813 41.7104 4.98834 41.7104 6.19503C41.7223 7.41367 42.6208 8.28583 43.723 8.28583Z" fill="white"/>
<path d="M47.7363 0.984375H48.8864V2.10743H47.7363V0.984375ZM47.7603 3.29023H48.8744V9.12058H47.7603V3.29023Z" fill="white"/>
<path d="M50.1323 3.29181H51.2225V4.08034C51.2225 4.31929 51.1865 4.52239 51.1865 4.52239H51.2105C51.4261 4.0206 52.1449 3.14844 53.4268 3.14844C54.8045 3.14844 55.4275 3.90113 55.4275 5.38261V9.11021H54.3133V5.6335C54.3133 4.82108 54.1576 4.17592 53.2112 4.17592C52.0731 4.17592 51.2584 5.11976 51.2584 6.31451V9.11021H50.1443V3.29181H50.1323Z" fill="white"/>
<path d="M56.877 4.2601H56.1103V3.3521H56.901V1.69141H58.0032V3.3521H59.4168V4.2601H58.0032V6.86465C58.0032 8.02355 58.8178 8.17886 59.2491 8.17886C59.3329 8.17886 59.4048 8.17886 59.5126 8.15497V9.14661C59.4168 9.15855 59.297 9.18245 59.1173 9.18245C58.3626 9.18245 56.877 8.9435 56.877 6.99607V4.2601Z" fill="white"/>
<path d="M9.93936 5.59791L9.556 0.890625H7.2199C7.2199 0.890625 5.43488 4.52264 5.29112 5.01249H5.26716L3.39827 0.890625H1.06217L0.678807 4.97665L0.355347 9.1224H1.78097C2.39195 9.1224 2.64353 8.85956 2.69145 8.2144C2.69145 8.2144 2.93105 4.41512 2.89511 3.86554H2.91907L2.99095 4.11643C3.08679 4.45096 4.41657 7.68871 4.41657 7.68871H6.16566C6.16566 7.68871 7.49544 4.49875 7.66316 3.86554H7.68712L7.89078 8.2144C7.9387 8.85956 8.19028 9.1224 8.80126 9.1224H10.2269L9.93936 5.59791Z" fill="white"/>
</svg>
