<svg width="25" height="21" viewBox="0 0 25 21" fill="none" xmlns="http://www.w3.org/2000/svg">
<path d="M1.4375 3.7492H14.7236C14.9176 4.29735 15.2767 4.7719 15.7515 5.10754C16.2264 5.44318 16.7935 5.6234 17.375 5.6234C17.9565 5.6234 18.5236 5.44318 18.9985 5.10754C19.4733 4.7719 19.8324 4.29735 20.0264 3.7492H23.9375C24.1861 3.7492 24.4246 3.65043 24.6004 3.47461C24.7762 3.2988 24.875 3.06034 24.875 2.8117C24.875 2.56306 24.7762 2.3246 24.6004 2.14879C24.4246 1.97297 24.1861 1.8742 23.9375 1.8742H20.0264C19.8324 1.32605 19.4733 0.851495 18.9985 0.515858C18.5236 0.180221 17.9565 0 17.375 0C16.7935 0 16.2264 0.180221 15.7515 0.515858C15.2767 0.851495 14.9176 1.32605 14.7236 1.8742H1.4375C1.18886 1.8742 0.950403 1.97297 0.774587 2.14879C0.598772 2.3246 0.5 2.56306 0.5 2.8117C0.5 3.06034 0.598772 3.2988 0.774587 3.47461C0.950403 3.65043 1.18886 3.7492 1.4375 3.7492ZM23.9375 16.8742H20.0264C19.8324 16.326 19.4733 15.8515 18.9985 15.5159C18.5236 15.1802 17.9565 15 17.375 15C16.7935 15 16.2264 15.1802 15.7515 15.5159C15.2767 15.8515 14.9176 16.326 14.7236 16.8742H1.4375C1.18886 16.8742 0.950403 16.973 0.774587 17.1488C0.598772 17.3246 0.5 17.5631 0.5 17.8117C0.5 18.0603 0.598772 18.2988 0.774587 18.4746C0.950403 18.6504 1.18886 18.7492 1.4375 18.7492H14.7236C14.9176 19.2973 15.2767 19.7719 15.7515 20.1075C16.2264 20.4432 16.7935 20.6234 17.375 20.6234C17.9565 20.6234 18.5236 20.4432 18.9985 20.1075C19.4733 19.7719 19.8324 19.2973 20.0264 18.7492H23.9375C24.1861 18.7492 24.4246 18.6504 24.6004 18.4746C24.7762 18.2988 24.875 18.0603 24.875 17.8117C24.875 17.5631 24.7762 17.3246 24.6004 17.1488C24.4246 16.973 24.1861 16.8742 23.9375 16.8742ZM23.9375 9.3742H10.6514C10.4574 8.82605 10.0983 8.3515 9.62345 8.01586C9.14864 7.68022 8.58146 7.5 8 7.5C7.41854 7.5 6.85136 7.68022 6.37655 8.01586C5.90173 8.3515 5.54262 8.82605 5.34863 9.3742H1.4375C1.18886 9.3742 0.950403 9.47297 0.774587 9.64879C0.598772 9.8246 0.5 10.0631 0.5 10.3117C0.5 10.5603 0.598772 10.7988 0.774587 10.9746C0.950403 11.1504 1.18886 11.2492 1.4375 11.2492H5.34863C5.54262 11.7973 5.90173 12.2719 6.37655 12.6075C6.85136 12.9432 7.41854 13.1234 8 13.1234C8.58146 13.1234 9.14864 12.9432 9.62345 12.6075C10.0983 12.2719 10.4574 11.7973 10.6514 11.2492H23.9375C24.1861 11.2492 24.4246 11.1504 24.6004 10.9746C24.7762 10.7988 24.875 10.5603 24.875 10.3117C24.875 10.0631 24.7762 9.8246 24.6004 9.64879C24.4246 9.47297 24.1861 9.3742 23.9375 9.3742Z" fill="#0361F0"/>
</svg>
