<svg width="16" height="16" viewBox="0 0 16 16" fill="none" xmlns="http://www.w3.org/2000/svg">
<rect width="16" height="16" rx="5" fill="#0361F0"/>
<path d="M11.7846 8.12181L11.4712 4H9.5814C9.5814 4 8.14198 7.17306 8.01469 7.60527H7.9951L6.47736 4H4.57772L4.26438 7.57365L4 11.2H5.15545C5.65483 11.2 5.85067 10.9681 5.88984 10.3988C5.88984 10.3988 6.08568 7.07818 6.0563 6.59326H6.07589L6.13464 6.81464C6.21297 7.10981 7.29009 9.94553 7.29009 9.94553H8.70991C8.70991 9.94553 9.78703 7.15198 9.92411 6.59326H9.9437L10.1102 10.3988C10.1493 10.9681 10.355 11.2 10.8446 11.2H12L11.7846 8.12181Z" fill="white"/>
</svg>
