<svg width="34" height="47" viewBox="0 0 34 47" fill="none" xmlns="http://www.w3.org/2000/svg">
<path d="M25.88 45.1621L25.8795 45.1606L20.6866 26.972L20.6866 26.9718L17.9742 17.4219L17.9742 17.4219L17.9735 17.4194C17.8676 17.07 17.5311 16.9125 17.226 16.9125C16.9209 16.9125 16.5843 17.07 16.4784 17.4194L16.4784 17.4194L16.4777 17.4219L14.2884 25.1329L14.2884 25.1332L9.41902 42.1731L9.41325 42.1933V42.2144V42.2144V42.2145V42.2145V42.2146V42.2147V42.2147V42.2148V42.2149V42.2149V42.215V42.215V42.2151V42.2152V42.2152V42.2153V42.2153V42.2154V42.2155V42.2155V42.2156V42.2156V42.2157V42.2157V42.2158V42.2159V42.2159V42.216V42.216V42.2161V42.2161V42.2162V42.2163V42.2163V42.2164V42.2164V42.2165V42.2165V42.2166V42.2166V42.2167V42.2168V42.2168V42.2169V42.2169V42.217V42.217V42.2171V42.2171V42.2172V42.2172V42.2173V42.2173V42.2174V42.2174V42.2175V42.2175V42.2176V42.2176V42.2177V42.2177V42.2178V42.2178V42.2179V42.2179V42.218V42.218V42.2181V42.2181V42.2182V42.2182V42.2183V42.2183V42.2184V42.2184V42.2185V42.2185V42.2186V42.2186V42.2187V42.2187V42.2188V42.2188V42.2189V42.2189V42.219V42.219V42.2191V42.2191V42.2191V42.2192V42.2192V42.2193V42.2193V42.2194V42.2194V42.2195V42.2195V42.2196V42.2196V42.2196V42.2197V42.2197V42.2198V42.2198V42.2199V42.2199V42.2199V42.22V42.22V42.2201V42.2201V42.2202V42.2202V42.2203V42.2203V42.2203V42.2204L8.57241 45.1605L8.57236 45.1605L8.57139 45.1643C8.46674 45.5698 8.68714 46.0074 9.11335 46.1175C9.51567 46.2363 9.94976 45.9968 10.0584 45.5921C10.0585 45.5917 10.0586 45.5913 10.0587 45.5909L10.8116 42.9268L21.9693 37.1047L24.3935 45.592C24.3936 45.5923 24.3937 45.5926 24.3937 45.5928C24.4886 45.9371 24.7993 46.1499 25.1367 46.1499C25.2004 46.1499 25.2784 46.137 25.3406 46.117C25.7634 46.0065 25.992 45.5706 25.88 45.1621ZM15.9467 24.9207L17.2206 20.4528L18.8011 25.9964L15.9467 24.9207ZM14.5623 29.7748L15.5295 26.4177L18.245 27.436L14.5623 29.7748ZM20.748 36.0068L11.3992 40.8742L13.7567 32.6077L20.748 36.0068ZM21.2438 34.5284L14.8534 31.4177L19.5096 28.4709L21.2438 34.5284Z" fill="#0361F0" stroke="#0361F0" stroke-width="0.3"/>
<path d="M12.1411 21.1846L12.142 21.1858C12.2957 21.3796 12.5231 21.4798 12.7502 21.4798C12.9161 21.4798 13.0843 21.4269 13.2207 21.3181C13.5549 21.0567 13.6148 20.5694 13.354 20.2348C12.6788 19.366 12.3232 18.3306 12.3232 17.2261C12.3232 14.5211 14.5209 12.3234 17.226 12.3234C19.931 12.3234 22.1287 14.5211 22.1287 17.2261C22.1287 18.1579 21.867 19.0681 21.3704 19.847C21.1419 20.2034 21.2499 20.6847 21.611 20.9121C21.9719 21.1393 22.4472 21.0326 22.675 20.6714C23.3266 19.6444 23.6744 18.4517 23.6744 17.2261C23.6744 13.6707 20.7871 10.7777 17.2314 10.7777C13.6758 10.7777 10.783 13.6706 10.783 17.2261C10.783 18.6723 11.2524 20.0421 12.1411 21.1846Z" fill="#0361F0" stroke="#0361F0" stroke-width="0.3"/>
<path d="M11.1376 26.7137L11.1387 26.7144C11.2657 26.7946 11.4122 26.8346 11.5531 26.8346C11.8082 26.8346 12.052 26.7074 12.2083 26.4925L12.2085 26.4927L12.2139 26.4842C12.4404 26.1244 12.3407 25.6495 11.9798 25.4156L11.9795 25.4154C9.18031 23.6094 7.50774 20.5507 7.50774 17.2262C7.50774 11.8627 11.8732 7.49722 17.2368 7.49722C22.6003 7.49722 26.9658 11.8627 26.9658 17.2262C26.9658 20.5508 25.2932 23.6094 22.4942 25.4099L22.4937 25.4102C22.1328 25.6441 22.0331 26.119 22.2596 26.4788C22.4883 26.8419 22.9705 26.9412 23.325 26.7138L23.3253 26.7136C26.5711 24.6208 28.506 21.0791 28.506 17.2262C28.506 11.0068 23.4508 5.95156 17.2314 5.95156C11.0119 5.95156 5.95669 11.0068 5.95669 17.2262C5.95669 21.079 7.89158 24.6262 11.1376 26.7137Z" fill="#0361F0" stroke="#0361F0" stroke-width="0.3"/>
<path d="M24.1446 30.348L24.1438 30.3484C23.7706 30.5483 23.6219 31.0156 23.8233 31.3922C23.9635 31.6588 24.2314 31.8062 24.5058 31.8062C24.6304 31.8062 24.7494 31.7718 24.8555 31.7218L24.8555 31.722L24.8616 31.7188C30.2548 28.8725 33.6019 23.3158 33.6019 17.226C33.6019 8.197 26.2549 0.85 17.226 0.85C8.197 0.85 0.85 8.197 0.85 17.226C0.85 23.3102 4.19156 28.8614 9.57366 31.7077C9.95029 31.9093 10.4177 31.7605 10.6176 31.3873C10.8194 31.0106 10.6707 30.543 10.2974 30.343L10.2967 30.3427C5.42247 27.7641 2.39566 22.7354 2.39566 17.226C2.39566 9.0476 9.05285 2.39566 17.2314 2.39566C25.4098 2.39566 32.0617 9.04753 32.0617 17.226C32.0617 22.7407 29.0296 27.7694 24.1446 30.348Z" fill="#0361F0" stroke="#0361F0" stroke-width="0.3"/>
</svg>
