<svg width="24" height="24" viewBox="0 0 19 24" fill="none" xmlns="http://www.w3.org/2000/svg">
<path d="M12.7665 20C12.5689 20 12.3995 19.9365 12.2583 19.8094C12.1312 19.6682 12.0183 19.52 11.9195 19.3647L5.03707 9.00933V19.4282C5.03707 19.5835 4.9806 19.7176 4.86766 19.8306C4.75472 19.9435 4.6206 20 4.4653 20H3.59706C3.44177 20 3.30765 19.9435 3.1947 19.8306C3.08176 19.7176 3.02529 19.5835 3.02529 19.4282V5.74813C3.02529 5.59283 3.08176 5.45872 3.1947 5.34577C3.30765 5.23283 3.44177 5.17636 3.59706 5.17636H4.33824C4.53589 5.17636 4.69824 5.24695 4.8253 5.38813C4.96648 5.51519 5.08648 5.65636 5.18531 5.81166L12.0677 16.167V5.74813C12.0677 5.59283 12.1242 5.45872 12.2371 5.34577C12.3501 5.23283 12.4842 5.17636 12.6395 5.17636H13.5077C13.663 5.17636 13.7971 5.23283 13.9101 5.34577C14.023 5.45872 14.0795 5.59283 14.0795 5.74813V19.4282C14.0795 19.5835 14.023 19.7176 13.9101 19.8306C13.7971 19.9435 13.663 20 13.5077 20H12.7665Z" fill="#0B3275"/>
<rect y="9.63086" width="17.6546" height="1.7833" rx="0.245203" fill="#0B3275"/>
<rect y="12.9824" width="17.6546" height="1.7833" rx="0.245203" fill="#0B3275"/>
</svg>
