<svg xmlns="http://www.w3.org/2000/svg"
    width="131dp"
    height="51dp"
    viewBox="0 0 131 51">
    <path
        d="M35.88,47.612H100.62C103.635,47.612 106.08,45.548 106.08,43.002C106.08,40.456 103.635,38.392 100.62,38.392C100.62,38.392 95.94,36.328 95.94,33.782C95.94,31.236 99.022,29.172 102.824,29.172H110.76C113.775,29.172 116.22,27.108 116.22,24.562C116.22,22.016 113.775,19.952 110.76,19.952H93.6C96.616,19.952 99.06,17.888 99.06,15.342C99.06,12.796 96.616,10.732 93.6,10.732H124.8C127.815,10.732 130.26,8.668 130.26,6.122C130.26,3.576 127.815,1.512 124.8,1.512H48.36C45.345,1.512 42.9,3.576 42.9,6.122C42.9,8.668 45.345,10.732 48.36,10.732H17.16C14.144,10.732 11.7,12.796 11.7,15.342C11.7,17.888 14.144,19.952 17.16,19.952H36.66C39.675,19.952 42.12,22.016 42.12,24.562C42.12,27.108 39.675,29.172 36.66,29.172H5.46C2.445,29.172 0,31.236 0,33.782C0,36.328 2.445,38.392 5.46,38.392H35.88C32.864,38.392 30.42,40.456 30.42,43.002C30.42,45.548 32.864,47.612 35.88,47.612ZM119.34,24.563C119.34,27.109 121.785,29.173 124.8,29.173C127.815,29.173 130.26,27.109 130.26,24.563C130.26,22.017 127.815,19.953 124.8,19.953C121.785,19.953 119.34,22.017 119.34,24.563Z"
        stroke-opacity="0.1"
        fill="#0361F0"
        fill-rule="evenodd"
        fill-opacity="0.1"/>
    <path
        d="M94.341,33.019C94.341,38.224 90.105,42.46 84.901,42.46H48.487C41.05,42.46 35,36.41 35,28.973C35,21.537 41.05,15.487 48.487,15.487C49.232,15.487 49.835,14.882 49.835,14.138C49.835,6.877 58.204,2 66.019,2C75.687,2 83.552,10.47 83.552,20.881V22.23C83.552,22.975 84.155,23.579 84.901,23.579C90.105,23.579 94.341,27.815 94.341,33.019Z"
        fill="#ffffff"/>
    <path
        d="M85.067,36.467C85.067,40.068 82.135,43 78.533,43H53.333C48.187,43 44,38.813 44,33.667C44,28.52 48.187,24.333 53.333,24.333C53.849,24.333 54.267,23.915 54.267,23.4C54.267,18.375 60.058,15 65.467,15C72.157,15 77.6,20.861 77.6,28.067V29C77.6,29.515 78.017,29.933 78.533,29.933C82.135,29.933 85.067,32.865 85.067,36.467Z"
        stroke-opacity="0.67"
        fill="#E1ECFC"
        fill-opacity="0.67"/>
    <path
        d="M84,43.59H78.872V41.026H84C88.947,41.026 92.974,36.999 92.974,32.051C92.974,27.104 88.947,23.077 84,23.077C83.291,23.077 82.718,22.503 82.718,21.795V20.513C82.718,10.615 75.241,2.564 66.051,2.564C58.622,2.564 50.667,7.2 50.667,14.103C50.667,14.81 50.094,15.385 49.385,15.385C42.315,15.385 36.564,21.136 36.564,28.205C36.564,35.274 42.315,41.026 49.385,41.026H50.667V43.59H49.385C40.901,43.59 34,36.688 34,28.205C34,20.132 40.25,13.491 48.167,12.868C48.997,4.885 57.835,0 66.051,0C76.655,0 85.282,9.203 85.282,20.513V20.583C91.044,21.223 95.538,26.122 95.538,32.051C95.538,38.413 90.363,43.59 84,43.59Z"
        fill="#0361F0"/>
    <path
        d="M77.576,51H77.604C78.375,51 79,50.376 79,49.611C79,49.277 78.883,48.971 78.686,48.731L66.715,26.674C66.225,25.775 64.747,25.775 64.257,26.674L52.167,48.945C51.934,49.377 51.945,49.9 52.197,50.321C52.448,50.741 52.902,51 53.396,51H77.576Z"
        fill="#F9FBFD"/>
    <path
        d="M76.707,50H76.682H54.292C53.835,50 53.415,49.762 53.182,49.375C52.949,48.988 52.939,48.507 53.155,48.11L64.349,27.62C64.803,26.793 66.171,26.793 66.624,27.62L77.709,47.913C77.891,48.133 78,48.415 78,48.722C78,49.426 77.421,50 76.707,50ZM57,47H74L65.499,31L57,47Z"
        fill="#ECAB03"
        fill-rule="evenodd"/>
    <path
        d="M64,40.41C64,41.118 64.573,41.692 65.282,41.692C65.991,41.692 66.564,41.118 66.564,40.41V35.282C66.564,34.574 65.991,34 65.282,34C64.573,34 64,34.574 64,35.282V40.41Z"
        fill="#ECAB03"/>
    <path
        d="M64.372,45.167C64.614,45.399 64.949,45.539 65.282,45.539C65.628,45.539 65.949,45.399 66.192,45.167C66.424,44.923 66.564,44.603 66.564,44.256C66.564,43.923 66.424,43.59 66.192,43.346C65.718,42.872 64.859,42.872 64.372,43.346C64.14,43.59 64,43.923 64,44.256C64,44.603 64.14,44.923 64.372,45.167Z"
        fill="#ECAB03"/>
</svg>
