<svg width="18" height="19" viewBox="0 0 18 19" fill="none" xmlns="http://www.w3.org/2000/svg">
<path d="M14.5385 0H3.46153C2.91061 0 2.38244 0.214475 1.99285 0.596173C1.60342 0.978023 1.38461 1.49573 1.38461 2.03571V3.39286H0.692298C0.444891 3.39286 0.216346 3.52221 0.0927198 3.73214C-0.0309066 3.94208 -0.0309066 4.20078 0.0927198 4.41071C0.216346 4.62065 0.444899 4.75 0.692298 4.75H3.46153C3.70894 4.75 3.93748 4.87935 4.06111 5.08929C4.18474 5.29922 4.18474 5.55793 4.06111 5.76786C3.93748 5.97779 3.70893 6.10714 3.46153 6.10714H1.38461V8.14286H0.692298C0.444891 8.14286 0.216346 8.27221 0.0927198 8.48214C-0.0309066 8.69208 -0.0309066 8.95078 0.0927198 9.16071C0.216346 9.37065 0.444899 9.5 0.692298 9.5H3.46153C3.70894 9.5 3.93748 9.62935 4.06111 9.83929C4.18474 10.0492 4.18474 10.3079 4.06111 10.5179C3.93748 10.7278 3.70893 10.8571 3.46153 10.8571H1.38461V12.8929H0.692298C0.444891 12.8929 0.216346 13.0222 0.0927198 13.2321C-0.0309066 13.4421 -0.0309066 13.7008 0.0927198 13.9107C0.216346 14.1206 0.444899 14.25 0.692298 14.25H3.46153C3.70894 14.25 3.93748 14.3794 4.06111 14.5893C4.18474 14.7992 4.18474 15.0579 4.06111 15.2679C3.93748 15.4778 3.70893 15.6071 3.46153 15.6071H1.38461V16.9643C1.38461 17.5043 1.60342 18.022 1.99285 18.4038C2.38243 18.7855 2.91061 19 3.46153 19H14.5385C15.4565 19 16.3369 18.6425 16.9861 18.0062C17.6353 17.3699 18 16.507 18 15.6071V3.39286C18 2.49299 17.6353 1.63008 16.9861 0.993778C16.3369 0.357471 15.4565 0 14.5385 0ZM10.3846 4.75C10.9355 4.75 11.4637 4.96448 11.8533 5.34617C12.2427 5.72802 12.4615 6.24573 12.4615 6.78571C12.4615 7.3257 12.2427 7.84339 11.8533 8.22526C11.4637 8.60695 10.9355 8.82143 10.3846 8.82143C9.83369 8.82143 9.30552 8.60695 8.91593 8.22526C8.5265 7.84341 8.30769 7.3257 8.30769 6.78571C8.30769 6.24573 8.5265 5.72803 8.91593 5.34617C9.30551 4.96448 9.83369 4.75 10.3846 4.75ZM14.5385 13.5714C14.5385 13.7514 14.4655 13.924 14.3357 14.0513C14.2059 14.1785 14.0297 14.25 13.8462 14.25H6.92307C6.73949 14.25 6.56332 14.1785 6.43351 14.0513C6.3037 13.924 6.23076 13.7514 6.23076 13.5714V12.8929C6.23076 12.173 6.52252 11.4826 7.04191 10.9736C7.56114 10.4645 8.26552 10.1786 9 10.1786H11.7692C12.5037 10.1786 13.2081 10.4645 13.7273 10.9736C14.2467 11.4826 14.5385 12.173 14.5385 12.8929V13.5714Z" fill="#0361F0"/>
</svg>
