<svg width="31" height="30" viewBox="0 0 31 30" fill="none" xmlns="http://www.w3.org/2000/svg">
    <path
        d="M15.1829 30H15.0745C8.0614 29.9821 3.36193 28.5305 2.38588 27.6344C1.35562 26.7204 0 21.9892 0 15C0 8.02867 1.35562 3.27957 2.38588 2.36559C3.36193 1.46953 8.07947 0.0179211 15.0745 0H15.1829C22.196 0.0179211 26.8954 1.46953 27.8715 2.36559C28.9017 3.27957 30.2574 8.02867 30.2574 15C30.2574 21.9713 28.9017 26.7204 27.8715 27.6344C26.8954 28.5484 22.196 30 15.1829 30Z"
        fill="white" />
    <path
        d="M22.1056 15.8958L21.5272 8.88867H18.0387C18.0387 8.88867 15.3817 14.2829 15.1468 15.0177H15.1106L12.309 8.88867H8.80249L8.22409 14.9639L7.73607 21.1288H9.8689C10.7907 21.1288 11.1522 20.7346 11.2245 19.7668C11.2245 19.7668 11.586 14.1216 11.5318 13.2973H11.5679L11.6764 13.6736C11.821 14.1754 13.8092 18.9962 13.8092 18.9962H16.4301C16.4301 18.9962 18.4183 14.2471 18.6714 13.2973H18.7075L19.0148 19.7668C19.0871 20.7346 19.4667 21.1288 20.3704 21.1288H22.5032L22.1056 15.8958Z"
        fill="#98A9C5" />
</svg>
