<svg width="28" height="32" viewBox="0 0 28 32" fill="none" xmlns="http://www.w3.org/2000/svg">
    <path
        d="M12.2028 8.66426L12.2029 8.66398L12.1923 8.66293C11.7914 8.62284 11.3964 8.74472 11.0496 9.01441L11.0398 9.02205L11.031 9.03086C11.0342 9.02764 11.0305 9.03082 10.9999 9.0568L10.9968 9.05943C10.9705 9.08177 10.9342 9.11289 10.8907 9.15173C10.8036 9.2293 10.6873 9.33776 10.5618 9.46994C10.3149 9.7301 10.0216 10.0934 9.85228 10.5033C9.74972 10.7091 9.24716 11.7562 9.32176 13.3754C9.39735 15.0161 10.0645 17.2228 12.2993 19.7195L12.299 19.7197L12.3069 19.7275L12.4061 19.8267C15.1656 22.9334 17.7696 23.5792 19.4483 23.5792C20.4057 23.5792 21.0821 23.3811 21.2797 23.2902C21.7015 23.159 22.096 22.9149 22.3817 22.7039C22.5274 22.5963 22.6481 22.4949 22.7334 22.417C22.7759 22.3782 22.8111 22.3439 22.8369 22.3165C22.8495 22.3032 22.8623 22.289 22.8731 22.2752C22.876 22.2715 22.8798 22.2666 22.8838 22.2608C23.2113 21.9265 23.3724 21.5732 23.3724 21.1723C23.3724 20.6494 23.0238 20.2594 22.9388 20.1731L21.2182 18.246L21.2176 18.2454C20.8792 17.8693 20.521 17.7335 20.2492 17.7309C19.9835 17.7121 19.7596 17.784 19.6022 17.8652C19.5229 17.9062 19.4577 17.9509 19.41 17.9908C19.3865 18.0104 19.3643 18.0313 19.346 18.0524C19.3409 18.0583 19.3349 18.0655 19.3289 18.0738L18.2562 18.9319C17.324 18.4005 16.4825 17.7115 15.7012 16.8325L15.7015 16.8323L15.6931 16.824L15.6283 16.7592C14.8478 15.8802 14.2584 14.9745 13.8559 13.9815L14.8633 13.0056L14.9241 12.9466V12.9233C14.926 12.921 14.928 12.9184 14.9301 12.9157C14.9605 12.8769 15.0046 12.8195 15.0492 12.7476C15.1379 12.6047 15.2345 12.3954 15.2345 12.1378C15.2345 11.8979 15.1912 11.5343 14.8386 11.1423C14.8385 11.1422 14.8384 11.142 14.8383 11.1419L13.1232 9.22096C13.0243 9.08031 12.7092 8.74216 12.2028 8.66426ZM12.6207 13.6137L12.5287 13.7012L12.5689 13.8217L12.6378 14.0286L12.6376 14.0287L12.6412 14.0379C13.1332 15.3031 13.8361 16.4271 14.7824 17.4785L14.7822 17.4787L14.7896 17.4861L14.8549 17.5514C15.7992 18.5998 16.8508 19.4413 18.0444 20.0732L18.0443 20.0732L18.0485 20.0753L18.2554 20.1788L18.3715 20.2368L18.4718 20.1543L20.0184 18.8827C20.0206 18.8812 20.024 18.8789 20.0284 18.8761C20.0388 18.8694 20.0541 18.8602 20.0722 18.8512C20.1126 18.831 20.1488 18.8206 20.1724 18.8206C20.1819 18.8206 20.2083 18.8246 20.2456 18.8459C20.2814 18.8664 20.3213 18.8996 20.3572 18.9475L20.3624 18.9544L20.3682 18.9608L22.1268 20.9263L22.1266 20.9265L22.1336 20.9335C22.1335 20.9334 22.1335 20.9334 22.1336 20.9336L22.1337 20.9336L22.1339 20.9338L22.1344 20.9343L22.1362 20.9363C22.137 20.9372 22.1381 20.9384 22.1393 20.9398C22.1419 20.9427 22.1453 20.9465 22.1492 20.9512C22.1608 20.9652 22.1767 20.9858 22.1925 21.011C22.2261 21.0649 22.2483 21.122 22.2483 21.1723C22.2483 21.2449 22.2106 21.3615 22.082 21.4644L22.0733 21.4713L22.0656 21.479L22.0655 21.4791L22.0655 21.4791L22.0655 21.4791L22.0654 21.4792L22.0645 21.4801L22.06 21.4845L22.0411 21.5027C22.0242 21.5188 21.999 21.5423 21.9667 21.5713C21.9019 21.6294 21.8092 21.7088 21.698 21.7932C21.4787 21.9597 21.2031 22.1339 20.9372 22.2137H20.931H20.8838L20.8416 22.2348C20.842 22.2346 20.8418 22.2347 20.8408 22.2351C20.8371 22.2367 20.8232 22.2426 20.7968 22.2522C20.7659 22.2634 20.722 22.2781 20.6657 22.2946C20.5533 22.3274 20.3929 22.3667 20.1902 22.3981C19.785 22.461 19.2114 22.4927 18.5147 22.38C17.1252 22.1554 15.2259 21.3536 13.1844 19.04L13.1847 19.0397L13.1759 19.0309L13.0761 18.9311C11.0384 16.6711 10.4736 14.7074 10.4153 13.3062C10.3617 12.0152 10.7374 11.1832 10.8196 11.0148L10.8311 11.0034L10.8608 10.9736L10.8761 10.9344C10.9822 10.6614 11.193 10.3999 11.3886 10.2001C11.4848 10.1019 11.5739 10.022 11.6387 9.96688C11.6711 9.93936 11.6972 9.91814 11.715 9.90404L11.735 9.88835L11.7397 9.88472L11.7407 9.884L11.7407 9.88399L11.7407 9.88396L11.7408 9.88393L11.7408 9.88391L11.7521 9.87548L11.7621 9.86542C11.8523 9.77519 11.9677 9.75159 12.0345 9.75159H12.05C12.1034 9.76358 12.1537 9.79244 12.1954 9.82523C12.2171 9.84232 12.2342 9.85859 12.2453 9.87009C12.2508 9.87578 12.2547 9.88012 12.2568 9.88256L12.2576 9.88345L12.2574 9.88362L12.2647 9.89185L14.0175 11.8509C14.0665 11.9164 14.0998 11.9641 14.1213 12.0042C14.143 12.0444 14.1448 12.0626 14.1448 12.0688C14.1448 12.154 14.0964 12.2067 14.0671 12.2361L12.6207 13.6137Z"
        fill="white" stroke="white" stroke-width="0.4" />
    <path
        d="M3.41379 24.9379C3.2649 24.9379 3.12527 24.9884 3.02237 25.0913C2.91947 25.1942 2.86897 25.3339 2.86897 25.4828V27.2069C2.86897 29.4208 4.64816 31.2 6.86207 31.2H23.4138C25.6277 31.2 27.4069 29.4208 27.4069 27.2069V4.7931C27.4069 2.5792 25.6277 0.8 23.4138 0.8H6.86207C4.64816 0.8 2.86897 2.5792 2.86897 4.7931V6.17241C2.86897 6.32131 2.91947 6.46093 3.02237 6.56384C3.12527 6.66674 3.2649 6.71724 3.41379 6.71724C3.56269 6.71724 3.70231 6.66674 3.80521 6.56384C3.90812 6.46093 3.95862 6.32131 3.95862 6.17241V4.7931C3.95862 3.17942 5.24839 1.88966 6.86207 1.88966H23.4138C25.0275 1.88966 26.3172 3.17942 26.3172 4.7931V27.2069C26.3172 28.8206 25.0275 30.1103 23.4138 30.1103H6.86207C5.24839 30.1103 3.95862 28.8206 3.95862 27.2069V25.4828C3.95862 25.3339 3.90812 25.1942 3.80521 25.0913C3.70231 24.9884 3.56269 24.9379 3.41379 24.9379Z"
        fill="white" stroke="white" stroke-width="0.4" />
    <path
        d="M2.86897 12.0343V19.9653C2.86897 20.1142 2.91947 20.2538 3.02237 20.3567C3.12527 20.4596 3.2649 20.5101 3.41379 20.5101C3.56269 20.5101 3.70231 20.4596 3.80521 20.3567C3.90812 20.2538 3.95862 20.1142 3.95862 19.9653V12.0343C3.95862 11.8854 3.90812 11.7458 3.80521 11.6429C3.70231 11.54 3.56269 11.4895 3.41379 11.4895C3.2649 11.4895 3.12527 11.54 3.02237 11.6429C2.91947 11.7458 2.86897 11.8854 2.86897 12.0343Z"
        fill="white" stroke="white" stroke-width="0.4" />
    <path
        d="M6.02759 8.93077C6.02759 8.78187 5.97708 8.64224 5.87418 8.53934C5.77128 8.43644 5.63166 8.38594 5.48276 8.38594H1.34483C1.19593 8.38594 1.05631 8.43644 0.953406 8.53934C0.850506 8.64224 0.8 8.78187 0.8 8.93077C0.8 9.07966 0.850506 9.21929 0.953406 9.32219C1.05631 9.42509 1.19593 9.47559 1.34483 9.47559H5.48276C5.63166 9.47559 5.77128 9.42509 5.87418 9.32219C5.97708 9.21929 6.02759 9.07966 6.02759 8.93077Z"
        fill="white" stroke="white" stroke-width="0.4" />
    <path
        d="M6.02759 22.7237C6.02759 22.5748 5.97708 22.4352 5.87418 22.3323C5.77128 22.2294 5.63166 22.1789 5.48276 22.1789H1.34483C1.19593 22.1789 1.05631 22.2294 0.953406 22.3323C0.850506 22.4352 0.8 22.5748 0.8 22.7237C0.8 22.8726 0.850506 23.0123 0.953406 23.1152C1.05631 23.2181 1.19593 23.2686 1.34483 23.2686H5.48276C5.63166 23.2686 5.77128 23.2181 5.87418 23.1152C5.97708 23.0123 6.02759 22.8726 6.02759 22.7237Z"
        fill="white" stroke="white" stroke-width="0.4" />
</svg>
