<svg width="32" height="32" viewBox="0 0 32 32" fill="none" xmlns="http://www.w3.org/2000/svg">
<path fill-rule="evenodd" clip-rule="evenodd" d="M4.7998 6.40078C4.7998 5.51713 5.51615 4.80078 6.3998 4.80078H11.1998C12.0835 4.80078 12.7998 5.51713 12.7998 6.40078V11.2008C12.7998 12.0844 12.0835 12.8008 11.1998 12.8008H6.3998C5.51615 12.8008 4.7998 12.0844 4.7998 11.2008V6.40078ZM7.9998 9.60078V8.00078H9.5998V9.60078H7.9998Z" fill="white"/>
<path fill-rule="evenodd" clip-rule="evenodd" d="M4.7998 20.8008C4.7998 19.9171 5.51615 19.2008 6.3998 19.2008H11.1998C12.0835 19.2008 12.7998 19.9171 12.7998 20.8008V25.6008C12.7998 26.4844 12.0835 27.2008 11.1998 27.2008H6.3998C5.51615 27.2008 4.7998 26.4844 4.7998 25.6008V20.8008ZM7.9998 24.0008V22.4008H9.5998V24.0008H7.9998Z" fill="white"/>
<path fill-rule="evenodd" clip-rule="evenodd" d="M20.7998 4.80078C19.9162 4.80078 19.1998 5.51713 19.1998 6.40078V11.2008C19.1998 12.0844 19.9162 12.8008 20.7998 12.8008H25.5998C26.4835 12.8008 27.1998 12.0844 27.1998 11.2008V6.40078C27.1998 5.51713 26.4835 4.80078 25.5998 4.80078H20.7998ZM22.3998 8.00078V9.60078H23.9998V8.00078H22.3998Z" fill="white"/>
<path d="M17.5998 6.40078C17.5998 5.51713 16.8835 4.80078 15.9998 4.80078C15.1161 4.80078 14.3998 5.51713 14.3998 6.40078V8.00078C14.3998 8.88444 15.1161 9.60078 15.9998 9.60078C16.8835 9.60078 17.5998 8.88444 17.5998 8.00078V6.40078Z" fill="white"/>
<path d="M15.9998 11.2008C16.8835 11.2008 17.5998 11.9171 17.5998 12.8008V14.4008H20.7998C21.6835 14.4008 22.3998 15.1171 22.3998 16.0008C22.3998 16.8844 21.6835 17.6008 20.7998 17.6008H15.9998C15.1161 17.6008 14.3998 16.8844 14.3998 16.0008V12.8008C14.3998 11.9171 15.1161 11.2008 15.9998 11.2008Z" fill="white"/>
<path d="M25.5998 14.4008C24.7162 14.4008 23.9998 15.1171 23.9998 16.0008C23.9998 16.8844 24.7162 17.6008 25.5998 17.6008C26.4835 17.6008 27.1998 16.8844 27.1998 16.0008C27.1998 15.1171 26.4835 14.4008 25.5998 14.4008Z" fill="white"/>
<path d="M14.3998 20.8008C14.3998 19.9171 15.1161 19.2008 15.9998 19.2008H17.5998C18.4835 19.2008 19.1998 19.9171 19.1998 20.8008C19.1998 21.6844 18.4835 22.4008 17.5998 22.4008V25.6008C17.5998 26.4844 16.8835 27.2008 15.9998 27.2008C15.1161 27.2008 14.3998 26.4844 14.3998 25.6008V20.8008Z" fill="white"/>
<path d="M11.1998 17.6008C12.0835 17.6008 12.7998 16.8844 12.7998 16.0008C12.7998 15.1171 12.0835 14.4008 11.1998 14.4008H6.3998C5.51615 14.4008 4.7998 15.1171 4.7998 16.0008C4.7998 16.8844 5.51615 17.6008 6.3998 17.6008H11.1998Z" fill="white"/>
<path d="M27.1998 20.8008C27.1998 21.6844 26.4835 22.4008 25.5998 22.4008H22.3998C21.5161 22.4008 20.7998 21.6844 20.7998 20.8008C20.7998 19.9171 21.5162 19.2008 22.3998 19.2008H25.5998C26.4835 19.2008 27.1998 19.9171 27.1998 20.8008Z" fill="white"/>
<path d="M25.5998 27.2008C26.4835 27.2008 27.1998 26.4844 27.1998 25.6008C27.1998 24.7171 26.4835 24.0008 25.5998 24.0008H20.7998C19.9162 24.0008 19.1998 24.7171 19.1998 25.6008C19.1998 26.4844 19.9162 27.2008 20.7998 27.2008H25.5998Z" fill="white"/>
</svg>
