<svg width="19" height="19" viewBox="0 0 19 19" fill="none" xmlns="http://www.w3.org/2000/svg">
<path d="M16.1632 2.86924L16.1088 2.99164L16.2012 3.08856C17.7662 4.7287 18.6524 6.91409 18.6524 9.19881C18.6524 14.0791 14.6819 18.05 9.80155 18.05C4.92099 18.05 0.95 14.0791 0.95 9.19875C0.95 7.66131 1.3508 6.14692 2.10839 4.81946C2.40268 4.3038 3.05807 4.12451 3.57334 4.41867L3.5734 4.4187C4.08854 4.71256 4.26775 5.36826 3.97378 5.8835C3.40019 6.88817 3.09771 8.03467 3.09771 9.19881C3.09771 12.8955 6.10479 15.9023 9.80161 15.9023C13.4979 15.9023 16.5048 12.8958 16.5048 9.19881C16.5048 7.8477 16.0894 6.54716 15.3473 5.44908L15.1456 5.15056L14.9989 5.47965L14.5515 6.48375L14.5514 6.4838C14.5021 6.59455 14.4427 6.65897 14.3868 6.69398C14.3325 6.72795 14.2692 6.74208 14.1939 6.73202C14.035 6.71079 13.8139 6.57733 13.5933 6.27383C13.5933 6.27381 13.5933 6.27379 13.5933 6.27376L10.8268 2.46244C10.6154 2.17114 10.5992 1.93628 10.6671 1.78396C10.7351 1.63162 10.9208 1.48675 11.2788 1.44936L11.2789 1.44936L15.9622 0.958742C16.3283 0.920587 16.5562 1.01136 16.6643 1.13038C16.763 1.23902 16.8072 1.42339 16.685 1.69803C16.5407 2.02145 16.4102 2.31425 16.3158 2.52618L16.2041 2.77718L16.1738 2.84543L16.1659 2.86318L16.1639 2.86771L16.1634 2.86885L16.1632 2.86914L16.1632 2.86922L16.1632 2.86923L16.3459 2.95049L16.1632 2.86924Z" fill="#0361F0" stroke="#F9FBFD" stroke-width="0.4"/>
</svg>
