<svg width="24" height="24" viewBox="0 0 24 24" fill="none" xmlns="http://www.w3.org/2000/svg">
<path d="M22.193 10.9452C22.1374 10.2981 21.5475 9.84206 20.9274 9.91964C20.2812 9.97677 19.8263 10.5672 19.9051 11.1871C20.1491 13.5758 19.3119 15.9227 17.6173 17.6173C14.513 20.7217 9.48905 20.7217 6.38468 17.6173C3.2803 14.513 3.2803 9.48905 6.38468 6.38468C9.3396 3.42976 14.0337 3.2875 17.156 5.9579H15.8561C15.2124 5.9579 14.7002 6.47008 14.7002 7.11373C14.7002 7.43716 14.835 7.73129 15.0473 7.94355C15.2596 8.1558 15.5537 8.29063 15.8771 8.29063H20.006C20.6497 8.29063 21.1619 7.77845 21.1619 7.1348V2.98483C21.1619 2.34118 20.6497 1.829 20.006 1.829C19.3624 1.829 18.8502 2.34118 18.8502 2.98483V4.34659C14.7949 0.756787 8.60376 0.888453 4.74611 4.74611C0.751297 8.74092 0.751297 15.2611 4.74611 19.2559C8.74092 23.2507 15.2611 23.2507 19.2559 19.2559C21.4578 17.054 22.5159 14.0311 22.193 10.9452Z" fill="#0361F0" stroke="#0361F0" stroke-width="0.5"/>
<path d="M10.7605 15.8802L10.7605 15.8802L10.7626 15.8789L15.6702 12.867C15.6703 12.8669 15.6704 12.8668 15.6706 12.8667C16.3146 12.4743 16.3146 11.5264 15.6706 11.134C15.6704 11.134 15.6703 11.1339 15.6702 11.1338L10.7634 8.12235C10.0903 7.70261 9.20215 8.20347 9.20215 8.98796V15.0128C9.20215 15.8255 10.0736 16.2923 10.7605 15.8802Z" fill="#0361F0" stroke="#0361F0" stroke-width="0.5"/>
</svg>
