<svg width="43" height="36" viewBox="0 0 43 36" fill="none" xmlns="http://www.w3.org/2000/svg">
<path fill-rule="evenodd" clip-rule="evenodd" d="M26.679 21.1505C26.972 22.7619 24.5793 24.9104 21.1123 27.059V27.1566L22.2355 30.8678C22.4796 31.6979 22.1378 32.7233 21.3565 33.2605L20.917 33.6023C20.624 33.7488 20.2334 33.6999 20.0381 33.5534L15.8386 30.0376H15.741C10.3208 32.8698 4.65642 35.0672 3.77747 35.2137C2.75203 35.409 1.67775 35.3602 1.53126 34.5301C1.48243 34.1394 1.67775 33.6999 2.26372 33.0651L0.164005 30.4771C-0.0801483 30.1353 -0.0801483 29.647 0.359327 29.354L0.652311 29.2075C1.09179 28.9145 1.67775 28.8657 2.16606 29.061L5.34005 30.0865C6.36549 29.2563 7.4886 28.3774 8.80703 27.352L2.50787 24.6174C1.97074 24.4221 1.87308 23.7385 2.31255 23.3967L2.75203 23.0549C3.43566 22.4689 4.36344 22.2247 5.24239 22.2247L15.1062 23.1037C17.8407 21.4923 20.3799 20.2715 21.9913 19.9785L23.2121 19.7832L20.624 21.5899L20.6729 22.5666L24.677 19.7344C25.8977 19.832 26.5325 20.2227 26.679 21.1505Z" fill="#019CF2"/>
<path opacity="0.5" d="M36.0546 2.8875C28.8276 -2.19089 18.8174 -0.384155 13.7878 6.84278C10.6138 11.384 10.1255 16.9995 11.9811 21.8338L14.9109 22.0779C15.8875 21.492 16.9618 20.906 18.0849 20.3689C18.0361 20.2712 17.9384 20.2224 17.8896 20.1735C17.6454 20.1247 17.3524 19.5387 17.2059 19.1969L16.4735 17.2437C16.327 16.9019 16.327 16.4136 16.5223 16.1694C16.7176 15.9253 16.7665 15.4858 16.62 15.144C16.4735 14.8022 16.4247 14.1674 16.2782 13.8744C16.1317 13.5326 16.0828 12.8978 16.034 12.6048L15.7899 11.1887L15.5945 10.0656C15.4969 9.62612 15.3016 9.23548 15.0574 9.08899C14.9109 8.99133 14.8621 8.84483 14.8621 8.69834C15.0086 8.45419 15.1551 8.21004 15.3504 7.96588C15.3992 7.86822 15.4969 7.77056 15.5457 7.6729C15.741 7.62407 15.9363 7.72173 16.0828 7.96588L16.3758 8.55185C16.62 8.74717 17.0106 9.08899 17.2548 9.28431C17.4989 9.47963 17.5478 9.13782 17.4989 8.74717L17.1083 6.35447C17.1083 6.20798 17.0595 6.11032 17.0595 5.96383C17.6943 5.32903 18.3779 4.79189 19.0615 4.30359C19.0615 4.35242 19.0127 4.45008 18.9638 4.49891L18.7197 4.84072C18.4755 5.18254 18.5732 5.37786 18.9638 5.37786C19.3057 5.37786 19.794 5.08488 19.9405 4.84072C20.1358 4.59657 20.3799 4.54774 20.6241 4.69423C20.8682 4.88955 21.1612 4.84072 21.3077 4.54774C21.503 4.30359 21.8937 4.10826 22.2843 4.0106L23.4074 3.81528C23.8469 3.71762 24.1399 3.96177 24.2864 4.30359C24.4329 4.6454 24.2864 5.03604 24.5305 5.18254C24.7747 5.32903 25.0677 5.32903 25.2142 5.03605C25.4095 4.79189 25.4583 4.35242 25.3118 4.0106C25.1653 3.66879 25.5072 3.57113 25.849 3.76645L26.142 3.96177C26.4838 4.20592 27.0697 4.25476 27.4604 4.05943L27.8999 3.76645C28.2905 3.57113 28.4858 3.08282 28.437 2.83867C28.3882 2.59451 28.0463 2.20387 27.6069 2.2527C27.1674 2.35036 26.7279 2.2527 26.5814 2.15504C26.4838 2.10621 26.5326 2.00855 26.5814 1.91088C27.3627 1.91088 28.144 1.95972 28.9253 2.10621C29.023 2.54568 29.2183 2.93633 29.3648 3.03399C29.5113 3.13165 30.0484 3.27814 30.3902 3.13165C30.732 2.98516 31.1715 2.83867 31.318 2.69217C31.5622 2.78984 31.8063 2.8875 32.0505 2.98516C32.0016 3.08282 31.8551 3.18048 31.6598 3.27814L31.1227 3.5223C30.732 3.71762 30.3414 4.05943 30.2437 4.25475C30.1461 4.40125 30.0972 4.79189 30.3902 4.93838C30.6344 5.13371 31.0738 5.18254 31.4157 5.03605C31.7575 4.88955 32.4899 4.88955 32.7829 4.98721L33.3689 5.03605C33.9549 5.08488 34.4432 4.93838 34.5408 4.74306L34.785 4.40125C36.2011 5.37786 37.373 6.64746 38.3008 7.96588L37.666 7.52641C37.5195 7.42875 37.3242 7.52641 37.373 7.91705C37.4707 8.35653 37.373 8.796 37.2753 8.9425C37.1777 9.08899 37.1288 9.47963 37.4218 9.62612C37.666 9.82145 37.5195 10.1633 37.3242 10.5051L37.2265 11.0422C36.9824 11.384 36.787 11.3352 36.6405 10.9934C36.494 10.6516 36.494 10.0168 36.3476 9.67495C36.2011 9.33314 36.0546 8.84483 35.8104 8.69834C35.5663 8.50302 35.2733 8.55185 35.1268 8.84483L34.5897 9.57729C34.492 9.72378 34.4432 10.1144 34.7361 10.2609L35.4686 10.7981C35.6151 10.8957 35.7616 11.2375 35.6151 11.4817C35.4198 11.7258 35.3709 12.1653 35.5174 12.5071C35.6639 12.8489 35.3709 13.2396 34.9803 13.2396C34.6385 13.2396 34.1013 13.2396 33.9549 13.1419C33.8084 13.0443 33.5154 13.0931 33.3201 13.3373C33.1247 13.5814 33.0759 14.0209 33.2224 14.3627C33.3689 14.7045 33.6619 14.9487 34.1013 14.851L35.2733 14.558C35.7128 14.4604 36.1034 14.265 36.2499 14.0209C36.4452 13.7767 36.6894 13.7279 36.9335 13.8744C37.1777 14.0209 37.4707 14.5092 37.6172 14.851L37.8613 15.3881C38.0566 15.7788 38.1055 16.3159 38.0078 16.4624C37.9101 16.6089 38.0566 16.7554 38.3984 16.7554C38.7403 16.7554 38.8867 16.3648 38.6914 15.9741L38.3496 15.3881C38.1543 14.9975 38.1055 14.851 38.3984 15.0463C38.6426 15.2416 38.8379 15.6323 38.9356 16.0229C39.0332 16.4624 39.3262 16.6577 39.668 16.5112C40.0099 16.3648 40.254 16.5601 40.0587 16.8042C39.8634 17.0484 39.9122 17.3414 40.2052 17.4879C40.4493 17.6832 40.6935 18.0738 40.6446 18.4156C40.6446 18.7575 40.4005 19.0993 40.0587 19.2458C39.7169 19.3923 39.1797 19.2458 38.9844 19.0016C38.7891 18.7575 38.3008 18.7575 37.959 18.9039C37.6172 19.0504 37.1288 18.9039 36.9335 18.8063C36.787 18.7086 36.6405 18.3668 36.787 18.1227C36.9824 17.8785 36.7382 17.5855 36.3964 17.439L34.1502 16.6577C33.7595 16.5112 33.1736 16.4624 32.8317 16.4624C32.4899 16.4624 31.8551 16.6577 31.5622 16.7066L30.3414 16.9019C30.0484 16.9507 29.5113 17.1949 29.4136 17.3414C29.3159 17.4879 28.8276 17.8297 28.4858 17.7808C28.144 17.732 27.851 18.1715 27.9487 18.5133C28.0952 18.8551 27.8999 19.4411 27.6557 19.7829L27.4604 20.027C27.4115 20.0759 27.4115 20.1735 27.3627 20.2224C27.4604 20.4665 27.558 20.7107 27.6069 21.0037C27.7045 21.5408 27.6069 22.0779 27.3627 22.6639L27.558 23.8847C27.6557 24.3241 27.9487 24.5195 28.3882 24.4706C28.8276 24.373 29.2671 24.4706 29.4136 24.5683C29.5601 24.666 30.0972 24.8125 30.439 24.666C30.7809 24.5195 31.2692 24.8613 31.4645 25.2519L31.7086 25.7891C31.904 26.1797 32.0016 26.6192 31.8551 26.8633L30.9274 28.1818C30.6832 28.5236 30.2437 28.9631 29.8531 29.1584L29.3159 29.4025C29.0718 29.549 28.8765 29.7443 28.6811 29.9397C26.7279 30.1838 24.7259 30.0373 22.8215 29.4514L23.1633 30.5745C23.2609 30.9163 23.3098 31.2581 23.2609 31.6487C29.4136 33.0648 36.1034 30.721 39.961 25.2031C45.0882 17.9762 43.3303 7.96588 36.0546 2.8875Z" fill="#019CF2"/>
</svg>
