<svg width="57" height="57" viewBox="0 0 57 57" fill="none" xmlns="http://www.w3.org/2000/svg">
<path opacity="0.08" d="M28.6022 57H28.3979C15.1864 56.966 6.33333 54.2079 4.49462 52.5054C2.55376 50.7688 0 41.7455 0 28.5C0 15.2545 2.55376 6.23118 4.49462 4.49462C6.33333 2.75806 15.1864 0.0340502 28.3979 0H28.6022C41.8136 0.0340502 50.6667 2.79211 52.5054 4.49462C54.4462 6.23118 57 15.2545 57 28.5C57 41.7455 54.4462 50.7688 52.5054 52.5054C50.6667 54.2419 41.8136 57 28.6022 57Z" fill="#1EB12D"/>
<path opacity="0.5" d="M23.9967 39.2776L18.6695 34.4088C18.4317 34.1725 18.0987 34.078 17.7658 34.078C17.4328 34.078 17.1475 34.2198 16.9096 34.5034C16.5291 34.9288 16.4816 35.5433 16.8145 35.9687L16.9572 36.2051C17.8133 37.4813 18.8122 38.7103 19.8586 39.8448L20.8575 40.932C21.0001 41.0738 21.0953 41.3101 21.0953 41.4992C21.0953 41.7355 21.0001 41.9246 20.8575 42.0664C20.7148 42.2082 20.4769 42.3028 20.2867 42.3028C20.0489 42.3028 19.8586 42.2082 19.7159 42.0664L18.7646 41.0738C17.5755 39.8448 16.5291 38.474 15.5778 37.0559L15.4827 36.9141C14.7692 35.8269 14.8644 34.4088 15.7205 33.4635C15.8157 33.3689 15.8632 33.2744 15.9583 33.2271L13.7228 29.1147C13.485 28.642 12.9618 28.3584 12.391 28.3584C11.963 28.3584 11.63 28.5475 11.3446 28.8784C11.0592 29.2092 10.9641 29.5874 11.0117 30.0128L12.4862 41.1683C12.6289 42.2082 13.1521 43.1536 13.9607 43.8154L18.2414 47.266C18.4792 47.4551 18.6695 47.786 18.7171 48.1169L19.0025 50.4331C19.05 50.7639 19.2878 51.0003 19.6208 51.0003H25.709C26.0895 51.0003 26.3749 50.6694 26.3273 50.2912L25.1382 41.4047C24.9955 40.5538 24.615 39.8448 23.9967 39.2776Z" fill="#1EB12D"/>
<path opacity="0.5" d="M46.6847 28.8329C46.3994 28.5021 46.0664 28.3603 45.6383 28.313C45.1151 28.313 44.5919 28.5966 44.3065 29.0693L42.071 33.1817C42.1662 33.2762 42.2137 33.3235 42.3088 33.418C43.165 34.3634 43.2126 35.7815 42.5467 36.8687L42.4515 37.0105C41.5003 38.4286 40.4538 39.7994 39.2647 41.0284L38.3135 42.0683C38.1708 42.2101 37.9805 42.3046 37.7427 42.3046C37.5049 42.3046 37.3146 42.2101 37.1719 42.0683C37.0292 41.9265 36.9341 41.7374 36.9341 41.5011C36.9341 41.2647 37.0292 41.0756 37.1719 40.9338L38.1708 39.8939C39.2647 38.7594 40.2636 37.4832 41.1197 36.1597L41.2624 35.9706C41.5478 35.4979 41.5478 34.8834 41.1673 34.5052C40.9295 34.2689 40.6441 34.1271 40.3112 34.0798C39.9782 34.0798 39.6453 34.1744 39.4074 34.4107L33.9851 39.2794C33.4144 39.7994 32.9863 40.5557 32.8911 41.312L31.6545 50.1986C31.6069 50.5767 31.8923 50.9076 32.2728 50.9076H38.361C38.694 50.9076 38.9318 50.6713 38.9794 50.3404L39.2647 48.0242C39.3123 47.6933 39.455 47.4097 39.7404 47.1733L44.0212 43.7227C44.8297 43.0609 45.3529 42.1156 45.4956 41.0756L46.9701 29.9201C47.0653 29.542 46.9226 29.1638 46.6847 28.8329Z" fill="#1EB12D"/>
<path d="M39.36 25.1909C39.36 19.5186 34.7463 14.8862 28.991 14.8862C23.2358 14.8862 18.6221 19.4713 18.6221 25.1909C18.6221 30.9104 23.2834 35.4955 28.991 35.4955C34.6987 35.4955 39.36 30.9104 39.36 25.1909ZM28.5154 24.2455H29.4667C31.4168 24.2455 32.9864 25.9472 32.7011 27.9325C32.5108 29.3506 31.3693 30.485 29.9423 30.7214V32.1394C29.9423 32.2812 29.8472 32.3758 29.7045 32.3758H28.23C28.0873 32.3758 27.9922 32.2812 27.9922 32.1394V30.7214C26.4702 30.485 25.3286 29.256 25.1859 27.7434C25.1859 27.6016 25.281 27.5071 25.4237 27.5071H26.8982C26.9934 27.5071 27.0885 27.6016 27.136 27.6961C27.2312 28.3579 27.8019 28.8779 28.4678 28.8779H29.3716C30.0375 28.8779 30.6082 28.4525 30.7509 27.7907C30.9412 26.9398 30.2753 26.1835 29.4191 26.1835H28.6105C26.9458 26.1835 25.4713 25.0018 25.2335 23.3474C24.9957 21.5512 26.2799 19.944 27.9922 19.7077V18.2896C27.9922 18.1478 28.0873 18.0533 28.23 18.0533H29.7045C29.8472 18.0533 29.9423 18.1478 29.9423 18.2896V19.7077C31.4644 19.944 32.6059 21.173 32.7486 22.6856C32.7486 22.8274 32.6535 22.922 32.5108 22.922H31.0363C30.9412 22.922 30.8461 22.8274 30.7985 22.7329C30.7034 22.0711 30.1326 21.5512 29.4667 21.5512H28.563C27.8971 21.5512 27.3263 21.9766 27.1836 22.6384C27.0409 23.4892 27.6593 24.2455 28.5154 24.2455Z" fill="#1EB12D"/>
<path opacity="0.5" d="M28.9909 11.8141C29.7519 11.8141 30.3702 11.1996 30.3702 10.4433V7.3708C30.3702 6.6145 29.7519 6 28.9909 6C28.2298 6 27.6115 6.6145 27.6115 7.3708V10.4433C27.6115 11.1996 28.2298 11.8141 28.9909 11.8141Z" fill="#1EB12D"/>
<path opacity="0.5" d="M20.3816 13.0899C20.6194 13.5153 21.095 13.7517 21.5707 13.7517C21.8085 13.7517 22.0463 13.7044 22.2366 13.5626C22.9025 13.1844 23.1403 12.3336 22.7598 11.7191L21.1902 9.07202C20.8097 8.41025 19.9535 8.22117 19.3352 8.55206C18.6693 8.93021 18.4315 9.78105 18.812 10.3956L20.3816 13.0899Z" fill="#1EB12D"/>
<path opacity="0.5" d="M35.745 13.611C35.9828 13.7528 36.173 13.8001 36.4109 13.8001C36.8865 13.8001 37.3621 13.5637 37.6 13.1383L39.122 10.4913C39.5025 9.82948 39.2647 9.02591 38.5988 8.64776C37.9329 8.26961 37.1243 8.50595 36.7438 9.16772L35.2218 11.8148C34.8412 12.382 35.0791 13.2329 35.745 13.611Z" fill="#1EB12D"/>
</svg>
