<svg width="19" height="20" viewBox="0 0 19 20" fill="none" xmlns="http://www.w3.org/2000/svg">
<path d="M15.6525 6.61792C17.4951 6.61792 18.9952 5.13227 18.9952 3.30896C18.9952 1.48566 17.4951 0 15.6525 0C13.8099 0 12.3097 1.48566 12.3097 3.30896C12.3097 3.54532 12.3338 3.77202 12.3821 3.99391L5.46509 7.4524C4.88627 6.97969 4.14826 6.69992 3.34273 6.69992C1.50013 6.69992 0 8.18558 0 10.0089C0 11.8322 1.50013 13.3178 3.34273 13.3178C4.14826 13.3178 4.89109 13.0333 5.46992 12.5605L12.3435 15.937C12.3242 16.0817 12.3145 16.2265 12.3145 16.3712C12.3145 18.1945 13.8147 19.6801 15.6573 19.6801C17.4999 19.6801 19 18.1945 19 16.3712C19 14.5479 17.4999 13.0622 15.6573 13.0622C14.6636 13.0622 13.7664 13.4963 13.1538 14.1813L6.55522 10.9398C6.64204 10.6456 6.69028 10.3321 6.69028 10.0041C6.69028 9.67606 6.64204 9.36253 6.55039 9.06347L13.3275 5.67733C13.9256 6.26098 14.7456 6.61792 15.6525 6.61792ZM15.6525 14.9916C16.4339 14.9916 17.0658 15.609 17.0658 16.3712C17.0658 17.1333 16.429 17.7507 15.6525 17.7507C14.8759 17.7507 14.2391 17.1333 14.2391 16.3712C14.2391 15.609 14.871 14.9916 15.6525 14.9916ZM15.6525 1.92942C16.4339 1.92942 17.0658 2.54684 17.0658 3.30896C17.0658 4.07108 16.4339 4.6885 15.6525 4.6885C14.871 4.6885 14.2391 4.07108 14.2391 3.30896C14.2391 2.54684 14.871 1.92942 15.6525 1.92942ZM3.34273 11.3884C2.56131 11.3884 1.92942 10.771 1.92942 10.0089C1.92942 9.24676 2.56131 8.62935 3.34273 8.62935C4.12414 8.62935 4.75603 9.24676 4.75603 10.0089C4.75603 10.771 4.12414 11.3884 3.34273 11.3884Z" fill="#0361F0"/>
</svg>
