<svg width="25" height="31" viewBox="0 0 25 31" fill="none" xmlns="http://www.w3.org/2000/svg">
<path opacity="0.5" d="M9.53649 22.3694L5.95543 19.0965C5.79556 18.9377 5.57174 18.8741 5.34793 18.8741C5.12411 18.8741 4.93227 18.9694 4.7724 19.1601C4.51661 19.4461 4.48464 19.8592 4.70845 20.1451L4.80437 20.304C5.3799 21.1619 6.05135 21.9881 6.75477 22.7507L7.42622 23.4816C7.52214 23.5769 7.58609 23.7358 7.58609 23.8629C7.58609 24.0217 7.52214 24.1488 7.42622 24.2442C7.3303 24.3395 7.17043 24.403 7.04254 24.403C6.88267 24.403 6.75477 24.3395 6.65885 24.2442L6.01938 23.5769C5.22003 22.7507 4.51661 21.8292 3.87713 20.876L3.81319 20.7806C3.33358 20.0498 3.39753 19.0965 3.97306 18.461C4.037 18.3975 4.06898 18.3339 4.13292 18.3022L2.63016 15.5377C2.47029 15.2199 2.11858 15.0293 1.73489 15.0293C1.44713 15.0293 1.22331 15.1564 1.03147 15.3788C0.83963 15.6013 0.775682 15.8555 0.807656 16.1414L1.79884 23.6404C1.89476 24.3395 2.24647 24.975 2.79003 25.4199L5.66766 27.7395C5.82753 27.8666 5.95543 28.089 5.9874 28.3114L6.17924 29.8684C6.21122 30.0908 6.37109 30.2497 6.5949 30.2497H10.6875C10.9433 30.2497 11.1352 30.0273 11.1032 29.7731L10.3039 23.7993C10.2079 23.2273 9.95215 22.7507 9.53649 22.3694Z" fill="#1EB12D"/>
<path opacity="0.5" d="M24.7879 15.3486C24.596 15.1261 24.3722 15.0308 24.0844 14.999C23.7327 14.999 23.381 15.1897 23.1892 15.5074L21.6864 18.2719C21.7503 18.3354 21.7823 18.3672 21.8463 18.4308C22.4218 19.0663 22.4538 20.0195 22.0061 20.7504L21.9422 20.8457C21.3027 21.799 20.5993 22.7204 19.7999 23.5466L19.1605 24.2457C19.0646 24.341 18.9367 24.4045 18.7768 24.4045C18.6169 24.4045 18.489 24.341 18.3931 24.2457C18.2972 24.1503 18.2332 24.0232 18.2332 23.8644C18.2332 23.7055 18.2972 23.5784 18.3931 23.4831L19.0646 22.784C19.7999 22.0214 20.4714 21.1635 21.0469 20.2737L21.1428 20.1466C21.3347 19.8289 21.3347 19.4158 21.0789 19.1616C20.919 19.0027 20.7272 18.9074 20.5034 18.8756C20.2796 18.8756 20.0557 18.9392 19.8959 19.098L16.2509 22.3709C15.8672 22.7204 15.5794 23.2288 15.5155 23.7373L14.6842 29.711C14.6522 29.9652 14.844 30.1877 15.0998 30.1877H19.1924C19.4163 30.1877 19.5761 30.0288 19.6081 29.8064L19.7999 28.2494C19.8319 28.0269 19.9278 27.8363 20.1197 27.6774L22.9973 25.3578C23.5409 24.9129 23.8926 24.2774 23.9885 23.5784L24.9797 16.0794C25.0436 15.8252 24.9477 15.571 24.7879 15.3486Z" fill="#1EB12D"/>
<path d="M19.8639 12.9007C19.8639 9.08762 16.7624 5.97363 12.8936 5.97363C9.02479 5.97363 5.92334 9.05585 5.92334 12.9007C5.92334 16.7455 9.05677 19.8277 12.8936 19.8277C16.7305 19.8277 19.8639 16.7455 19.8639 12.9007Z" fill="#1EB12D"/>
<path fill-rule="evenodd" clip-rule="evenodd" d="M14.0844 10.084H15.2676V11.5045H16.2608V12.6133H15.2676V13.5785H16.2608V14.6873H15.2676V16.134H14.2409L13.3116 14.6873H11.7537V16.134H10.565V14.6873H9.53857V13.5785H10.565V12.6133H9.53857V11.5045H10.565V10.084H11.6082L12.5142 11.5045H14.0844V10.084ZM14.0844 12.6133H13.2214L13.837 13.5785H14.0844V12.6133ZM12.5993 13.5785L11.9793 12.6133H11.7537V13.5785H12.5993Z" fill="white"/>
<path d="M12.8935 3.90837C13.4051 3.90837 13.8208 3.49529 13.8208 2.98689V0.921487C13.8208 0.41308 13.4051 0 12.8935 0C12.382 0 11.9663 0.41308 11.9663 0.921487V2.98689C11.9663 3.49529 12.382 3.90837 12.8935 3.90837Z" fill="#F08922"/>
<path d="M7.10641 4.76604C7.26628 5.05202 7.58601 5.2109 7.90575 5.2109C8.06562 5.2109 8.22549 5.17912 8.35338 5.0838C8.80102 4.82959 8.96089 4.25764 8.7051 3.84456L7.64996 2.06513C7.39417 1.62028 6.81864 1.49318 6.40299 1.7156C5.95535 1.96981 5.79548 2.54176 6.05127 2.95484L7.10641 4.76604Z" fill="#F08922"/>
<path d="M17.4337 5.11594C17.5936 5.21126 17.7215 5.24304 17.8814 5.24304C18.2011 5.24304 18.5209 5.08416 18.6807 4.79818L19.7039 3.01876C19.9597 2.57391 19.7998 2.03372 19.3522 1.77952C18.9045 1.52532 18.361 1.68419 18.1052 2.12905L17.082 3.90847C16.8262 4.28978 16.9861 4.86173 17.4337 5.11594Z" fill="#F08922"/>
</svg>
