<svg width="34" height="34" viewBox="0 0 34 34" fill="none" xmlns="http://www.w3.org/2000/svg">
<g clip-path="url(#clip0)">
<path d="M17.0008 33.9997C26.3896 33.9997 34.0007 26.3886 34.0007 16.9998C34.0007 7.61109 26.3896 0 17.0008 0C7.61207 0 0.000976562 7.61109 0.000976562 16.9998C0.000976562 26.3886 7.61207 33.9997 17.0008 33.9997Z" fill="#55ACEE"/>
<path d="M27.4134 12.2173C26.6849 12.5403 25.9012 12.7588 25.0794 12.8564C25.9185 12.3536 26.5625 11.5582 26.8664 10.6087C26.0812 11.0745 25.2112 11.4124 24.286 11.5945C23.5448 10.8051 22.4887 10.3118 21.3193 10.3118C19.0756 10.3118 17.2559 12.1315 17.2559 14.3752C17.2559 14.6937 17.2919 15.0037 17.3616 15.3013C13.9846 15.1319 10.9902 13.5143 8.98594 11.0551C8.63624 11.6551 8.43563 12.3536 8.43563 13.0982C8.43563 14.5076 9.15352 15.7519 10.2432 16.4804C9.57747 16.4595 8.95049 16.2768 8.4029 15.9716C8.40259 15.9889 8.40259 16.0062 8.40259 16.0231C8.40259 17.992 9.80384 19.6341 11.6624 20.0072C11.3218 20.1005 10.9621 20.1499 10.592 20.1499C10.3296 20.1499 10.0754 20.1248 9.82748 20.0775C10.3445 21.6915 11.8448 22.8663 13.6233 22.8994C12.2324 23.9894 10.4805 24.6388 8.57624 24.6388C8.24895 24.6388 7.9247 24.6197 7.60742 24.5818C9.40474 25.7352 11.5412 26.4076 13.8358 26.4076C21.3099 26.4076 25.3973 20.216 25.3973 14.8458C25.3973 14.6698 25.3934 14.4943 25.3855 14.3204C26.18 13.7476 26.8688 13.0321 27.4134 12.2173Z" fill="white"/>
</g>
<defs>
<clipPath id="clip0">
<rect width="34" height="34" fill="white"/>
</clipPath>
</defs>
</svg>
