<svg width="118" height="100" viewBox="0 0 118 100" fill="none" xmlns="http://www.w3.org/2000/svg">
<path d="M30.1645 0.833313C23.7418 0.833313 17.0249 5.3419 11.0685 13.7396C5.11198 22.1372 0.504309 34.7927 0.744198 51.5389C0.744198 59.5334 3.0933 68.4031 7.5335 75.8125C8.18528 76.904 9.3123 77.5579 10.0772 78.5806C6.9632 82.6663 1.5906 90.4101 1.5906 90.4101C1.10857 90.8562 0.718105 91.4073 0.444438 92.0277C0.17077 92.6481 0.0199944 93.3239 0.00185687 94.0115C-0.0162807 94.6992 0.098624 95.3833 0.339143 96.0197C0.579661 96.6561 0.940441 97.2305 1.39816 97.7059C1.85587 98.1814 2.40034 98.5471 2.99636 98.7797C3.59237 99.0122 4.22668 99.1062 4.85826 99.0558C5.48984 99.0053 6.10464 98.8114 6.66292 98.4867C7.2212 98.1619 7.71053 97.7135 8.09928 97.1705C8.09928 97.1705 13.5443 89.2546 16.4411 85.4934C19.7814 87.7993 23.6015 89.3333 27.9014 89.3333C35.6322 89.3333 42.8922 85.3164 49.1157 79.8048C49.9983 79.028 50.5324 77.8824 51.3788 77.0416C53.3749 78.5609 55.724 79.5 58.3084 79.5C62.6491 79.5 66.3334 77.2531 69.4882 74.5833C72.6384 71.9136 75.3405 68.6981 77.83 65.517C79.5001 63.3831 80.7222 61.6131 82.0755 59.8333C81.9081 62.1491 81.7723 64.4304 81.7904 66.5937C81.7994 67.7246 81.8447 68.7423 82.2158 70.1288C82.3969 70.8171 82.5598 71.771 83.3474 72.7396C84.135 73.7081 85.7372 74.5833 87.163 74.5833C90.8609 74.5833 93.6128 72.3315 95.6496 70.1288C97.6864 67.9212 99.3204 65.3842 101.172 63.0586C104.856 58.4124 108.404 54.9166 113.474 54.9166C114.674 54.9166 115.825 54.3986 116.674 53.4766C117.523 52.5545 118 51.304 118 50C118 48.696 117.523 47.4454 116.674 46.5234C115.825 45.6013 114.674 45.0833 113.474 45.0833C104.512 45.0833 98.4921 51.4258 94.3777 56.608C93.1014 58.2157 92.1418 59.3121 91.1279 60.6003C91.137 60.4233 91.1144 60.3201 91.1279 60.1381C91.2999 57.6405 91.5806 55.2067 91.4086 52.7631C91.3628 51.3855 91.0739 50.0301 90.5576 48.7708C89.924 47.2663 87.8057 45.0833 85.4657 45.0833C83.017 45.0833 81.6365 46.2535 80.5185 47.2368C79.4005 48.2201 78.4229 49.3608 77.4045 50.6146C75.3677 53.1221 73.2178 56.1016 70.9003 59.0663C68.5784 62.0311 66.1207 64.9614 63.8259 66.9035C61.5356 68.8406 59.6301 69.6666 58.3084 69.6666C58.0097 69.6666 57.8558 69.1111 57.6024 69.0521C59.9877 65.9398 62.9206 63.2651 64.8171 59.9857C68.9495 52.8271 71.8237 45.7421 72.738 39.5521C73.1951 36.4546 73.3581 33.4456 72.0319 30.4857C70.7012 27.5308 67.2341 25.4166 64.111 25.4166C58.0233 25.4166 52.9042 29.6941 49.4009 35.4024C45.8931 41.1156 43.7431 48.6086 43.7431 56.9128C43.7431 61.2247 44.9878 64.8483 46.2868 68.4375C45.2096 69.5683 44.4311 71.1416 43.3177 72.125C38.0854 76.7565 32.6132 79.5 27.9014 79.5C25.851 79.5 24.0225 78.5265 22.2437 77.5038C24.3574 74.4456 24.5203 74.8488 26.7699 71.2006C36.0395 56.1606 45.5808 36.9364 45.5808 18.5087C45.5808 16.3208 45.445 12.3629 43.3177 8.36565C41.1903 4.36348 36.4469 0.833313 30.1645 0.833313ZM30.1645 10.6666C33.8398 10.6666 34.5821 11.7483 35.3968 13.2774C36.2115 14.8114 36.5284 17.2501 36.5284 18.5038C36.5284 33.0178 27.9648 51.4897 19.1296 65.8267C17.3237 68.7571 17.3237 68.3539 15.5947 70.8958C15.4725 70.6991 15.2914 70.6352 15.1692 70.4336C11.8017 64.8139 9.7966 57.3061 9.7966 51.534C9.79728 51.4848 9.79728 51.4356 9.7966 51.3865C9.58387 36.6611 13.5986 26.4836 18.2832 19.8854C22.9633 13.2872 28.8881 10.6666 30.1645 10.6666ZM63.8259 35.4024C63.8893 35.7662 64.0612 36.4152 63.8259 38.0131C63.242 41.9661 60.8522 48.4021 57.1769 54.7642C56.1675 56.5096 54.5381 57.8126 53.3613 59.5285C53.2527 58.5058 52.7955 58.0338 52.7955 56.9128C52.7955 50.472 54.5155 44.6556 56.8963 40.7812C59.1684 37.0741 61.7981 35.545 63.8259 35.4024Z" fill="#B4CBD5"/>
</svg>
