<svg width="18" height="18" viewBox="0 0 18 18" fill="none" xmlns="http://www.w3.org/2000/svg">
<path d="M16.1242 11.6811C15.0931 11.6831 14.0683 11.5201 13.0887 11.1983C12.6306 11.0384 12.1217 11.1461 11.7678 11.478L9.84572 12.9281C7.7815 11.8917 6.10662 10.2171 5.06985 8.15309L6.48158 6.2773C6.83801 5.92062 6.96548 5.39485 6.81204 4.91454C6.48906 3.9336 6.32518 2.90732 6.3266 1.87461C6.3266 1.13674 5.72844 0.538574 4.99057 0.538574H1.87314C1.13528 0.538574 0.537109 1.13674 0.537109 1.87461C0.546921 10.479 7.51972 17.4518 16.1242 17.4617C16.862 17.4617 17.4602 16.8635 17.4602 16.1256V13.0171C17.4602 12.2793 16.862 11.6811 16.1242 11.6811Z" fill="#0361F0"/>
</svg>
