<svg width="21" height="22" viewBox="0 0 21 22" fill="none" xmlns="http://www.w3.org/2000/svg">
<path d="M4.4999 13.999C5.37455 13.9964 6.21612 13.6644 6.85689 13.069L13.1169 16.646C12.6833 18.3403 13.5594 20.0959 15.1739 20.7682C16.7883 21.4405 18.6516 20.8255 19.5486 19.3243C20.4457 17.823 20.1046 15.8908 18.7476 14.7875C17.3907 13.6843 15.4295 13.7445 14.1429 14.929L7.88289 11.352C7.94852 11.1011 7.98477 10.8433 7.9909 10.584L14.1419 7.06903C15.3628 8.17896 17.1943 8.28187 18.5319 7.3157C19.8694 6.34953 20.3473 4.57846 19.6773 3.07061C19.0072 1.56276 17.3725 0.730429 15.759 1.07559C14.1455 1.42075 12.9944 2.84902 12.9999 4.49903C13.0035 4.7871 13.0428 5.07363 13.1169 5.35203L7.4329 8.59903C6.52239 7.19044 4.74062 6.62578 3.185 7.25283C1.62939 7.87988 0.737287 9.52235 1.05816 11.1686C1.37903 12.8149 2.82266 14.0021 4.4999 13.999Z" fill="#0361F0"/>
</svg>
