<svg width="35" height="29" viewBox="0 0 35 29" fill="none" xmlns="http://www.w3.org/2000/svg">
<path opacity="0.8" d="M34.0595 15.2982C33.9175 14.8366 33.5624 14.446 33.1007 14.2685C32.6391 14.0909 32.142 14.0909 31.6804 14.3395L24.8981 17.9259C24.9691 18.3165 24.9336 18.7071 24.8626 19.0977C24.5075 20.6601 23.0871 21.7254 21.4892 21.5479L15.3461 20.9442C14.778 20.8732 14.3518 20.3761 14.4229 19.8079C14.4939 19.2398 14.991 18.8137 15.5592 18.8847L21.7023 19.4883C22.2349 19.5593 22.7675 19.1687 22.8741 18.6361C22.9806 18.1035 22.6965 17.6063 22.1994 17.3933L15.8077 14.8721C14.6004 14.4105 13.2155 14.446 12.0082 14.9786L8.52832 16.5766V26.5192L18.1868 27.762C20.1754 28.0106 22.1639 27.4069 23.6553 26.0575L33.5979 17.0027C34.0595 16.5766 34.237 15.9019 34.0595 15.2982Z" fill="#9B51E0"/>
<path opacity="0.5" d="M4.94167 14.978H1.92338C1.07116 14.978 0.396484 15.6527 0.396484 16.5049V26.554C0.396484 27.4063 1.07116 28.0809 1.92338 28.0809H4.90616C5.75838 28.0809 6.43306 27.4063 6.43306 26.554V16.5049C6.46857 15.6527 5.75838 14.978 4.94167 14.978Z" fill="#9B51E0"/>
<path d="M9.62908 2.76303L10.6944 3.26016C10.8009 3.29567 10.9074 3.29567 11.0139 3.26016L12.2568 2.76303C12.4698 2.69201 12.6829 2.79853 12.7894 3.01159L13.251 4.25442C13.2865 4.36094 13.3575 4.43196 13.4641 4.46747L13.7126 4.574C13.8192 4.60951 13.9257 4.60951 14.0322 4.574L15.2751 4.11238C15.4881 4.04136 15.7012 4.14789 15.7722 4.32543L16.2693 5.56826C16.3048 5.67479 16.3758 5.7458 16.4824 5.78131L17.6897 6.31395C17.8672 6.38497 18.0448 6.56252 18.0803 6.77557C18.0803 6.84659 18.1158 6.91761 18.1158 6.98863C19.1456 5.99437 20.4239 5.46173 21.6312 5.56826C21.7732 5.56826 21.9508 5.60377 22.0928 5.60377C23.2291 5.67479 24.5075 5.7458 25.3597 6.77557C25.4307 6.84659 25.5017 6.95312 25.5372 7.02414C26.638 3.97034 24.9336 3.54423 23.1581 2.76303C22.0218 2.2659 20.6725 2.58548 19.6427 3.22465C19.4651 3.33117 19.2521 3.33117 19.039 3.26016L11.9372 0.0998302C11.6531 -0.00669759 11.3335 -0.0422067 11.0494 0.0643212L9.66459 0.561451C9.345 0.667979 9.09644 0.881034 8.98991 1.20062C8.77685 1.80428 9.02542 2.51446 9.62908 2.76303Z" fill="#9B51E0"/>
<path d="M9.94858 11.2851C10.0551 11.2851 10.1616 11.2496 10.2327 11.1786L11.2624 10.3264C11.44 10.1844 11.6885 10.2199 11.8306 10.3619L12.6828 11.3917C12.7538 11.4627 12.8603 11.5337 12.9669 11.5337L13.2509 11.5692C13.3575 11.5692 13.464 11.5337 13.535 11.4627L14.5648 10.6105C14.7423 10.4684 14.9909 10.5039 15.1329 10.646L15.9852 11.6757C16.0562 11.7468 16.1627 11.8178 16.2692 11.8178L17.5831 11.9243C17.7961 11.9243 17.9737 12.0663 18.0802 12.2439C18.6839 13.2737 19.7136 14.2324 20.9565 14.3389C22.0217 14.41 23.016 14.5875 23.7617 14.2324C22.5189 13.5932 21.5246 12.4925 21.063 11.1431C20.992 10.93 20.9565 10.7525 20.992 10.5394C21.0275 9.93579 21.4536 9.40315 22.0217 9.19009C22.8384 8.90602 23.7262 9.36764 23.9747 10.1488C24.1878 10.717 24.5784 11.2141 25.111 11.4627C25.1465 11.2851 25.1466 11.0721 25.1821 10.859C25.5372 6.59792 23.6552 6.84648 21.5601 6.66893C20.3173 6.56241 19.1455 7.34361 18.3998 8.26685C18.2578 8.40889 18.0447 8.51542 17.8671 8.47991L10.1261 7.87625C9.80654 7.84074 9.52247 7.94727 9.2739 8.12481L8.1021 9.08357C7.85353 9.29662 7.67599 9.58069 7.67599 9.90028C7.64048 10.5394 8.1021 11.1076 8.77678 11.1786L9.94858 11.2851Z" fill="#9B51E0"/>
<path d="M25.9277 12.6345C24.5784 12.528 23.4421 11.6402 23.016 10.3619C22.9095 10.0778 22.6254 9.93579 22.3768 10.0423C22.1638 10.1133 22.0572 10.2909 22.0217 10.5039C22.0217 10.575 22.0217 10.646 22.0572 10.717C22.6254 12.3859 24.1168 13.5222 25.8567 13.6643C28.2714 13.8418 30.3664 12.0663 30.544 9.65171C30.7215 7.37912 29.1236 5.3906 26.9575 5C26.993 5.21306 26.993 5.46162 26.9575 5.74569C26.9575 5.85222 26.922 5.95875 26.922 6.06528C28.5199 6.42037 29.6562 7.91176 29.5142 9.5807C29.3721 11.3917 27.7387 12.7765 25.9277 12.6345Z" fill="#9B51E0"/>
</svg>
