<svg width="20" height="20" viewBox="0 0 20 20" fill="none" xmlns="http://www.w3.org/2000/svg">
<path fill-rule="evenodd" clip-rule="evenodd" d="M16.4683 3.45229C15.6207 2.59921 14.6124 1.92278 13.5016 1.46219C12.3908 1.00161 11.1996 0.766016 9.99715 0.769072C4.95478 0.769072 0.849953 4.87288 0.847915 9.91728C0.847915 11.5295 1.26879 13.1029 2.06876 14.4909L0.771484 19.2306L5.62125 17.9578C6.96275 18.688 8.46568 19.0709 9.99307 19.0716H9.99715C15.0385 19.0716 19.1433 14.9678 19.1454 9.9234C19.1488 8.72139 18.914 7.53061 18.4545 6.41989C17.995 5.30917 17.3199 4.30054 16.4683 3.45229ZM9.99715 17.5277H9.99409C8.63212 17.5279 7.29521 17.1614 6.12365 16.4669L5.84646 16.3018L2.9686 17.0569L3.73597 14.2514L3.55559 13.964C2.79413 12.7518 2.39103 11.3489 2.39283 9.91728C2.39487 5.72482 5.8057 2.31399 10.0002 2.31399C10.9991 2.31177 11.9886 2.50769 12.9113 2.89043C13.8341 3.27316 14.6717 3.8351 15.3758 4.54372C16.0837 5.24896 16.6447 6.0875 17.0266 7.01089C17.4084 7.93427 17.6035 8.92418 17.6004 9.9234C17.5984 14.1159 14.1876 17.5277 9.99715 17.5277ZM14.1682 11.8321C13.9389 11.717 12.8159 11.1646 12.606 11.0882C12.3971 11.0118 12.2452 10.9741 12.0924 11.2023C11.9395 11.4306 11.5013 11.9452 11.3678 12.0981C11.2343 12.251 11.1008 12.2693 10.8725 12.1552C10.6443 12.041 9.90747 11.7995 9.03412 11.0209C8.3544 10.4146 7.89582 9.66659 7.76232 9.4373C7.62882 9.20801 7.74805 9.0847 7.86321 8.97057C7.96613 8.86866 8.09148 8.70357 8.20562 8.57007C8.31975 8.43657 8.35746 8.3418 8.43389 8.18894C8.51032 8.03608 8.47261 7.90258 8.41453 7.78844C8.35746 7.67329 7.89989 6.54823 7.70933 6.09067C7.52488 5.64737 7.33635 5.70648 7.19572 5.70036C7.05007 5.69441 6.9043 5.69169 6.75853 5.69221C6.64262 5.69516 6.52857 5.72203 6.42352 5.77114C6.31848 5.82024 6.22472 5.89051 6.14811 5.97755C5.93818 6.20684 5.34814 6.75918 5.34814 7.88423C5.34814 9.00929 6.16747 10.0966 6.28161 10.2495C6.39574 10.4024 7.89378 12.7106 10.1867 13.7011C10.7329 13.9365 11.1589 14.0771 11.4901 14.1831C12.0373 14.3574 12.5357 14.3319 12.93 14.2738C13.3693 14.2086 14.2823 13.7215 14.4729 13.1875C14.6635 12.6535 14.6635 12.1959 14.6064 12.1001C14.5493 12.0043 14.3955 11.9463 14.1682 11.8321Z" fill="#0361F0"/>
</svg>
