<svg width="42" height="30" viewBox="0 0 42 30" fill="none" xmlns="http://www.w3.org/2000/svg">
<path d="M25.4116 28.4986H6.48589V18.6491C6.48639 18.4957 6.43989 18.3458 6.35265 18.2196C6.26541 18.0935 6.14161 17.9971 5.99792 17.9434L2.1392 16.487L17.5891 1.75028L23.3096 7.00534C23.4178 7.10302 23.552 7.1671 23.696 7.18977C23.84 7.21243 23.9874 7.19269 24.1204 7.13297C24.2535 7.07487 24.3669 6.97941 24.4469 6.85815C24.5268 6.73689 24.5699 6.59505 24.5708 6.44981V4.47541H26.823V9.90313C26.823 10.1022 26.9021 10.2932 27.0429 10.434C27.1837 10.5748 27.3746 10.6539 27.5737 10.6539C27.7728 10.6539 27.9638 10.5748 28.1046 10.434C28.2453 10.2932 28.3244 10.1022 28.3244 9.90313V3.72468C28.3244 3.52558 28.2453 3.33463 28.1046 3.19384C27.9638 3.05305 27.7728 2.97396 27.5737 2.97396H23.8201C23.621 2.97396 23.43 3.05305 23.2893 3.19384C23.1485 3.33463 23.0694 3.52558 23.0694 3.72468V4.76819L18.0921 0.20379C17.9528 0.0728824 17.7689 0 17.5778 0C17.3867 0 17.2028 0.0728824 17.0636 0.20379L0.232368 16.2392C0.140781 16.3267 0.0727935 16.4358 0.0347291 16.5566C-0.00333529 16.6773 -0.0102398 16.8058 0.0146579 16.9299C0.0397523 17.0551 0.0963532 17.1718 0.179111 17.269C0.261868 17.3662 0.368048 17.4407 0.487614 17.4854L4.99195 19.1671V29.2493C4.99195 29.4484 5.07105 29.6393 5.21184 29.7801C5.35262 29.9209 5.54357 30 5.74268 30H25.4116C25.6107 30 25.8017 29.9209 25.9425 29.7801C26.0833 29.6393 26.1624 29.4484 26.1624 29.2493C26.1624 29.0502 26.0833 28.8592 25.9425 28.7184C25.8017 28.5776 25.6107 28.4986 25.4116 28.4986Z" fill="#1EB12D"/>
<path d="M41.177 11.9824H19.406C19.2069 11.9824 19.0159 12.0615 18.8752 12.2023C18.7344 12.3431 18.6553 12.534 18.6553 12.7331V23.2433C18.6553 23.4424 18.7344 23.6333 18.8752 23.7741C19.0159 23.9149 19.2069 23.994 19.406 23.994H27.664V29.2491C27.664 29.4482 27.743 29.6391 27.8838 29.7799C28.0246 29.9207 28.2156 29.9998 28.4147 29.9998H32.1683C32.3674 29.9998 32.5583 29.9207 32.6991 29.7799C32.8399 29.6391 32.919 29.4482 32.919 29.2491V23.994H41.177C41.3761 23.994 41.567 23.9149 41.7078 23.7741C41.8486 23.6333 41.9277 23.4424 41.9277 23.2433V12.7331C41.9277 12.534 41.8486 12.3431 41.7078 12.2023C41.567 12.0615 41.3761 11.9824 41.177 11.9824ZM31.4176 28.4983H29.1654V23.994H31.4176V28.4983ZM40.4263 22.4925H20.1567V13.4839H40.4263V22.4925Z" fill="#1EB12D"/>
<path d="M22.4089 20.9911C22.608 20.9911 22.799 20.912 22.9398 20.7713C23.0806 20.6305 23.1596 20.4395 23.1596 20.2404V17.9882C23.1494 18.0655 23.1494 18.1437 23.1596 18.221L23.9104 20.4731C23.9613 20.6299 24.0624 20.7656 24.1981 20.8592C24.3337 20.9528 24.4965 20.9992 24.6611 20.9911C24.7408 21.0014 24.8216 21.0014 24.9013 20.9911C25.0029 20.9643 25.0977 20.9164 25.1796 20.8506C25.2615 20.7848 25.3287 20.7025 25.3769 20.6091C25.425 20.5157 25.4529 20.4133 25.459 20.3084C25.465 20.2035 25.4489 20.0985 25.4118 20.0002L24.8037 18.1909L25.2316 17.7705C25.3585 17.6229 25.4231 17.4318 25.4118 17.2375V15.7361C25.4118 15.537 25.3327 15.346 25.1919 15.2052C25.0512 15.0644 24.8602 14.9854 24.6611 14.9854H22.4089C22.2098 14.9854 22.0189 15.0644 21.8781 15.2052C21.7373 15.346 21.6582 15.537 21.6582 15.7361V20.2404C21.6582 20.4395 21.7373 20.6305 21.8781 20.7713C22.0189 20.912 22.2098 20.9911 22.4089 20.9911ZM23.1596 16.4868H23.9104V16.9297L23.3774 17.4552C23.3078 17.5254 23.2527 17.6086 23.2154 17.7C23.178 17.7915 23.1591 17.8894 23.1596 17.9882V16.4868Z" fill="#F08922"/>
<path d="M26.9131 20.9911H29.1652C29.3644 20.9911 29.5553 20.912 29.6961 20.7713C29.8369 20.6305 29.916 20.4395 29.916 20.2404C29.916 20.0413 29.8369 19.8504 29.6961 19.7096C29.5553 19.5688 29.3644 19.4897 29.1652 19.4897H27.6638V18.739H28.4145C28.6136 18.739 28.8046 18.6599 28.9454 18.5191C29.0862 18.3783 29.1652 18.1873 29.1652 17.9882C29.1652 17.7891 29.0862 17.5982 28.9454 17.4574C28.8046 17.3166 28.6136 17.2375 28.4145 17.2375H27.6638V16.4868H29.1652C29.3644 16.4868 29.5553 16.4077 29.6961 16.2669C29.8369 16.1261 29.916 15.9352 29.916 15.7361C29.916 15.537 29.8369 15.346 29.6961 15.2052C29.5553 15.0644 29.3644 14.9854 29.1652 14.9854H26.9131C26.714 14.9854 26.523 15.0644 26.3822 15.2052C26.2414 15.346 26.1624 15.537 26.1624 15.7361V20.2404C26.1624 20.4395 26.2414 20.6305 26.3822 20.7713C26.523 20.912 26.714 20.9911 26.9131 20.9911Z" fill="#F08922"/>
<path d="M31.4173 20.9912C31.6164 20.9912 31.8073 20.9121 31.9481 20.7713C32.0889 20.6305 32.168 20.4396 32.168 20.2405V18.9192L33.0013 20.5783C33.0637 20.7021 33.1591 20.8062 33.277 20.8791C33.395 20.952 33.5308 20.9908 33.6694 20.9912C33.7267 20.9985 33.7848 20.9985 33.8421 20.9912C34.01 20.9516 34.1592 20.8553 34.2645 20.7186C34.3698 20.5818 34.4248 20.413 34.4201 20.2405V15.7361C34.4201 15.537 34.3411 15.3461 34.2003 15.2053C34.0595 15.0645 33.8685 14.9854 33.6694 14.9854C33.4703 14.9854 33.2794 15.0645 33.1386 15.2053C32.9978 15.3461 32.9187 15.537 32.9187 15.7361V17.0574L32.0854 15.3983C32.0128 15.2444 31.8901 15.1197 31.7373 15.0446C31.5845 14.9696 31.4108 14.9487 31.2446 14.9854C31.0766 15.025 30.9274 15.1213 30.8222 15.2581C30.7169 15.3948 30.6619 15.5636 30.6665 15.7361V20.2405C30.6665 20.4396 30.7456 20.6305 30.8864 20.7713C31.0272 20.9121 31.2181 20.9912 31.4173 20.9912Z" fill="#F08922"/>
<path d="M35.9219 16.4868H36.2972V20.2404C36.2972 20.4395 36.3763 20.6305 36.5171 20.7713C36.6579 20.912 36.8488 20.9911 37.048 20.9911C37.2471 20.9911 37.438 20.912 37.5788 20.7713C37.7196 20.6305 37.7987 20.4395 37.7987 20.2404V16.4868H38.174C38.3731 16.4868 38.5641 16.4077 38.7049 16.2669C38.8457 16.1261 38.9248 15.9352 38.9248 15.7361C38.9248 15.537 38.8457 15.346 38.7049 15.2052C38.5641 15.0644 38.3731 14.9854 38.174 14.9854H35.9219C35.7228 14.9854 35.5318 15.0644 35.391 15.2052C35.2502 15.346 35.1711 15.537 35.1711 15.7361C35.1711 15.9352 35.2502 16.1261 35.391 16.2669C35.5318 16.4077 35.7228 16.4868 35.9219 16.4868Z" fill="#F08922"/>
</svg>
