<svg width="16" height="18" viewBox="0 0 16 18" fill="none" xmlns="http://www.w3.org/2000/svg">
<path fill-rule="evenodd" clip-rule="evenodd" d="M8 1.45221C7.8277 1.45221 7.63079 1.45221 7.4585 1.47682C7.23697 1.50144 7.01545 1.67373 6.96622 2.01833L6.89238 2.48599C6.76931 3.29825 6.2032 3.91358 5.58786 4.23356C5.48941 4.28279 5.39095 4.33202 5.31711 4.38125C4.72638 4.75046 3.91412 4.94737 3.1511 4.62739L2.70805 4.45509C2.41269 4.33202 2.11733 4.43048 1.99426 4.62739C1.79735 4.92275 1.60044 5.24273 1.45275 5.56271C1.3543 5.75962 1.40352 6.05498 1.67427 6.25189L2.04348 6.54725C2.68344 7.06414 2.92957 7.85177 2.90496 8.54096V8.71326V8.88556C2.92957 9.59935 2.68344 10.387 2.04348 10.8793L1.67427 11.1746C1.42814 11.3715 1.37891 11.6669 1.45275 11.8638C1.60044 12.1838 1.79735 12.5038 1.99426 12.7991C2.11733 12.9714 2.38808 13.0699 2.70805 12.9714L3.1511 12.7991C3.91412 12.5038 4.72638 12.6761 5.31711 13.0453C5.41556 13.0945 5.48941 13.1437 5.58786 13.193C6.2032 13.5375 6.76931 14.1283 6.89238 14.9405L6.96622 15.4082C7.01545 15.7282 7.23697 15.9251 7.4585 15.9497C7.63079 15.9743 7.8277 15.9743 8 15.9743C8.1723 15.9743 8.36921 15.9743 8.5415 15.9497C8.76303 15.9251 8.98455 15.7528 9.03378 15.4082L9.10762 14.9405C9.23069 14.1283 9.7968 13.5129 10.4121 13.193C10.5106 13.1437 10.6091 13.0945 10.6829 13.0453C11.2736 12.6761 12.0859 12.4791 12.8489 12.7991L13.2919 12.9714C13.5873 13.0945 13.8827 12.996 14.0057 12.7991C14.2027 12.5038 14.3996 12.1838 14.5472 11.8638C14.6457 11.6669 14.5965 11.3715 14.3257 11.1746L13.9565 10.8793C13.3166 10.3624 13.0704 9.57474 13.095 8.88556V8.71326V8.54096C13.0704 7.82716 13.3166 7.03953 13.9565 6.54725L14.3257 6.25189C14.5719 6.05498 14.6211 5.75962 14.5472 5.56271C14.3996 5.24273 14.2027 4.92275 14.0057 4.62739C13.8827 4.45509 13.6119 4.35663 13.2919 4.45509L12.8489 4.62739C12.0859 4.92275 11.2736 4.75046 10.6829 4.38125C10.5844 4.33202 10.5106 4.28279 10.4121 4.23356C9.7968 3.88897 9.23069 3.29825 9.10762 2.48599L9.03378 2.01833C8.98455 1.69835 8.76303 1.50144 8.5415 1.47682C8.36921 1.45221 8.1723 1.45221 8 1.45221ZM7.36004 0.0246227C7.58157 9.01344e-06 7.77848 0 8 0C8.22152 0 8.44305 9.01344e-06 8.63996 0.0246227C9.64912 0.0984638 10.3383 0.910719 10.4614 1.79681L10.5352 2.26446C10.5598 2.5106 10.7567 2.78135 11.0767 2.95364C11.1998 3.02749 11.3228 3.07672 11.4213 3.15057C11.7413 3.34748 12.0613 3.37209 12.2828 3.27363L12.7258 3.10134C13.5627 2.78136 14.5965 2.95365 15.1626 3.79052C15.4087 4.13511 15.6303 4.52892 15.8025 4.92274C16.2456 5.83345 15.8764 6.818 15.1872 7.38411L14.818 7.67948C14.6211 7.82716 14.498 8.12252 14.498 8.49173C14.498 8.56557 14.498 8.63942 14.498 8.68865C14.498 8.73788 14.498 8.83633 14.498 8.88556C14.498 9.25476 14.6211 9.55012 14.818 9.6978L15.1872 9.99317C15.901 10.5347 16.2456 11.5438 15.8025 12.4545C15.6056 12.8484 15.3841 13.2176 15.1626 13.5868C14.5965 14.4236 13.5627 14.5959 12.7258 14.2759L12.2828 14.1037C12.0366 14.0052 11.7413 14.0298 11.4213 14.2267C11.2982 14.3006 11.1998 14.3744 11.0767 14.4236C10.7567 14.5959 10.5598 14.8667 10.5352 15.1128L10.4614 15.5805C10.3383 16.4666 9.64912 17.2788 8.63996 17.3527C8.41844 17.3773 8.22152 17.3773 8 17.3773C7.77848 17.3773 7.55695 17.3773 7.36004 17.3527C6.35088 17.2788 5.6617 16.4666 5.53863 15.5805L5.46479 15.1128C5.44018 14.8667 5.24327 14.5959 4.92329 14.4236C4.80022 14.3498 4.67715 14.3006 4.5787 14.2267C4.25872 14.0298 3.93874 14.0052 3.71722 14.1037L3.27417 14.2759C2.4373 14.5959 1.40353 14.4236 0.83741 13.5868C0.591273 13.2422 0.369748 12.8484 0.197452 12.4545C-0.245595 11.5438 0.123611 10.5593 0.812795 9.99317L1.182 9.6978C1.37891 9.55012 1.50198 9.25476 1.50198 8.88556C1.50198 8.81171 1.50198 8.73788 1.50198 8.68865C1.50198 8.63942 1.50198 8.54095 1.50198 8.49173C1.50198 8.12252 1.37891 7.82716 1.182 7.67948L0.812795 7.38411C0.0989973 6.84261 -0.245595 5.83345 0.197452 4.92274C0.394362 4.52892 0.615887 4.15972 0.83741 3.79052C1.40353 2.95365 2.4373 2.78136 3.27417 3.10134L3.71722 3.27363C3.96335 3.37209 4.25872 3.34748 4.5787 3.15057C4.70177 3.07672 4.80022 3.00287 4.92329 2.95364C5.24327 2.78135 5.44018 2.5106 5.46479 2.26446L5.53863 1.79681C5.6617 0.910719 6.35088 0.0984638 7.36004 0.0246227ZM8 6.54725C6.79393 6.54725 5.834 7.5318 5.834 8.71326C5.834 9.89471 6.81854 10.8793 8 10.8793C9.20607 10.8793 10.166 9.89471 10.166 8.71326C10.166 7.5318 9.20607 6.54725 8 6.54725ZM4.38178 8.71326C4.38178 6.71955 6.00629 5.09504 8 5.09504C9.99371 5.09504 11.6182 6.71955 11.6182 8.71326C11.6182 10.707 9.99371 12.3315 8 12.3315C5.98168 12.3315 4.38178 10.707 4.38178 8.71326Z" fill="white"/>
</svg>
