<svg width="18" height="20" viewBox="0 0 18 20" fill="none" xmlns="http://www.w3.org/2000/svg">
<path fill-rule="evenodd" clip-rule="evenodd" d="M3.0001 8.7999V6.3999C3.0001 3.08619 5.68639 0.399902 9.0001 0.399902C12.3138 0.399902 15.0001 3.08619 15.0001 6.3999V8.7999C16.3256 8.7999 17.4001 9.87442 17.4001 11.1999V17.1999C17.4001 18.5254 16.3256 19.5999 15.0001 19.5999H3.0001C1.67461 19.5999 0.600098 18.5254 0.600098 17.1999V11.1999C0.600098 9.87442 1.67461 8.7999 3.0001 8.7999ZM12.6001 6.3999V8.7999H5.4001V6.3999C5.4001 4.41168 7.01187 2.7999 9.0001 2.7999C10.9883 2.7999 12.6001 4.41168 12.6001 6.3999Z" fill="#9DA1AB"/>
</svg>
