<svg width="34" height="34" viewBox="0 0 34 34" fill="none" xmlns="http://www.w3.org/2000/svg">
    <defs>
        <linearGradient id="paint0_linear" x1="2.18979" y1="31.8284" x2="33.7892" y2="4.47951" gradientUnits="userSpaceOnUse">
            <stop stop-color="#FFDD55"/>
            <stop offset="0.5" stop-color="#FF543E"/>
            <stop offset="1" stop-color="#C837AB"/>
        </linearGradient>
        <clipPath id="clip0">
            <rect width="34" height="34" fill="white"/>
        </clipPath>
    </defs>
    <g clip-path="url(#clip0)">
        <path
            d="M2.12459 2.31346C-0.547243 5.08871 -0.000409447 8.0368 -0.000409447 16.993C-0.000409447 24.4305 -1.29808 31.8864 5.49342 33.6416C7.61417 34.187 26.4048 34.187 28.5228 33.6388C31.3504 32.9092 33.6511 30.6156 33.9656 26.6164C34.0095 26.0582 34.0095 7.93763 33.9642 7.36813C33.6298 3.10821 31.0076 0.653129 27.5523 0.155879C26.7604 0.0411287 26.6018 0.00712871 22.5388 4.53778e-05C8.12701 0.00712871 4.96784 -0.634621 2.12459 2.31346Z"
            fill="url(#paint0_linear)" />
        <path
            d="M16.9972 4.44693C11.8533 4.44693 6.96865 3.98935 5.1029 8.77768C4.33223 10.7553 4.44415 13.3238 4.44415 17.0014C4.44415 20.2286 4.34073 23.2617 5.1029 25.2238C6.9644 30.0149 11.8887 29.5559 16.9944 29.5559C21.9201 29.5559 26.9989 30.0688 28.8873 25.2238C29.6594 23.2263 29.5461 20.6961 29.5461 17.0014C29.5461 12.0969 29.8166 8.93068 27.4381 6.55351C25.0297 4.14518 21.7728 4.44693 16.9916 4.44693H16.9972ZM15.8724 6.70935C26.6022 6.69235 27.9679 5.49952 27.2142 22.0703C26.9465 27.931 22.484 27.2878 16.9986 27.2878C6.99698 27.2878 6.7094 27.0017 6.7094 16.9958C6.7094 6.87368 7.50273 6.71501 15.8724 6.70651V6.70935ZM23.6981 8.79326C22.8665 8.79326 22.1921 9.4676 22.1921 10.2992C22.1921 11.1308 22.8665 11.8051 23.6981 11.8051C24.5296 11.8051 25.204 11.1308 25.204 10.2992C25.204 9.4676 24.5296 8.79326 23.6981 8.79326ZM16.9972 10.5542C13.4371 10.5542 10.5514 13.4413 10.5514 17.0014C10.5514 20.5615 13.4371 23.4473 16.9972 23.4473C20.5573 23.4473 23.4416 20.5615 23.4416 17.0014C23.4416 13.4413 20.5573 10.5542 16.9972 10.5542ZM16.9972 12.8166C22.5293 12.8166 22.5364 21.1863 16.9972 21.1863C11.4666 21.1863 11.4581 12.8166 16.9972 12.8166Z"
            fill="white" />
    </g>
</svg>
