<svg width="16" height="18" viewBox="0 0 16 18" fill="none" xmlns="http://www.w3.org/2000/svg">
<path d="M6.16378 16.5456C5.93766 16.5494 5.7131 16.5076 5.50349 16.4228C5.29388 16.3379 5.10353 16.2116 4.94378 16.0515L0.484695 11.5925C0.159767 11.2401 -0.0139515 10.7743 0.000876933 10.2953C0.0157054 9.81618 0.217897 9.36205 0.563995 9.03046L8.49397 1.13099C8.82262 0.785959 9.27289 0.582725 9.74905 0.564498C10.2252 0.546272 10.6897 0.714492 11.0438 1.03339L15.5028 5.49248C15.6725 5.66046 15.8043 5.86271 15.8895 6.08573C15.9747 6.30874 16.0113 6.54737 15.9969 6.78567C15.9717 7.26556 15.7671 7.71844 15.4235 8.05447L7.52407 15.9844C7.34593 16.1636 7.1339 16.3055 6.90036 16.4018C6.66681 16.4982 6.41641 16.5471 6.16378 16.5456ZM9.82376 1.75929C9.63765 1.76388 9.46056 1.8404 9.32967 1.97279L1.43019 9.90276C1.31077 10.0056 1.23582 10.1508 1.22103 10.3077C1.20625 10.4646 1.25279 10.6212 1.35089 10.7446L5.82828 15.2219C5.95165 15.32 6.10821 15.3666 6.26514 15.3518C6.42207 15.337 6.56719 15.2621 6.67007 15.1426L14.6 7.24317C14.7263 7.11803 14.8023 6.9509 14.8135 6.77347C14.8192 6.70545 14.8101 6.63702 14.7869 6.57282C14.7638 6.50861 14.7271 6.45014 14.6793 6.40137L10.1654 1.89349C10.1201 1.84962 10.0667 1.81516 10.008 1.79213C9.94938 1.76909 9.88675 1.75793 9.82376 1.75929ZM5.75508 10.7812C5.67054 10.6956 5.56985 10.6276 5.45886 10.5813C5.34787 10.5349 5.22877 10.511 5.10848 10.511C4.98819 10.511 4.86909 10.5349 4.7581 10.5813C4.6471 10.6276 4.54642 10.6956 4.46188 10.7812C4.33408 10.9091 4.24706 11.0721 4.21182 11.2495C4.17659 11.4269 4.1947 11.6107 4.26389 11.7778C4.33308 11.9449 4.45023 12.0877 4.60055 12.1883C4.75088 12.2888 4.92763 12.3426 5.10848 12.3428C5.28933 12.3426 5.46608 12.2888 5.6164 12.1883C5.76673 12.0877 5.88388 11.9449 5.95307 11.7778C6.02225 11.6107 6.04037 11.4269 6.00513 11.2495C5.96989 11.0721 5.88288 10.9091 5.75508 10.7812ZM5.32808 11.6413C5.27065 11.6987 5.19275 11.731 5.11153 11.731C5.03031 11.731 4.95241 11.6987 4.89498 11.6413C4.83755 11.5838 4.80528 11.5059 4.80528 11.4247C4.80528 11.3435 4.83755 11.2656 4.89498 11.2082C4.95296 11.154 5.02914 11.1235 5.10848 11.1228C5.19091 11.123 5.26989 11.1559 5.32808 11.2143C5.38396 11.2713 5.41526 11.3479 5.41526 11.4278C5.41526 11.5076 5.38396 11.5842 5.32808 11.6413ZM1.89379 6.10247C1.89379 5.13179 2.27939 4.20085 2.96578 3.51447C3.65216 2.82809 4.58309 2.44249 5.55378 2.44249C5.67421 2.44189 5.79176 2.40565 5.89163 2.33835C5.9915 2.27104 6.06921 2.17569 6.11498 2.06429C6.16169 1.9532 6.17445 1.83077 6.15165 1.71243C6.12886 1.5941 6.07152 1.48517 5.98688 1.39939L4.76688 0.179395C4.71 0.12252 4.64248 0.077404 4.56817 0.0466233C4.49386 0.0158426 4.41422 0 4.33378 0C4.25335 0 4.1737 0.0158426 4.09939 0.0466233C4.02508 0.077404 3.95756 0.12252 3.90068 0.179395C3.78582 0.29426 3.72129 0.45005 3.72129 0.612494C3.72129 0.774937 3.78582 0.930727 3.90068 1.04559L4.25448 1.39939C3.22533 1.68366 2.31781 2.29761 1.67104 3.14711C1.02428 3.99661 0.673959 5.03478 0.673794 6.10247C0.673794 6.26426 0.738062 6.41941 0.852459 6.53381C0.966855 6.6482 1.12201 6.71247 1.28379 6.71247C1.44557 6.71247 1.60073 6.6482 1.71513 6.53381C1.82952 6.41941 1.89379 6.26426 1.89379 6.10247ZM12.0869 16.9055C12.144 16.8488 12.1894 16.7814 12.2204 16.707C12.2513 16.6327 12.2673 16.553 12.2673 16.4724C12.2673 16.3919 12.2513 16.3122 12.2204 16.2378C12.1894 16.1635 12.144 16.096 12.0869 16.0393L11.7331 15.6855C12.7622 15.4013 13.6697 14.7873 14.3165 13.9378C14.9633 13.0883 15.3136 12.0501 15.3137 10.9825C15.3137 10.8207 15.2495 10.6655 15.1351 10.5511C15.0207 10.4367 14.8655 10.3725 14.7037 10.3725C14.542 10.3725 14.3868 10.4367 14.2724 10.5511C14.158 10.6655 14.0937 10.8207 14.0937 10.9825C14.0937 11.9531 13.7081 12.8841 13.0218 13.5705C12.3354 14.2568 11.4044 14.6424 10.4338 14.6424C10.3133 14.643 10.1958 14.6793 10.0959 14.7466C9.99604 14.8139 9.91832 14.9092 9.87256 15.0206C9.82585 15.1317 9.81309 15.2542 9.83589 15.3725C9.85868 15.4908 9.91602 15.5998 10.0007 15.6855L11.2207 16.9055C11.2774 16.9627 11.3448 17.0081 11.4192 17.0391C11.4935 17.07 11.5732 17.086 11.6538 17.086C11.7343 17.086 11.814 17.07 11.8883 17.0391C11.9627 17.0081 12.0301 16.9627 12.0869 16.9055Z" fill="white"/>
</svg>
