<svg width="19" height="20" viewBox="0 0 19 20" fill="none" xmlns="http://www.w3.org/2000/svg">
<path d="M9.50045 0.640625C4.32944 0.640625 0.125869 4.84122 0.125869 10.0002C0.125869 11.7186 0.594598 13.3921 1.48706 14.8522L0.144614 18.8693C0.0996176 19.0041 0.133376 19.1501 0.234606 19.2512C0.305854 19.3224 0.403353 19.3598 0.500852 19.3598C0.542095 19.3598 0.579607 19.356 0.62085 19.3411L4.64066 18.0045C6.10685 18.8918 7.78302 19.3598 9.50045 19.3598C14.6715 19.3598 18.875 15.163 18.875 10.0002C18.875 4.84122 14.6715 0.640625 9.50045 0.640625ZM15.5002 13.789C15.5002 14.1147 15.3652 14.4367 15.1327 14.6688L14.1577 15.6309C13.9252 15.8631 13.6103 15.9903 13.2878 15.9903H13.239C8.00051 15.7657 3.7257 11.4977 3.50072 6.27136C3.48573 5.93066 3.61696 5.59371 3.86071 5.35037L4.82442 4.37696C5.05691 4.14485 5.37939 4.01007 5.70937 4.01007H6.06934C6.58307 4.01007 7.0518 4.33204 7.2318 4.81501L8.08675 7.08002C8.25175 7.52179 8.15052 8.0272 7.82428 8.37165L7.4718 8.74228C7.31053 8.91076 7.29179 9.16908 7.42305 9.36002C7.85802 9.98898 8.78797 11.1758 10.1454 12.0893C10.3329 12.2128 10.5879 12.1904 10.7529 12.0331L11.1354 11.6737C11.4766 11.348 11.9828 11.2469 12.4253 11.4116L14.694 12.2652C15.1777 12.4487 15.5002 12.9129 15.5002 13.4258V13.789Z" fill="#0361F0"/>
</svg>
