<svg width="36" height="45" viewBox="0 0 36 45" fill="none" xmlns="http://www.w3.org/2000/svg">
    <path opacity="0.5"
        d="M12.9967 33.2776L7.6695 28.4088C7.43168 28.1725 7.09873 28.078 6.76579 28.078C6.43284 28.078 6.14745 28.2198 5.90963 28.5034C5.52912 28.9288 5.48155 29.5433 5.8145 29.9687L5.9572 30.2051C6.81335 31.4813 7.8122 32.7103 8.85861 33.8448L9.85745 34.932C10.0001 35.0738 10.0953 35.3101 10.0953 35.4992C10.0953 35.7355 10.0001 35.9246 9.85745 36.0664C9.71476 36.2082 9.47694 36.3028 9.28668 36.3028C9.04886 36.3028 8.85861 36.2082 8.71591 36.0664L7.76463 35.0738C6.57553 33.8448 5.52912 32.474 4.57784 31.0559L4.48271 30.9141C3.76925 29.8269 3.86437 28.4088 4.72053 27.4635C4.81566 27.3689 4.86322 27.2744 4.95835 27.2271L2.72283 23.1147C2.48501 22.642 1.96181 22.3584 1.39104 22.3584C0.962962 22.3584 0.630013 22.5475 0.344628 22.8784C0.0592435 23.2092 -0.0358846 23.5874 0.0116795 24.0128L1.48617 35.1683C1.62886 36.2082 2.15207 37.1536 2.96066 37.8154L7.24143 41.266C7.47925 41.4551 7.6695 41.786 7.71707 42.1169L8.00245 44.4331C8.05002 44.7639 8.28784 45.0003 8.62079 45.0003H14.709C15.0895 45.0003 15.3749 44.6694 15.3273 44.2912L14.1382 35.4047C13.9955 34.5538 13.615 33.8448 12.9967 33.2776Z"
        fill="#1EB12D" />
    <path opacity="0.5"
        d="M35.6849 22.8329C35.3995 22.5021 35.0665 22.3603 34.6385 22.313C34.1153 22.313 33.592 22.5966 33.3067 23.0693L31.0711 27.1817C31.1663 27.2762 31.2138 27.3235 31.309 27.418C32.1651 28.3634 32.2127 29.7815 31.5468 30.8687L31.4517 31.0105C30.5004 32.4286 29.454 33.7994 28.2649 35.0284L27.3136 36.0683C27.1709 36.2101 26.9806 36.3046 26.7428 36.3046C26.505 36.3046 26.3147 36.2101 26.172 36.0683C26.0293 35.9265 25.9342 35.7374 25.9342 35.5011C25.9342 35.2647 26.0293 35.0756 26.172 34.9338L27.1709 33.8939C28.2649 32.7594 29.2637 31.4832 30.1199 30.1597L30.2626 29.9706C30.5479 29.4979 30.5479 28.8834 30.1674 28.5052C29.9296 28.2689 29.6442 28.1271 29.3113 28.0798C28.9783 28.0798 28.6454 28.1744 28.4076 28.4107L22.9852 33.2794C22.4145 33.7994 21.9864 34.5557 21.8913 35.312L20.6546 44.1986C20.607 44.5767 20.8924 44.9076 21.2729 44.9076H27.3611C27.6941 44.9076 27.9319 44.6713 27.9795 44.3404L28.2649 42.0242C28.3124 41.6933 28.4551 41.4097 28.7405 41.1733L33.0213 37.7227C33.8299 37.0609 34.3531 36.1156 34.4958 35.0756L35.9703 23.9201C36.0654 23.542 35.9227 23.1638 35.6849 22.8329Z"
        fill="#1EB12D" />
    <path
        d="M28.36 19.1909C28.36 13.5186 23.7463 8.88623 17.991 8.88623C12.2358 8.88623 7.62207 13.4713 7.62207 19.1909C7.62207 24.9104 12.2834 29.4955 17.991 29.4955C23.6987 29.4955 28.36 24.9104 28.36 19.1909ZM17.5154 18.2455H18.4667C20.4168 18.2455 21.9864 19.9472 21.7011 21.9325C21.5108 23.3506 20.3693 24.485 18.9423 24.7214V26.1394C18.9423 26.2812 18.8472 26.3758 18.7045 26.3758H17.23C17.0873 26.3758 16.9922 26.2812 16.9922 26.1394V24.7214C15.4702 24.485 14.3286 23.256 14.1859 21.7434C14.1859 21.6016 14.281 21.5071 14.4237 21.5071H15.8982C15.9934 21.5071 16.0885 21.6016 16.136 21.6961C16.2312 22.3579 16.8019 22.8779 17.4678 22.8779H18.3716C19.0375 22.8779 19.6082 22.4525 19.7509 21.7907C19.9412 20.9398 19.2753 20.1835 18.4191 20.1835H17.6105C15.9458 20.1835 14.4713 19.0018 14.2335 17.3474C13.9957 15.5512 15.2799 13.944 16.9922 13.7077V12.2896C16.9922 12.1478 17.0873 12.0533 17.23 12.0533H18.7045C18.8472 12.0533 18.9423 12.1478 18.9423 12.2896V13.7077C20.4644 13.944 21.6059 15.173 21.7486 16.6856C21.7486 16.8274 21.6535 16.922 21.5108 16.922H20.0363C19.9412 16.922 19.8461 16.8274 19.7985 16.7329C19.7034 16.0711 19.1326 15.5512 18.4667 15.5512H17.563C16.8971 15.5512 16.3263 15.9766 16.1836 16.6384C16.0409 17.4892 16.6593 18.2455 17.5154 18.2455Z"
        fill="#1EB12D" />
    <path opacity="0.5"
        d="M17.9909 5.8141C18.752 5.8141 19.3703 5.1996 19.3703 4.44329V1.3708C19.3703 0.614498 18.752 0 17.9909 0C17.2299 0 16.6116 0.614498 16.6116 1.3708V4.44329C16.6116 5.1996 17.2299 5.8141 17.9909 5.8141Z"
        fill="#1EB12D" />
    <path opacity="0.5"
        d="M9.38159 7.08989C9.61941 7.51531 10.095 7.75165 10.5707 7.75165C10.8085 7.75165 11.0463 7.70439 11.2366 7.56258C11.9025 7.18443 12.1403 6.33358 11.7598 5.71908L10.1902 3.07202C9.80966 2.41025 8.95351 2.22117 8.33518 2.55206C7.66928 2.93021 7.43146 3.78105 7.81197 4.39555L9.38159 7.08989Z"
        fill="#1EB12D" />
    <path opacity="0.5"
        d="M24.7448 7.61101C24.9827 7.75282 25.1729 7.80009 25.4107 7.80009C25.8864 7.80009 26.362 7.56374 26.5998 7.13832L28.1219 4.49125C28.5024 3.82948 28.2646 3.02591 27.5987 2.64776C26.9328 2.26961 26.1242 2.50595 25.7437 3.16772L24.2216 5.81479C23.8411 6.38201 24.0789 7.23286 24.7448 7.61101Z"
        fill="#1EB12D" />
</svg>
