<svg width="41" height="41" viewBox="0 0 41 41" fill="none" xmlns="http://www.w3.org/2000/svg">
<circle cx="20.5" cy="20.5" r="18.5" fill="#E94444" stroke="white" stroke-width="4"/>
<path d="M28.6991 14.9589L28.6995 14.9585C29.052 14.606 29.25 14.128 29.25 13.6295C29.25 13.131 29.052 12.653 28.6995 12.3005C28.347 11.948 27.869 11.75 27.3705 11.75C26.872 11.75 26.394 11.948 26.0415 12.3005L26.0411 12.3009L20.5012 17.8537L14.9612 12.3009L14.9608 12.3005C14.6084 11.948 14.1303 11.75 13.6318 11.75C13.1334 11.75 12.6553 11.948 12.3028 12.3005C11.9504 12.653 11.7523 13.131 11.7523 13.6295C11.7523 14.128 11.9504 14.606 12.3028 14.9585L12.3032 14.9589L17.8561 20.4988L12.3043 26.0377C12.3041 26.0379 12.3039 26.0382 12.3036 26.0384C12.1283 26.2124 11.9891 26.4195 11.8941 26.6475C11.799 26.8759 11.75 27.1208 11.75 27.3682C11.75 27.6155 11.799 27.8605 11.8941 28.0888C11.989 28.3165 12.1279 28.5232 12.3028 28.6971C12.4767 28.8721 12.6835 29.011 12.9112 29.1059C13.1395 29.201 13.3845 29.25 13.6318 29.25C13.8792 29.25 14.1241 29.201 14.3525 29.1059C14.5806 29.0108 14.7877 28.8716 14.9618 28.6962C14.9619 28.6961 14.9621 28.6959 14.9623 28.6957L20.5012 23.1439L26.0401 28.6957C26.0403 28.6959 26.0405 28.6961 26.0407 28.6963C26.2147 28.8717 26.4218 29.0109 26.6499 29.1059C26.8782 29.201 27.1231 29.25 27.3705 29.25C27.6179 29.25 27.8628 29.201 28.0912 29.1059C28.3189 29.011 28.5256 28.8721 28.6995 28.6972C28.8745 28.5233 29.0134 28.3165 29.1082 28.0888C29.2034 27.8605 29.2523 27.6155 29.2523 27.3682C29.2523 27.1208 29.2034 26.8759 29.1082 26.6475C29.0132 26.4194 28.874 26.2124 28.6987 26.0383C28.6985 26.0381 28.6983 26.0379 28.6981 26.0377L23.1463 20.4988L28.6991 14.9589Z" fill="white" stroke="white"/>
</svg>
