<svg width="36" height="36" viewBox="0 0 36 36" fill="none" xmlns="http://www.w3.org/2000/svg">
<path d="M30.0212 15.9717H5.9788C5.16784 15.9717 4.5 16.5823 4.5 17.3239V30.1478C4.5 30.8893 5.16784 31.4999 5.9788 31.4999H30.0212C30.8322 31.4999 31.5 30.8893 31.5 30.1478V17.3239C31.5 16.5823 30.8322 15.9717 30.0212 15.9717ZM29.4011 27.0072C27.97 27.2689 26.8251 28.2722 26.5866 29.5807H9.46113C9.17491 28.2722 8.07774 27.2253 6.64664 27.0072V20.4644C8.07774 20.2027 9.22262 19.1995 9.46113 17.8909H26.5866C26.8728 19.1995 27.97 20.2463 29.4011 20.4644V27.0072Z" fill="#1EB12D"/>
<path d="M17.9997 19.5C15.5088 19.5 13.5 21.5089 13.5 24C13.5 26.4911 15.5088 28.5 17.9997 28.5C20.4906 28.5 22.4994 26.4911 22.4994 24C22.5396 21.5089 20.4906 19.5 17.9997 19.5ZM18.4818 26.5313V27.1339C18.4818 27.2143 18.4015 27.2946 18.3211 27.2946H17.7185C17.6381 27.2946 17.5578 27.2143 17.5578 27.1339V26.5714C16.915 26.5312 16.4328 26.0089 16.3525 25.4062C16.3525 25.3661 16.3525 25.3259 16.3927 25.2857C16.4328 25.2455 16.473 25.2455 16.5132 25.2455H17.156C17.2364 25.2455 17.2765 25.2857 17.3167 25.3661C17.3569 25.5268 17.5176 25.6875 17.6783 25.6875H18.2408C18.5622 25.6875 18.8032 25.4464 18.8434 25.1652C18.8434 25.0045 18.8032 24.8438 18.6827 24.7232C18.5622 24.6027 18.4015 24.5223 18.2408 24.5223H17.839C17.0355 24.5223 16.3525 23.9196 16.2721 23.1562C16.1918 22.3527 16.7543 21.6295 17.5578 21.5089V20.9063C17.5578 20.8259 17.6381 20.7455 17.7185 20.7455H18.3211C18.4015 20.7455 18.4818 20.8259 18.4818 20.9063V21.4687C19.1246 21.5089 19.6067 22.0312 19.6871 22.6339C19.6871 22.6741 19.6871 22.7143 19.6469 22.7545C19.6067 22.7946 19.5666 22.7946 19.5264 22.7946H18.8836C18.8032 22.7946 18.7631 22.7545 18.7229 22.6741C18.6827 22.5134 18.522 22.3527 18.3613 22.3527H17.7988C17.4774 22.3527 17.2364 22.5937 17.1962 22.875C17.1962 23.0357 17.2364 23.1964 17.3569 23.317C17.4774 23.4375 17.6381 23.5179 17.7988 23.5179H18.2809C18.7229 23.5179 19.1246 23.7187 19.4059 24C19.6871 24.3214 19.8478 24.7232 19.8076 25.1652C19.6871 25.8482 19.1648 26.4107 18.4818 26.5313Z" fill="#1EB12D"/>
<path d="M9.46113 22.6455C8.79329 22.6455 8.26855 23.1253 8.26855 23.736C8.26855 24.3466 8.79329 24.8264 9.46113 24.8264C10.129 24.8264 10.6537 24.3466 10.6537 23.736C10.6537 23.1253 10.129 22.6455 9.46113 22.6455Z" fill="#1EB12D"/>
<path d="M26.5393 22.6455C25.8714 22.6455 25.3467 23.1253 25.3467 23.736C25.3467 24.3466 25.8714 24.8264 26.5393 24.8264C27.2071 24.8264 27.7318 24.3466 27.7318 23.736C27.7795 23.1253 27.2071 22.6455 26.5393 22.6455Z" fill="#1EB12D"/>
<path d="M17.9965 19.5C16.3185 19.5 15 21.48 15 24C15 26.52 16.3185 28.5 17.9965 28.5C19.6745 28.5 20.993 26.52 20.993 24C21.1129 21.48 19.6745 19.5 17.9965 19.5Z" fill="#1EB12D"/>
<path d="M22.532 13.7908C22.8183 14.0961 23.343 14.0961 23.6292 13.7908L26.873 10.2577C27.2547 9.82149 26.9207 9.1672 26.3006 9.1672H24.7264V5.15428C24.7264 4.76171 24.3925 4.5 24.0108 4.5H22.2458C21.8165 4.5 21.5303 4.80533 21.5303 5.15428V9.1672H19.9561C19.3359 9.1672 19.002 9.82149 19.3836 10.2577L22.532 13.7908Z" fill="#1EB12D"/>
<path d="M12.3709 13.7908C12.6571 14.0961 13.1819 14.0961 13.4681 13.7908L16.7119 10.2577C17.0935 9.82149 16.7596 9.1672 16.1395 9.1672H14.5653V5.15428C14.5653 4.76171 14.2313 4.5 13.8497 4.5H12.0847C11.6554 4.5 11.3692 4.80533 11.3692 5.15428V9.1672H9.79495C9.17481 9.1672 8.84088 9.82149 9.22251 10.2577L12.3709 13.7908Z" fill="#1EB12D"/>
</svg>
