<svg width="57" height="57" viewBox="0 0 57 57" fill="none" xmlns="http://www.w3.org/2000/svg">
<path opacity="0.08" d="M28.6022 57H28.3979C15.1864 56.966 6.33333 54.2079 4.49462 52.5054C2.55376 50.7688 0 41.7455 0 28.5C0 15.2545 2.55376 6.23118 4.49462 4.49462C6.33333 2.75806 15.1864 0.0340502 28.3979 0H28.6022C41.8136 0.0340502 50.6667 2.79211 52.5054 4.49462C54.4462 6.23118 57 15.2545 57 28.5C57 41.7455 54.4462 50.7688 52.5054 52.5054C50.6667 54.2419 41.8136 57 28.6022 57Z" fill="#E94444"/>
<path opacity="0.5" d="M23.4545 31.2743V39.6922H31.7273V36.5008C29.0909 35.5295 26.9091 33.6794 25.5455 31.2743H23.4545ZM39.2727 36.547V44.2249H15.7273V30.673L24.1818 23.1802C24.4091 21.5152 24.9545 19.8038 25.8636 18L13 29.4242V47H42V35.1132C41.0909 35.6683 40.1818 36.177 39.2727 36.547Z" fill="#E94444"/>
<path d="M38.7466 28.4578C38.3818 27.4418 37.8802 26.5643 37.1962 25.7791C37.105 29.1044 35.0529 32.245 31.8153 33.492C26.8448 30.9056 24.7471 23.4699 30.3104 16.496C30.6296 17.6044 31.1313 18.7129 31.9065 19.6365C32.5905 20.4679 33.3657 21.1145 34.2321 21.6225C33.1833 18.3896 34.1409 14.741 36.877 12.4779C37.6978 11.7851 38.6098 11.2771 39.613 11C38.7922 15.0181 41.2547 17.6506 42.7595 19.3133C46.0884 23.0542 45.6324 28.8735 41.8931 32.1988C40.9355 33.0301 39.8866 33.6305 38.7466 34C39.3394 32.245 39.385 30.3514 38.7466 28.4578Z" fill="#E94444"/>
</svg>
