<svg width="35" height="30" viewBox="0 0 35 30" fill="none" xmlns="http://www.w3.org/2000/svg">
<path d="M27.8099 23.447H21.0137C20.5445 23.447 20.1885 23.091 20.1885 22.6379V16.0845C20.1885 15.6314 20.5445 15.2593 21.0137 15.2593H27.8099C28.263 15.2593 28.6351 15.6314 28.6351 16.0845V22.6379C28.6351 23.091 28.263 23.447 27.8099 23.447ZM21.8228 21.8127H26.9846V16.9098H21.8228V21.8127Z" fill="black"/>
<path d="M10.6578 22.4752C10.6578 21.3911 12.3082 21.3911 12.3082 22.4752C12.3082 23.7212 12.5833 25.2098 11.483 25.2098C10.3827 25.2098 10.6578 23.7212 10.6578 22.4752Z" fill="black"/>
<path d="M2.30818 6.44013H8.60267L10.0428 1.65049H5.2208L2.30818 6.44013ZM14.4765 28.3495V16.9094H9.31465V28.3495H14.4765ZM7.68035 28.3495V16.0841C7.68035 15.6311 8.03633 15.2589 8.48941 15.2589H15.3017C15.7548 15.2589 16.1108 15.6311 16.1108 16.0841V28.3495H30.0752V11.9417C28.2143 12.1036 26.4829 11.246 25.4959 9.75728C23.538 12.6861 19.2337 12.6861 17.2758 9.75728C15.3179 12.6861 11.0137 12.6861 9.05575 9.75728C8.06869 11.246 6.3373 12.1036 4.49264 11.9417V28.3495H7.68035ZM31.7095 11.4887V29.1748C31.7095 29.6278 31.3373 30 30.8842 30H3.6674C3.21433 30 2.84216 29.6278 2.84216 29.1748V11.4887C1.02986 10.6311 -0.474995 8.13916 0.139891 6.8123L4.03957 0.436893C4.16902 0.177994 4.4441 0 4.76772 0C13.1011 0 21.4506 0 29.7839 0C30.0752 0 30.3341 0.145631 30.4959 0.38835L34.3956 6.77994C34.9619 7.63754 33.9587 10.4369 31.7095 11.4887ZM18.1011 1.65049V6.44013H24.2337L22.8098 1.65049H18.1011ZM16.4506 6.44013V1.65049H11.758L10.3179 6.44013H16.4506ZM25.949 6.44013H32.2596L29.3308 1.65049H24.525L25.949 6.44013ZM7.21109 9.41748C7.59944 9.04531 7.8907 8.59223 8.06869 8.07443H1.82274C2.59944 10.3398 5.46352 11.068 7.21109 9.41748ZM10.0428 8.07443C11.046 11.0356 15.2855 11.0356 16.2888 8.07443H10.0428ZM23.6512 9.41748C24.0396 9.04531 24.3308 8.59223 24.5088 8.07443H18.2629C19.0396 10.3398 21.9036 11.068 23.6512 9.41748ZM26.4829 8.07443C27.4862 11.0356 31.7257 11.0356 32.7289 8.07443H26.4829Z" fill="black"/>
</svg>
