<svg width="39" height="36" viewBox="0 0 39 36" fill="none" xmlns="http://www.w3.org/2000/svg">
<path opacity="0.5" d="M17.0556 22.2142C17.5808 22.6669 18.0025 23.2273 18.2919 23.8574H31.0501V7.66282H10.2025V13.4889C12.1314 14.0126 13.84 15.1444 15.0746 16.7162C16.3092 18.2881 17.0039 20.2162 17.0556 22.2142ZM20.2155 14.2315H22.9093C23.2387 13.7269 23.7222 13.3423 24.2878 13.1347C24.8535 12.9272 25.471 12.9079 26.0485 13.0797C26.626 13.2515 27.1326 13.6052 27.4928 14.0882C27.853 14.5712 28.0476 15.1576 28.0476 15.7601C28.0476 16.3626 27.853 16.949 27.4928 17.432C27.1326 17.915 26.626 18.2687 26.0485 18.4405C25.471 18.6123 24.8535 18.593 24.2878 18.3855C23.7222 18.1779 23.2387 17.7933 22.9093 17.2887H20.2194C19.8259 17.2687 19.4551 17.0984 19.1837 16.8128C18.9122 16.5272 18.7608 16.1482 18.7608 15.7542C18.7608 15.3602 18.9122 14.9812 19.1837 14.6956C19.4551 14.41 19.8259 14.2396 20.2194 14.2196L20.2155 14.2315ZM38.7089 1.80907V29.7309C38.7089 30.2107 38.5183 30.6708 38.1791 31.0101C37.8398 31.3493 37.3797 31.5399 36.8999 31.5399H33.4674V33.4556C33.4674 33.9627 33.266 34.4489 32.9075 34.8074C32.5489 35.166 32.0627 35.3674 31.5556 35.3674H25.9863C25.4793 35.3674 24.993 35.166 24.6345 34.8074C24.276 34.4489 24.0745 33.9627 24.0745 33.4556V31.536H18.7027L18.7264 26.8198H32.9855C33.2579 26.8198 33.5191 26.7116 33.7117 26.519C33.9043 26.3264 34.0125 26.0652 34.0125 25.7928V5.74317C34.0125 5.4708 33.9043 5.20958 33.7117 5.01699C33.5191 4.82439 33.2579 4.71619 32.9855 4.71619H8.26706C7.99469 4.71619 7.73347 4.82439 7.54088 5.01699C7.34828 5.20958 7.24008 5.4708 7.24008 5.74317V13.248C5.54288 13.3801 3.91693 13.9864 2.54761 14.9978V1.80907C2.5476 1.33133 2.73657 0.872972 3.07327 0.534048C3.40997 0.195123 3.86708 0.00314658 4.34481 1.72501e-05H36.892C37.1302 -0.00102307 37.3663 0.0450016 37.5867 0.135449C37.8071 0.225897 38.0074 0.358986 38.1763 0.527075C38.3451 0.695165 38.479 0.894945 38.5705 1.11495C38.6619 1.33495 38.7089 1.57084 38.7089 1.80907Z" fill="#9B51E0"/>
<path fill-rule="evenodd" clip-rule="evenodd" d="M2.05 34.8226H13.8799C14.4233 34.8215 14.9441 34.6052 15.3284 34.221C15.7126 33.8368 15.9289 33.316 15.9299 32.7726L15.9694 25.3191C15.9685 24.8409 15.8006 24.378 15.4949 24.0103C15.1892 23.6425 14.7647 23.393 14.2947 23.3047V21.863C14.2985 20.201 13.6606 18.6018 12.5141 17.3986C11.3676 16.1954 9.80094 15.4812 8.14074 15.4049H7.99854C6.34001 15.3995 4.74517 16.0432 3.55491 17.1982C2.94232 17.7854 2.45502 18.4906 2.12238 19.2713C1.78974 20.052 1.61866 20.8919 1.61946 21.7405V21.863V23.3047C1.17025 23.4112 0.77003 23.666 0.483377 24.0279C0.196725 24.3898 0.0403554 24.8377 0.039499 25.2994L0 32.7568C0.00104395 33.3002 0.21736 33.821 0.601583 34.2052C0.985806 34.5894 1.50662 34.8057 2.05 34.8068V34.8226ZM5.20977 21.7243C5.21052 21.3356 5.29322 20.9514 5.45248 20.5968C5.61175 20.2422 5.84399 19.9252 6.13405 19.6664C6.63564 19.2108 7.28917 18.9587 7.9668 18.9594C8.33801 18.9592 8.70547 19.0337 9.04726 19.1785C9.38905 19.3234 9.69817 19.5356 9.95619 19.8024C10.2142 20.0693 10.4159 20.3854 10.5491 20.7319C10.6823 21.0784 10.7445 21.4481 10.7317 21.8191V23.2371H5.20187L5.20977 21.7243Z" fill="#9B51E0"/>
</svg>
