<svg width="20" height="14" viewBox="0 0 20 14" fill="none" xmlns="http://www.w3.org/2000/svg">
    <path
        d="M18.0792 0.0771484H1.92533C1.61931 0.0771484 1.32583 0.198714 1.10944 0.415102C0.89305 0.63149 0.771484 0.924976 0.771484 1.23099V12.7695C0.771484 13.0755 0.89305 13.369 1.10944 13.5853C1.32583 13.8017 1.61931 13.9233 1.92533 13.9233H18.0792C18.3852 13.9233 18.6787 13.8017 18.8951 13.5853C19.1115 13.369 19.233 13.0755 19.233 12.7695V1.23099C19.233 0.924976 19.1115 0.63149 18.8951 0.415102C18.6787 0.198714 18.3852 0.0771484 18.0792 0.0771484ZM17.1907 12.7695H2.88302L6.92148 8.59253L6.09072 7.79061L1.92533 12.1002V2.10792L9.09648 9.24446C9.31267 9.45936 9.60512 9.57999 9.90995 9.57999C10.2148 9.57999 10.5072 9.45936 10.7234 9.24446L18.0792 1.92907V12.0252L13.833 7.77907L13.0196 8.59253L17.1907 12.7695ZM2.6811 1.23099H17.1446L9.90995 8.42523L2.6811 1.23099Z"
        fill="#0361F0" />
</svg>
