<svg width="41" height="25" viewBox="0 0 41 25" fill="none" xmlns="http://www.w3.org/2000/svg">
<path fill-rule="evenodd" clip-rule="evenodd" d="M36.69 9.13913L39.9748 7.86761C40.307 7.73901 40.3066 7.5309 39.9748 7.40245L21.1008 0.0963923C20.7686 -0.032205 20.231 -0.0320565 19.8991 0.0963923L1.02514 7.40245C0.692927 7.53105 0.69331 7.73916 1.02514 7.86761L19.8991 15.1737C20.2313 15.3023 20.7689 15.3021 21.1008 15.1737L34.0996 10.1419V21.2355C34.0996 21.5927 34.3867 21.8823 34.7532 21.8823H36.0363C36.3973 21.8823 36.69 21.5982 36.69 21.2355V9.13913Z" fill="#E05196"/>
<path d="M30.7232 20.2542V13L20.9624 16.7784C20.6306 16.9068 20.093 16.907 19.7608 16.7784L10 13V20.2542C10 20.6016 10.2377 21.0599 10.5308 21.2616C10.5308 21.2616 14.2094 24.1345 20.3616 24.1345C26.5138 24.1345 30.1924 21.2616 30.1924 21.2616C30.4864 21.066 30.7232 20.6089 30.7232 20.2542Z" fill="#EFA1C7"/>
</svg>
