<svg width="23" height="20" viewBox="0 0 23 20" fill="none" xmlns="http://www.w3.org/2000/svg">
<path d="M0 12.8331V3.1853C0 1.40888 1.43951 0 3.1853 0H19.1118C20.8882 0 22.2971 1.43951 22.2971 3.1853V12.8331C22.2971 14.6095 20.8576 16.0184 19.1118 16.0184H8.20827L4.59418 19.6631C4.37979 19.8775 4.07351 20 3.76723 20C3.46095 20 3.1853 19.8775 2.94028 19.6631C2.69525 19.4487 2.57274 19.1118 2.57274 18.7749V15.9265C1.1026 15.6508 0 14.3645 0 12.8331ZM12.0368 11.6692C12.0368 11.3936 11.8224 11.1792 11.5467 11.1792H10.2603C9.98469 11.1792 9.77029 11.3936 9.77029 11.6692V12.4962C9.77029 12.7718 9.98469 12.9862 10.2603 12.9862H11.5467C11.8224 12.9862 12.0368 12.7718 12.0368 12.4962V11.6692ZM7.81011 5.48239C7.81011 5.66616 7.93262 5.8193 8.11639 5.8193L9.5559 5.84992C9.80092 5.84992 10.0153 5.69678 10.0766 5.48239C10.1378 5.29862 10.2297 5.14548 10.3522 5.02297C10.5666 4.8392 10.8116 4.74732 11.1179 4.74732C11.4855 4.74732 11.7917 4.86983 11.9755 5.08423C12.1899 5.29862 12.2818 5.6049 12.2818 6.00306C12.2818 6.3706 12.1899 6.67688 12.0061 6.98315C11.8224 7.25881 11.608 7.50383 11.3017 7.6876C10.7198 8.08576 10.3216 8.45329 10.0766 8.7902C9.8928 9.03522 9.80092 9.37213 9.77029 9.83155C9.73966 10.0459 9.92343 10.1991 10.1378 10.1991H11.6998C11.8836 10.1991 12.0368 10.0766 12.0674 9.8928C12.098 9.64778 12.1286 9.46401 12.2205 9.31087C12.3124 9.09648 12.5268 8.88208 12.8025 8.69832C13.3231 8.42267 13.7519 8.05513 14.0888 7.59571C14.4257 7.13629 14.5789 6.61562 14.5789 6.03369C14.5789 5.11486 14.2726 4.37979 13.66 3.82848C13.0475 3.27718 12.1899 3.00153 11.1179 3.00153C10.1072 3.00153 9.31087 3.24655 8.69832 3.70597C8.14701 4.10414 7.87136 4.71669 7.81011 5.48239Z" fill="white"/>
</svg>
