<svg width="31" height="29" viewBox="0 0 31 29" fill="none" xmlns="http://www.w3.org/2000/svg">
<path d="M26.4079 16.8105L21.4667 18.2111C21.4667 18.3347 21.4667 18.4583 21.4667 18.5819C21.3792 19.9001 20.3298 21.0124 18.9305 21.2596L18.7118 21.3008C16.8315 21.6715 14.9512 21.8363 13.0709 21.9187L11.5405 21.9599C11.3218 21.9599 11.0595 21.8775 10.8845 21.7127C10.7096 21.5479 10.6222 21.342 10.6222 21.136C10.6222 20.8888 10.7096 20.6828 10.8845 20.5181C11.0595 20.3533 11.2781 20.2709 11.4967 20.2709L13.1147 20.2297C14.8638 20.1885 16.5692 20.0237 18.2746 19.6942L18.5807 19.653C19.1928 19.5294 19.6301 19.0762 19.6738 18.4995C19.6738 18.1699 19.5864 17.8404 19.324 17.5932C19.0617 17.346 18.7556 17.1812 18.362 17.1812L10.4035 16.7281C9.52897 16.6869 8.65442 16.9341 7.95477 17.3872L0.38984 22.825C-0.0911667 23.1958 -0.134895 23.8549 0.302384 24.2669L4.54399 28.2628C4.89382 28.5924 5.46228 28.6336 5.89956 28.3452L7.73613 27.027C8.04223 26.821 8.39205 26.7386 8.7856 26.7386L14.7763 27.3565C15.9132 27.4801 17.0939 27.1505 18.0122 26.4914L27.8947 19.4058C28.2445 19.1586 28.4632 18.7878 28.5069 18.3347C28.5506 17.9227 28.4194 17.5108 28.1133 17.1812C27.6323 16.8105 27.0201 16.6457 26.4079 16.8105Z" fill="#1EB12D"/>
<path d="M29.119 0.25H7.08017C6.3368 0.25 5.72461 0.826737 5.72461 1.52706V13.6385C5.72461 14.3388 6.3368 14.9156 7.08017 14.9156H29.119C29.8624 14.9156 30.4746 14.3388 30.4746 13.6385V1.52706C30.4746 0.826737 29.8624 0.25 29.119 0.25ZM28.5506 10.6725C27.2387 10.9196 26.1893 11.8671 25.9706 13.103H10.2723C10.0099 11.8671 9.0042 10.8784 7.69237 10.6725V4.49313C9.0042 4.24596 10.0537 3.29847 10.2723 2.0626H25.9706C26.233 3.29847 27.2387 4.28716 28.5506 4.49313V10.6725Z" fill="#1EB12D"/>
<path d="M18.0993 3.58203C15.816 3.58203 13.9746 5.47935 13.9746 7.83203C13.9746 10.1847 15.816 12.082 18.0993 12.082C20.3827 12.082 22.2241 10.1847 22.2241 7.83203C22.2609 5.47935 20.3827 3.58203 18.0993 3.58203ZM18.5413 10.2227V10.7919C18.5413 10.8677 18.4676 10.9436 18.394 10.9436H17.8415C17.7679 10.9436 17.6942 10.8677 17.6942 10.7919V10.2606C17.105 10.2227 16.6631 9.72935 16.5894 9.16015C16.5894 9.12221 16.5894 9.08426 16.6262 9.04632C16.6631 9.00837 16.6999 9.00837 16.7367 9.00837H17.326C17.3996 9.00837 17.4364 9.04632 17.4733 9.12221C17.5101 9.27399 17.6574 9.42578 17.8047 9.42578H18.3203C18.6149 9.42578 18.8359 9.1981 18.8727 8.93248C18.8727 8.78069 18.8359 8.62891 18.7254 8.51507C18.6149 8.40123 18.4676 8.32533 18.3203 8.32533H17.952C17.2155 8.32533 16.5894 7.75614 16.5157 7.03516C16.4421 6.27623 16.9577 5.59319 17.6942 5.47935V4.91016C17.6942 4.83426 17.7679 4.75837 17.8415 4.75837H18.394C18.4676 4.75837 18.5413 4.83426 18.5413 4.91016V5.44141C19.1305 5.47935 19.5725 5.97266 19.6461 6.54185C19.6461 6.5798 19.6461 6.61774 19.6093 6.65569C19.5725 6.69364 19.5356 6.69364 19.4988 6.69364H18.9096C18.8359 6.69364 18.7991 6.65569 18.7622 6.5798C18.7254 6.42801 18.5781 6.27623 18.4308 6.27623H17.9152C17.6206 6.27623 17.3996 6.50391 17.3628 6.76953C17.3628 6.92132 17.3996 7.0731 17.5101 7.18694C17.6206 7.30078 17.7679 7.37667 17.9152 7.37667H18.3571C18.7622 7.37667 19.1305 7.5664 19.3883 7.83203C19.6461 8.1356 19.7934 8.51507 19.7566 8.93248C19.6461 9.57757 19.1674 10.1088 18.5413 10.2227Z" fill="#1EB12D"/>
<path d="M10.2719 6.55273C9.65972 6.55273 9.17871 7.00589 9.17871 7.58262C9.17871 8.15936 9.65972 8.61251 10.2719 8.61251C10.8841 8.61251 11.3651 8.15936 11.3651 7.58262C11.3651 7.00589 10.8841 6.55273 10.2719 6.55273Z" fill="#1EB12D"/>
<path d="M25.9262 6.55273C25.314 6.55273 24.833 7.00589 24.833 7.58262C24.833 8.15936 25.314 8.61251 25.9262 8.61251C26.5384 8.61251 27.0194 8.15936 27.0194 7.58262C27.0631 7.00589 26.5384 6.55273 25.9262 6.55273Z" fill="#1EB12D"/>
<path d="M18.0964 3.58203C16.5582 3.58203 15.3496 5.45203 15.3496 7.83203C15.3496 10.212 16.5582 12.082 18.0964 12.082C19.6346 12.082 20.8432 10.212 20.8432 7.83203C20.9531 5.45203 19.6346 3.58203 18.0964 3.58203Z" fill="#1EB12D"/>
</svg>
