<svg xmlns="http://www.w3.org/2000/svg" width="40" height="40" viewBox="0 0 34 34" fill="none">
    <path
        d="M17,34C26.3888,34 34,26.3888 34,17C34,7.6112 26.3888,0 17,0C7.6112,0 0,7.6112 0,17C0,26.3888 7.6112,34 17,34Z"
        fill="#039BE5" />
    <path
        d="M7.7786,16.6317L24.1694,10.312C24.9301,10.0371 25.5946,10.4976 25.3481,11.6479L25.3495,11.6465L22.5586,24.7946C22.3518,25.7267 21.7979,25.9534 21.023,25.5142L16.773,22.382L14.7231,24.3568C14.4964,24.5835 14.3051,24.7747 13.866,24.7747L14.1677,20.4496L22.0444,13.3337C22.3872,13.032 21.9679,12.862 21.516,13.1623L11.7821,19.2908L7.5859,17.9818C6.675,17.6928 6.6551,17.0709 7.7786,16.6317Z"
        fill="#ffffff" />
</svg>