<svg width="375" height="812" viewBox="0 0 375 812" fill="none" xmlns="http://www.w3.org/2000/svg">
<mask id="path-1-inside-1" fill="white">
<path fill-rule="evenodd" clip-rule="evenodd" d="M386 -24H-11V836H386V-24ZM187.5 478C259.021 478 317 349.486 317 273.886C317 166.159 259.021 137 187.5 137C115.979 137 58 162.919 58 273.886C58 349.486 115.979 478 187.5 478Z"/>
</mask>
<path fill-rule="evenodd" clip-rule="evenodd" d="M386 -24H-11V836H386V-24ZM187.5 478C259.021 478 317 349.486 317 273.886C317 166.159 259.021 137 187.5 137C115.979 137 58 162.919 58 273.886C58 349.486 115.979 478 187.5 478Z" fill="black" fill-opacity="0.62"/>
<path d="M-11 -24V-26H-13V-24H-11ZM386 -24H388V-26H386V-24ZM-11 836H-13V838H-11V836ZM386 836V838H388V836H386ZM-11 -22H386V-26H-11V-22ZM-9 836V-24H-13V836H-9ZM386 834H-11V838H386V834ZM384 -24V836H388V-24H384ZM315 273.886C315 311.277 300.629 361.97 277.328 403.311C265.686 423.966 251.871 442.185 236.609 455.217C221.346 468.25 204.756 476 187.5 476V480C206.004 480 223.482 471.686 239.206 458.259C254.93 444.833 269.02 426.198 280.813 405.275C304.382 363.459 319 312.095 319 273.886H315ZM187.5 139C223.04 139 254.836 146.253 277.744 166.543C300.606 186.791 315 220.369 315 273.886H319C319 219.676 304.404 184.811 280.396 163.548C256.435 142.327 223.481 135 187.5 135V139ZM60 273.886C60 218.729 74.4037 185.172 97.241 165.341C120.134 145.46 151.917 139 187.5 139V135C151.562 135 118.595 141.499 94.6183 162.32C70.5859 183.19 56 218.076 56 273.886H60ZM187.5 476C170.244 476 153.654 468.25 138.391 455.217C123.129 442.185 109.314 423.966 97.672 403.311C74.3711 361.97 60 311.277 60 273.886H56C56 312.095 70.6185 363.459 94.1874 405.275C105.98 426.198 120.07 444.833 135.794 458.259C151.518 471.686 168.996 480 187.5 480V476Z" fill="white" fill-opacity="0.25" mask="url(#path-1-inside-1)"/>
</svg>
