<svg width="25" height="26" viewBox="0 0 25 26" fill="none" xmlns="http://www.w3.org/2000/svg">
    <defs>
        <linearGradient id="paint0_linear" x1="6.2244" y1="4.52261" x2="17.9801" y2="20.7029"
            gradientUnits="userSpaceOnUse">
            <stop stop-color="#B4CBD5" />
            <stop offset="1" stop-color="#9DA1AB" />
        </linearGradient>
    </defs>
    <path
        d="M22.8274 14.6307C21.1826 14.9898 19.4687 14.8621 17.8953 14.263C16.3219 13.664 14.957 12.6197 13.9674 11.2576C12.9778 9.89559 12.4064 8.27479 12.3229 6.59327C12.2394 4.91175 12.6475 3.24232 13.4973 1.78894C13.5281 1.73633 13.544 1.67627 13.543 1.6153C13.5421 1.55432 13.5245 1.49477 13.492 1.44312C13.4596 1.39147 13.4136 1.34971 13.3591 1.32238C13.3046 1.29505 13.2436 1.28319 13.1829 1.28811C11.642 1.40946 10.1502 1.88636 8.82465 2.68134C7.4991 3.47633 6.37589 4.56777 5.5432 5.86996C4.7105 7.17215 4.19101 8.64963 4.02549 10.1864C3.85998 11.7232 4.05295 13.2774 4.58927 14.727C5.12558 16.1767 5.99063 17.4823 7.1165 18.5413C8.24236 19.6003 9.59838 20.3839 11.0781 20.8306C12.5578 21.2772 14.1209 21.3748 15.6447 21.1157C17.1685 20.8565 18.6114 20.2476 19.8603 19.3369C21.3495 18.2568 22.509 16.7838 23.2093 15.0826C23.2327 15.0263 23.2403 14.9646 23.2311 14.9044C23.222 14.8441 23.1965 14.7874 23.1574 14.7406C23.1183 14.6938 23.0671 14.6587 23.0094 14.6389C22.9517 14.6192 22.8897 14.6157 22.8301 14.6288L22.8274 14.6307Z"
        fill="#B4CBD5" />
    <path
        d="M22.8274 14.6307C21.1826 14.9898 19.4687 14.8621 17.8953 14.263C16.3219 13.664 14.957 12.6197 13.9674 11.2576C12.9778 9.89559 12.4064 8.27479 12.3229 6.59327C12.2394 4.91175 12.6475 3.24232 13.4973 1.78894C13.5281 1.73633 13.544 1.67627 13.543 1.6153C13.5421 1.55432 13.5245 1.49477 13.492 1.44312C13.4596 1.39147 13.4136 1.34971 13.3591 1.32238C13.3046 1.29505 13.2436 1.28319 13.1829 1.28811C11.642 1.40946 10.1502 1.88636 8.82465 2.68134C7.4991 3.47633 6.37589 4.56777 5.5432 5.86996C4.7105 7.17215 4.19101 8.64963 4.02549 10.1864C3.85998 11.7232 4.05295 13.2774 4.58927 14.727C5.12558 16.1767 5.99063 17.4823 7.1165 18.5413C8.24236 19.6003 9.59838 20.3839 11.0781 20.8306C12.5578 21.2772 14.1209 21.3748 15.6447 21.1157C17.1685 20.8565 18.6114 20.2476 19.8603 19.3369C21.3495 18.2568 22.509 16.7838 23.2093 15.0826C23.2327 15.0263 23.2403 14.9646 23.2311 14.9044C23.222 14.8441 23.1965 14.7874 23.1574 14.7406C23.1183 14.6938 23.0671 14.6587 23.0094 14.6389C22.9517 14.6192 22.8897 14.6157 22.8301 14.6288L22.8274 14.6307Z"
        fill="url(#paint0_linear)" />
</svg>
