<svg width="18" height="21" viewBox="0 0 18 21" fill="none" xmlns="http://www.w3.org/2000/svg">
<path fill-rule="evenodd" clip-rule="evenodd" d="M9.78013 0.349075H2.85611C2.30982 0.349075 1.86696 0.81041 1.86696 1.37949C1.86696 1.94858 2.30982 2.40991 2.85611 2.40991L7.39212 2.40991L0.178386 9.92464C-0.207899 10.327 -0.207899 10.9795 0.178386 11.3819C0.564672 11.7843 1.19096 11.7843 1.57725 11.3819L8.79099 3.86714L8.79098 8.59241C8.79098 9.1615 9.23384 9.62283 9.78013 9.62283C10.3264 9.62283 10.7693 9.1615 10.7693 8.59241L10.7693 1.37949C10.7693 0.81041 10.3264 0.349075 9.78013 0.349075ZM7.19345 20.1047L14.1175 20.1047C14.6638 20.1047 15.1066 19.6434 15.1066 19.0743C15.1066 18.5052 14.6638 18.0439 14.1175 18.0439H9.58146L16.7952 10.5291C17.1815 10.1267 17.1815 9.47432 16.7952 9.07192C16.4089 8.66951 15.7826 8.66952 15.3963 9.07192L8.1826 16.5866L8.1826 11.8614C8.1826 11.2923 7.73974 10.831 7.19345 10.831C6.64716 10.831 6.20431 11.2923 6.20431 11.8614L6.2043 19.0743C6.2043 19.6434 6.64716 20.1047 7.19345 20.1047Z" fill="#0361F0"/>
</svg>
