<svg width="29" height="20" viewBox="0 0 29 20" fill="none" xmlns="http://www.w3.org/2000/svg">
    <defs>
        <linearGradient id="paint0_linear" x1="10.9586" y1="10.5" x2="26.9593" y2="18.501"
            gradientUnits="userSpaceOnUse">
            <stop stop-color="white" />
            <stop offset="1" stop-color="#EEEEEE" />
        </linearGradient>
        <linearGradient id="paint1_linear" x1="7.921" y1="3.25977" x2="7.921" y2="12.5377"
            gradientUnits="userSpaceOnUse">
            <stop stop-color="#FCD469" />
            <stop offset="1" stop-color="#F0BD5F" />
        </linearGradient>
    </defs>
    <path
        d="M9.68865 11.3845C9.98146 9.66527 10.8732 8.10513 12.2059 6.98024C13.5387 5.85535 15.2266 5.23828 16.9706 5.23828C18.7147 5.23828 20.4026 5.85535 21.7353 6.98024C23.0681 8.10513 23.9598 9.66527 24.2526 11.3845C25.3278 11.412 26.354 11.8397 27.1304 12.584C27.9068 13.3283 28.3774 14.3355 28.4501 15.4085C28.5228 16.4815 28.1924 17.543 27.5236 18.3852C26.8548 19.2274 25.8957 19.7897 24.834 19.962C24.7753 19.9871 24.7121 20 24.6482 20.0001H9.30739C9.24664 19.9995 9.18665 19.9866 9.13106 19.962C8.07046 19.7906 7.11187 19.2299 6.44256 18.3896C5.77326 17.5492 5.44132 16.4895 5.5116 15.4176C5.58188 14.3456 6.04933 13.3383 6.82262 12.5925C7.59592 11.8467 8.6195 11.416 9.69342 11.3845H9.68865Z"
        fill="white" />
    <path
        d="M9.68865 11.3845C9.98146 9.66527 10.8732 8.10513 12.2059 6.98024C13.5387 5.85535 15.2266 5.23828 16.9706 5.23828C18.7147 5.23828 20.4026 5.85535 21.7353 6.98024C23.0681 8.10513 23.9598 9.66527 24.2526 11.3845C25.3278 11.412 26.354 11.8397 27.1304 12.584C27.9068 13.3283 28.3774 14.3355 28.4501 15.4085C28.5228 16.4815 28.1924 17.543 27.5236 18.3852C26.8548 19.2274 25.8957 19.7897 24.834 19.962C24.7753 19.9871 24.7121 20 24.6482 20.0001H9.30739C9.24664 19.9995 9.18665 19.9866 9.13106 19.962C8.07046 19.7906 7.11187 19.2299 6.44256 18.3896C5.77326 17.5492 5.44132 16.4895 5.5116 15.4176C5.58188 14.3456 6.04933 13.3383 6.82262 12.5925C7.59592 11.8467 8.6195 11.416 9.69342 11.3845H9.68865Z"
        fill="url(#paint0_linear)" />
    <path
        d="M0.476558 7.86328H2.32565C2.32565 8.02054 2.30182 8.17779 2.30182 8.33981C2.30182 8.50183 2.30182 8.65909 2.33041 8.81634H0.476558C0.350164 8.81634 0.228946 8.76614 0.139572 8.67677C0.0501976 8.5874 -1.19209e-05 8.4662 -1.19209e-05 8.33981C-1.19209e-05 8.21343 0.0501976 8.09222 0.139572 8.00285C0.228946 7.91349 0.350164 7.86328 0.476558 7.86328Z"
        fill="#F08922" />
    <path
        d="M8.92135 10.4839C7.54907 10.6898 6.31301 11.4276 5.48052 12.5377C4.86026 12.1152 4.34134 11.5605 3.96105 10.9135C3.58076 10.2666 3.34856 9.54336 3.28113 8.79594C3.21371 8.04852 3.31274 7.29545 3.5711 6.59086C3.82947 5.88628 4.24075 5.24769 4.77537 4.721C5.31 4.19431 5.95469 3.7926 6.6631 3.54477C7.37151 3.29694 8.12603 3.20913 8.87243 3.28765C9.61882 3.36618 10.3385 3.6091 10.9799 3.99894C11.6212 4.38877 12.1681 4.91585 12.5814 5.54227C10.7727 6.65914 9.46239 8.42828 8.92135 10.4839Z"
        fill="#EDBB5C" />
    <path
        d="M8.92135 10.4839C7.54907 10.6898 6.31301 11.4276 5.48052 12.5377C4.86026 12.1152 4.34134 11.5605 3.96105 10.9135C3.58076 10.2666 3.34856 9.54336 3.28113 8.79594C3.21371 8.04852 3.31274 7.29545 3.5711 6.59086C3.82947 5.88628 4.24075 5.24769 4.77537 4.721C5.31 4.19431 5.95469 3.7926 6.6631 3.54477C7.37151 3.29694 8.12603 3.20913 8.87243 3.28765C9.61882 3.36618 10.3385 3.6091 10.9799 3.99894C11.6212 4.38877 12.1681 4.91585 12.5814 5.54227C10.7727 6.65914 9.46239 8.42828 8.92135 10.4839Z"
        fill="url(#paint1_linear)" />
    <path
        d="M3.7506 4.42227L2.4448 3.11657C2.36672 3.02541 2.32593 2.90815 2.33056 2.78822C2.33519 2.66829 2.38491 2.55452 2.46979 2.46965C2.55466 2.38478 2.66844 2.33507 2.78838 2.33043C2.90832 2.3258 3.02559 2.36659 3.11676 2.44466L4.42256 3.75036C4.1814 3.95647 3.95673 4.18113 3.7506 4.42227Z"
        fill="#ECAB03" />
    <path
        d="M8.33997 2.30164C8.17794 2.30164 8.02067 2.30164 7.8634 2.32547V0.476531C7.8634 0.350147 7.91361 0.22894 8.00299 0.139573C8.09236 0.0502059 8.21358 0 8.33997 0C8.46637 0 8.58759 0.0502059 8.67696 0.139573C8.76633 0.22894 8.81654 0.350147 8.81654 0.476531V2.33024C8.65928 2.31594 8.50201 2.30164 8.33997 2.30164Z"
        fill="#ECAB03" />
    <path
        d="M12.2525 3.75512L13.5631 2.44466C13.6543 2.36659 13.7716 2.3258 13.8915 2.33043C14.0114 2.33507 14.1252 2.38478 14.2101 2.46965C14.295 2.55452 14.3447 2.66829 14.3493 2.78822C14.3539 2.90815 14.3132 3.02541 14.2351 3.11657L12.9293 4.42227C12.7216 4.18245 12.4953 3.95938 12.2525 3.75512Z"
        fill="#ECAB03" />
    <path
        d="M3.7506 12.252C3.95656 12.4933 4.18124 12.7179 4.42256 12.9239L3.11199 14.2343C3.02083 14.3124 2.90355 14.3532 2.78361 14.3486C2.66367 14.3439 2.5499 14.2942 2.46502 14.2093C2.38015 14.1245 2.33042 14.0107 2.32579 13.8908C2.32116 13.7708 2.36196 13.6536 2.44003 13.5624L3.7506 12.252Z"
        fill="#ECAB03" />
</svg>
