<svg width="19" height="18" viewBox="0 0 19 18" fill="none" xmlns="http://www.w3.org/2000/svg">
<path d="M6.00016 13.6373L12.4176 7.21989L12.4176 12.8272C12.4176 13.2754 12.7853 13.6431 13.2334 13.6431C13.3398 13.6432 13.4452 13.6223 13.5436 13.5816C13.6419 13.541 13.7312 13.4813 13.8065 13.406C13.8817 13.3308 13.9414 13.2415 13.9821 13.1431C14.0227 13.0448 14.0436 12.9394 14.0435 12.833L14.0435 5.26076C14.0436 5.15435 14.0227 5.04896 13.9821 4.95063C13.9414 4.85229 13.8817 4.76295 13.8065 4.6877C13.7312 4.61246 13.6419 4.55279 13.5436 4.51212C13.4452 4.47145 13.3398 4.45057 13.2334 4.45068L5.66119 4.45068C5.55481 4.45068 5.44947 4.47163 5.35119 4.51234C5.25291 4.55305 5.1636 4.61272 5.08838 4.68795C5.01316 4.76317 4.95349 4.85247 4.91278 4.95076C4.87207 5.04904 4.85111 5.15438 4.85111 5.26076C4.85111 5.36714 4.87207 5.47248 4.91278 5.57076C4.95349 5.66905 5.01316 5.75835 5.08838 5.83357C5.1636 5.9088 5.25291 5.96846 5.35119 6.00917C5.44947 6.04988 5.55481 6.07084 5.66119 6.07084L11.2685 6.07084L4.85111 12.4883C4.53513 12.8043 4.53513 13.3213 4.85111 13.6373C5.1671 13.9533 5.68418 13.9533 6.00016 13.6373Z" fill="#E94444"/>
</svg>
