<svg width="15" height="18" viewBox="0 0 15 18" fill="none" xmlns="http://www.w3.org/2000/svg">
    <g clip-path="url(#clip0)">
        <path fill-rule="evenodd" clip-rule="evenodd"
            d="M14.25 4.5H13.4325L12.0787 16.5877C11.9902 17.3798 11.2965 18 10.5 18H4.5C3.702 18 3.00975 17.379 2.922 16.5863L1.59 4.5H0.75C0.336 4.5 0 4.164 0 3.75C0 3.336 0.336 3 0.75 3H4.5V2.25C4.5 1.0095 5.5095 0 6.75 0H8.25C9.4905 0 10.5 1.0095 10.5 2.25V3H14.25C14.664 3 15 3.336 15 3.75C15 4.164 14.664 4.5 14.25 4.5ZM9 2.25C9 1.83675 8.66325 1.5 8.25 1.5H6.75C6.33675 1.5 6 1.83675 6 2.25V3H9V2.25ZM3.099 4.5L4.41375 16.4227C4.41675 16.452 4.47 16.5 4.5 16.5H10.5C10.53 16.5 10.5847 16.4513 10.5885 16.4212L11.9235 4.5H3.099Z"
            fill="#EB5757" />
    </g>
    <defs>
        <clipPath id="clip0">
            <rect width="15" height="18" fill="white" />
        </clipPath>
    </defs>
</svg>
