<svg width="18" height="18" viewBox="0 0 18 18" fill="none" xmlns="http://www.w3.org/2000/svg">
<path d="M8.10039 5.40001C8.10039 6.89118 6.89156 8.10001 5.40039 8.10001C3.90922 8.10001 2.70039 6.89118 2.70039 5.40001C2.70039 3.90884 3.90922 2.70001 5.40039 2.70001C6.89156 2.70001 8.10039 3.90884 8.10039 5.40001Z" fill="#0361F0"/>
<path d="M15.3004 5.40001C15.3004 6.89118 14.0916 8.10001 12.6004 8.10001C11.1092 8.10001 9.90039 6.89118 9.90039 5.40001C9.90039 3.90884 11.1092 2.70001 12.6004 2.70001C14.0916 2.70001 15.3004 3.90884 15.3004 5.40001Z" fill="#0361F0"/>
<path d="M11.6366 15.3C11.6787 15.0061 11.7004 14.7056 11.7004 14.4C11.7004 12.9283 11.1958 11.5745 10.3502 10.5022C11.0121 10.1192 11.7807 9.90001 12.6004 9.90001C15.0857 9.90001 17.1004 11.9147 17.1004 14.4V15.3H11.6366Z" fill="#0361F0"/>
<path d="M5.40039 9.90001C7.88567 9.90001 9.90039 11.9147 9.90039 14.4V15.3H0.900391V14.4C0.900391 11.9147 2.91511 9.90001 5.40039 9.90001Z" fill="#0361F0"/>
</svg>
