<svg width="29" height="20" viewBox="0 0 29 20" fill="none" xmlns="http://www.w3.org/2000/svg">
    <defs>
        <linearGradient id="paint0_linear" x1="17.5" y1="10.5" x2="1.49997" y2="18.5"
            gradientUnits="userSpaceOnUse">
            <stop stop-color="white" />
            <stop offset="1" stop-color="#EEEEEE" />
        </linearGradient>
        <linearGradient id="paint1_linear" x1="27.2168" y1="7.44519" x2="27.6222" y2="9.02352"
            gradientUnits="userSpaceOnUse">
            <stop stop-color="#F0AA22" />
            <stop offset="1" stop-color="#F05822" />
        </linearGradient>
        <linearGradient id="paint2_linear" x1="20.2343" y1="-0.81029" x2="27.597" y2="10.9649"
            gradientUnits="userSpaceOnUse">
            <stop stop-color="#F0AA22" />
            <stop offset="1" stop-color="#F05822" />
        </linearGradient>
        <linearGradient id="paint3_linear" x1="25.0135" y1="1.41228" x2="26.6771" y2="4.06082"
            gradientUnits="userSpaceOnUse">
            <stop stop-color="#F0AA22" />
            <stop offset="1" stop-color="#F05822" />
        </linearGradient>
        <linearGradient id="paint4_linear" x1="20.0874" y1="-1.02223" x2="21.9684" y2="0.202649"
            gradientUnits="userSpaceOnUse">
            <stop stop-color="#F0AA22" />
            <stop offset="1" stop-color="#F05822" />
        </linearGradient>
        <linearGradient id="paint5_linear" x1="15.0894" y1="1.41228" x2="16.7514" y2="4.06422"
            gradientUnits="userSpaceOnUse">
            <stop stop-color="#F0AA22" />
            <stop offset="1" stop-color="#F05822" />
        </linearGradient>
        <linearGradient id="paint6_linear" x1="25.0158" y1="11.3321" x2="26.6831" y2="13.9866"
            gradientUnits="userSpaceOnUse">
            <stop stop-color="#F0AA22" />
            <stop offset="1" stop-color="#F05822" />
        </linearGradient>
    </defs>
    <path
        d="M18.7698 11.3845C18.477 9.66527 17.5853 8.10513 16.2527 6.98024C14.92 5.85535 13.2323 5.23828 11.4884 5.23828C9.74444 5.23828 8.05674 5.85535 6.72408 6.98024C5.39143 8.10513 4.49978 9.66527 4.20699 11.3845C3.13189 11.412 2.10576 11.8397 1.32946 12.584C0.553154 13.3283 0.0825832 14.3355 0.00985834 15.4085C-0.0628665 16.4815 0.267491 17.543 0.936263 18.3852C1.60503 19.2274 2.56407 19.7897 3.62563 19.962C3.68439 19.9871 3.74759 20 3.81147 20.0001H19.151C19.2118 19.9995 19.2717 19.9866 19.3273 19.962C20.3878 19.7906 21.3463 19.2299 22.0156 18.3896C22.6848 17.5492 23.0168 16.4895 22.9465 15.4176C22.8762 14.3456 22.4088 13.3383 21.6356 12.5925C20.8623 11.8467 19.8388 11.416 18.765 11.3845H18.7698Z"
        fill="white" />
    <path
        d="M18.7698 11.3845C18.477 9.66527 17.5853 8.10513 16.2527 6.98024C14.92 5.85535 13.2323 5.23828 11.4884 5.23828C9.74444 5.23828 8.05674 5.85535 6.72408 6.98024C5.39143 8.10513 4.49978 9.66527 4.20699 11.3845C3.13189 11.412 2.10576 11.8397 1.32946 12.584C0.553154 13.3283 0.0825832 14.3355 0.00985834 15.4085C-0.0628665 16.4815 0.267491 17.543 0.936263 18.3852C1.60503 19.2274 2.56407 19.7897 3.62563 19.962C3.68439 19.9871 3.74759 20 3.81147 20.0001H19.151C19.2118 19.9995 19.2717 19.9866 19.3273 19.962C20.3878 19.7906 21.3463 19.2299 22.0156 18.3896C22.6848 17.5492 23.0168 16.4895 22.9465 15.4176C22.8762 14.3456 22.4088 13.3383 21.6356 12.5925C20.8623 11.8467 19.8388 11.416 18.765 11.3845H18.7698Z"
        fill="url(#paint0_linear)" />
    <path
        d="M27.9811 7.86328H26.1322C26.1322 8.02054 26.156 8.17779 26.156 8.33981C26.156 8.50183 26.156 8.65909 26.1274 8.81634H27.9811C28.1075 8.81634 28.2287 8.76614 28.3181 8.67677C28.4074 8.5874 28.4576 8.4662 28.4576 8.33981C28.4576 8.21343 28.4074 8.09222 28.3181 8.00285C28.2287 7.91349 28.1075 7.86328 27.9811 7.86328Z"
        fill="url(#paint1_linear)" />
    <path
        d="M19.537 10.4839C20.9092 10.6898 22.1451 11.4276 22.9775 12.5377C23.5977 12.1152 24.1166 11.5605 24.4969 10.9135C24.8771 10.2666 25.1093 9.54336 25.1767 8.79594C25.2442 8.04852 25.1451 7.29545 24.8868 6.59086C24.6285 5.88628 24.2172 5.24769 23.6826 4.721C23.148 4.19431 22.5034 3.7926 21.7951 3.54477C21.0867 3.29694 20.3322 3.20913 19.5859 3.28765C18.8396 3.36618 18.1199 3.6091 17.4787 3.99894C16.8374 4.38877 16.2905 4.91585 15.8772 5.54227C17.6858 6.65914 18.996 8.42828 19.537 10.4839Z"
        fill="url(#paint2_linear)" />
    <path
        d="M24.7074 4.42227L26.0131 3.11657C26.0911 3.02541 26.1319 2.90815 26.1273 2.78822C26.1227 2.66829 26.0729 2.55452 25.9881 2.46965C25.9032 2.38478 25.7894 2.33507 25.6695 2.33043C25.5496 2.3258 25.4323 2.36659 25.3412 2.44466L24.0355 3.75036C24.2766 3.95647 24.5013 4.18113 24.7074 4.42227Z"
        fill="url(#paint3_linear)" />
    <path
        d="M20.1184 2.30164C20.2804 2.30164 20.4376 2.30164 20.5949 2.32547V0.476531C20.5949 0.350147 20.5447 0.22894 20.4553 0.139573C20.366 0.0502059 20.2447 0 20.1184 0C19.992 0 19.8708 0.0502059 19.7814 0.139573C19.692 0.22894 19.6418 0.350147 19.6418 0.476531V2.33024C19.7991 2.31594 19.9563 2.30164 20.1184 2.30164Z"
        fill="url(#paint4_linear)" />
    <path
        d="M16.2061 3.75512L14.8956 2.44466C14.8045 2.36659 14.6872 2.3258 14.5673 2.33043C14.4473 2.33507 14.3336 2.38478 14.2487 2.46965C14.1638 2.55452 14.1141 2.66829 14.1095 2.78822C14.1049 2.90815 14.1456 3.02541 14.2237 3.11657L15.5294 4.42227C15.7371 4.18245 15.9633 3.95938 16.2061 3.75512Z"
        fill="url(#paint5_linear)" />
    <path
        d="M24.7074 12.252C24.5014 12.4933 24.2768 12.7179 24.0355 12.9239L25.3459 14.2343C25.4371 14.3124 25.5543 14.3532 25.6743 14.3486C25.7942 14.3439 25.908 14.2942 25.9928 14.2093C26.0777 14.1245 26.1274 14.0107 26.1321 13.8908C26.1367 13.7708 26.0959 13.6536 26.0178 13.5624L24.7074 12.252Z"
        fill="url(#paint6_linear)" />

</svg>
