<svg width="38" height="45" viewBox="0 0 38 45" fill="none" xmlns="http://www.w3.org/2000/svg">
<path d="M5.20168 17.5777H23.5981C24.0494 17.5777 24.4157 17.2114 24.4157 16.7601C24.4157 16.3082 24.0494 15.9424 23.5981 15.9424H5.20168C4.74981 15.9424 4.38406 16.3082 4.38406 16.7601C4.38406 17.2114 4.74981 17.5777 5.20168 17.5777ZM5.20168 12.9756H23.5981C24.0494 12.9756 24.4157 12.6093 24.4157 12.158C24.4157 11.7061 24.0494 11.3403 23.5981 11.3403H5.20168C4.74981 11.3403 4.38406 11.7061 4.38406 12.158C4.38406 12.6093 4.74981 12.9756 5.20168 12.9756ZM20.0545 20.8847C20.0545 20.4328 19.6882 20.067 19.2369 20.067H5.20113C4.74926 20.067 4.38352 20.4328 4.38352 20.8847C4.38352 21.336 4.74926 21.7023 5.20113 21.7023H19.2369C19.6882 21.7023 20.0545 21.336 20.0545 20.8847ZM13.2416 24.1917H5.20168C4.74981 24.1917 4.38406 24.5579 4.38406 25.0093C4.38406 25.4606 4.74981 25.8269 5.20168 25.8269H13.2416C13.6934 25.8269 14.0592 25.4606 14.0592 25.0093C14.0592 24.5579 13.6929 24.1917 13.2416 24.1917ZM10.5413 28.3168H5.20113C4.74926 28.3168 4.38352 28.6831 4.38352 29.1344C4.38352 29.5857 4.74926 29.952 5.20113 29.952H10.5413C10.9931 29.952 11.3589 29.5857 11.3589 29.1344C11.3589 28.6831 10.9931 28.3168 10.5413 28.3168ZM30.5571 29.4184L24.8943 36.0929L21.2755 33.2138C20.9234 32.9325 20.4077 32.9908 20.127 33.3446C19.8457 33.6973 19.9046 34.2124 20.2578 34.4931L24.4958 37.866C24.6457 37.9859 24.8256 38.0437 25.0038 38.0437C25.236 38.0437 25.4671 37.9451 25.6279 37.7554L31.8037 30.4764C32.0964 30.1319 32.0538 29.6163 31.7099 29.3241C31.3649 29.0319 30.8487 29.0745 30.5571 29.4184ZM28.7992 22.5433V8.56209C28.7992 8.34623 28.7142 8.14019 28.5626 7.98648L20.8857 0.241469C20.7315 0.0866673 20.5227 0 20.3047 0H0.817616C0.365747 0 0 0.365747 0 0.817617V38.295C0 38.7463 0.365747 39.1126 0.817616 39.1126H15.9953C17.9451 42.6196 21.6854 45 25.9741 45C32.267 45 37.3869 39.8806 37.3869 33.5877C37.3863 28.2716 33.7272 23.8057 28.7992 22.5433ZM15.2584 37.4774H1.63523V1.63523H19.4871V8.56209C19.4871 9.01396 19.8534 9.3797 20.3047 9.3797H27.164V22.2381C26.7731 22.1978 26.3763 22.1754 25.9735 22.1754C19.6806 22.1754 14.5612 27.2953 14.5612 33.5883C14.5612 34.9553 14.8158 36.2608 15.2584 37.4774ZM25.9735 43.3642C20.5821 43.3642 16.1964 38.9785 16.1964 33.5872C16.1964 28.1958 20.5821 23.8096 25.9735 23.8096C31.3649 23.8096 35.7511 28.1958 35.7511 33.5872C35.7511 38.9785 31.3649 43.3642 25.9735 43.3642Z" fill="#0361F0"/>
</svg>
