<svg width="36" height="25" viewBox="0 0 36 25" fill="none" xmlns="http://www.w3.org/2000/svg">
    <defs>
        <linearGradient id="paint0_linear" x1="13.6981" y1="13.125" x2="33.6997" y2="23.1249"
            gradientUnits="userSpaceOnUse">
            <stop stop-color="white" />
            <stop offset="0.231554" stop-color="#F5F5F5" />
            <stop offset="1" stop-color="#EEEEEE" />
        </linearGradient>
    </defs>
    <path
        d="M12.1108 14.2306C12.4768 12.0816 13.5914 10.1314 15.2574 8.72529C16.9233 7.31918 19.0331 6.54785 21.2132 6.54785C23.3933 6.54785 25.5031 7.31918 27.169 8.72529C28.835 10.1314 29.9496 12.0816 30.3156 14.2306C31.6596 14.2649 32.9424 14.7996 33.9128 15.7299C34.8833 16.6603 35.4716 17.9193 35.5625 19.2605C35.6534 20.6018 35.2404 21.9286 34.4044 22.9814C33.5683 24.0342 32.3695 24.7371 31.0424 24.9525C30.9689 24.9837 30.8899 25 30.8101 25.0001H11.6342C11.5582 24.9993 11.4832 24.9831 11.4138 24.9525C10.088 24.7382 8.88979 24.0373 8.05316 22.9869C7.21653 21.9365 6.80161 20.6119 6.88946 19.2719C6.97731 17.9319 7.56162 16.6728 8.52823 15.7406C9.49485 14.8083 10.7743 14.2699 12.1167 14.2306H12.1108Z"
        fill="white" />
    <path
        d="M12.1108 14.2306C12.4768 12.0816 13.5914 10.1314 15.2574 8.72529C16.9233 7.31918 19.0331 6.54785 21.2132 6.54785C23.3933 6.54785 25.5031 7.31918 27.169 8.72529C28.835 10.1314 29.9496 12.0816 30.3156 14.2306C31.6596 14.2649 32.9424 14.7996 33.9128 15.7299C34.8833 16.6603 35.4716 17.9193 35.5625 19.2605C35.6534 20.6018 35.2404 21.9286 34.4044 22.9814C33.5683 24.0342 32.3695 24.7371 31.0424 24.9525C30.9689 24.9837 30.8899 25 30.8101 25.0001H11.6342C11.5582 24.9993 11.4832 24.9831 11.4138 24.9525C10.088 24.7382 8.88979 24.0373 8.05316 22.9869C7.21653 21.9365 6.80161 20.6119 6.88946 19.2719C6.97731 17.9319 7.56162 16.6728 8.52823 15.7406C9.49485 14.8083 10.7743 14.2699 12.1167 14.2306H12.1108Z"
        fill="url(#paint0_linear)" />
    <path
        d="M12.3572 14.2725L12.1204 14.2322L12.124 14.4804C10.8438 14.518 9.62362 15.0315 8.70178 15.9205C7.77995 16.8096 7.22271 18.0104 7.13893 19.2882C7.05515 20.5661 7.45084 21.8294 8.24871 22.8312C9.04659 23.8329 10.1893 24.5013 11.4537 24.7057L11.4853 24.7108L11.5147 24.7237C11.5528 24.7406 11.594 24.7495 11.6356 24.7501H30.8096C30.8559 24.75 30.9018 24.7406 30.9444 24.7224L30.9724 24.7105L31.0024 24.7057C32.2679 24.5003 33.4113 23.83 34.2086 22.826C35.0059 21.8219 35.3997 20.5565 35.313 19.2774C35.2263 17.9984 34.6653 16.7977 33.7398 15.9104C32.8143 15.0232 31.591 14.5132 30.3093 14.4805L30.1037 14.4752L30.0692 14.2725C29.7131 12.1817 28.6286 10.2844 27.0078 8.91634C25.3869 7.5483 23.3343 6.79785 21.2132 6.79785C19.0921 6.79785 17.0394 7.5483 15.4186 8.91634C13.7978 10.2844 12.7133 12.1817 12.3572 14.2725Z"
        stroke="black" stroke-opacity="0.19" stroke-width="0.5" />
    <path
        d="M0.595653 9.8291H2.90701C2.90701 10.0257 2.87722 10.2222 2.87722 10.4248C2.87722 10.6273 2.87722 10.8239 2.91296 11.0204H0.595653C0.437661 11.0204 0.28614 10.9577 0.174423 10.846C0.0627053 10.7343 -5.65052e-05 10.5827 -5.65052e-05 10.4248C-5.65052e-05 10.2668 0.0627053 10.1153 0.174423 10.0036C0.28614 9.89186 0.437661 9.8291 0.595653 9.8291Z"
        fill="#F08922" />
    <path
        d="M11.1516 13.1043C9.43629 13.3618 7.89123 14.284 6.85061 15.6716C6.07529 15.1435 5.42664 14.4501 4.95128 13.6414C4.47592 12.8327 4.18567 11.9287 4.10139 10.9944C4.01711 10.0601 4.1409 9.1188 4.46385 8.23807C4.78681 7.35735 5.3009 6.55911 5.96918 5.90075C6.63746 5.24239 7.44333 4.74026 8.32883 4.43047C9.21434 4.12068 10.1575 4.01092 11.0905 4.10908C12.0235 4.20724 12.9231 4.51088 13.7247 4.99818C14.5264 5.48547 15.2101 6.14431 15.7267 6.92734C13.4658 8.32342 11.8279 10.5348 11.1516 13.1043Z"
        fill="#F08922" />
    <path
        d="M4.68825 5.52733L3.056 3.89522C2.95841 3.78127 2.90741 3.63469 2.91321 3.48478C2.919 3.33487 2.98115 3.19266 3.08724 3.08657C3.19333 2.98049 3.33555 2.91834 3.48548 2.91255C3.63541 2.90676 3.78199 2.95776 3.89595 3.05534L5.5282 4.68745C5.22675 4.94509 4.94591 5.22591 4.68825 5.52733Z"
        fill="#ECAB03" />
    <path
        d="M10.4249 2.87704C10.2224 2.87704 10.0258 2.87704 9.82921 2.90683V0.595661C9.82921 0.437682 9.89197 0.286173 10.0037 0.174465C10.1154 0.0627571 10.2669 0 10.4249 0C10.5829 0 10.7344 0.0627571 10.8462 0.174465C10.9579 0.286173 11.0206 0.437682 11.0206 0.595661V2.91278C10.824 2.89491 10.6275 2.87704 10.4249 2.87704Z"
        fill="#ECAB03" />
    <path
        d="M15.3156 4.69341L16.9538 3.05534C17.0678 2.95776 17.2144 2.90676 17.3643 2.91255C17.5142 2.91834 17.6564 2.98049 17.7625 3.08657C17.8686 3.19266 17.9308 3.33487 17.9366 3.48478C17.9424 3.63469 17.8914 3.78127 17.7938 3.89522L16.1615 5.52733C15.9019 5.22757 15.6191 4.94873 15.3156 4.69341Z"
        fill="#ECAB03" />
    <path
        d="M4.68825 15.3145C4.94569 15.6161 5.22655 15.8969 5.5282 16.1543L3.89 17.7924C3.77604 17.89 3.62945 17.941 3.47952 17.9352C3.3296 17.9294 3.18738 17.8673 3.08128 17.7612C2.97519 17.6551 2.91304 17.5129 2.90725 17.363C2.90146 17.213 2.95245 17.0665 3.05005 16.9525L4.68825 15.3145Z"
        fill="#ECAB03" />
</svg>
