<svg width="19" height="18" viewBox="0 0 19 18" fill="none" xmlns="http://www.w3.org/2000/svg">
<path d="M12.6606 4.6908L6.24312 11.1082L6.24312 5.50088C6.24312 5.05275 5.87543 4.68506 5.4273 4.68506C5.32089 4.68495 5.2155 4.70583 5.11716 4.7465C5.01883 4.78717 4.92949 4.84684 4.85424 4.92208C4.779 4.99732 4.71933 5.08667 4.67866 5.185C4.63799 5.28333 4.61711 5.38872 4.61722 5.49514L4.61722 13.0674C4.61711 13.1738 4.63799 13.2792 4.67866 13.3775C4.71933 13.4758 4.779 13.5652 4.85424 13.6404C4.92949 13.7157 5.01883 13.7753 5.11717 13.816C5.2155 13.8567 5.32089 13.8776 5.4273 13.8774L12.9995 13.8774C13.1059 13.8774 13.2112 13.8565 13.3095 13.8158C13.4078 13.7751 13.4971 13.7154 13.5723 13.6402C13.6476 13.565 13.7072 13.4757 13.7479 13.3774C13.7887 13.2791 13.8096 13.1737 13.8096 13.0674C13.8096 12.961 13.7887 12.8556 13.7479 12.7574C13.7072 12.6591 13.6476 12.5698 13.5723 12.4946C13.4971 12.4193 13.4078 12.3597 13.3095 12.319C13.2112 12.2782 13.1059 12.2573 12.9995 12.2573L7.39217 12.2573L13.8096 5.83985C14.1256 5.52386 14.1256 5.00679 13.8096 4.6908C13.4936 4.37481 12.9765 4.37481 12.6606 4.6908Z" fill="#1EB12D"/>
</svg>
