<svg width="26" height="28" viewBox="0 0 26 28" fill="none" xmlns="http://www.w3.org/2000/svg">
<path d="M8.60266 8.03433C8.60266 8.64303 8.60266 9.25172 8.60266 9.88476C8.60266 9.95781 8.48384 10.0795 8.38878 10.1282C7.03422 10.8343 5.67966 11.5161 4.3251 12.1978C4.06369 12.3439 3.87357 12.4656 3.87357 12.8065C3.87357 12.9039 3.82605 13.0013 3.80228 13.123C4.39639 13.4395 4.99049 13.7317 5.5846 14.0482C6.96293 14.7543 8.34126 15.4604 9.71958 16.1665C10.6939 16.6778 11.7395 16.8239 12.8089 16.7752C13.807 16.7265 14.7576 16.4587 15.6606 15.9717C17.4192 15.0465 19.2253 14.1456 21.0076 13.2204C21.0789 13.1961 21.1264 13.1474 21.1977 13.123C21.1502 12.9039 21.1502 12.6848 21.0789 12.49C21.0551 12.3926 20.9363 12.3195 20.8413 12.2709C19.4392 11.5404 18.0608 10.8343 16.6587 10.1282C16.4686 10.0309 16.3973 9.93346 16.4211 9.73868C16.4449 9.17868 16.4211 8.59433 16.4211 8.03433C16.7538 8.00998 17.039 7.98563 17.3479 7.93694C17.4667 7.91259 17.6093 7.88824 17.7044 7.83955C18.0133 7.64476 18.2747 7.74216 18.5599 7.88824C20.0808 8.69172 21.6255 9.47085 23.1702 10.25C23.384 10.3717 23.5979 10.4691 23.8356 10.5665C24.6198 10.9074 25.1188 11.7595 25.0238 12.6117C25 12.7822 25.0475 12.9526 25.0475 13.0987C25.0475 15.5578 25.0475 18.0169 25.0475 20.5004C25.0475 20.9143 25.0238 21.3526 24.9525 21.7665C24.8337 22.3265 24.4772 22.7161 23.9781 22.9839C22.5048 23.7387 21.0076 24.4691 19.5342 25.2239C18.1084 25.9543 16.7063 26.6848 15.3042 27.3909C14.2348 27.9265 13.1179 28.0482 11.9534 27.9509C11.0266 27.8778 10.1711 27.5613 9.33935 27.123C6.89163 25.8326 4.42015 24.5909 1.97243 23.3491C1.6635 23.2517 1.42586 23.1543 1.21198 23.0569C0.403992 22.7161 -0.0712928 21.8639 0.0237643 20.9874C0.0475285 20.8169 0 20.6465 0 20.5004C0 18.0413 0 15.5822 0 13.0987C0 12.7578 0 12.4169 0.0475285 12.1004C0.142586 11.3943 0.522814 10.9074 1.14068 10.5909C2.80418 9.73868 4.49144 8.91085 6.15494 8.03433C6.60646 7.79085 7.01046 7.59607 7.53327 7.86389C7.81844 8.03433 8.22243 7.98563 8.60266 8.03433Z" fill="#0361F0"/>
<path d="M10.1473 6.40272C9.7671 6.40272 9.4344 6.40272 9.07793 6.40272C8.769 6.40272 8.46006 6.40272 8.15113 6.40272C7.48573 6.40272 6.93915 5.74533 7.03421 5.06359C7.08174 4.67402 7.29561 4.43054 7.55702 4.21141C7.65208 4.13837 7.72337 4.06532 7.79466 3.99228C8.769 2.99402 9.74333 1.99576 10.7177 1.02185C10.9315 0.802716 11.1692 0.583586 11.4068 0.388803C12.096 -0.171197 13.0703 -0.122501 13.712 0.510542C14.8526 1.65489 15.9933 2.82359 17.134 3.96793C17.2291 4.06532 17.3479 4.16272 17.443 4.23576C17.942 4.62532 18.0608 5.11228 17.8469 5.67228C17.6331 6.20793 17.134 6.45141 16.5637 6.37837C16.2785 6.35402 16.0171 6.40272 15.7319 6.40272C15.4468 6.40272 15.1616 6.40272 14.8289 6.40272C14.8289 6.52446 14.8289 6.62185 14.8289 6.74359C14.8289 8.74011 14.8289 10.7366 14.8289 12.7332C14.8289 13.561 14.3536 14.2184 13.5931 14.3645C13.308 14.4375 12.999 14.3888 12.6901 14.4132C12.3574 14.4132 12.0247 14.4132 11.692 14.4132C10.7652 14.3888 10.1236 13.7071 10.0998 12.7575C10.0998 10.761 10.0998 8.74011 10.0998 6.74359C10.1473 6.64619 10.1473 6.52446 10.1473 6.40272Z" fill="#0361F0"/>
</svg>
