<svg width="26" height="22" viewBox="0 0 26 22" fill="none" xmlns="http://www.w3.org/2000/svg">
<path d="M0.813354 3.3816C0.813354 2.57332 1.13444 1.79815 1.70598 1.22661C2.27752 0.655072 3.05269 0.333984 3.86097 0.333984H22.1467C22.955 0.333984 23.7301 0.655072 24.3017 1.22661C24.8732 1.79815 25.1943 2.57332 25.1943 3.3816V18.6197C25.1943 19.428 24.8732 20.2031 24.3017 20.7747C23.7301 21.3462 22.955 21.6673 22.1467 21.6673H3.86097C3.05269 21.6673 2.27752 21.3462 1.70598 20.7747C1.13444 20.2031 0.813354 19.428 0.813354 18.6197V3.3816ZM2.33716 17.0959V18.6197C2.33716 19.0238 2.49771 19.4114 2.78348 19.6972C3.06925 19.983 3.45683 20.1435 3.86097 20.1435H22.1467C22.5508 20.1435 22.9384 19.983 23.2242 19.6972C23.51 19.4114 23.6705 19.0238 23.6705 18.6197V13.2864L17.9151 10.3195C17.7722 10.2479 17.6104 10.2231 17.4526 10.2485C17.2948 10.274 17.149 10.3484 17.0358 10.4612L11.3825 16.1146L7.32916 13.4144C7.18282 13.3169 7.00728 13.2731 6.83231 13.2903C6.65734 13.3075 6.49371 13.3847 6.36916 13.5088L2.33716 17.0959ZM9.95621 7.19113C9.95621 6.58492 9.7154 6.00354 9.28674 5.57488C8.85809 5.14623 8.27671 4.90541 7.6705 4.90541C7.06429 4.90541 6.48291 5.14623 6.05425 5.57488C5.6256 6.00354 5.38478 6.58492 5.38478 7.19113C5.38478 7.79734 5.6256 8.37872 6.05425 8.80737C6.48291 9.23603 7.06429 9.47684 7.6705 9.47684C8.27671 9.47684 8.85809 9.23603 9.28674 8.80737C9.7154 8.37872 9.95621 7.79734 9.95621 7.19113Z" fill="#0361F0"/>
</svg>
