<svg width="32" height="38" viewBox="0 0 32 38" fill="none" xmlns="http://www.w3.org/2000/svg">
<path d="M10.9905 12.5198C10.9905 13.2756 10.9905 14.0313 10.9905 14.8173C10.9905 14.908 10.8387 15.0591 10.7173 15.1196C8.98672 15.9962 7.25617 16.8426 5.52562 17.6891C5.19165 17.8704 4.94877 18.0216 4.94877 18.4448C4.94877 18.5657 4.88805 18.6866 4.85769 18.8378C5.6167 19.2308 6.37571 19.5935 7.13473 19.9865C8.89564 20.8631 10.6565 21.7398 12.4175 22.6164C13.6622 23.2513 14.9981 23.4326 16.3643 23.3722C17.6395 23.3117 18.8539 22.9792 20.0076 22.3746C22.2543 21.2259 24.5617 20.1074 26.8387 18.9587C26.9298 18.9285 26.9905 18.868 27.0816 18.8378C27.0209 18.5657 27.0209 18.2936 26.9298 18.0518C26.8994 17.9309 26.7476 17.8402 26.6262 17.7797C24.8349 16.8729 23.074 15.9962 21.2827 15.1196C21.0398 14.9986 20.9488 14.8777 20.9791 14.6359C21.0095 13.9406 20.9791 13.2151 20.9791 12.5198C21.4042 12.4896 21.7685 12.4594 22.1632 12.3989C22.315 12.3687 22.4972 12.3385 22.6186 12.278C23.0133 12.0362 23.3472 12.1571 23.7116 12.3385C25.6546 13.336 27.6281 14.3034 29.6015 15.2707C29.8748 15.4219 30.148 15.5428 30.4516 15.6637C31.4535 16.0869 32.0911 17.1449 31.9696 18.203C31.9393 18.4146 32 18.6262 32 18.8075C32 21.8607 32 24.9139 32 27.9973C32 28.5112 31.9696 29.0553 31.8786 29.5692C31.7268 30.2645 31.2713 30.7481 30.6338 31.0807C28.7514 32.0178 26.8387 32.9247 24.9564 33.8618C23.1347 34.7686 21.3435 35.6755 19.5522 36.5522C18.186 37.2172 16.759 37.3684 15.2713 37.2475C14.0873 37.1568 12.9943 36.7638 11.9317 36.2197C8.80455 34.6175 5.64706 33.0758 2.51992 31.5341C2.12524 31.4132 1.82163 31.2923 1.54839 31.1714C0.516129 30.7481 -0.0910816 29.6901 0.0303605 28.6019C0.0607211 28.3902 0 28.1786 0 27.9973C0 24.9441 0 21.8909 0 18.8075C0 18.3843 0 17.9611 0.0607211 17.5681C0.182163 16.6915 0.667932 16.0869 1.45731 15.6939C3.58254 14.6359 5.73814 13.6081 7.86338 12.5198C8.44023 12.2175 8.95636 11.9757 9.62429 12.3082C9.98862 12.5198 10.5047 12.4594 10.9905 12.5198Z" fill="#0361F0"/>
<path d="M13.0643 8.83786C12.587 8.83786 12.1693 8.83786 11.7218 8.83786C11.334 8.83786 10.9462 8.83786 10.5584 8.83786C9.72315 8.83786 9.03704 8.00384 9.15636 7.13893C9.21602 6.64469 9.4845 6.3358 9.81265 6.05779C9.93197 5.96512 10.0215 5.87245 10.111 5.77978C11.334 4.51331 12.5571 3.24683 13.7802 2.01124C14.0487 1.73324 14.347 1.45523 14.6453 1.20811C15.5104 0.497649 16.7335 0.559429 17.5389 1.36256C18.9708 2.81437 20.4027 4.29708 21.8346 5.74889C21.954 5.87245 22.1031 5.99601 22.2224 6.08868C22.8489 6.58291 22.9981 7.20071 22.7296 7.91117C22.4611 8.59074 21.8346 8.89964 21.1187 8.80697C20.7607 8.77608 20.4326 8.83786 20.0746 8.83786C19.7166 8.83786 19.3586 8.83786 18.941 8.83786C18.941 8.99231 18.941 9.11587 18.941 9.27031C18.941 11.8033 18.941 14.3362 18.941 16.8692C18.941 17.9194 18.3444 18.7534 17.3898 18.9388C17.0318 19.0315 16.644 18.9697 16.2562 19.0006C15.8386 19.0006 15.4209 19.0006 15.0033 19.0006C13.8399 18.9697 13.0344 18.1048 13.0046 16.9001C13.0046 14.3671 13.0046 11.8033 13.0046 9.27031C13.0643 9.14676 13.0643 8.99231 13.0643 8.83786Z" fill="#0361F0"/>
</svg>
