<svg width="33" height="33" viewBox="0 0 33 33" fill="none" xmlns="http://www.w3.org/2000/svg">
<path d="M31.1667 20.1556H23.2833L24.6217 12.8444H31.1667C31.6529 12.8444 32.1192 12.6518 32.463 12.309C32.8068 11.9663 33 11.5014 33 11.0166C33 10.5318 32.8068 10.0669 32.463 9.72413C32.1192 9.38135 31.6529 9.18878 31.1667 9.18878H25.2817L26.5467 2.22484C26.5967 1.98048 26.5959 1.72849 26.5446 1.48441C26.4932 1.24032 26.3923 1.00929 26.2481 0.80554C26.1038 0.601789 25.9193 0.429627 25.7058 0.29965C25.4923 0.169673 25.2544 0.0846304 25.0067 0.0497566C24.7604 -0.00873802 24.5046 -0.0157406 24.2555 0.0291898C24.0063 0.0741202 23.7692 0.17001 23.5591 0.310816C23.349 0.451623 23.1704 0.634293 23.0346 0.847318C22.8988 1.06034 22.8087 1.2991 22.77 1.54856L21.395 9.18878H14.2817L15.5467 2.22484C15.5967 1.98048 15.596 1.72849 15.5446 1.48441C15.4933 1.24032 15.3923 1.00929 15.2481 0.80554C15.1038 0.601789 14.9193 0.429627 14.7058 0.29965C14.4923 0.169673 14.2544 0.0846304 14.0067 0.0497566C13.7604 -0.00873802 13.5046 -0.0157406 13.2555 0.0291898C13.0063 0.0741202 12.7692 0.17001 12.5591 0.310816C12.349 0.451623 12.1704 0.634293 12.0346 0.847318C11.8988 1.06034 11.8087 1.2991 11.77 1.54856L10.395 9.18878H1.83333C1.3471 9.18878 0.880787 9.38135 0.536971 9.72413C0.193154 10.0669 0 10.5318 0 11.0166C0 11.5014 0.193154 11.9663 0.536971 12.309C0.880787 12.6518 1.3471 12.8444 1.83333 12.8444H9.71667L8.37833 20.1556H1.83333C1.3471 20.1556 0.880787 20.3482 0.536971 20.691C0.193154 21.0337 0 21.4987 0 21.9834C0 22.4682 0.193154 22.9331 0.536971 23.2759C0.880787 23.6186 1.3471 23.8112 1.83333 23.8112H7.71833L6.45333 30.7752C6.40335 31.0195 6.40405 31.2715 6.4554 31.5156C6.50675 31.7597 6.60766 31.9907 6.75192 32.1945C6.89618 32.3982 7.08073 32.5704 7.29423 32.7004C7.50772 32.8303 7.74564 32.9154 7.99333 32.9502C8.23962 33.0087 8.49539 33.0157 8.74453 32.9708C8.99366 32.9259 9.23076 32.83 9.44089 32.6892C9.65101 32.5484 9.82961 32.3657 9.96542 32.1527C10.1012 31.9397 10.1913 31.7009 10.23 31.4514L11.605 23.8112H18.7183L17.4533 30.7752C17.4033 31.0195 17.4041 31.2715 17.4554 31.5156C17.5067 31.7597 17.6077 31.9907 17.7519 32.1945C17.8962 32.3982 18.0807 32.5704 18.2942 32.7004C18.5077 32.8303 18.7456 32.9154 18.9933 32.9502C19.2396 33.0087 19.4954 33.0157 19.7445 32.9708C19.9937 32.9259 20.2308 32.83 20.4409 32.6892C20.651 32.5484 20.8296 32.3657 20.9654 32.1527C21.1012 31.9397 21.1913 31.7009 21.23 31.4514L22.605 23.8112H31.1667C31.6529 23.8112 32.1192 23.6186 32.463 23.2759C32.8068 22.9331 33 22.4682 33 21.9834C33 21.4987 32.8068 21.0337 32.463 20.691C32.1192 20.3482 31.6529 20.1556 31.1667 20.1556ZM12.2833 20.1556L13.6217 12.8444H20.7167L19.3783 20.1556H12.2833Z" fill="#0361F0"/>
</svg>
