<svg width="32" height="32" viewBox="0 0 32 32" fill="none" xmlns="http://www.w3.org/2000/svg">
<path d="M28.75 15H20C19.2044 15 18.4413 14.6839 17.8787 14.1213C17.3161 13.5587 17 12.7956 17 12V3.25C17 3.1837 16.9737 3.12011 16.9268 3.07322C16.8799 3.02634 16.8163 3 16.75 3H13.4219C13.3052 2.78384 13.1692 2.57863 13.0156 2.38687C12.295 1.4925 11.2244 1 10 1C7.645 1 6 2.85063 6 5.5V14.5C6 16.0625 7.27125 17 8.5 17C8.8293 17.0036 9.15601 16.9414 9.46095 16.817C9.76589 16.6927 10.0429 16.5087 10.2758 16.2758C10.5087 16.0429 10.6927 15.7659 10.817 15.4609C10.9414 15.156 11.0036 14.8293 11 14.5V5C11 4.73478 10.8946 4.48043 10.7071 4.29289C10.5196 4.10536 10.2652 4 10 4C9.73478 4 9.48043 4.10536 9.29289 4.29289C9.10536 4.48043 9 4.73478 9 5V14.5C9.00217 14.5662 8.99073 14.6322 8.96637 14.6939C8.94201 14.7555 8.90526 14.8115 8.85839 14.8584C8.81152 14.9053 8.75553 14.942 8.69388 14.9664C8.63224 14.9907 8.56625 15.0022 8.5 15C8.36062 15 8 14.91 8 14.5V5.5C8 4.29125 8.52563 3 10 3C11.8556 3 12 4.88437 12 5.46125V14.1331C12 15.2238 11.6581 16.21 11.0369 16.9119C10.4062 17.625 9.52938 18 8.5 18C7.47062 18 6.59375 17.625 5.96313 16.9119C5.34188 16.21 5 15.2238 5 14.1331V9C5 8.73478 4.89464 8.48043 4.70711 8.29289C4.51957 8.10536 4.26522 8 4 8C3.73478 8 3.48043 8.10536 3.29289 8.29289C3.10536 8.48043 3 8.73478 3 9V14.1331C3 17.3525 5.07437 19.735 8 19.9788V27C8 28.0609 8.42143 29.0783 9.17157 29.8284C9.92172 30.5786 10.9391 31 12 31H25C26.0609 31 27.0783 30.5786 27.8284 29.8284C28.5786 29.0783 29 28.0609 29 27V15.25C29 15.1837 28.9737 15.1201 28.9268 15.0732C28.8799 15.0263 28.8163 15 28.75 15Z" fill="#0361F0"/>
<path d="M20 12.9993H28.1131C28.1378 12.9992 28.1618 12.9918 28.1823 12.9781C28.2027 12.9643 28.2187 12.9449 28.2281 12.9221C28.2375 12.8993 28.24 12.8743 28.2352 12.8501C28.2304 12.8259 28.2186 12.8037 28.2012 12.7862L19.2131 3.79807C19.1956 3.78069 19.1734 3.76887 19.1492 3.76409C19.1251 3.75931 19.1 3.76179 19.0772 3.7712C19.0545 3.78062 19.035 3.79656 19.0212 3.81702C19.0075 3.83748 19.0001 3.86155 19 3.88619V11.9993C19 12.2645 19.1054 12.5189 19.2929 12.7064C19.4804 12.894 19.7348 12.9993 20 12.9993Z" fill="#0361F0"/>
</svg>
