<svg width="48" height="30" viewBox="0 0 48 30" fill="none" xmlns="http://www.w3.org/2000/svg">
<path d="M47.5546 28.2314C47.5546 29.214 46.7686 30 45.786 30H1.76856C0.786024 30 0 29.214 0 28.2314V1.76856C0 0.786029 0.786024 0 1.76856 0H45.786C46.7686 0 47.5546 0.786029 47.5546 1.76856V28.2314Z" fill="#1A1F71"/>
<path d="M18.0805 8.71165L12.7748 21.3536H9.30322L6.68313 11.2662C6.55213 10.6767 6.35562 10.4147 5.89711 10.1527C5.11108 9.75968 3.80104 9.30116 2.6875 9.10466L2.753 8.71165H8.32069C9.04121 8.71165 9.69624 9.17016 9.82724 10.0217L11.2028 17.3579L14.6089 8.77715H18.0805V8.71165ZM31.6395 17.2269C31.6395 13.8863 27.0543 13.6898 27.0543 12.2488C27.0543 11.7902 27.5128 11.3317 28.4299 11.2007C28.8884 11.1352 30.1984 11.0697 31.6395 11.7902L32.229 9.10466C31.443 8.84265 30.4604 8.51514 29.1504 8.51514C25.9408 8.51514 23.6482 10.2182 23.6482 12.7073C23.6482 14.5413 25.2858 15.5239 26.5303 16.1134C27.7748 16.7029 28.2334 17.0959 28.2334 17.6854C28.2334 18.537 27.2508 18.93 26.2683 18.93C24.6307 18.93 23.6482 18.4715 22.9277 18.144L22.3382 20.8951C23.1242 21.2226 24.4997 21.5501 25.9408 21.5501C29.3469 21.5501 31.574 19.847 31.6395 17.2269ZM40.1548 21.3536H43.1679L40.5478 8.71165H37.7312C37.0761 8.71165 36.5521 9.10466 36.3556 9.62868L31.443 21.3536H34.8491L35.5041 19.454H39.6962L40.1548 21.3536ZM36.4866 16.8994L38.1897 12.1833L39.1722 16.8994H36.4866ZM22.7312 8.71165L20.0456 21.3536H16.7705L19.4561 8.71165H22.7312Z" fill="white"/>
</svg>
