<svg width="42" height="14" viewBox="0 0 42 14" fill="none" xmlns="http://www.w3.org/2000/svg">
    <path
        d="M27.4806 0.0390625C24.5238 0.0390625 21.8815 1.54975 21.8815 4.34087C21.8815 7.54176 26.5678 7.76284 26.5678 9.37088C26.5678 10.048 25.7806 10.654 24.4362 10.654C22.5281 10.654 21.1021 9.80715 21.1021 9.80715L20.4919 12.6237C20.4919 12.6237 22.1347 13.3391 24.3158 13.3391C27.5485 13.3391 30.0923 11.7542 30.0923 8.91535C30.0923 5.53304 25.3864 5.31853 25.3864 3.826C25.3864 3.29561 26.0326 2.71446 27.3732 2.71446C28.8858 2.71446 30.1199 3.33038 30.1199 3.33038L30.7171 0.610071C30.7171 0.610071 29.3743 0.0390625 27.4806 0.0390625ZM0.428713 0.244369L0.357117 0.654982C0.357117 0.654982 1.60105 0.879392 2.72141 1.32704C4.16397 1.84036 4.26674 2.13919 4.50969 3.06733L7.15711 13.1273H10.706L16.1733 0.244369H12.6326L9.11949 9.00357L7.68595 1.57886C7.55448 0.729108 6.88855 0.244369 6.07341 0.244369H0.428713ZM17.5971 0.244369L14.8195 13.1273H18.1959L20.9638 0.244369H17.5971ZM36.4285 0.244369C35.6143 0.244369 35.1829 0.67404 34.8664 1.42488L29.9198 13.1273H33.4605L34.1456 11.1769H38.4592L38.8758 13.1273H42L39.2744 0.244369H36.4285ZM36.889 3.72495L37.9385 8.55928H35.1268L36.889 3.72495Z"
        fill="white" />
</svg>
