<svg xmlns="http://www.w3.org/2000/svg"
    width="62dp"
    height="20dp"
    viewBox="0 0 94 94">
    <path
        d="M35.4271,0.4523L23.2161,29.5477H15.2261L9.196,6.3317C8.8945,4.9749 8.4422,4.3719 7.3869,3.7688C5.5779,2.8643 2.5628,1.809 0,1.3568L0.1508,0.4523H12.9648C14.6231,0.4523 16.1307,1.5075 16.4322,3.4673L19.598,20.3518L27.4372,0.603H35.4271V0.4523ZM66.6332,20.0503C66.6332,12.3618 56.0804,11.9096 56.0804,8.593C56.0804,7.5377 57.1357,6.4824 59.2462,6.1809C60.3015,6.0301 63.3166,5.8794 66.6332,7.5377L67.9899,1.3568C66.1809,0.7538 63.9196,0 60.9045,0C53.5176,0 48.2412,3.9196 48.2412,9.6482C48.2412,13.8693 52.01,16.1307 54.8744,17.4874C57.7387,18.8442 58.794,19.7487 58.794,21.1055C58.794,23.0653 56.5327,23.9699 54.2714,23.9699C50.5025,23.9699 48.2412,22.9146 46.5829,22.1608L45.2261,28.4925C47.0352,29.2462 50.201,30 53.5176,30C61.3568,30 66.4824,26.0804 66.6332,20.0503ZM86.2312,29.5477H93.1658L87.1357,0.4523H80.6533C79.1457,0.4523 77.9397,1.3568 77.4874,2.5628L66.1809,29.5477H74.0201L75.5276,25.1759H85.1759L86.2312,29.5477ZM77.7889,19.2965L81.7085,8.4422L83.9699,19.2965H77.7889ZM46.1306,0.4523L39.9497,29.5477H32.4121L38.593,0.4523H46.1306Z"
        fill="#ffffff"/>
</svg>
