<svg xmlns="http://www.w3.org/2000/svg"
    width="60"
    height="21"
    viewBox="0 0 60 21">
    <path
        d="M10.2969,20.5565C15.9837,20.5565 20.5937,15.9548 20.5937,10.2783C20.5937,4.6017 15.9837,0 10.2969,0C4.6101,0 0,4.6017 0,10.2783C0,15.9548 4.6101,20.5565 10.2969,20.5565Z"
        fill="#EE312A"/>
    <path
        d="M10.2969,14.6809C7.9939,9.4696 6.3051,4.6016 6.3051,4.6016H2.7742C2.7742,4.6016 4.9233,10.85 8.9151,18.664H11.6787C15.6706,10.85 17.8197,4.6016 17.8197,4.6016H14.2888C14.2888,4.6016 12.5999,9.4696 10.2969,14.6809Z"
        fill="#ffffff"/>
    <path
        d="M59.5894,14.0335H52.6813C52.6813,14.0335 52.8348,16.3325 55.9051,16.3325C57.4402,16.3325 58.9754,15.8724 58.9754,15.8724L59.2825,18.3241C59.2825,18.3241 57.7473,18.937 55.598,18.937C52.5279,18.937 49.7646,17.4047 49.7646,13.1141C49.7646,9.7429 51.9137,7.5977 54.984,7.5977C59.5894,7.5977 59.8965,12.1947 59.5894,14.0335ZM54.8306,9.7429C52.8348,9.7429 52.6813,11.8882 52.6813,11.8882H56.9797C56.9797,11.8882 56.8262,9.7429 54.8306,9.7429Z"
        fill="#ffffff"/>
    <path
        d="M35.8525,10.3904L36.313,7.9386C36.313,7.9386 32.7564,6.8613 29.8655,8.8581V18.6649H32.9359L32.9357,10.6969C34.1637,9.7775 35.8525,10.3904 35.8525,10.3904Z"
        fill="#ffffff"/>
    <path
        d="M27.4626,14.0335H20.5545C20.5545,14.0335 20.708,16.3325 23.7782,16.3325C25.3133,16.3325 26.8484,15.8724 26.8484,15.8724L27.1555,18.3241C27.1555,18.3241 25.6204,18.937 23.4712,18.937C20.4009,18.937 17.6377,17.4047 17.6377,13.1141C17.6377,9.7429 19.7869,7.5977 22.8572,7.5977C27.4626,7.5977 27.7695,12.1947 27.4626,14.0335ZM22.7036,9.7429C20.708,9.7429 20.5545,11.8882 20.5545,11.8882H24.8528C24.8528,11.8882 24.6993,9.7429 22.7036,9.7429Z"
        fill="#ffffff"/>
    <path
        d="M43.3091,14.9885C42.3547,12.6717 41.5848,10.2833 41.0064,7.8457L37.9363,7.8461C37.9363,7.8461 39.4714,13.7622 42.0813,18.6644H44.5368C47.1467,13.7622 48.6818,7.8472 48.6818,7.8472H45.6118C45.0333,10.2843 44.2633,12.6721 43.3091,14.9885Z"
        fill="#ffffff"/>
</svg>