<svg width="28" height="28" viewBox="0 0 28 28" fill="none" xmlns="http://www.w3.org/2000/svg">
<path fill-rule="evenodd" clip-rule="evenodd" d="M13.4335 1.16602C15.5129 1.16602 17.2872 2.80049 18.4848 4.9565C18.6716 5.29278 18.8479 5.64737 19.0127 6.01846C19.5357 5.75419 20.0331 5.4541 20.5007 5.12209C20.9023 4.83698 21.459 4.93139 21.7441 5.33296C22.0292 5.73453 21.9348 6.29119 21.5332 6.57631C20.9406 6.99705 20.3081 7.37246 19.642 7.69709C20.1002 9.16415 20.3925 10.8056 20.4676 12.5411H24.8085V14.3245H20.4676C20.3924 16.0599 20.1002 17.7013 19.642 19.1683C20.3081 19.493 20.9406 19.8684 21.5332 20.2891C21.9348 20.5742 22.0292 21.1309 21.7441 21.5325C21.459 21.934 20.9023 22.0284 20.5007 21.7433C20.0331 21.4113 19.5357 21.1112 19.0127 20.847C18.8479 21.2181 18.6716 21.5727 18.4848 21.909C17.2872 24.065 15.5129 25.6995 13.4335 25.6995C11.3542 25.6995 9.5799 24.065 8.3823 21.909C8.19548 21.5727 8.01912 21.218 7.85436 20.8469C7.33126 21.1112 6.83386 21.4113 6.3662 21.7433C5.96463 22.0284 5.40797 21.934 5.12286 21.5325C4.83775 21.1309 4.93216 20.5742 5.33373 20.2891C5.92637 19.8683 6.55889 19.4929 7.22502 19.1683C6.76685 17.7013 6.47464 16.0599 6.39945 14.3245H2.05853V12.5411H6.39945C6.47462 10.8057 6.76684 9.1642 7.22503 7.69715C6.5589 7.3725 5.92637 6.99708 5.33373 6.57631C4.93216 6.29119 4.83775 5.73453 5.12286 5.33296C5.40797 4.93139 5.96463 4.83698 6.3662 5.12209C6.83386 5.45413 7.33127 5.75424 7.85438 6.01852C8.01913 5.64741 8.19549 5.2928 8.3823 4.9565C9.5799 2.80049 11.3542 1.16602 13.4335 1.16602ZM9.50243 6.70187C9.64075 6.39324 9.78744 6.09965 9.94138 5.82253C10.747 4.37223 11.6714 3.49567 12.5418 3.13747V7.29673C11.4804 7.22291 10.4609 7.01846 9.50243 6.70187ZM14.3252 3.13745C15.1956 3.49563 16.1201 4.37219 16.9257 5.82253C17.0796 6.09964 17.2263 6.39321 17.3646 6.70183C16.4061 7.01843 15.3866 7.22289 14.3252 7.29673V3.13745ZM17.9845 8.37516C18.3617 9.62699 18.611 11.0363 18.6824 12.5411H14.3252V9.08397C15.6018 9.0061 16.8304 8.76226 17.9845 8.37516ZM18.6823 14.3245C18.611 15.8292 18.3617 17.2385 17.9845 18.4903C16.8304 18.1032 15.6018 17.8593 14.3252 17.7814V14.3245H18.6823ZM17.3646 20.1636C17.2263 20.4722 17.0796 20.7658 16.9257 21.0429C16.1201 22.4933 15.1956 23.3698 14.3252 23.728V19.5687C15.3866 19.6425 16.4062 19.847 17.3646 20.1636ZM12.5418 23.728C11.6714 23.3698 10.747 22.4932 9.94138 21.0429C9.78744 20.7658 9.64073 20.4722 9.50241 20.1636C10.4609 19.847 11.4804 19.6425 12.5418 19.5687V23.728ZM8.88251 18.4902C8.50536 17.2384 8.2561 15.8292 8.18473 14.3245H12.5418V17.7814C11.2652 17.8593 10.0367 18.1031 8.88251 18.4902ZM8.18472 12.5411C8.25609 11.0363 8.50536 9.62702 8.88253 8.3752C10.0367 8.76228 11.2652 9.00612 12.5418 9.08398V12.5411H8.18472Z" fill="#0361F0"/>
<path fill-rule="evenodd" clip-rule="evenodd" d="M25.7001 13.4327C25.7001 6.6583 20.2078 1.16602 13.4334 1.16602C6.65896 1.16602 1.16669 6.6583 1.16669 13.4327C1.16669 20.2072 6.65896 25.6995 13.4334 25.6995C20.2078 25.6995 25.7001 20.2072 25.7001 13.4327ZM13.4334 2.94948C19.2228 2.94948 23.9166 7.64328 23.9166 13.4327C23.9166 19.2222 19.2228 23.916 13.4334 23.916C7.64395 23.916 2.95015 19.2222 2.95015 13.4327C2.95015 7.64328 7.64395 2.94948 13.4334 2.94948Z" fill="#0361F0"/>
</svg>
