<svg width="64" height="22" viewBox="0 0 64 22" fill="none" xmlns="http://www.w3.org/2000/svg">
<path d="M11.0199 22C17.1061 22 22.0398 17.0751 22.0398 11C22.0398 4.92487 17.1061 0 11.0199 0C4.93379 0 0 4.92487 0 11C0 17.0751 4.93379 22 11.0199 22Z" fill="#EE312A"/>
<path d="M11.0197 15.7116C8.55502 10.1344 6.74757 4.92456 6.74757 4.92456H2.96875C2.96875 4.92456 5.26874 11.6118 9.5409 19.9745H12.4986C16.7707 11.6118 19.0707 4.92456 19.0707 4.92456H15.2919C15.2919 4.92456 13.4844 10.1344 11.0197 15.7116Z" fill="white"/>
<path d="M62.8722 17.2087C62.9161 17.1974 62.9555 17.1871 62.9901 17.1778L63.2823 19.5109C63.2372 19.5269 63.1785 19.547 63.1071 19.5702C62.9206 19.6305 62.6473 19.7114 62.3026 19.7923C61.6129 19.9543 60.6389 20.1164 59.5028 20.1164C57.8824 20.1164 56.3609 19.7118 55.2466 18.7584C54.1365 17.8086 53.4098 16.2962 53.4098 14.0346C53.4098 12.2629 53.9739 10.8263 54.9286 9.83366C55.8829 8.84135 57.2388 8.28074 58.8457 8.28074C60.0518 8.28074 60.966 8.58132 61.6566 9.054C62.3479 9.52719 62.8248 10.1795 63.1445 10.8977C63.7594 12.2785 63.7863 13.8878 63.6459 14.8685H56.3813H56.2209L56.2316 15.0285L56.3813 15.0185C56.2316 15.0285 56.2316 15.0286 56.2316 15.0287L56.2316 15.029L56.2317 15.0298L56.2319 15.0319L56.2324 15.0388C56.2329 15.0445 56.2337 15.0526 56.2348 15.0628C56.2371 15.0831 56.2408 15.112 56.2467 15.1483C56.2584 15.2207 56.2789 15.3228 56.3142 15.4447C56.3846 15.6881 56.5146 16.0126 56.7532 16.3375C57.2357 16.9944 58.145 17.6289 59.8314 17.6289C60.6664 17.6289 61.4985 17.504 62.1198 17.3798C62.431 17.3176 62.6904 17.2554 62.8722 17.2087ZM56.3813 12.7226L56.2317 12.7119L56.2202 12.8726H56.3813H60.9814H61.1425L61.131 12.7119L60.9814 12.7226C61.131 12.7119 61.131 12.7118 61.131 12.7117L61.131 12.7115L61.131 12.7109L61.1308 12.7091L61.1303 12.703L61.1283 12.6815C61.1264 12.663 61.1234 12.6366 61.1188 12.6034C61.1096 12.537 61.0941 12.443 61.0687 12.3307C61.0179 12.1066 60.9267 11.8059 60.7645 11.5037C60.4372 10.8938 59.8177 10.2766 58.6814 10.2766C57.5451 10.2766 56.9256 10.8938 56.5982 11.5037C56.436 11.8059 56.3448 12.1066 56.294 12.3307C56.2686 12.443 56.2531 12.537 56.2439 12.6034C56.2393 12.6366 56.2363 12.663 56.2344 12.6815L56.2324 12.703L56.2319 12.7091L56.2317 12.7109L56.2317 12.7115L56.2317 12.7117C56.2317 12.7118 56.2317 12.7119 56.3813 12.7226Z" fill="white" stroke="#9DA1AB" stroke-width="0.3"/>
<path d="M38.6901 8.60391L38.254 10.9261C38.2108 10.914 38.1601 10.9004 38.1027 10.8865C37.9065 10.8389 37.6308 10.7859 37.3123 10.7647C36.6778 10.7225 35.856 10.8053 35.1587 11.3273L35.0986 11.3723L35.0986 11.4474L35.0989 19.8249H32.1129V9.55869C33.6086 8.55138 35.2698 8.31554 36.5709 8.33608C37.23 8.34648 37.7941 8.42269 38.1929 8.49621C38.3922 8.53296 38.5499 8.56898 38.6574 8.59567C38.6689 8.59853 38.6798 8.60128 38.6901 8.60391Z" fill="white" stroke="#9DA1AB" stroke-width="0.3"/>
<path d="M28.4875 17.2087C28.5314 17.1974 28.5708 17.1871 28.6053 17.1778L28.8976 19.511C28.8525 19.5269 28.7938 19.547 28.7223 19.5702C28.5359 19.6305 28.2626 19.7114 27.9179 19.7923C27.2283 19.9543 26.2543 20.1164 25.1182 20.1164C23.4977 20.1164 21.9761 19.7118 20.8619 18.7584C19.7518 17.8086 19.025 16.2962 19.025 14.0346C19.025 12.2629 19.5892 10.8263 20.5439 9.83366C21.4983 8.84135 22.8541 8.28074 24.461 8.28074C25.6672 8.28074 26.5814 8.58132 27.272 9.05399C27.9633 9.52719 28.4401 10.1795 28.7599 10.8977C29.3747 12.2785 29.4016 13.8878 29.2612 14.8685H21.9967H21.8363L21.847 15.0285L21.9967 15.0185C21.847 15.0285 21.847 15.0286 21.847 15.0287L21.847 15.029L21.8471 15.0298L21.8472 15.0319L21.8478 15.0388C21.8483 15.0445 21.8491 15.0526 21.8502 15.0628C21.8525 15.0831 21.8562 15.112 21.8621 15.1483C21.8738 15.2207 21.8943 15.3228 21.9296 15.4447C22 15.6881 22.13 16.0126 22.3686 16.3375C22.8511 16.9944 23.7603 17.6289 25.4468 17.6289C26.2818 17.6289 27.1139 17.504 27.7351 17.3798C28.0463 17.3176 28.3056 17.2554 28.4875 17.2087ZM21.9967 12.7226L21.847 12.7119L21.8355 12.8726H21.9967H26.5968H26.7579L26.7464 12.7119L26.5968 12.7226C26.7464 12.7119 26.7464 12.7118 26.7464 12.7117L26.7464 12.7115L26.7463 12.7109L26.7462 12.7091L26.7457 12.703L26.7436 12.6815C26.7417 12.663 26.7387 12.6366 26.7342 12.6034C26.725 12.537 26.7095 12.443 26.684 12.3307C26.6333 12.1066 26.5421 11.8059 26.3798 11.5037C26.0525 10.8938 25.433 10.2766 24.2967 10.2766C23.1604 10.2766 22.5409 10.8938 22.2136 11.5037C22.0514 11.8059 21.9602 12.1066 21.9094 12.3307C21.8839 12.443 21.8685 12.537 21.8593 12.6034C21.8547 12.6366 21.8517 12.663 21.8498 12.6815L21.8477 12.703L21.8472 12.7091L21.8471 12.7109L21.8471 12.7115L21.847 12.7117C21.847 12.7118 21.847 12.7119 21.9967 12.7226Z" fill="white" stroke="#9DA1AB" stroke-width="0.3"/>
<path d="M46.2109 16.0984L46.3496 16.4351L46.4883 16.0984C47.4975 13.6486 48.3147 11.1244 48.9324 8.54845H51.9042C51.8967 8.57634 51.8882 8.60721 51.879 8.64096C51.8288 8.82357 51.7539 9.09055 51.6553 9.42742C51.4582 10.1012 51.1662 11.0544 50.787 12.1712C50.0361 14.3832 48.9448 17.2332 47.5734 19.8252H45.1258C43.7545 17.2332 42.6631 14.3829 41.9122 12.1706C41.5331 11.0537 41.2411 10.1003 41.0439 9.42644C40.9453 9.08952 40.8705 8.82249 40.8203 8.63985C40.811 8.60607 40.8026 8.57517 40.795 8.54726L43.7668 8.54687C44.3845 11.1233 45.2016 13.6481 46.2109 16.0984Z" fill="white" stroke="#9DA1AB" stroke-width="0.3"/>
</svg>
