<svg width="40" height="35" viewBox="0 0 40 35" fill="none" xmlns="http://www.w3.org/2000/svg">
<path d="M39.1142 31.1667L32.768 20.178C31.5328 18.091 29.5736 14.641 28.3384 12.5114L22.0348 1.56526C20.7996 -0.521752 18.8404 -0.521752 17.6052 1.56526L11.3016 12.554C10.0665 14.641 8.10722 18.091 6.87205 20.2206L0.525838 31.1667C-0.70933 33.2537 0.312878 35 2.74062 35H36.8994C39.3272 35 40.3068 33.2537 39.1142 31.1667ZM21.0552 28.6112C20.7145 28.9093 20.2885 29.0797 19.82 29.0797C19.3515 29.0797 18.9256 28.9093 18.5849 28.6112C18.2441 28.3131 18.0738 27.8871 18.0738 27.3334C18.0738 26.8649 18.2441 26.439 18.5849 26.0983C18.9256 25.7575 19.3515 25.5872 19.82 25.5872C20.2885 25.5872 20.7145 25.7575 21.0552 26.0983C21.3959 26.439 21.5663 26.8223 21.5663 27.3334C21.5663 27.8871 21.3959 28.3131 21.0552 28.6112ZM21.4811 15.791L20.97 21.4983C20.9274 22.1798 20.7996 22.6909 20.6293 23.0742C20.4589 23.4576 20.1608 23.6279 19.7348 23.6279C19.3089 23.6279 19.0108 23.4576 18.883 23.1168C18.7126 22.7761 18.5849 22.2224 18.5423 21.4983L18.1589 15.9614C18.0738 14.8966 18.0738 14.0873 18.0738 13.6188C18.0738 12.9799 18.2441 12.4688 18.5849 12.1281C18.9256 11.7873 19.3515 11.5744 19.9052 11.5744C20.5867 11.5744 21.0126 11.7873 21.2256 12.2559C21.4385 12.7244 21.5663 13.3633 21.5663 14.2577C21.5663 14.7688 21.5237 15.2799 21.4811 15.791Z" fill="#F08922"/>
</svg>
