<svg width="24" height="20" viewBox="0 0 24 20" fill="none" xmlns="http://www.w3.org/2000/svg">
<path d="M22.5978 14.8242L14.8368 1.87483C14.523 1.3809 14.0906 0.974407 13.5796 0.692835C13.0685 0.411262 12.4952 0.263672 11.9125 0.263672C11.3299 0.263672 10.7566 0.411262 10.2455 0.692835C9.73446 0.974407 9.30208 1.3809 8.98826 1.87483L1.22727 14.8242C0.953114 15.284 0.804103 15.8083 0.795221 16.3444C0.78634 16.8805 0.917903 17.4095 1.17668 17.8783C1.47587 18.4059 1.90893 18.8441 2.4316 19.1482C2.95426 19.4523 3.54781 19.6112 4.15156 19.6089H19.6735C20.2733 19.6154 20.8642 19.4625 21.3865 19.1658C21.9088 18.8691 22.3441 18.439 22.6484 17.919C22.9148 17.4454 23.0506 16.9088 23.0417 16.3647C23.0328 15.8206 22.8795 15.2887 22.5978 14.8242ZM11.9125 15.5368C11.7124 15.5368 11.5168 15.4771 11.3504 15.3652C11.184 15.2534 11.0543 15.0944 10.9777 14.9084C10.9011 14.7223 10.8811 14.5176 10.9201 14.3202C10.9592 14.1227 11.0555 13.9413 11.197 13.7989C11.3386 13.6565 11.5189 13.5596 11.7151 13.5203C11.9114 13.481 12.1149 13.5012 12.2998 13.5782C12.4847 13.6553 12.6427 13.7858 12.7539 13.9532C12.8651 14.1206 12.9244 14.3174 12.9244 14.5188C12.9244 14.7888 12.8178 15.0477 12.628 15.2386C12.4383 15.4296 12.1809 15.5368 11.9125 15.5368ZM12.9244 11.4647C12.9244 11.7347 12.8178 11.9936 12.628 12.1845C12.4383 12.3755 12.1809 12.4827 11.9125 12.4827C11.6442 12.4827 11.3868 12.3755 11.197 12.1845C11.0073 11.9936 10.9007 11.7347 10.9007 11.4647V7.39256C10.9007 7.12256 11.0073 6.86362 11.197 6.6727C11.3868 6.48179 11.6442 6.37453 11.9125 6.37453C12.1809 6.37453 12.4383 6.48179 12.628 6.6727C12.8178 6.86362 12.9244 7.12256 12.9244 7.39256V11.4647Z" fill="#E94444"/>
</svg>
