<svg width="30" height="25" viewBox="0 0 30 25" fill="none" xmlns="http://www.w3.org/2000/svg">
<path d="M28.3425 14.5005L27.2084 0.614746H20.3686C20.3686 0.614746 15.159 11.3043 14.6983 12.7603H14.6274L9.13427 0.614746H2.29445L1.16039 12.6538L0.203522 24.8704H4.38537C6.19279 24.8704 6.90158 24.0891 7.07878 22.1714C7.07878 22.1714 7.78756 10.9846 7.68125 9.35103H7.75212L7.96476 10.0968C8.24828 11.0912 12.1466 20.6443 12.1466 20.6443H17.2853C17.2853 20.6443 21.1837 11.2332 21.6798 9.35103H21.7507L22.3532 22.1714C22.4949 24.0891 23.2392 24.8704 25.0111 24.8704H29.193L28.3425 14.5005Z" fill="#0361F0"/>
</svg>
