<svg width="38" height="38" viewBox="0 0 38 38" fill="none" xmlns="http://www.w3.org/2000/svg">
<circle opacity="0.2" cx="19" cy="19" r="19" fill="#00B713"/>
<circle cx="19.2714" cy="19.2716" r="13.8429" fill="#00B713"/>
<path d="M16.5474 25.5143C16.2948 25.5143 16.0632 25.4267 15.8737 25.2295L11.6842 20.871C11.3053 20.4768 11.3053 19.8635 11.6842 19.4693C12.0632 19.0751 12.6527 19.0751 13.0316 19.4693L16.5684 23.1269L24.9684 14.4099C25.3474 14.0157 25.9369 14.0157 26.3158 14.4099C26.6948 14.8042 26.6948 15.4174 26.3158 15.8117L17.2421 25.2295C17.0316 25.4267 16.8 25.5143 16.5474 25.5143Z" fill="#0B3275"/>
<path d="M16.5474 25.5143C16.2948 25.5143 16.0632 25.4267 15.8737 25.2295L11.6842 20.871C11.3053 20.4768 11.3053 19.8635 11.6842 19.4693C12.0632 19.0751 12.6527 19.0751 13.0316 19.4693L16.5684 23.1269L24.9684 14.4099C25.3474 14.0157 25.9369 14.0157 26.3158 14.4099C26.6948 14.8042 26.6948 15.4174 26.3158 15.8117L17.2421 25.2295C17.0316 25.4267 16.8 25.5143 16.5474 25.5143Z" fill="#F9FBFD"/>
</svg>
