<svg width="375" height="97" viewBox="0 0 375 97" fill="none" xmlns="http://www.w3.org/2000/svg">
<path d="M188.76 97H187.24C88.9654 96.733 23.1111 75.1039 9.43369 61.7527C-5.00359 48.1344 -24 -22.6272 -24 -126.5C-24 -230.373 -5.00359 -301.134 9.43369 -314.753C23.1111 -328.371 88.9654 -349.733 187.24 -350H188.76C287.035 -349.733 352.889 -328.104 366.566 -314.753C381.004 -301.134 400 -230.373 400 -126.5C400 -22.6272 381.004 48.1344 366.566 61.7527C352.889 75.3709 287.035 97 188.76 97Z" fill="#0B3275"/>
<path d="M188.76 97H187.24C88.9654 96.733 23.1111 75.1039 9.43369 61.7527C-5.00359 48.1344 -24 -22.6272 -24 -126.5C-24 -230.373 -5.00359 -301.134 9.43369 -314.753C23.1111 -328.371 88.9654 -349.733 187.24 -350H188.76C287.035 -349.733 352.889 -328.104 366.566 -314.753C381.004 -301.134 400 -230.373 400 -126.5C400 -22.6272 381.004 48.1344 366.566 61.7527C352.889 75.3709 287.035 97 188.76 97Z" fill="url(#paint0_linear)"/>
<defs>
<linearGradient id="paint0_linear" x1="188" y1="-350" x2="188" y2="97" gradientUnits="userSpaceOnUse">
<stop stop-color="#0B3275"/>
<stop offset="1" stop-color="#011537"/>
</linearGradient>
</defs>
</svg>
